<?xml version="1.0" encoding="UTF-8" standalone="no"?>
<svg
   xmlns:dc="http://purl.org/dc/elements/1.1/"
   xmlns:cc="http://creativecommons.org/ns#"
   xmlns:rdf="http://www.w3.org/1999/02/22-rdf-syntax-ns#"
   xmlns:svg="http://www.w3.org/2000/svg"
   xmlns="http://www.w3.org/2000/svg"
   xmlns:sodipodi="http://sodipodi.sourceforge.net/DTD/sodipodi-0.dtd"
   xmlns:inkscape="http://www.inkscape.org/namespaces/inkscape"
   version="1.1"
   id="svg2"
   xml:space="preserve"
   width="199.36266"
   height="199.364"
   viewBox="0 0 199.36266 199.36399"
   sodipodi:docname="Charleston Battery logo.svg"
   inkscape:version="1.0.1 (3bc2e813f5, 2020-09-07)"><metadata
     id="metadata8"><rdf:RDF><cc:Work
         rdf:about=""><dc:format>image/svg+xml</dc:format><dc:type
           rdf:resource="http://purl.org/dc/dcmitype/StillImage" /><dc:title></dc:title></cc:Work></rdf:RDF></metadata><defs
     id="defs6"><clipPath
       clipPathUnits="userSpaceOnUse"
       id="clipPath24"><path
         d="M 0,1100 H 1600 V 0 H 0 Z"
         id="path22" /></clipPath><clipPath
       clipPathUnits="userSpaceOnUse"
       id="clipPath58"><path
         d="M 0,1100 H 1600 V 0 H 0 Z"
         id="path56" /></clipPath><clipPath
       clipPathUnits="userSpaceOnUse"
       id="clipPath92"><path
         d="M 48,115.813 H 310 V 318 H 48 Z"
         id="path90" /></clipPath><clipPath
       clipPathUnits="userSpaceOnUse"
       id="clipPath106"><path
         d="M 343.52,407.043 H 764 V 884 H 343.52 Z"
         id="path104" /></clipPath><clipPath
       clipPathUnits="userSpaceOnUse"
       id="clipPath120"><path
         d="m 836,625.684 h 313.612 V 925.2 H 836 Z"
         id="path118" /></clipPath><clipPath
       clipPathUnits="userSpaceOnUse"
       id="clipPath134"><path
         d="m 835.972,205.535 h 314.64 v 280.328 h -314.64 z"
         id="path132" /></clipPath><clipPath
       clipPathUnits="userSpaceOnUse"
       id="clipPath184"><path
         d="m 1205.51,187.475 h 65.47 V 98.8337 h -65.47 z"
         id="path182" /></clipPath><clipPath
       clipPathUnits="userSpaceOnUse"
       id="clipPath204"><path
         d="m 1215.08,88.8247 h 46.33 V 50.9878 h -46.33 z"
         id="path202" /></clipPath><clipPath
       clipPathUnits="userSpaceOnUse"
       id="clipPath228"><path
         d="m 40.892,919.427 h 151.145 v 151.145 H 40.892 Z"
         id="path226" /></clipPath><clipPath
       clipPathUnits="userSpaceOnUse"
       id="clipPath600"><path
         d="M 0,0 H 1600 V 1100 H 0 Z"
         id="path598" /></clipPath><clipPath
       clipPathUnits="userSpaceOnUse"
       id="clipPath608"><path
         d="m 1259.57,180.186 h 590.55 V 40.2987 h -590.55 z"
         id="path606" /></clipPath></defs><sodipodi:namedview
     pagecolor="#ffffff"
     bordercolor="#666666"
     borderopacity="1"
     objecttolerance="10"
     gridtolerance="10"
     guidetolerance="10"
     inkscape:pageopacity="0"
     inkscape:pageshadow="2"
     inkscape:window-width="1920"
     inkscape:window-height="1136"
     id="namedview4"
     showgrid="false"
     inkscape:zoom="3.0558006"
     inkscape:cx="103.65969"
     inkscape:cy="144.0787"
     inkscape:window-x="0"
     inkscape:window-y="27"
     inkscape:window-maximized="1"
     inkscape:current-layer="g10" /><g
     id="g10"
     inkscape:groupmode="layer"
     inkscape:label="2020_USL_Championship_Media_Guide"
     transform="matrix(1.3333333,0,0,-1.3333333,-55.584132,1426.446)"><g
       id="g222"><g
         id="g224"
         clip-path="url(#clipPath228)"><g
           id="g230"
           transform="translate(116.4491,1069.8345)"><path
             d="m 0,0 c -41.29,0 -74.761,-33.472 -74.761,-74.761 0,-41.29 33.471,-74.762 74.761,-74.762 41.29,0 74.761,33.472 74.761,74.762 C 74.761,-33.472 41.29,0 0,0"
             style="fill:#010101;fill-opacity:1;fill-rule:nonzero;stroke:none"
             id="path232" /></g><g
           id="g234"
           transform="translate(83.8595,993.0045)"><path
             d="m 0,0 c -0.273,0.091 -0.617,-0.109 -0.989,-0.524 l -14.79,4.511 c -0.057,-1.325 -0.339,-2.802 -0.842,-4.302 -0.168,-0.501 -0.356,-0.982 -0.558,-1.445 l 15.11,-5.309 c -0.067,-0.473 -0.355,-1.05 -0.606,-1.318 l -15.141,5.32 c -0.258,-0.471 -0.532,-0.912 -0.818,-1.315 L -3.885,-9.63 c 0.06,-0.579 0.224,-0.963 0.502,-1.055 0.797,-0.265 2.2,1.912 3.134,4.862 C 0.685,-2.872 0.797,-0.265 0,0"
             style="fill:#fecc08;fill-opacity:1;fill-rule:nonzero;stroke:none"
             id="path236" /></g><g
           id="g238"
           transform="translate(141.7761,975.1797)"><path
             d="m 0,0 c -0.332,0.119 -0.761,-0.119 -1.228,-0.621 l -29.557,9.345 -25.209,7.689 c 0.01,-1.464 -0.277,-3.151 -0.853,-4.867 -0.195,-0.58 -0.414,-1.135 -0.653,-1.663 L -2.864,-9.302 c -0.095,-0.376 -0.434,-1.055 -0.691,-1.288 L -58.157,8.583 C -58.439,8.087 -58.74,7.631 -59.053,7.216 l 24.8,-8.824 29.302,-10.423 c 0.088,-0.501 0.264,-0.835 0.538,-0.933 0.966,-0.344 2.738,2.278 3.956,5.858 C 0.762,-3.526 0.966,-0.345 0,0"
             style="fill:#fecc08;fill-opacity:1;fill-rule:nonzero;stroke:none"
             id="path240" /></g><g
           id="g242"
           transform="translate(157.8142,969.1003)"><path
             d="m 0,0 -14.181,4.484 c 0.052,-1.764 -0.278,-3.846 -0.972,-5.915 -0.322,-0.957 -0.708,-1.868 -1.138,-2.708 l 13.034,-4.586 c -0.1,-0.431 -0.446,-0.947 -0.816,-1.258 l -12.941,4.567 c -0.357,-0.57 -0.734,-1.091 -1.124,-1.55 l 14.115,-5.022 c 1.243,1.085 2.493,3.176 3.294,5.563 C 0.073,-4.037 0.337,-1.615 0,0"
             style="fill:#fecc08;fill-opacity:1;fill-rule:nonzero;stroke:none"
             id="path244" /></g><g
           id="g246"
           transform="translate(164.7184,962.7195)"><path
             d="m 0,0 c -0.093,-0.798 -0.27,-1.602 -0.537,-2.395 -0.268,-0.795 -0.617,-1.539 -1.023,-2.223 0.221,-0.055 0.442,-0.091 0.661,-0.091 1.06,0 2.032,0.628 2.372,1.637 C 1.882,-1.857 1.227,-0.527 0,0"
             style="fill:#fecc08;fill-opacity:1;fill-rule:nonzero;stroke:none"
             id="path248" /></g><g
           id="g250"
           transform="translate(160.0564,969.6959)"><path
             d="m 0,0 c -0.153,0.052 -0.308,0.09 -0.464,0.122 0.357,-2.181 0.114,-4.898 -0.82,-7.67 -0.934,-2.771 -2.386,-5.08 -3.991,-6.6 0.143,-0.069 0.29,-0.132 0.443,-0.184 0.423,-0.142 0.858,-0.211 1.296,-0.211 2.521,0 5.155,2.261 6.292,5.633 C 4.09,-4.952 2.856,-0.963 0,0"
             style="fill:#fecc08;fill-opacity:1;fill-rule:nonzero;stroke:none"
             id="path252" /></g><g
           id="g254"
           transform="translate(66.3838,998.1505)"><path
             d="M 0,0 C -0.192,0.086 -0.444,-0.031 -0.727,-0.305 -1.94,0.153 -3.245,0.785 -4.065,1.748 -4.051,1.358 -4.081,1.002 -4.099,0.794 -4.208,-0.451 -4.566,-2.022 -5.108,-3.63 -5.65,-5.238 -6.316,-6.705 -6.983,-7.762 c -0.106,-0.167 -0.282,-0.446 -0.511,-0.732 0.344,0.053 0.692,0.08 1.048,0.08 0.837,0 1.718,-0.141 2.689,-0.387 0.036,-0.402 0.143,-0.673 0.331,-0.758 0.635,-0.286 1.917,1.622 2.863,4.262 C 0.383,-2.657 0.635,-0.286 0,0"
             style="fill:#fecc08;fill-opacity:1;fill-rule:nonzero;stroke:none"
             id="path256" /></g><g
           id="g258"
           transform="translate(60.8498,1000.1813)"><path
             d="m 0,0 c -0.517,-0.509 -1.51,-2.077 -2.397,-4.709 -0.888,-2.632 -1.046,-4.481 -0.943,-5.199 0.516,0.509 1.51,2.077 2.397,4.709 C -0.056,-2.568 0.103,-0.718 0,0"
             style="fill:#fecc08;fill-opacity:1;fill-rule:nonzero;stroke:none"
             id="path260" /></g><g
           id="g262"
           transform="translate(151.7133,983.9142)"><path
             d="m 0,0 c -0.25,0.268 -0.538,0.845 -0.606,1.318 l 15.11,5.309 c -0.201,0.463 -0.389,0.944 -0.557,1.445 -0.504,1.5 -0.786,2.977 -0.843,4.302 L -1.685,7.863 c -0.372,0.416 -0.717,0.615 -0.99,0.524 -0.796,-0.265 -0.685,-2.872 0.249,-5.822 0.935,-2.951 2.338,-5.128 3.134,-4.863 0.278,0.092 0.442,0.476 0.502,1.055 L 15.96,4.005 C 15.673,4.408 15.4,4.849 15.141,5.32 Z"
             style="fill:#fecc08;fill-opacity:1;fill-rule:nonzero;stroke:none"
             id="path264" /></g><g
           id="g266"
           transform="translate(148.6216,984.3595)"><path
             d="M 0,0 C -0.238,0.528 -0.458,1.083 -0.652,1.662 -1.228,3.379 -1.515,5.066 -1.505,6.53 l -25.209,-7.689 -1.995,-0.631 12.426,-3.928 z"
             style="fill:#fecc08;fill-opacity:1;fill-rule:nonzero;stroke:none"
             id="path268" /></g><g
           id="g270"
           transform="translate(94.6771,963.8864)"><path
             d="M 0,0 C -0.257,0.234 -0.596,0.913 -0.691,1.288 L 15.873,7.105 3.046,11.668 -2.327,9.969 c -0.467,0.502 -0.896,0.74 -1.228,0.621 -0.966,-0.345 -0.762,-3.526 0.457,-7.106 1.218,-3.58 2.99,-6.202 3.956,-5.858 0.274,0.098 0.45,0.432 0.538,0.933 l 19.25,6.848 -2.607,0.927 z"
             style="fill:#fecc08;fill-opacity:1;fill-rule:nonzero;stroke:none"
             id="path272" /></g><g
           id="g274"
           transform="translate(149.2794,983.0595)"><path
             d="m 0,0 -14.647,-5.143 2.61,-0.825 12.932,4.601 C 0.582,-0.952 0.282,-0.496 0,0"
             style="fill:#fecc08;fill-opacity:1;fill-rule:nonzero;stroke:none"
             id="path276" /></g><g
           id="g278"
           transform="translate(79.1568,958.4136)"><path
             d="m 0,0 c -0.37,0.311 -0.716,0.827 -0.816,1.258 l 13.034,4.586 c -0.43,0.841 -0.816,1.751 -1.137,2.709 -0.695,2.069 -1.024,4.15 -0.973,5.914 L -4.073,9.983 C -4.41,8.368 -4.146,5.946 -3.344,3.558 -2.543,1.171 -1.293,-0.92 -0.049,-2.004 l 14.115,5.021 c -0.39,0.46 -0.767,0.98 -1.124,1.55 z"
             style="fill:#fecc08;fill-opacity:1;fill-rule:nonzero;stroke:none"
             id="path280" /></g><g
           id="g282"
           transform="translate(68.1798,962.0164)"><path
             d="m 0,0 c -1.227,-0.527 -1.882,-1.857 -1.473,-3.072 0.34,-1.009 1.312,-1.637 2.373,-1.637 0.218,0 0.439,0.036 0.66,0.091 C 1.154,-3.934 0.805,-3.191 0.537,-2.395 0.27,-1.602 0.093,-0.798 0,0"
             style="fill:#fecc08;fill-opacity:1;fill-rule:nonzero;stroke:none"
             id="path284" /></g><g
           id="g286"
           transform="translate(73.3061,969.1147)"><path
             d="m 0,0 c -0.156,-0.032 -0.311,-0.07 -0.464,-0.122 -2.857,-0.963 -4.091,-4.952 -2.756,-8.91 1.136,-3.372 3.771,-5.633 6.292,-5.633 0.438,0 0.873,0.069 1.296,0.211 0.153,0.052 0.3,0.115 0.443,0.184 -1.605,1.52 -3.057,3.829 -3.991,6.6 C -0.115,-4.898 -0.358,-2.181 0,0"
             style="fill:#fecc08;fill-opacity:1;fill-rule:nonzero;stroke:none"
             id="path288" /></g><g
           id="g290"
           transform="translate(171.6227,993.8173)"><path
             d="M 0,0 C -0.542,1.608 -0.9,3.179 -1.01,4.424 -1.028,4.632 -1.058,4.988 -1.043,5.378 -1.863,4.415 -3.169,3.783 -4.381,3.325 -4.665,3.599 -4.916,3.716 -5.108,3.63 -5.743,3.344 -5.491,0.973 -4.545,-1.667 c 0.946,-2.639 2.228,-4.548 2.863,-4.262 0.188,0.084 0.294,0.356 0.331,0.758 0.971,0.246 1.852,0.387 2.689,0.387 0.356,0 0.704,-0.027 1.048,-0.08 C 2.157,-4.578 1.98,-4.299 1.875,-4.132 1.208,-3.075 0.542,-1.608 0,0"
             style="fill:#fecc08;fill-opacity:1;fill-rule:nonzero;stroke:none"
             id="path292" /></g><g
           id="g294"
           transform="translate(174.4457,994.7691)"><path
             d="M 0,0 C -0.887,2.632 -1.881,4.2 -2.397,4.709 -2.5,3.991 -2.342,2.141 -1.454,-0.49 -0.567,-3.122 0.427,-4.69 0.943,-5.199 1.046,-4.481 0.887,-2.632 0,0"
             style="fill:#fecc08;fill-opacity:1;fill-rule:nonzero;stroke:none"
             id="path296" /></g><g
           id="g298"
           transform="translate(80.4982,1012.6243)"><path
             d="m 0,0 -2.169,-5.402 c -0.413,-1.029 -1.149,-1.331 -2.208,-0.906 l -14.163,5.686 c -1.059,0.425 -1.383,1.152 -0.97,2.181 l 2.169,5.402 c 0.425,1.059 1.162,1.379 2.21,0.958 l 4.057,-1.628 -1.039,-2.588 -3.427,1.376 -1.349,-3.359 12.938,-5.194 1.349,3.359 -3.655,1.467 1.039,2.588 4.283,-1.72 C 0.114,1.799 0.425,1.059 0,0"
             style="fill:#fecc08;fill-opacity:1;fill-rule:nonzero;stroke:none"
             id="path300" /></g><g
           id="g302"
           transform="translate(86.2206,1021.1683)"><path
             d="m 0,0 -6.599,5.18 -2.341,-2.982 6.599,-5.18 -1.721,-2.194 -14.699,11.538 1.721,2.193 6.061,-4.756 2.341,2.982 -6.061,4.757 1.737,2.212 L 1.737,2.212 Z"
             style="fill:#fecc08;fill-opacity:1;fill-rule:nonzero;stroke:none"
             id="path304" /></g><g
           id="g306"
           transform="translate(85.0755,1039.33)"><path
             d="m 0,0 3.767,-7.674 2.234,1.586 z m 10.204,-10.363 -2.511,2.566 -2.852,-2.024 1.593,-3.218 -2.253,-1.599 -0.029,0.04 -7.849,17.313 2.394,1.699 13.733,-13.138 0.028,-0.04 z"
             style="fill:#fecc08;fill-opacity:1;fill-rule:nonzero;stroke:none"
             id="path308" /></g><g
           id="g310"
           transform="translate(105.534,1033.5121)"><path
             d="m 0,0 -5.735,7.227 -0.548,1.599 2.592,0.888 -1.922,5.608 -3.332,-1.142 5.289,-15.433 -2.637,-0.904 -6.058,17.677 7.01,2.403 c 1.065,0.365 1.782,0.007 2.152,-1.073 l 2.204,-6.432 C -0.626,9.369 -0.965,8.65 -2.003,8.259 L -2.906,7.95 2.722,1.036 2.753,0.944 Z"
             style="fill:#fecc08;fill-opacity:1;fill-rule:nonzero;stroke:none"
             id="path312" /></g><g
           id="g314"
           transform="translate(110.4938,1034.6641)"><path
             d="m 0,0 -1.189,18.649 2.782,0.177 1.031,-16.159 4.54,0.29 0.159,-2.49 z"
             style="fill:#fecc08;fill-opacity:1;fill-rule:nonzero;stroke:none"
             id="path316" /></g><g
           id="g318"
           transform="translate(119.7329,1035.0009)"><path
             d="M 0,0 3.221,18.406 10.786,17.083 10.36,14.65 5.541,15.493 4.601,10.12 8.745,9.395 8.328,7.01 4.184,7.735 3.172,1.953 8.063,1.097 7.637,-1.336 Z"
             style="fill:#fecc08;fill-opacity:1;fill-rule:nonzero;stroke:none"
             id="path320" /></g><g
           id="g322"
           transform="translate(137.1406,1029.9332)"><path
             d="m 0,0 c -0.39,-0.142 -0.829,-0.098 -1.316,0.129 l -5.098,2.378 c -0.488,0.228 -0.802,0.538 -0.943,0.931 -0.14,0.392 -0.092,0.843 0.145,1.35 l 1.884,4.04 2.527,-1.178 -1.613,-3.458 3.103,-1.448 1.549,3.32 -2.836,7.171 c -0.117,0.288 -0.172,0.547 -0.164,0.777 0.008,0.229 0.088,0.506 0.24,0.831 l 1.755,3.763 c 0.234,0.501 0.546,0.823 0.935,0.964 0.39,0.142 0.829,0.099 1.317,-0.128 L 6.583,17.063 C 7.071,16.836 7.385,16.526 7.525,16.133 7.666,15.74 7.621,15.297 7.392,14.805 L 5.621,11.008 3.094,12.187 4.582,15.379 1.479,16.826 0.055,13.772 2.901,6.624 C 3.011,6.321 3.062,6.054 3.054,5.824 3.046,5.595 2.966,5.318 2.815,4.993 L 0.936,0.965 C 0.702,0.463 0.39,0.142 0,0"
             style="fill:#fecc08;fill-opacity:1;fill-rule:nonzero;stroke:none"
             id="path324" /></g><g
           id="g326"
           transform="translate(151.7792,1038.6799)"><path
             d="m 0,0 -9.9,-12.843 -2.208,1.702 9.9,12.843 -2.422,1.867 1.508,1.956 7.071,-5.45 -1.508,-1.957 z"
             style="fill:#fecc08;fill-opacity:1;fill-rule:nonzero;stroke:none"
             id="path328" /></g><g
           id="g330"
           transform="translate(161.3752,1028.9001)"><path
             d="m 0,0 -2.415,2.986 -10.84,-8.767 2.415,-2.986 z m -10.866,-11.808 c -0.412,0.044 -0.788,0.275 -1.126,0.693 l -3.815,4.717 c -0.697,0.862 -0.602,1.652 0.286,2.369 l 11.866,9.598 c 0.888,0.718 1.68,0.646 2.377,-0.217 L 2.537,0.636 C 2.875,0.218 3.023,-0.198 2.979,-0.611 2.935,-1.023 2.698,-1.404 2.267,-1.753 L -9.6,-11.35 c -0.431,-0.349 -0.853,-0.501 -1.266,-0.458"
             style="fill:#fecc08;fill-opacity:1;fill-rule:nonzero;stroke:none"
             id="path332" /></g><g
           id="g334"
           transform="translate(154.1964,1008.2097)"><path
             d="M 0,0 9.161,8.624 C 9.016,8.547 8.875,8.462 8.737,8.369 8.629,8.289 8.506,8.212 8.369,8.138 8.232,8.063 8.104,8.001 7.983,7.951 L -1.642,3.962 -2.691,6.493 14.572,13.647 15.505,11.396 6.57,2.865 c 0.138,0.092 0.276,0.185 0.415,0.277 0.107,0.081 0.231,0.154 0.372,0.221 0.139,0.067 0.27,0.125 0.39,0.175 l 9.4,3.895 1.049,-2.53 -17.263,-7.154 z"
             style="fill:#fecc08;fill-opacity:1;fill-rule:nonzero;stroke:none"
             id="path336" /></g><g
           id="g338"
           transform="translate(130.5587,948.5481)"><path
             d="m 0,0 c 0.096,0.176 0.143,0.401 0.143,0.678 v 2.871 c 0,0.362 -0.095,0.638 -0.286,0.83 -0.192,0.191 -0.463,0.287 -0.814,0.287 h -3.717 c -0.351,0 -0.622,-0.095 -0.813,-0.284 -0.192,-0.19 -0.287,-0.464 -0.287,-0.821 v -2.66 h 1.786 v 2.218 h 2.345 V 0.541 L -3.876,-0.98 V -1.364 L -1.643,-2.9 v -3.074 h -2.345 v 2.361 h -1.786 v -2.803 c 0,-0.737 0.361,-1.105 1.084,-1.105 h 3.733 c 0.734,0 1.1,0.372 1.1,1.117 v 3.413 c 0,0.277 -0.045,0.5 -0.135,0.67 -0.091,0.17 -0.242,0.314 -0.455,0.431 l -1.148,0.718 1.132,0.733 C -0.25,-0.322 -0.096,-0.175 0,0"
             style="fill:#fecc08;fill-opacity:1;fill-rule:nonzero;stroke:none"
             id="path340" /></g><g
           id="g342"
           transform="translate(102.196,951.6667)"><path
             d="M 0,0 H 0.702 V -10.64 H 2.488 V 1.547 H 0 Z"
             style="fill:#fecc08;fill-opacity:1;fill-rule:nonzero;stroke:none"
             id="path344" /></g><path
           d="m 111.766,947.806 h -2.345 v 3.86 h 2.345 z m 0.67,5.408 h -3.716 c -0.724,0 -1.085,-0.372 -1.085,-1.117 v -4.737 c 0,-0.351 0.093,-0.622 0.28,-0.814 0.187,-0.191 0.457,-0.287 0.809,-0.287 h 3.042 v -3.684 h -2.297 v 2.137 h -1.786 v -2.58 c 0,-0.358 0.096,-0.631 0.287,-0.821 0.191,-0.189 0.462,-0.284 0.813,-0.284 h 3.669 c 0.351,0 0.622,0.096 0.814,0.287 0.191,0.192 0.287,0.468 0.287,0.83 v 9.953 c 0,0.745 -0.373,1.117 -1.117,1.117"
           style="fill:#fecc08;fill-opacity:1;fill-rule:nonzero;stroke:none"
           id="path346" /><path
           d="m 120.555,947.806 h -2.345 v 3.86 h 2.345 z m 0.67,5.408 h -3.716 c -0.724,0 -1.085,-0.372 -1.085,-1.117 v -4.737 c 0,-0.351 0.093,-0.622 0.28,-0.814 0.187,-0.191 0.457,-0.287 0.809,-0.287 h 3.042 v -3.684 h -2.297 v 2.137 h -1.786 v -2.58 c 0,-0.358 0.096,-0.631 0.287,-0.821 0.192,-0.189 0.463,-0.284 0.814,-0.284 h 3.668 c 0.351,0 0.622,0.096 0.814,0.287 0.191,0.192 0.287,0.468 0.287,0.83 v 9.953 c 0,0.745 -0.372,1.117 -1.117,1.117"
           style="fill:#fecc08;fill-opacity:1;fill-rule:nonzero;stroke:none"
           id="path348" /><g
           id="g350"
           transform="translate(115.1818,1023.197)"><path
             d="m 0,0 c -1.058,0 -2.09,-0.114 -3.084,-0.33 6.018,-0.068 10.876,-4.965 10.876,-11 0,-6.076 -4.926,-11.003 -11.003,-11.003 -6.015,0 -10.9,4.828 -10.999,10.819 -0.205,-0.971 -0.314,-1.977 -0.314,-3.01 0,-8.021 6.503,-14.523 14.524,-14.523 8.021,0 14.524,6.502 14.524,14.523 C 14.524,-6.502 8.021,0 0,0"
             style="fill:#fecc08;fill-opacity:1;fill-rule:nonzero;stroke:none"
             id="path352" /></g><g
           id="g354"
           transform="translate(116.4491,927.4097)"><path
             d="m 0,0 c -37.369,0 -67.663,30.294 -67.663,67.663 0,37.37 30.294,67.664 67.663,67.664 37.369,0 67.663,-30.294 67.663,-67.664 C 67.663,30.294 37.369,0 0,0 m 0,138.703 c -39.234,0 -71.039,-31.806 -71.039,-71.04 0,-39.233 31.805,-71.039 71.039,-71.039 39.234,0 71.039,31.806 71.039,71.039 0,39.234 -31.805,71.04 -71.039,71.04"
             style="fill:#fecc08;fill-opacity:1;fill-rule:nonzero;stroke:none"
             id="path356" /></g></g></g></g></svg>
