<svg xmlns="http://www.w3.org/2000/svg" viewBox="0 0 185 200" width="185" height="200">
	<style>
		tspan { white-space:pre }
		.shp0 { fill: #000000 } 
		.shp1 { fill: #00aeef } 
		.shp2 { fill: #3a3a3c } 
		.shp3 { fill: #ffffff } 
	</style>
	<g >
		<path class="shp0" d="M91.34 0.12C91.28 0.19 90.32 0.57 89.21 0.95C88.09 1.34 83.64 2.88 79.32 4.38C74.99 5.88 69.48 7.78 67.06 8.61C64.65 9.44 57.36 11.96 50.88 14.19C44.39 16.43 38.86 18.38 38.58 18.52C38.3 18.66 37.91 18.99 37.7 19.27C37.5 19.54 37.26 20.08 37.17 20.46C37.06 20.93 37.01 31.62 37.01 53.46L37.01 85.77C3.22 106.05 0.82 107.54 0.47 108.07L0.08 108.67L0.08 126.23C0.7 127.54 1.16 128.23 1.49 128.62C1.83 129 2.84 129.78 3.75 130.35C4.66 130.92 5.4 131.44 5.4 131.5C5.4 131.56 5.11 131.71 4.74 131.82C4.38 131.94 3.68 132.25 3.18 132.51C2.67 132.78 1.96 133.35 1.58 133.77C1.2 134.19 0.78 134.75 0.65 135C0.52 135.25 0.32 135.81 0.21 136.23C0.05 136.83 0 138.82 0.01 145C0.01 152.35 0.03 153.05 0.28 153.62C0.43 153.95 0.83 154.44 1.15 154.69C1.64 155.07 1.93 155.16 2.69 155.21C3.2 155.23 5.84 155.04 8.56 154.78C11.27 154.52 18.21 153.86 23.97 153.3C29.74 152.75 35.03 152.25 35.73 152.19L37 152.08C37 174.1 37.06 179.37 37.16 179.73C37.24 180.05 37.54 180.57 37.82 180.88C38.22 181.33 38.66 181.58 39.71 181.96C40.47 182.23 43.62 183.33 46.71 184.4C49.81 185.46 56.95 187.93 62.59 189.87C68.23 191.81 76.97 194.83 82.02 196.57C87.06 198.31 91.21 199.8 91.23 199.87C91.25 199.94 91.79 200 92.42 200C93.06 200 93.6 199.94 93.62 199.87C93.64 199.81 99.24 197.82 106.07 195.47C112.89 193.12 121.98 189.98 126.26 188.5C130.54 187.03 136.75 184.89 140.06 183.75C143.37 182.61 146.32 181.52 146.61 181.33C146.91 181.14 147.31 180.67 147.5 180.3L147.84 179.62C147.83 120.5 147.87 114.35 148.03 114.21C148.14 114.11 156.17 109.28 165.88 103.46C175.59 97.65 183.76 92.67 184.04 92.41C184.32 92.14 184.62 91.68 184.71 91.38C184.81 91.04 184.85 87.38 184.82 81.15L184.77 71.45C184 69.88 183.48 69.17 183.05 68.76C182.64 68.37 182.16 67.97 181.99 67.87C181.82 67.76 181.75 67.65 181.84 67.61C181.92 67.58 182.27 67.33 182.61 67.06C182.95 66.8 183.45 66.29 183.72 65.94C184 65.59 184.36 64.91 184.53 64.42C184.83 63.58 184.85 63.19 184.85 55.23C184.85 49.73 184.79 46.78 184.68 46.5C184.59 46.27 184.33 45.88 184.1 45.63C183.88 45.39 183.46 45.1 183.19 44.98C182.91 44.86 182.38 44.77 181.99 44.77C181.61 44.77 178.06 45.08 174.09 45.46C170.13 45.84 163.24 46.49 158.79 46.92C154.34 47.34 150.11 47.75 149.39 47.82C148.67 47.9 148.03 47.93 147.96 47.9C147.9 47.87 147.84 41.67 147.84 34.12L147.84 20.38C147.31 19.33 146.91 18.86 146.61 18.67C146.32 18.48 143.92 17.59 141.29 16.69C138.67 15.79 134.64 14.4 132.35 13.61C130.06 12.82 125.45 11.23 122.1 10.07C118.75 8.92 114.14 7.32 111.85 6.54C109.56 5.75 105.88 4.48 103.68 3.72C101.47 2.96 98.32 1.87 96.66 1.3C95.01 0.73 93.64 0.2 93.62 0.13C93.6 0.06 93.1 0 92.51 0C91.92 0 91.39 0.06 91.34 0.12Z" />
		<path fill-rule="evenodd" class="shp1" d="M92.38 2.93C92.45 2.93 95.22 3.86 98.55 5.01C101.88 6.16 106.58 7.78 109 8.61C111.41 9.45 116.03 11.04 119.25 12.15C122.47 13.27 126.05 14.5 127.2 14.9C128.35 15.29 132.81 16.83 144.92 21L144.84 43.56L133.51 47.48C127.28 49.63 121.29 51.7 120.21 52.08C119.05 52.49 118.21 52.71 118.17 52.62C118.13 52.53 121.18 50.09 131.81 41.92L131.82 30.38L127.08 28.74C124.47 27.84 119.8 26.22 116.7 25.15C113.61 24.08 109.1 22.53 106.68 21.7C104.27 20.86 100.07 19.42 92.42 16.79L74.39 23.03C64.46 26.46 55.64 29.5 53.19 30.31L53.19 56.54C53.19 70.97 53.2 82.77 53.23 82.77C53.25 82.77 56.59 81.62 60.66 80.21C64.73 78.81 70.67 76.77 73.85 75.69C77.03 74.6 81.53 73.06 83.87 72.26C86.2 71.45 90.05 70.13 92.42 69.31C94.8 68.49 98.54 67.2 100.75 66.44C102.95 65.68 106.7 64.37 109.07 63.54C111.45 62.7 119.84 59.8 127.73 57.08C135.61 54.36 142.72 51.91 143.53 51.63C144.64 51.25 145.48 51.08 147 50.94C148.1 50.84 151.15 50.55 153.78 50.3C156.41 50.05 160.36 49.67 162.57 49.46C164.77 49.25 168.73 48.87 171.36 48.62C173.98 48.37 177.18 48.06 178.45 47.94C179.72 47.82 180.77 47.73 180.79 47.75C180.81 47.76 180.77 47.85 180.71 47.95C180.65 48.05 171.45 51.29 160.26 55.15C149.06 59.02 137.22 63.11 133.93 64.24C130.65 65.38 125.24 67.25 121.91 68.4C118.58 69.55 114.16 71.08 112.08 71.8C110 72.51 100.98 75.63 92.04 78.72C83.09 81.81 73.07 85.27 69.76 86.41C66.45 87.55 61.87 89.13 59.59 89.93C57.3 90.72 51.99 92.55 47.79 94C43.59 95.45 33.05 99.12 24.36 102.15C15.67 105.19 7.57 108.02 6.36 108.45C5.15 108.88 4.13 109.23 4.09 109.23C4.04 109.23 4.03 109.16 4.05 109.07C4.07 108.98 12.13 104.08 39.85 87.45L40.01 21L42.55 20.13C43.95 19.65 53.45 16.38 63.67 12.85C73.89 9.32 84.5 5.65 87.26 4.69C90.01 3.73 92.32 2.94 92.38 2.93ZM91.95 31.23C92.35 31.22 92.73 31.34 93 31.53C93.23 31.71 93.55 32.17 93.69 32.58C93.86 33.03 93.96 33.75 93.96 34.46C93.96 35.17 93.86 35.9 93.69 36.35C93.55 36.75 93.23 37.22 93 37.39C92.74 37.58 92.34 37.7 91.96 37.7C91.49 37.7 91.24 37.6 90.91 37.28C90.67 37.04 90.38 36.5 90.25 36.08C90.13 35.65 90.03 34.93 90.03 34.46C90.03 34 90.13 33.27 90.26 32.85C90.39 32.42 90.68 31.89 90.91 31.65C91.22 31.33 91.47 31.23 91.95 31.23ZM87.41 31.42C87.95 31.4 88.19 31.47 88.46 31.73C88.79 32.06 88.81 32.18 88.8 37.08L88.38 37.39C88.02 37.65 87.72 37.7 85.25 37.69L85.25 35.12C85.25 33.7 85.19 32.31 84.95 31.54L85.83 31.49C86.32 31.46 87.03 31.43 87.41 31.42ZM98.67 31.38C99.18 31.38 99.71 31.44 99.84 31.5C99.98 31.56 100.19 31.81 100.31 32.04C100.42 32.27 100.52 32.67 100.52 32.92C100.52 33.35 100.48 33.39 99.94 33.39C99.51 33.4 99.3 33.31 99.13 33.06C98.97 32.83 98.81 32.75 98.63 32.82C98.48 32.88 98.36 33.08 98.35 33.27C98.35 33.46 98.43 33.69 98.54 33.79C98.65 33.88 99.08 34.09 99.5 34.25C99.91 34.41 100.31 34.66 100.38 34.81C100.46 34.96 100.52 35.54 100.52 36.12C100.52 36.94 100.46 37.22 100.21 37.5C99.95 37.79 99.74 37.85 98.9 37.85C98.03 37.85 97.84 37.79 97.51 37.46C97.23 37.18 97.13 36.91 97.13 35.85L97.74 35.85C98.23 35.85 98.37 35.91 98.44 36.15C98.48 36.33 98.64 36.46 98.82 36.46C99.08 36.46 99.12 36.37 99.09 35.9C99.06 35.39 98.99 35.32 98.28 35.05C97.86 34.88 97.42 34.66 97.31 34.56C97.18 34.45 97.11 33.98 97.12 33.19C97.12 32.21 97.18 31.95 97.43 31.69C97.67 31.45 97.95 31.38 98.67 31.38ZM82.17 31.69C82.63 31.69 82.81 31.76 82.86 31.96C82.89 32.11 83.21 33.42 83.55 34.88C83.89 36.34 84.17 37.61 84.17 37.69C84.17 37.78 83.86 37.85 83.48 37.85C82.88 37.85 82.78 37.8 82.75 37.5C82.72 37.22 82.6 37.15 82.13 37.12C81.61 37.08 81.55 37.12 81.48 37.5C81.41 37.86 81.3 37.94 80.74 38.04C80.38 38.1 80.07 38.14 80.06 38.12C80.04 38.09 80.33 36.73 80.71 35.08C81.09 33.43 81.44 31.99 81.48 31.88C81.52 31.77 81.81 31.69 82.17 31.69ZM101.83 31.65L103.02 31.75C103.68 31.8 104.3 31.88 104.41 31.92C104.52 31.96 104.72 32.23 104.87 32.53C105.04 32.87 105.14 33.43 105.14 34C105.14 34.51 105.07 35.11 104.98 35.35C104.88 35.58 104.73 35.82 104.63 35.88C104.53 35.94 104.19 36 103.29 36L103.29 38L102.68 38C102.32 38 102.03 37.92 101.99 37.81C101.95 37.7 101.9 36.27 101.87 34.63L101.83 31.65ZM78.19 32.15C78.37 32.2 78.61 32.37 78.73 32.54C78.86 32.73 78.94 33.28 78.93 33.96C78.93 34.69 78.85 35.23 78.69 35.5C78.47 35.9 78.48 35.99 79.4 38.15L79.05 38.23C78.86 38.27 78.51 38.3 78.28 38.31C77.92 38.31 77.83 38.22 77.66 37.69C77.56 37.35 77.38 37.04 77.28 37C77.14 36.94 77.08 37.14 77.08 37.69C77.08 38.41 77.06 38.46 76.7 38.46C76.49 38.46 76.21 38.5 76.08 38.54C75.88 38.61 75.85 38.19 75.83 32.33L76.49 32.24C76.86 32.2 77.32 32.14 77.51 32.12C77.7 32.09 78 32.11 78.19 32.15ZM107.1 32.1C107.51 32.14 108.1 32.25 108.42 32.32C108.74 32.4 109.1 32.62 109.23 32.81C109.39 33.04 109.46 33.54 109.46 34.35C109.46 35.15 109.38 35.65 109.23 35.88C109.01 36.2 109.03 36.32 109.38 37.27C109.59 37.84 109.77 38.38 109.77 38.46C109.77 38.55 109.47 38.6 109.11 38.58C108.49 38.54 108.44 38.5 108.23 37.88C108.1 37.53 107.91 37.2 107.8 37.15C107.66 37.1 107.61 37.28 107.61 38.46L107.03 38.36C106.71 38.31 106.44 38.26 106.42 38.25C106.41 38.24 106.39 36.88 106.38 35.23C106.37 33.58 106.36 32.18 106.37 32.12C106.37 32.06 106.7 32.05 107.1 32.1ZM73.23 32.54C73.44 32.59 73.79 32.81 74.01 33.04C74.27 33.31 74.48 33.8 74.61 34.38C74.73 34.94 74.77 35.68 74.71 36.23C74.66 36.74 74.46 37.46 74.27 37.84C74.08 38.21 73.75 38.65 73.54 38.81C73.31 38.98 72.9 39.1 72.54 39.09C72.1 39.09 71.82 38.99 71.57 38.74C71.37 38.54 71.15 38.18 71.08 37.92C71 37.67 70.89 37.15 70.84 36.77C70.78 36.39 70.81 35.63 70.9 35.08C71 34.53 71.23 33.83 71.42 33.54C71.61 33.24 72.01 32.88 72.31 32.73C72.62 32.57 73.01 32.49 73.23 32.54Z" />
		<path class="shp0" d="M91.69 32.97C91.59 33.15 91.51 33.83 91.51 34.46C91.51 35.1 91.59 35.77 91.7 35.96C91.8 36.15 91.95 36.31 92.04 36.31C92.12 36.31 92.26 36.13 92.35 35.92C92.43 35.71 92.5 35.07 92.5 34.5C92.5 33.93 92.44 33.3 92.38 33.11C92.32 32.92 92.18 32.73 92.07 32.69C91.97 32.66 91.79 32.78 91.69 32.97Z" />
		<path class="shp1" d="M111 35.69C111 37.38 111.05 38.8 111.12 38.83C111.18 38.86 111.47 38.92 111.77 38.95L112.31 39L112.4 32.85C111.61 32.66 111.3 32.61 111.19 32.61C111.05 32.61 111 33.33 111 35.69Z" />
		<path class="shp0" d="M86.5 34.53C86.49 35.94 86.52 36.17 86.76 36.25C86.91 36.31 87.13 36.28 87.26 36.2C87.44 36.08 87.49 35.7 87.49 34.52L87.49 33L86.51 32.9L86.5 34.53ZM103.31 33.91C103.3 34.53 103.35 34.75 103.48 34.72C103.6 34.69 103.68 34.39 103.68 33.92C103.68 33.51 103.6 33.15 103.5 33.12C103.39 33.07 103.32 33.34 103.31 33.91Z" />
		<path class="shp1" d="M113.93 36.15C113.93 38.75 113.97 39.24 114.16 39.31C114.29 39.35 114.6 39.38 114.85 39.38L115.32 39.38C115.32 37.14 115.37 36.77 115.51 36.77C115.62 36.76 115.82 37.01 115.97 37.3C116.14 37.64 116.24 38.19 116.24 38.73C116.23 39.6 116.24 39.62 116.74 39.73C117.02 39.8 117.33 39.85 117.44 39.85C117.58 39.85 117.63 39.13 117.63 36.77C117.63 35.08 117.58 33.67 117.51 33.64C117.45 33.6 117.14 33.54 116.82 33.48L116.24 33.38C116.24 34.58 116.19 34.92 116.13 34.92C116.06 34.92 115.84 34.6 115.63 34.2C115.41 33.81 115.15 33.39 115.05 33.28C114.94 33.17 114.65 33.08 114.39 33.08L113.93 33.08L113.93 36.15ZM67.6 33.52L67.14 33.62L67.06 39.85C67.84 39.74 68.53 39.63 69.11 39.54L70.15 39.38L70.15 38L68.45 38.15C68.39 34.42 68.31 33.47 68.22 33.45C68.13 33.44 67.86 33.47 67.6 33.52Z" />
		<path class="shp0" d="M77.06 34.18C77.08 34.59 77.15 34.77 77.31 34.77C77.48 34.77 77.54 34.61 77.52 34.18C77.5 33.77 77.42 33.59 77.26 33.59C77.09 33.59 77.04 33.75 77.06 34.18ZM107.61 34.23C107.61 34.61 107.68 34.77 107.84 34.77C108 34.77 108.07 34.61 108.07 34.23C108.07 33.85 108 33.69 107.84 33.69C107.68 33.69 107.61 33.85 107.61 34.23Z" />
		<path class="shp1" d="M63.4 34.3C63.13 34.47 62.76 34.89 62.59 35.23C62.42 35.57 62.22 36.28 62.13 36.81C62.04 37.38 62.03 38.11 62.11 38.62C62.18 39.08 62.32 39.6 62.4 39.77C62.49 39.94 62.71 40.22 62.9 40.38C63.1 40.57 63.44 40.69 63.73 40.68C63.99 40.67 64.42 40.53 64.67 40.35C64.94 40.18 65.28 39.71 65.48 39.25C65.67 38.82 65.87 38.06 65.92 37.58C65.98 37.09 65.94 36.31 65.85 35.85C65.75 35.38 65.51 34.81 65.33 34.57C65.11 34.3 64.78 34.11 64.44 34.06C64.06 34.01 63.76 34.08 63.4 34.3Z" />
		<path class="shp0" d="M72.48 34.38C72.38 34.6 72.3 35.31 72.3 35.96C72.3 36.76 72.37 37.25 72.52 37.46C72.71 37.72 72.78 37.73 72.95 37.57C73.06 37.45 73.2 37 73.26 36.57C73.33 36.13 73.33 35.49 73.28 35.15C73.23 34.82 73.13 34.42 73.05 34.27C72.98 34.12 72.86 34 72.79 34C72.71 34 72.57 34.17 72.48 34.38Z" />
		<path class="shp1" d="M119.31 34.32C118.99 34.62 118.98 34.75 119.04 37.15C119.09 39.59 119.11 39.68 119.48 40.06C119.72 40.31 120.17 40.52 120.71 40.63C121.18 40.73 121.72 40.76 121.91 40.71C122.12 40.65 122.31 40.43 122.41 40.12C122.5 39.84 122.57 39.18 122.57 38.65C122.56 37.9 122.51 37.66 122.29 37.55C122.14 37.48 121.76 37.37 121.44 37.32L120.87 37.23C120.87 38.18 120.94 38.46 121.02 38.46C121.11 38.46 121.18 38.63 121.18 38.85C121.18 39.15 121.11 39.22 120.83 39.19C120.49 39.16 120.48 39.09 120.44 37.35C120.42 36.22 120.46 35.54 120.56 35.54C120.64 35.54 120.82 35.57 120.94 35.62C121.07 35.66 121.18 35.87 121.18 36.08C121.18 36.4 121.28 36.49 121.79 36.62C122.26 36.73 122.43 36.72 122.51 36.58C122.56 36.47 122.55 36.07 122.49 35.69C122.42 35.31 122.22 34.86 122.04 34.68C121.86 34.5 121.35 34.28 120.91 34.18C120.46 34.08 119.99 34 119.86 34C119.74 34 119.49 34.14 119.31 34.32Z" />
		<path class="shp0" d="M82.01 35.04C81.9 35.07 81.81 35.27 81.83 35.47C81.85 35.73 81.96 35.85 82.17 35.85C82.43 35.85 82.46 35.78 82.38 35.42C82.33 35.19 82.27 34.99 82.25 34.98C82.24 34.98 82.13 35 82.01 35.04Z" />
		<path class="shp1" d="M58.89 35.25C58.59 35.32 58.18 35.56 57.97 35.78C57.59 36.17 57.58 36.25 57.54 38.67C57.51 40.69 57.54 41.22 57.73 41.5C57.86 41.69 58.12 41.85 58.31 41.85C58.5 41.85 59.02 41.74 59.47 41.62C60 41.46 60.39 41.24 60.59 40.96C60.81 40.67 60.9 40.31 60.9 39.81C60.9 39.09 60.89 39.08 60.47 39.17C60.24 39.22 59.96 39.29 59.86 39.32C59.75 39.36 59.66 39.52 59.66 39.69C59.66 39.86 59.52 40.07 59.35 40.15C59.18 40.24 59.01 40.31 58.97 40.31C58.93 40.31 58.91 39.49 58.93 38.5C58.97 36.75 58.98 36.69 59.32 36.65C59.58 36.62 59.66 36.69 59.66 36.96C59.66 37.27 59.7 37.3 60.16 37.19C60.44 37.13 60.72 37.07 60.78 37.08C60.84 37.08 60.9 36.77 60.9 36.38C60.9 36 60.83 35.55 60.74 35.38C60.63 35.15 60.44 35.08 60.01 35.09C59.69 35.1 59.19 35.17 58.89 35.25ZM123.94 35.37C123.85 35.54 123.77 36.13 123.78 36.68C123.79 37.24 123.87 37.83 123.95 38C124.03 38.17 124.49 38.52 124.95 38.77C125.73 39.19 125.8 39.28 125.8 39.77C125.8 40.18 125.74 40.3 125.55 40.27C125.41 40.25 125.22 40.09 125.12 39.92C125.03 39.75 124.95 39.6 124.95 39.59C124.95 39.58 124.69 39.53 124.37 39.48L123.8 39.38C123.8 40.46 123.9 40.73 124.22 41.07C124.53 41.41 124.89 41.58 125.61 41.72C126.48 41.91 126.59 41.9 126.84 41.65C127.01 41.48 127.13 41.06 127.17 40.57C127.2 40.13 127.15 39.51 127.05 39.19C126.91 38.72 126.71 38.52 125.99 38.11C125.23 37.67 125.11 37.53 125.11 37.15C125.11 36.84 125.19 36.68 125.38 36.66C125.54 36.63 125.7 36.75 125.78 36.96C125.86 37.18 126.1 37.35 126.43 37.42C126.72 37.49 127.03 37.54 127.11 37.54C127.21 37.54 127.22 37.29 127.16 36.89C127.1 36.53 126.91 36.06 126.75 35.85C126.59 35.63 126.19 35.38 125.86 35.28C125.53 35.18 125 35.1 124.69 35.09C124.27 35.08 124.06 35.16 123.94 35.37Z" />
		<path class="shp0" d="M63.69 35.92C63.59 36.13 63.52 36.83 63.52 37.46C63.52 38.1 63.55 38.72 63.59 38.85C63.64 38.97 63.77 39.08 63.9 39.08C64.03 39.08 64.2 38.94 64.29 38.77C64.37 38.6 64.44 37.94 64.44 37.31C64.44 36.67 64.37 36.02 64.29 35.85C64.2 35.68 64.07 35.54 64 35.54C63.92 35.54 63.79 35.71 63.69 35.92Z" />
		<path class="shp2" d="M90.11 49.85C88.92 50.27 86.7 51.04 85.18 51.57C83.65 52.09 80.67 53.12 78.55 53.85L74.69 55.18C74.63 70.84 74.65 75.38 74.69 75.38C74.74 75.38 75.86 75.01 77.2 74.55C78.53 74.09 81.53 73.06 83.87 72.26C86.2 71.46 90.05 70.13 92.42 69.31C94.8 68.49 98.54 67.2 100.75 66.44C102.95 65.67 106.01 64.62 107.53 64.08L110.31 63.12C110.37 56.13 110.34 55.21 110.19 55.16C110.08 55.12 106.08 53.74 101.29 52.09C96.5 50.44 92.51 49.09 92.42 49.09C92.34 49.09 91.3 49.44 90.11 49.85Z" />
		<path class="shp3" d="M171.9 56.52C169.39 57.38 167.26 58.14 167.16 58.2C167.01 58.28 166.96 59.58 166.96 63.85L166.96 69.38C173.24 73.36 175.18 74.63 175.33 74.76C175.57 74.97 175.6 75.27 175.6 77.15C175.59 78.34 175.53 79.9 175.45 80.62C175.38 81.33 175.23 82.23 175.13 82.62C175.02 83 174.76 83.49 174.54 83.7C174.28 83.95 173.5 84.31 172.44 84.67C171.5 84.98 170.69 85.23 170.62 85.23C170.56 85.23 170.51 84.75 170.51 84.15C170.51 83.3 170.6 82.85 170.98 81.96C171.24 81.35 171.42 80.76 171.37 80.65C171.3 80.51 170.73 80.66 169.19 81.19L167.11 81.92C167.11 88.3 167.15 90.15 167.19 90.15C167.24 90.15 169.16 89.51 171.47 88.71C173.78 87.92 175.83 87.2 176.02 87.1C176.21 87 176.65 86.66 177 86.35C177.35 86.03 177.8 85.44 178 85.04C178.21 84.64 178.48 83.91 178.61 83.42C178.73 82.94 178.91 81.71 179 80.69C179.09 79.64 179.11 77.56 179.05 75.85L178.95 72.85L170.51 67.46L170.59 60.72C174.23 59.45 175.36 59.11 175.44 59.15C175.53 59.2 175.6 60.13 175.6 61.46C175.6 63.17 175.64 63.68 175.79 63.64C175.89 63.61 176.66 63.35 177.49 63.06L178.99 62.54L178.98 57.62C177.35 55.42 176.88 54.93 176.71 54.94C176.57 54.95 174.4 55.66 171.9 56.52Z" />
		<path class="shp0" d="M88.11 57.45C87.83 57.73 87.73 58.01 87.73 58.49C87.73 58.94 87.83 59.27 88.03 59.5C88.34 59.85 88.34 59.85 88.03 60C87.84 60.1 87.69 60.37 87.63 60.73C87.58 61.05 87.61 61.57 87.71 61.88C87.8 62.2 88.01 62.53 88.18 62.62C88.35 62.7 89.15 62.77 89.96 62.77C91.22 62.77 91.46 62.73 91.73 62.46C91.97 62.22 92.04 61.95 92.04 61.15C92.04 60.31 91.99 60.13 91.73 60C91.42 59.85 91.42 59.85 91.73 59.42C91.92 59.17 92.05 58.77 92.04 58.42C92.04 58.02 91.92 57.73 91.65 57.46C91.3 57.11 91.15 57.08 89.87 57.08C88.6 57.08 88.45 57.11 88.11 57.45ZM84.17 57.58C83.96 57.77 83.58 58.07 83.32 58.25L82.86 58.57C83.37 59.24 83.58 59.36 83.75 59.31C83.99 59.24 84.02 59.36 84.02 60.31L84.02 61.38C82.95 61.38 82.94 61.4 82.94 62L82.94 62.62L86.64 62.62C86.64 61.42 86.62 61.38 86.14 61.35L85.64 61.31L85.56 57.23C84.77 57.24 84.4 57.38 84.17 57.58ZM92.96 57.85L92.96 58.46L95.73 58.54L93.92 62.54C95.03 62.6 95.4 62.57 95.46 62.5C95.51 62.44 95.85 61.73 96.2 60.92C96.55 60.12 97.01 59.1 97.22 58.65C97.42 58.21 97.59 57.71 97.59 57.54C97.59 57.24 97.48 57.23 95.28 57.23L92.96 57.23L92.96 57.85ZM99.28 57.78C98.9 58.08 98.52 58.39 98.44 58.46C98.34 58.55 98.41 58.76 98.63 59.07C98.92 59.46 99.01 59.51 99.22 59.35C99.44 59.17 99.46 59.27 99.41 60.23L99.36 61.31C98.38 61.38 98.36 61.42 98.36 62L98.36 62.62L102.06 62.62C102.06 61.4 102.05 61.38 101.52 61.38L100.98 61.38L100.98 57.23C100.14 57.23 99.75 57.41 99.28 57.78Z" />
		<path class="shp2" d="M89.26 58.77C89.26 59.21 89.3 59.23 89.88 59.23C90.46 59.23 90.5 59.21 90.5 58.77C90.5 58.33 90.46 58.31 89.88 58.31C89.3 58.31 89.26 58.33 89.26 58.77Z" />
		<path class="shp3" d="M160.87 60.28L158.87 61C154.84 69.97 154.53 70.57 154.36 70.34C154.21 70.15 154.16 69.15 154.17 66.46C154.17 64.47 154.14 62.81 154.1 62.77C154.06 62.73 153.14 62.99 152.05 63.35C150.97 63.71 149.79 64.1 149.43 64.23C149.07 64.36 148.77 64.51 148.77 64.58C148.77 64.64 149.22 65.33 149.77 66.12L150.78 67.54L150.77 92.08C148.74 95.36 148.15 96.38 148.15 96.46C148.15 96.55 148.24 96.61 148.35 96.61C148.45 96.61 149.8 96.18 151.35 95.65L154.16 94.69C154.15 83.76 154.18 82.98 154.39 82.81C154.59 82.65 154.66 82.67 154.8 82.96C154.9 83.15 156.27 85.34 157.85 87.81C159.43 90.29 160.79 92.32 160.87 92.32C160.96 92.31 161.74 92.05 162.61 91.73L164.2 91.15C164.19 87.79 164.12 86.89 164.03 86.85C163.95 86.8 163.6 87.15 163.26 87.62C162.92 88.08 162.59 88.46 162.53 88.46C162.47 88.46 160.83 85.95 158.9 82.88L155.38 77.31C161.4 63.95 163.17 59.96 163.18 59.81C163.2 59.66 163.13 59.55 163.04 59.55C162.95 59.56 161.98 59.89 160.87 60.28Z" />
		<path class="shp2" d="M89.11 60.85L89.11 61.38L90.65 61.38L90.65 60.31L89.11 60.31L89.11 60.85ZM154.17 66.42C154.21 68.52 154.3 70.33 154.38 70.46C154.5 70.67 154.53 70.67 154.65 70.46C154.72 70.33 154.78 70.16 154.78 70.08C154.78 69.99 154.71 70.03 154.63 70.15C154.53 70.31 154.48 69.06 154.48 66.5C154.48 63.5 154.43 62.62 154.28 62.62C154.13 62.62 154.11 63.44 154.17 66.42Z" />
		<path class="shp3" d="M137.99 68.19C134.06 69.55 130.85 70.74 130.87 70.83C130.89 70.93 131.52 71.52 132.27 72.15L133.64 73.31C133.75 92.31 133.79 93.4 134.03 94.23C134.18 94.74 134.52 95.6 134.79 96.15C135.06 96.69 135.61 97.47 136.01 97.88C136.42 98.28 137.14 98.81 137.63 99.04C138.34 99.37 138.74 99.46 139.6 99.46C140.45 99.45 140.86 99.37 141.53 99.04C141.99 98.82 142.66 98.33 143.02 97.97C143.37 97.61 143.91 96.89 144.22 96.38C144.52 95.88 144.94 94.94 145.14 94.31C145.34 93.67 145.62 92.43 145.75 91.54C145.88 90.65 145.98 89.2 145.98 88.31C145.97 87.42 145.94 86.62 145.9 86.54C145.85 86.45 145.15 86.61 144.18 86.94L142.53 87.5C142.47 88.9 142.38 89.97 142.28 90.77C142.18 91.57 141.97 92.65 141.8 93.15C141.64 93.66 141.33 94.37 141.13 94.73C140.92 95.09 140.53 95.52 140.25 95.69C139.98 95.86 139.61 96 139.44 95.99C139.27 95.99 138.89 95.73 138.58 95.42C138.28 95.1 137.86 94.43 137.66 93.92L137.29 93L137.21 72.15C140.67 70.96 141.75 70.62 141.83 70.62C141.93 70.62 141.99 71.51 141.99 73L141.99 75.38C142.64 75.23 143.41 74.99 144.11 74.75L145.38 74.31C145.38 67.63 145.33 65.7 145.26 65.7C145.2 65.71 141.93 66.83 137.99 68.19Z" />
		<path class="shp2" d="M145.39 69.99C145.38 72.78 145.43 74.31 145.53 74.31C145.63 74.31 145.69 72.79 145.71 70.09C145.72 67.37 145.67 65.83 145.57 65.77C145.46 65.71 145.41 67.1 145.39 69.99Z" />
		<path class="shp3" d="M123.03 73.36C120.69 74.18 118.7 74.9 118.59 74.96C118.46 75.04 118.4 75.59 118.4 76.85L118.4 78.62C119.06 78.46 119.4 78.36 119.59 78.29C119.81 78.2 119.97 78.21 120.02 78.31C120.06 78.39 119.68 81.25 119.16 84.65C118.65 88.06 118.03 92.2 117.78 93.85C117.54 95.5 117.09 98.47 116.78 100.46C116.48 102.45 116.13 104.8 116 105.69C115.87 106.58 115.82 107.36 115.89 107.43C115.95 107.5 116.91 106.43 118.01 105.04L120.02 102.52C122.29 102.37 123.45 102.18 124.07 102.01C124.68 101.83 125.58 101.49 126.07 101.25C126.56 101.01 127.18 100.63 127.46 100.4C127.78 100.14 128.03 100.05 128.15 100.13C128.26 100.2 129.21 100.93 130.27 101.75C131.33 102.57 132.24 103.18 132.3 103.12C132.36 103.05 131.27 98.88 129.89 93.85C128.51 88.81 126.89 82.89 126.28 80.69C125.68 78.49 125.19 76.59 125.19 76.46C125.19 76.33 125.75 75.3 126.43 74.15C127.11 73.01 127.66 72.03 127.66 71.96C127.65 71.9 127.56 71.85 127.46 71.86C127.35 71.86 125.36 72.54 123.03 73.36ZM105.91 79.31C103.84 80.01 101.15 80.93 99.94 81.33C98.73 81.74 97.74 82.13 97.74 82.19C97.74 82.26 98.07 82.62 98.47 83C98.88 83.39 99.5 83.92 99.86 84.2L100.51 84.69L100.53 109.31C98.36 112.88 97.73 113.98 97.74 114.04C97.74 114.1 97.76 114.15 97.78 114.15C97.8 114.16 101.01 113.05 104.91 111.71L112 109.26L112.08 94L111.39 93.41C112.07 92.69 112.07 92.68 112.08 86.73L112.08 80.77C110.47 78.62 109.93 78 109.84 78.01C109.76 78.02 107.99 78.6 105.91 79.31Z" />
		<path class="shp0" d="M106.28 82.92L104.14 83.64C104.08 91.37 104.09 93.7 104.14 93.81C104.18 93.91 104.3 93.95 104.41 93.89C104.52 93.82 104.64 93.77 104.68 93.77C104.72 93.76 105.55 93.49 106.53 93.17C107.5 92.84 108.39 92.5 108.5 92.4C108.66 92.27 108.7 91.13 108.71 87.28C108.72 84.33 108.66 82.3 108.57 82.26C108.49 82.23 107.46 82.52 106.28 82.92Z" />
		<path class="shp2" d="M154.31 82.81C154.15 82.95 154.11 84.15 154.14 88.8C154.16 92.55 154.22 94.62 154.32 94.62C154.42 94.62 154.48 92.52 154.48 88.65C154.48 84.75 154.53 82.77 154.63 82.92C154.72 83.07 154.79 83.09 154.8 82.97C154.81 82.87 154.75 82.75 154.66 82.71C154.58 82.66 154.42 82.71 154.31 82.81Z" />
		<path class="shp0" d="M122.96 83.27C122.92 83.38 122.74 84.5 122.56 85.77C122.37 87.04 122.19 88.28 122.16 88.54C122.13 88.79 121.8 91.04 121.42 93.54C121.04 96.03 120.69 98.27 120.64 98.5C120.56 98.91 120.58 98.92 121.21 98.92C121.57 98.92 122.29 98.82 122.79 98.69C123.3 98.56 124.07 98.29 124.49 98.09C124.93 97.88 125.57 97.37 126 96.9C126.47 96.37 126.73 95.94 126.72 95.69C126.72 95.48 126.12 93.23 125.41 90.69C124.69 88.15 124.06 85.9 124.02 85.69C123.98 85.48 123.9 85.2 123.85 85.08C123.79 84.95 123.72 84.71 123.69 84.54C123.66 84.37 123.57 83.97 123.48 83.65C123.4 83.34 123.26 83.08 123.18 83.08C123.09 83.08 122.99 83.16 122.96 83.27Z" />
		<path class="shp3" d="M92.65 83.76L91.19 84.26C91.13 96.72 91.08 98.27 90.93 98.4C90.82 98.49 89.79 98.89 88.65 99.28C87.5 99.67 86.51 99.99 86.45 100C86.39 100 86.33 96.88 86.33 93.08C86.33 89.27 86.28 86.13 86.22 86.09C86.15 86.06 84.71 86.52 83.02 87.13C81.32 87.74 79.95 88.28 79.97 88.35C80 88.41 80.62 89 81.36 89.66L82.71 90.86L82.79 115.38C80.78 118.66 80.13 119.75 80.06 119.91C79.95 120.19 79.98 120.2 80.4 120.09C80.65 120.03 82.07 119.55 83.56 119.02L86.26 118.08L86.34 103.77C89.93 102.58 91.01 102.27 91.05 102.31C91.09 102.35 91.12 105.52 91.12 109.35C91.11 113.89 91.17 116.31 91.27 116.31C91.35 116.31 92.06 116.09 92.85 115.82C93.63 115.55 94.36 115.26 94.47 115.17C94.63 115.03 94.67 111.93 94.67 99.12C94.66 84.09 94.64 83.23 94.39 83.24C94.24 83.25 93.46 83.48 92.65 83.76Z" />
		<path class="shp2" d="M100.44 97.23C100.44 104.04 100.45 106.81 100.48 103.38C100.5 99.96 100.5 94.38 100.48 91C100.45 87.62 100.44 90.42 100.44 97.23ZM145.92 87.22C145.92 87.71 145.97 88.1 146.03 88.06C146.1 88.03 146.15 87.62 146.15 87.15C146.15 86.69 146.1 86.31 146.03 86.31C145.97 86.31 145.92 86.72 145.92 87.22Z" />
		<path class="shp3" d="M69.77 91.74C65.88 93.11 62.68 94.3 62.65 94.38C62.63 94.47 63.23 95.06 63.99 95.69L65.36 96.85C65.37 111.03 65.44 115.67 65.52 116.31C65.61 116.94 65.85 117.98 66.07 118.62C66.29 119.25 66.76 120.18 67.11 120.68C67.47 121.18 68.1 121.82 68.53 122.11C68.95 122.4 69.68 122.74 70.15 122.88C70.71 123.03 71.27 123.08 71.8 123.02C72.25 122.97 72.91 122.77 73.27 122.59C73.63 122.41 74.13 122.11 74.39 121.92C74.64 121.73 75.14 121.16 75.49 120.67C75.84 120.17 76.34 119.25 76.59 118.62C76.85 117.98 77.17 116.91 77.31 116.23C77.47 115.5 77.6 113.98 77.64 112.5C77.69 110.57 77.66 110 77.51 110C77.4 110 76.62 110.24 75.77 110.54L74.23 111.09C74.07 114.12 73.91 115.42 73.77 115.92C73.63 116.43 73.33 117.25 73.11 117.75C72.88 118.25 72.46 118.86 72.19 119.1C71.91 119.34 71.51 119.54 71.3 119.54C71.09 119.54 70.69 119.34 70.42 119.1C70.14 118.86 69.76 118.32 69.58 117.91C69.39 117.49 69.17 116.7 69.08 116.15C68.98 115.52 68.91 111.56 68.91 105.46L68.91 95.77C72.56 94.51 73.67 94.15 73.73 94.15C73.79 94.15 73.85 95.23 73.85 96.54C73.85 97.85 73.9 98.92 73.96 98.93C74.03 98.93 74.77 98.69 75.62 98.39C76.47 98.09 77.18 97.84 77.2 97.84C77.22 97.85 77.24 95.91 77.24 93.54C77.24 90.19 77.19 89.23 77.04 89.24C76.94 89.25 73.67 90.37 69.77 91.74Z" />
		<path class="shp1" d="M177.75 91.84C176.36 92.34 168.38 95.13 160.03 98.05C151.67 100.97 142.93 104.02 140.6 104.82C138.27 105.63 135.53 106.57 134.51 106.92C133.49 107.28 125.34 110.09 116.4 113.18C107.45 116.27 98.43 119.38 96.35 120.11C94.28 120.83 90.7 122.06 88.41 122.85C86.13 123.63 81.65 125.18 78.47 126.28C75.29 127.37 64.43 131.12 54.34 134.61C44.25 138.1 33.33 141.87 30.06 143C26.8 144.13 19.69 146.58 14.26 148.46C8.83 150.33 4.29 151.93 4.16 152C4.04 152.08 3.97 152.17 4.01 152.21C4.05 152.26 6.24 152.09 8.86 151.84C11.49 151.59 15.79 151.19 18.42 150.94C21.05 150.69 26.95 150.13 31.53 149.69L39.85 148.9C47.86 146.15 51.26 144.99 52.57 144.54C53.89 144.09 56.59 143.15 58.58 142.46C60.58 141.77 64.08 140.56 66.37 139.77C68.66 138.98 71.61 137.96 72.92 137.5C74.24 137.04 78.15 135.67 81.63 134.47C85.11 133.27 89.93 131.6 92.35 130.77C94.76 129.94 99.79 128.21 103.52 126.93C107.25 125.64 111.9 124.04 113.85 123.36C115.8 122.69 119.9 121.28 122.95 120.24C126 119.19 129.21 118.09 130.08 117.79C130.95 117.48 131.69 117.23 131.74 117.23C131.78 117.23 131.81 129.03 131.81 143.46L131.81 169.69C129.36 170.5 126.64 171.43 124.18 172.28C121.72 173.13 118.88 174.11 117.86 174.46C116.84 174.82 111.4 176.7 105.76 178.64C100.12 180.59 94.81 182.42 93.96 182.71L92.42 183.23C84.78 180.59 80.68 179.17 78.39 178.38C76.1 177.59 71.59 176.04 68.37 174.92C65.15 173.81 60.38 172.16 57.77 171.26L53.03 169.62L53.03 158.15C58.79 153.68 61.85 151.31 63.54 150C65.23 148.69 66.55 147.56 66.49 147.5C66.42 147.43 63.98 148.21 61.05 149.22C58.12 150.23 52.17 152.29 47.83 153.8L39.92 156.54C39.93 173.89 39.98 178.95 40.04 178.99C40.11 179.03 44.46 180.54 49.72 182.36C54.98 184.18 61.01 186.27 63.13 187C65.25 187.73 68.96 189.01 71.38 189.84C73.8 190.68 79.5 192.65 84.06 194.22C88.62 195.79 92.4 197.08 92.46 197.08C92.53 197.08 94.97 196.25 97.9 195.24C100.82 194.23 105.71 192.54 108.76 191.48C111.82 190.43 116.22 188.91 118.55 188.1C120.89 187.3 126.54 185.35 131.12 183.77C135.7 182.19 140.68 180.47 142.18 179.95L144.92 179L144.9 112.69C172.72 96 180.77 91.1 180.74 91.04C180.71 90.98 180.6 90.93 180.49 90.93C180.38 90.94 179.15 91.35 177.75 91.84Z" />
		<path class="shp3" d="M54.04 97.15L48.64 99.04C48.57 102.17 48.61 102.62 48.76 102.62C48.86 102.62 49.94 102.27 51.14 101.85C52.35 101.42 53.45 101.08 53.57 101.08C53.78 101.08 53.8 102.74 53.8 115.15C53.8 122.9 53.86 129.23 53.92 129.23C53.98 129.23 55.09 128.86 56.39 128.42C57.68 127.98 58.74 127.55 58.74 127.46C58.74 127.38 58.4 126.6 57.97 125.73L57.2 124.15L57.27 99.77C61.45 98.29 62.72 97.84 62.78 97.82C62.85 97.79 62.24 97.2 61.43 96.5C60.63 95.8 59.85 95.24 59.7 95.24C59.55 95.25 57 96.11 54.04 97.15Z" />
		<path class="shp0" d="M107.29 96.63C106.66 96.86 106.01 97.1 105.84 97.16C105.67 97.21 105.46 97.28 105.37 97.3C105.29 97.32 104.96 97.42 104.64 97.52L104.06 97.69C104.06 107.01 104.1 108.15 104.26 108.15C104.36 108.14 105.38 107.82 106.53 107.42L108.61 106.69C108.67 98.7 108.63 96.35 108.56 96.3C108.5 96.26 107.92 96.4 107.29 96.63Z" />
		<path class="shp2" d="M48.47 100.92C48.47 101.81 48.49 102.16 48.52 101.69C48.55 101.23 48.55 100.5 48.52 100.08C48.49 99.65 48.47 100.03 48.47 100.92Z" />
		<path class="shp3" d="M44.09 100.61L42.47 101.19L42.32 129.62C41.06 132.99 40.91 133.56 41.05 133.61C41.15 133.65 42.28 133.32 43.55 132.87L45.86 132.05C45.92 107.39 45.88 100.19 45.82 100.13C45.75 100.08 44.97 100.29 44.09 100.61ZM36.5 103.2L34.99 103.77C35 124.93 34.94 129.49 34.83 130.15C34.74 130.7 34.57 131.36 34.47 131.62C34.36 131.87 34.14 132.19 33.98 132.32C33.82 132.46 33.36 132.69 32.95 132.82L32.22 133.08C32.22 116.5 32.17 111.69 32.11 111.69C32.04 111.69 31.24 111.95 30.33 112.27L28.67 112.85L28.68 134.31C26.17 135.12 25.8 135.18 25.71 135.04C25.65 134.93 25.6 128.6 25.59 120.96C25.59 113.33 25.56 107.08 25.51 107.08C25.47 107.08 24.31 107.46 22.93 107.93C21.55 108.39 20.34 108.81 20.23 108.85C20.11 108.9 20.42 109.46 21.12 110.46L22.2 112L22.2 136.08C21.01 139.59 20.71 140.64 20.77 140.67C20.84 140.69 22.83 140.04 25.21 139.22C28.95 137.93 29.59 137.66 30.02 137.21C30.48 136.72 30.52 136.71 30.79 136.95C31.05 137.19 31.21 137.15 33.38 136.37C34.73 135.89 35.91 135.36 36.23 135.11C36.53 134.87 37 134.33 37.28 133.91C37.56 133.5 37.89 132.81 38.01 132.38C38.13 131.96 38.3 131.13 38.38 130.54C38.47 129.89 38.54 124.12 38.54 116.04C38.54 103.35 38.53 102.62 38.27 102.63C38.12 102.63 37.32 102.89 36.5 103.2Z" />
		<path class="shp2" d="M25.59 120.88C25.59 128.52 25.63 134.87 25.67 135C25.71 135.13 25.8 135.23 25.86 135.23C25.93 135.23 25.96 128.95 25.93 121.27C25.91 112.29 25.84 107.25 25.74 107.15C25.64 107.05 25.59 111.69 25.59 120.88Z" />
		<path class="shp3" d="M10.83 112.13L6.01 113.77L6.09 124.99L14.41 130.32C14.61 131.8 14.62 133.2 14.57 134.38C14.52 135.57 14.41 136.95 14.32 137.46C14.23 137.97 14.03 138.63 13.88 138.92C13.63 139.42 13.45 139.52 11.78 140.11C10.77 140.47 9.86 140.77 9.75 140.77C9.61 140.77 9.56 140.45 9.56 139.69C9.56 138.8 9.65 138.41 10.1 137.38C10.39 136.71 10.59 136.12 10.52 136.09C10.46 136.05 9.44 136.35 8.25 136.76L6.09 137.5C6.02 145.15 6.04 145.69 6.24 145.69C6.37 145.69 8.3 145.06 10.52 144.29C12.75 143.52 14.81 142.76 15.11 142.61C15.41 142.46 15.9 142.07 16.22 141.74C16.53 141.42 16.96 140.77 17.18 140.31C17.39 139.84 17.67 138.84 17.8 138.08C17.99 137.01 18.03 135.75 18 132.55L17.96 128.41L9.54 123L9.64 116.26C13.1 115.1 14.19 114.77 14.3 114.77C14.44 114.77 14.49 115.32 14.49 117C14.49 118.23 14.53 119.23 14.57 119.23C14.61 119.23 15.41 118.99 16.34 118.69L18.04 118.15L18.04 113.31C16.43 111.11 15.89 110.47 15.8 110.47C15.72 110.48 13.48 111.22 10.83 112.13Z" />
		<path class="shp2" d="M120.91 120.89L117.48 122.08C117.48 162.5 117.51 167.07 117.67 167.02C117.77 166.99 119.21 166.5 120.87 165.94C122.52 165.37 124.07 164.83 124.3 164.72L124.73 164.54C124.72 124.28 124.68 119.69 124.53 119.7C124.42 119.71 122.79 120.24 120.91 120.89ZM103.37 126.95C99.72 128.22 94.76 129.94 92.35 130.77C89.93 131.6 85.14 133.25 81.71 134.44C78.27 135.62 75.24 136.67 74.96 136.77L74.46 136.95C74.46 144.45 74.48 144.78 74.73 144.86C74.88 144.91 77.01 145.64 79.47 146.49C81.93 147.33 85.85 148.69 88.18 149.5L92.42 150.97C96.49 149.57 100.51 148.19 103.99 146.99L110.31 144.81C110.38 126.68 110.35 124.62 110.19 124.63C110.09 124.64 107.01 125.68 103.37 126.95Z" />
		<path class="shp0" d="M93.5 136.65C93.33 136.74 93.11 136.93 93.01 137.07C92.88 137.23 92.82 138.08 92.81 139.81C92.81 142.27 92.81 142.31 93.19 142.69C93.56 143.06 93.66 143.08 95.43 143.08C97.13 143.08 97.31 143.05 97.68 142.73C97.96 142.49 98.11 142.17 98.18 141.65L98.28 140.92C96.61 140.92 96.51 140.96 96.51 141.23C96.51 141.51 96.41 141.54 95.51 141.54L94.5 141.54L94.58 138.08L96.51 138C96.51 138.87 96.55 138.91 96.86 138.83C97.05 138.78 97.44 138.63 97.74 138.52C98.26 138.31 98.28 138.27 98.17 137.73C98.11 137.41 97.88 137 97.67 136.81C97.31 136.49 97.13 136.46 95.54 136.47C94.53 136.47 93.68 136.54 93.5 136.65ZM86.88 136.88C86.95 137.03 87.03 138.49 87.06 140.12L87.1 143.08L88.72 143L88.8 140.62L90.96 140.62L90.96 139.23L88.8 139.23L88.8 138L91.73 138L91.73 136.62C86.92 136.62 86.76 136.63 86.88 136.88Z" />
		<path class="shp2" d="M66.68 147.42C66.55 147.61 65.05 148.84 63.34 150.15L60.25 152.54C60.28 161.84 60.34 164.58 60.4 164.63C60.46 164.69 61.93 165.22 63.67 165.81C65.41 166.41 66.95 166.94 67.1 166.99C67.36 167.07 67.37 166.53 67.37 157.08C67.37 148.44 67.34 147.08 67.15 147.08C67.02 147.08 66.81 147.23 66.68 147.42ZM74.47 160.87L74.45 169.46C75.12 169.75 76.73 170.33 78.47 170.92C80.21 171.52 81.65 172 81.67 172C81.69 172 81.69 168.12 81.67 163.37L81.63 154.73C76.61 153.01 75.01 152.46 74.82 152.4L74.49 152.29L74.47 160.87ZM108.23 153.01C107.17 153.38 105.58 153.94 104.71 154.25L103.11 154.8L103.14 172C103.68 171.85 105.29 171.3 107.07 170.69L110.31 169.58C110.37 156.19 110.33 152.31 110.27 152.32C110.2 152.32 109.28 152.63 108.23 153.01ZM88.85 157.44C88.82 157.54 88.82 161.42 88.84 166.06L88.88 174.51L92.58 175.72L95.97 174.53C96.03 161.42 96.02 157.55 95.98 157.46C95.95 157.37 95.19 157.55 94.17 157.89L92.42 158.48C89.49 157.46 88.89 157.32 88.85 157.44Z" />
	</g>
</svg>