<svg version="1.2" baseProfile="tiny-ps" xmlns="http://www.w3.org/2000/svg" viewBox="0 0 250 247" width="250" height="247">
	<title>image</title>
	<style>
		tspan { white-space:pre }
		.s0 { fill: #c79b2d } 
		.s1 { fill: #ffffff } 
		.s2 { fill: #431211 } 
	</style>
	<g >
		<path class="s0" d="m109.94 0.23c0.15 0 0.55 1.16 3.66 11.05l5.84 0c5.02 0 5.84 0.03 5.82 0.17c-0.02 0.09-2.08 1.65-4.58 3.46c-2.5 1.81-4.59 3.36-4.64 3.43c-0.06 0.08 0.63 2.36 1.69 5.61c0.98 3.01 1.75 5.51 1.71 5.56c-0.04 0.05-2.19-1.44-4.77-3.31c-2.58-1.87-4.76-3.38-4.84-3.36c-0.08 0.03-2.22 1.55-4.75 3.39c-2.53 1.84-4.65 3.31-4.7 3.26c-0.05-0.05 0.71-2.57 1.7-5.61c0.98-3.04 1.75-5.56 1.7-5.6c-0.05-0.04-2.18-1.59-4.73-3.45c-2.55-1.86-4.6-3.42-4.54-3.47c0.06-0.05 2.71-0.1 11.68-0.15l1.2-3.68c0.66-2.03 1.46-4.5 1.78-5.5c0.44-1.38 0.63-1.81 0.77-1.81z" />
		<path fill-rule="evenodd" class="s1" d="m44.94 48.82l130.04 0l0.09 7.46c0.05 4.1 0.09 11.73 0.09 26.46l2.71-0.08l9.99 4.9c5.49 2.7 10.03 4.91 10.08 4.91c0.05 0 0.32-0.27 0.6-0.6c0.29-0.33 0.92-0.91 2.29-2l-0.22-0.4c-0.12-0.22-1.33-2.5-2.7-5.07c-1.37-2.56-2.45-4.69-2.4-4.73c0.05-0.04 0.46-0.36 1.76-1.37l1.44 0.71l2.3 4.88c1.53 3.25 2.36 4.88 2.48 4.88c0.1 0 0.23-0.04 0.3-0.09c0.1-0.06-0.25-3.79-2.69-27.61l0.88-1.35c0.48-0.74 0.9-1.35 0.93-1.36c0.03 0 0.51 0.58 2.07 2.6l0.88 13.65c0.48 7.5 0.89 13.66 0.9 13.68c0.01 0.02 0.44 0.08 0.96 0.14c0.52 0.06 1.01 0.12 1.08 0.14c0.09 0.02 0.51-1.91 1.26-5.73c0.62-3.17 1.13-5.77 1.13-5.79c0-0.02 0.07-0.03 0.15-0.03c0.08 0 0.58 0.69 1.12 1.53c0.54 0.84 0.97 1.6 0.96 1.7c-0.01 0.09-0.46 2.14-1 4.55c-0.54 2.41-0.99 4.47-0.99 4.58c0 0.12 0.18 0.29 0.43 0.42c0.24 0.12 0.77 0.48 1.18 0.8c0.73 0.57 0.75 0.58 0.98 0.38c0.13-0.11 3.07-2.57 6.54-5.46c4.43-3.7 6.33-5.22 6.4-5.11c0.05 0.08 0.26 0.74 0.46 1.47c0.2 0.73 0.36 1.4 0.36 1.5c0 0.09-2.73 2.3-6.06 4.89c-3.33 2.6-6.11 4.76-6.18 4.8c-0.09 0.05-0.02 0.29 0.24 0.75c0.26 0.47 0.43 0.66 0.58 0.64c0.11-0.01 6.22-1.86 26.92-8.19l1.5 0.41c0.82 0.22 1.54 0.44 1.58 0.48c0.05 0.04-0.42 0.58-2.16 2.31l-13.59 3.71c-7.47 2.04-13.59 3.71-13.6 3.72c-0.01 0.01 0.01 0.66 0.1 2.89l0.76-0.19c0.42-0.11 1.07-0.35 1.45-0.55c0.38-0.2 0.79-0.35 0.92-0.35c0.13 0 0.31-0.08 0.4-0.19c0.1-0.11 0.41-0.3 0.69-0.42c0.37-0.16 0.65-0.2 0.98-0.15c0.25 0.04 0.72 0.24 1.03 0.44c0.31 0.21 0.69 0.56 0.84 0.78c0.19 0.29 0.27 0.57 0.27 0.98c0 0.35-0.08 0.69-0.19 0.86c-0.11 0.16-0.48 0.61-0.84 1.01c-0.35 0.4-0.61 0.74-0.58 0.76c0.03 0.02 6.12 2.1 13.53 4.61c7.41 2.51 13.52 4.61 13.57 4.65c0.05 0.04-0.24 0.57-0.65 1.17c-0.72 1.06-0.76 1.1-1.36 1.25c-0.34 0.09-0.72 0.13-0.85 0.1c-0.13-0.03-6.07-2.19-13.21-4.79c-7.14-2.6-13.04-4.74-13.1-4.74c-0.06 0-0.35 0.26-1.15 1.15l4.46 2.97c2.45 1.63 4.97 3.29 5.58 3.68c0.62 0.39 1.12 0.78 1.12 0.86c0 0.08-0.5 0.48-1.1 0.89c-0.61 0.41-1.16 0.79-1.23 0.83c-0.08 0.05-2.33-1.41-10.73-7.11l-0.3 0.46c-0.16 0.26-0.5 0.62-0.75 0.82c-0.25 0.19-0.71 0.53-1.03 0.74c-0.32 0.21-1.28 1.07-2.13 1.89c-1.07 1.04-1.75 1.6-2.19 1.81c-0.35 0.17-1.15 0.44-1.78 0.6c-0.63 0.16-2.45 0.56-4.03 0.88c-1.58 0.32-3.4 0.72-4.03 0.88c-0.63 0.16-1.31 0.35-1.5 0.43c-0.27 0.11-0.36 0.24-0.43 0.59c-0.05 0.25-0.24 0.68-0.43 0.97c-0.19 0.28-0.53 0.65-0.75 0.81c-0.31 0.22-0.44 0.44-0.58 0.92c-0.1 0.35-0.44 1.48-0.75 2.5c-0.31 1.03-0.86 2.69-1.22 3.68c-0.35 1-0.98 2.67-1.39 3.71c-0.41 1.05-1.19 2.91-1.73 4.15c-0.54 1.23-1.61 3.54-2.38 5.12c-0.77 1.58-1.78 3.58-2.25 4.43c-0.46 0.85-1.31 2.35-1.89 3.33c-0.78 1.31-1.3 2.03-1.97 2.75c-0.51 0.54-1.67 1.62-2.59 2.4c-1.05 0.89-2.12 1.95-2.88 2.83c-0.83 0.96-1.42 1.53-1.84 1.78c-0.49 0.29-0.76 0.38-1.78 0.37l0.16 60.17l-1.34 1.5c-0.74 0.82-2.36 2.51-3.59 3.74c-1.24 1.24-2.88 2.8-3.66 3.48c-0.78 0.68-2.17 1.85-3.11 2.59c-0.93 0.75-2.32 1.8-3.08 2.34c-0.76 0.54-2 1.4-2.76 1.91c-0.76 0.51-1.98 1.28-2.71 1.73c-0.73 0.44-2.21 1.29-3.28 1.88c-1.08 0.59-2.79 1.47-3.8 1.96c-1.01 0.48-2.65 1.22-3.63 1.64c-0.98 0.42-2.61 1.07-3.63 1.45c-1.01 0.38-2.75 0.98-3.86 1.33c-1.11 0.35-2.9 0.88-3.97 1.17c-1.08 0.29-2.81 0.71-3.86 0.93c-1.05 0.23-2.94 0.58-4.2 0.8c-1.27 0.21-3.26 0.49-4.43 0.62c-1.17 0.13-2.93 0.3-3.92 0.38c-1 0.08-3.74 0.14-6.22 0.14c-3.22 0-5.08-0.06-6.79-0.2c-1.3-0.11-3.19-0.3-4.2-0.43c-1.01-0.12-2.62-0.36-3.57-0.52c-0.95-0.16-2.48-0.45-3.4-0.64c-0.92-0.19-2.5-0.55-3.51-0.8c-1.01-0.25-2.62-0.69-3.57-0.97c-0.95-0.28-2.58-0.8-3.63-1.16c-1.05-0.36-2.73-0.98-3.74-1.37c-1.01-0.4-2.57-1.04-3.45-1.44c-0.89-0.39-2.78-1.31-4.2-2.03c-1.43-0.72-3.45-1.81-4.49-2.42c-1.05-0.61-2.86-1.74-4.03-2.52c-1.17-0.77-3.06-2.11-4.2-2.96c-1.14-0.86-2.75-2.12-3.57-2.81c-0.82-0.69-2.09-1.79-2.82-2.46c-0.73-0.66-2.43-2.32-6.22-6.17l0-20.76c0-16.53-0.03-20.76-0.14-20.76c-0.08 0-0.74-0.26-1.47-0.58c-0.73-0.32-2.08-0.98-2.99-1.48c-0.92-0.5-3.07-1.72-4.78-2.72c-1.71-1-3.94-2.26-4.95-2.79c-1.01-0.53-2.65-1.42-3.63-1.96c-0.98-0.54-2.25-1.28-2.82-1.64c-0.57-0.36-1.4-0.87-1.84-1.13c-0.44-0.26-0.94-0.48-1.09-0.48c-0.16 0-0.81-0.13-1.44-0.3c-0.63-0.16-1.75-0.52-2.48-0.8c-0.73-0.27-1.92-0.76-2.65-1.08c-0.73-0.32-2.13-0.97-3.11-1.46c-0.98-0.48-1.86-0.94-1.95-1.02c-0.09-0.08-0.53-0.68-0.97-1.35c-0.45-0.67-1.36-1.93-2.02-2.82c-0.67-0.89-1.38-1.79-1.58-2.02c-0.2-0.22-0.42-0.52-0.49-0.66c-0.07-0.14-0.13-0.35-0.13-0.46c0-0.11-0.53-0.93-1.19-1.81c-0.66-0.89-1.49-1.95-1.85-2.36c-0.36-0.41-0.71-0.93-0.78-1.15c-0.07-0.23-0.1-0.66-0.05-1.01c0.06-0.49 0.03-0.68-0.16-0.98c-0.17-0.27-0.23-0.58-0.23-1.09c0-0.49 0.07-0.87 0.23-1.18c0.13-0.25 0.37-0.56 0.55-0.68c0.17-0.12 0.55-0.27 0.83-0.34c0.38-0.09 0.8-0.08 1.55 0.03c0.57 0.08 1.17 0.22 1.32 0.3c0.16 0.08 0.38 0.23 0.5 0.33c0.13 0.12 0.43 0.19 0.81 0.19c0.35 0 0.8 0.11 1.11 0.25c0.29 0.13 0.73 0.44 0.98 0.68c0.25 0.24 0.7 0.9 1.53 2.51l0.22-0.75c0.2-0.68 0.2-0.83 0.06-1.61c-0.11-0.62-0.14-1.5-0.1-3.17c0.03-1.27 0.09-2.45 0.12-2.62c0.06-0.31 0.05-0.32-0.48-0.32c-0.34 0-0.69-0.09-0.92-0.23c-0.21-0.13-0.48-0.41-0.6-0.63c-0.2-0.34-0.31-0.41-0.78-0.48c-0.3-0.04-0.68-0.19-0.83-0.33c-0.16-0.14-0.32-0.4-0.36-0.58c-0.04-0.18-0.02-0.7 0.05-1.14c0.12-0.8 0.12-0.81-0.23-1.27c-0.19-0.25-0.39-0.64-0.43-0.86c-0.04-0.22-0.02-0.64 0.05-0.92c0.08-0.33 0.27-0.66 0.54-0.92c0.34-0.33 0.51-0.41 1.01-0.45c0.46-0.04 0.7 0.01 1.06 0.21c0.25 0.14 0.47 0.24 0.49 0.22c0.02-0.02 0.11-0.32 0.2-0.67c0.1-0.35 0.3-0.8 0.46-1.01c0.16-0.21 0.45-0.46 0.64-0.58c0.34-0.19 0.35-0.22 0.26-0.72c-0.05-0.28-0.09-0.78-0.09-1.1c0-0.42 0.1-0.79 0.36-1.32c0.2-0.41 0.6-1 1.4-1.9h0.73c0.56 0 0.81 0.06 1.08 0.24c0.19 0.13 0.53 0.28 0.75 0.33c0.22 0.05 0.52 0.2 0.67 0.33c0.14 0.14 0.26 0.31 0.26 0.39c0 0.08 0.1 0.31 0.23 0.52c0.13 0.21 0.23 0.52 0.23 0.69c0 0.29 0.02 0.31 0.26 0.18c0.14-0.07 0.64-0.45 1.95-1.54l-0.04-2.53c-0.04-2.1-0.08-2.59-0.24-2.88c-0.12-0.21-0.2-0.61-0.2-1.04c0-0.38 0.08-0.92 0.18-1.21c0.1-0.28 0.29-0.64 0.43-0.78c0.19-0.2 0.38-0.26 0.8-0.26c0.45 0 0.62 0.07 0.96 0.38c0.23 0.21 0.49 0.61 0.6 0.89c0.13 0.37 0.17 0.73 0.12 1.27c-0.05 0.53 0.01 1.19 0.2 2.25c0.15 0.82 0.38 2.09 0.53 2.82c0.18 0.9 0.24 1.5 0.19 1.87c-0.07 0.52-0.16 0.63-3.97 4.4l0.06 0.98c0.05 0.79 0 1.23-0.24 2.3c-0.17 0.73-0.3 1.44-0.3 1.58c0 0.14 0.1 0.48 0.21 0.75c0.12 0.27 0.43 1.11 0.69 1.87c0.26 0.76 0.73 2.24 1.04 3.28c0.31 1.04 0.62 2.31 0.69 2.82c0.07 0.51 0.18 2.22 0.25 3.8c0.07 1.58 0.17 3.4 0.23 4.03c0.06 0.63 0.19 1.38 0.29 1.67c0.18 0.5 0.23 0.54 1.29 1.04c0.61 0.28 1.63 0.85 2.27 1.25c0.88 0.56 1.5 0.85 2.55 1.18c0.76 0.25 2.42 0.71 3.68 1.03c1.27 0.32 3.96 0.91 5.99 1.31c2.03 0.4 4.84 0.93 6.24 1.17c1.41 0.24 2.58 0.41 2.61 0.38c0.03-0.03 0.09-24.87 0.14-55.19l0.08-55.13zm130.21 50.32c0.58-0.09 5.26-0.54 10.77-1.05c5.51-0.51 10.02-0.94 10.03-0.95c0-0.01 0.12-0.45 0.26-0.97c0.14-0.52 0.23-0.99 0.2-1.04c-0.03-0.05-4.69-2.26-10.36-4.92l-10.32-4.84l-0.56-1.61l-0.02 15.37zm0.06 3.51c-0.04 9.15-0.02 11.8 0.03 11.8c0.05 0 4.45-2.4 9.78-5.33c5.33-2.93 9.68-5.33 9.67-5.35c-0.01-0.01-2.64 1.17-5.84 2.62c-3.2 1.46-5.94 2.68-6.1 2.72c-0.18 0.04-1.08-0.15-2.33-0.49c-1.12-0.31-2.04-0.61-2.04-0.68c0-0.06 1.96-0.94 4.35-1.96c2.39-1.01 6.31-2.68 8.72-3.71c2.41-1.03 4.27-1.86 4.15-1.86c-0.13 0-4.76 0.51-10.31 1.12l-10.08 1.11zm-0.06 15.95c0 10.34 0.04 12.79 0.1 12.72c0.06-0.06 0.69-0.84 1.41-1.73c0.72-0.89 2.03-2.52 2.92-3.63c0.89-1.11 2.11-2.69 2.7-3.51c0.6-0.82 1.71-2.46 2.49-3.63c0.77-1.17 1.58-2.28 1.79-2.46c0.21-0.18 0.55-0.39 0.74-0.47c0.28-0.12 0.56-0.53 1.49-2.2c0.63-1.13 1.41-2.45 1.73-2.92c0.32-0.47 0.91-1.21 1.31-1.64c0.4-0.43 0.71-0.77 0.69-0.77c-0.02 0.01-3.94 2.31-8.71 5.12l-8.67 5.11z" />
		<path class="s0" d="m174.23 49.63l0 49.23l-1.58 0.14c-0.87 0.08-1.93 0.18-3.14 0.32l0-44.68l-8.03-0.09c-4.42-0.05-31.18-0.09-110.92-0.09v105.25l-0.37-0.06c-0.21-0.03-1.26-0.19-2.33-0.35c-1.08-0.16-2-0.29-2.04-0.29c-0.05 0-0.1-24.58-0.11-54.62c-0.01-30.04 0.02-54.65 0.08-54.7c0.05-0.04 28.98-0.08 128.45-0.08z" />
		<path class="s2" d="m101.53 55.62c27.35 0 53.57 0.04 66.82 0.17l0 43.58l-0.26 0.05c-0.14 0.03-7.14 0.69-30.82 2.89l-1.21 1.7c-0.67 0.93-1.21 1.74-1.21 1.78c0 0.05 0.69 0.36 3.05 1.29l14.74-1.61c8.11-0.88 14.96-1.63 15.72-1.73v14.16l-4.23 2.3c-2.33 1.27-4.29 2.34-4.37 2.39c-0.08 0.05-0.36 1.08-0.63 2.3c-0.27 1.22-0.48 2.22-0.47 2.22c0.02 0 0.9-0.15 3.89-0.68l2.76-1.63c1.52-0.9 2.83-1.65 2.91-1.67c0.11-0.03 0.14 1.44 0.14 7.1c0 3.93-0.04 7.14-0.09 7.14c-0.05 0-0.27-0.19-0.5-0.43c-0.23-0.24-0.73-0.85-1.11-1.35c-0.38-0.51-0.98-1.22-1.34-1.58c-0.36-0.36-1.03-0.94-1.48-1.29c-0.46-0.34-1.25-0.86-1.76-1.15c-0.51-0.29-1.34-0.68-1.84-0.86c-0.51-0.18-1.59-0.47-2.42-0.63c-0.82-0.16-1.73-0.38-2.02-0.48c-0.29-0.1-0.73-0.33-0.98-0.51c-0.25-0.18-0.98-0.78-1.61-1.33c-0.63-0.55-1.22-1.11-1.3-1.22c-0.12-0.18-0.1-0.33 0.12-0.91c0.14-0.38 0.3-0.69 0.35-0.69c0.05 0 0.23 0.04 0.4 0.07c0.17 0.04 0.34 0.04 0.37 0c0.03-0.04-0.03-0.16-0.13-0.27c-0.1-0.11-0.25-0.4-0.32-0.63c-0.07-0.24-0.09-0.43-0.04-0.44c0.05 0 0.16 0.08 0.26 0.19c0.1 0.11 0.37 0.29 0.6 0.41c0.27 0.13 0.68 0.22 1.09 0.22c0.5 0 0.76-0.06 1.07-0.26c0.22-0.15 0.49-0.44 0.6-0.67c0.11-0.22 0.2-0.57 0.2-0.77c0-0.21-0.08-0.56-0.17-0.78c-0.1-0.22-0.29-0.48-0.43-0.57c-0.14-0.09-0.49-0.21-0.78-0.25c-0.51-0.08-0.52-0.08-0.43 0.2c0.05 0.15 0.12 0.46 0.16 0.68c0.06 0.35 0.02 0.44-0.27 0.67c-0.18 0.14-0.42 0.26-0.53 0.26c-0.11 0-0.36-0.16-0.55-0.35c-0.19-0.19-0.35-0.4-0.35-0.46c0-0.06 0.17-0.13 0.37-0.14c0.26-0.02 0.42-0.12 0.55-0.34c0.16-0.29 0.16-0.33-0.05-0.55c-0.13-0.13-0.35-0.24-0.49-0.24c-0.21 0-0.25-0.04-0.19-0.26c0.04-0.14 0.21-0.44 0.39-0.66c0.17-0.22 0.57-0.53 0.88-0.69c0.39-0.2 0.75-0.29 1.17-0.29c0.53 0 0.65 0.05 0.98 0.38c0.36 0.36 0.38 0.42 0.38 2.08l0.4-0.17c0.22-0.09 0.53-0.26 0.69-0.38c0.16-0.12 0.43-0.39 0.6-0.6c0.17-0.21 0.37-0.62 0.45-0.91c0.11-0.4 0.11-0.66 0.01-1.15c-0.07-0.35-0.29-0.87-0.48-1.15c-0.19-0.28-0.54-0.65-0.77-0.81c-0.33-0.22-0.61-0.3-1.24-0.33c-0.57-0.03-1 0.02-1.45 0.16c-0.48 0.16-0.8 0.37-1.33 0.91c-0.4 0.4-0.83 0.97-1 1.33c-0.16 0.35-0.33 0.74-0.38 0.86c-0.05 0.13-0.11 0.18-0.13 0.12c-0.03-0.06 0.09-0.5 0.26-0.98c0.17-0.47 0.49-1.23 0.71-1.67c0.33-0.65 0.42-0.98 0.46-1.67c0.03-0.52 0-1.05-0.09-1.32c-0.08-0.25-0.55-1.34-1.04-2.42c-0.5-1.08-0.96-2.11-1.17-2.65l-0.13 0.29c-0.07 0.16-0.51 1.12-0.98 2.13c-0.47 1.01-0.95 2.15-1.08 2.53c-0.16 0.49-0.21 0.89-0.18 1.38c0.04 0.49 0.19 1.01 0.54 1.78c0.27 0.6 0.62 1.44 0.77 1.87c0.15 0.43 0.23 0.78 0.19 0.78c-0.05 0-0.27-0.4-0.49-0.89c-0.23-0.51-0.62-1.12-0.92-1.43c-0.29-0.3-0.8-0.68-1.15-0.84c-0.49-0.23-0.82-0.29-1.47-0.3c-0.63 0-0.95 0.06-1.32 0.25c-0.27 0.14-0.61 0.38-0.76 0.55c-0.15 0.16-0.37 0.5-0.49 0.76c-0.14 0.3-0.21 0.73-0.21 1.24c0 0.51 0.07 0.92 0.2 1.2c0.11 0.23 0.39 0.58 0.62 0.78c0.23 0.19 0.63 0.45 1.37 0.76l-0.07-0.43c-0.04-0.24-0.01-0.65 0.06-0.92c0.07-0.27 0.27-0.63 0.44-0.81c0.17-0.18 0.47-0.35 0.66-0.39c0.19-0.04 0.55-0.01 0.8 0.06c0.25 0.07 0.71 0.36 1.02 0.65c0.31 0.28 0.64 0.66 0.72 0.83c0.09 0.17 0.16 0.33 0.16 0.35c0 0.02-0.15 0.07-0.35 0.12c-0.22 0.05-0.37 0.18-0.42 0.35c-0.04 0.14-0.04 0.35 0 0.46c0.04 0.12 0.23 0.22 0.47 0.26c0.22 0.03 0.4 0.08 0.4 0.12c0 0.03-0.08 0.21-0.17 0.4c-0.1 0.19-0.29 0.38-0.43 0.41c-0.14 0.04-0.38 0.04-0.52 0c-0.16-0.04-0.33-0.24-0.44-0.5c-0.14-0.34-0.15-0.51-0.06-0.78c0.07-0.19 0.12-0.38 0.12-0.43c0-0.05-0.14-0.09-0.32-0.09c-0.17 0-0.47 0.09-0.66 0.21c-0.19 0.11-0.44 0.4-0.55 0.63c-0.11 0.23-0.2 0.5-0.2 0.6c0 0.1-0.05 0.17-0.12 0.17c-0.06 0-0.26-0.07-0.43-0.16c-0.17-0.09-1.4-0.42-2.73-0.74c-1.33-0.32-3.04-0.69-3.8-0.82c-0.76-0.13-2-0.3-2.76-0.37c-0.96-0.09-1.47-0.19-1.67-0.33c-0.16-0.11-0.88-0.49-1.61-0.84c-0.73-0.35-1.87-0.82-2.53-1.05c-0.67-0.23-2.4-0.75-3.86-1.17c-1.46-0.41-3.43-0.98-4.38-1.27c-0.95-0.28-1.9-0.57-2.1-0.63c-0.35-0.1-0.37-0.14-0.38-0.66c0-0.3-0.09-0.75-0.18-1.01c-0.1-0.25-0.23-0.9-0.28-1.44c-0.06-0.54-0.24-1.52-0.4-2.19c-0.16-0.67-0.51-1.78-0.76-2.48c-0.26-0.7-0.66-1.68-0.9-2.19c-0.24-0.51-0.59-1.21-0.78-1.55c-0.19-0.35-0.61-1.2-0.94-1.9c-0.33-0.7-0.92-1.76-1.32-2.36c-0.4-0.6-0.9-1.28-1.12-1.5c-0.22-0.22-1.19-1.08-2.17-1.91c-0.98-0.83-2.04-1.71-2.36-1.96c-0.32-0.25-1-0.62-1.53-0.83c-0.52-0.2-1.58-0.5-2.36-0.66c-0.78-0.16-1.88-0.32-2.45-0.36c-0.71-0.05-1.52-0.01-2.59 0.13c-0.86 0.11-2.15 0.35-2.88 0.53c-0.73 0.18-2.15 0.58-3.17 0.89c-1.01 0.31-2.41 0.81-3.11 1.12c-0.7 0.3-1.5 0.58-1.78 0.6c-0.33 0.03-0.74-0.03-1.78-0.41l-0.25 0.42c-0.23 0.39-0.32 0.43-1.04 0.56c-0.43 0.08-0.89 0.17-1.01 0.2c-0.19 0.06-0.23 0.02-0.2-0.22c0.02-0.16 0-0.29-0.03-0.29c-0.03 0-0.61 0.3-1.29 0.66c-0.76 0.41-1.45 0.88-1.81 1.24c-0.32 0.32-0.74 0.91-0.94 1.32c-0.2 0.41-0.43 1.03-0.65 2.01l-2.39-1.21l-0.08 0.78c-0.05 0.43-0.08 1.37-0.08 2.1c0 1 0.07 1.58 0.27 2.36c0.15 0.57 0.45 1.48 0.69 2.02c0.23 0.54 0.71 1.42 1.06 1.96c0.35 0.54 0.9 1.26 1.21 1.6c0.31 0.34 0.88 0.85 1.26 1.14c0.38 0.28 0.98 0.66 1.32 0.84c0.43 0.22 0.77 0.51 1.07 0.91c0.34 0.46 0.43 0.69 0.43 1.07c0 0.27 0.08 0.81 0.17 1.21c0.09 0.4 0.32 1.02 0.5 1.38c0.18 0.36 0.56 0.97 0.84 1.35c0.28 0.38 0.82 1.03 1.91 2.19l-0.1 0.52c-0.05 0.28-0.18 1.14-0.28 1.9c-0.1 0.76-0.18 1.69-0.18 2.07c0 0.38-0.08 1.09-0.17 1.58c-0.09 0.49-0.22 0.98-0.28 1.09c-0.06 0.11-0.48 0.56-0.95 1.01c-0.47 0.44-1.16 1.01-1.54 1.26c-0.38 0.25-1.23 0.7-1.9 0.99c-0.67 0.29-1.44 0.65-1.73 0.8c-0.29 0.15-0.98 0.55-1.55 0.89c-0.57 0.35-1.63 1.08-2.36 1.62c-0.75 0.56-2.07 1.74-3.06 2.72c-1.17 1.17-1.97 2.09-2.47 2.83c-0.41 0.6-0.93 1.52-1.17 2.04c-0.24 0.52-0.44 1-0.44 1.07c0 0.06-0.05 0.12-0.12 0.12c-0.06 0-0.29-0.38-0.5-0.83c-0.21-0.46-0.48-1.08-0.6-1.38c-0.12-0.3-0.26-0.51-0.3-0.46c-0.04 0.05-0.4 0.79-0.79 1.64c-0.39 0.85-0.89 2-1.12 2.53c-0.33 0.8-0.41 1.12-0.41 1.78c0 0.58 0.07 0.96 0.25 1.35c0.19 0.41 0.22 0.6 0.13 0.78c-0.06 0.13-0.14 0.23-0.17 0.23c-0.03 0-0.25-0.15-0.49-0.34c-0.24-0.18-0.69-0.45-1.01-0.59c-0.4-0.18-0.8-0.26-1.32-0.26c-0.54 0-0.88 0.06-1.21 0.24c-0.25 0.13-0.6 0.39-0.76 0.57c-0.17 0.18-0.4 0.51-0.51 0.73c-0.11 0.22-0.23 0.74-0.25 1.15c-0.04 0.62 0 0.84 0.22 1.27c0.15 0.28 0.47 0.68 0.73 0.87c0.25 0.19 0.54 0.38 0.63 0.42c0.15 0.06 0.14 0.11-0.04 0.4c-0.11 0.18-0.49 0.9-0.83 1.6c-0.34 0.7-0.75 1.76-0.91 2.36c-0.16 0.6-0.33 1.38-0.37 1.73c-0.07 0.54-0.16 0.72-0.61 1.2c-0.29 0.31-0.84 0.77-1.22 1.01c-0.59 0.38-0.75 0.44-1.09 0.37c-0.22-0.04-1.36-0.38-2.53-0.75c-1.17-0.37-2.42-0.74-3.4-0.99l-0.03-52.04c-0.02-28.62 0-52.11 0.03-52.19c0.04-0.11 10.11-0.14 49.78-0.14z" />
		<path class="s0" d="m202.97 59.88c0.03 0 0.3 0.32 1.16 1.44l0.89 13.82c0.49 7.6 0.88 13.87 0.88 13.93c0 0.06 0.52 0.15 1.18 0.2c0.65 0.05 1.47 0.16 1.81 0.26c0.35 0.09 0.66 0.13 0.7 0.09c0.04-0.05 0.49-2.31 1.02-5.03c0.52-2.72 0.99-5.07 1.03-5.22c0.07-0.26 0.1-0.23 0.9 0.96l-1.07 4.72c-0.59 2.6-1.07 4.79-1.08 4.87c0 0.08 0.29 0.29 0.66 0.48c0.36 0.18 0.92 0.53 1.24 0.76c0.32 0.24 0.77 0.62 1.43 1.27l12.74-10.66l0.4 1.33l-0.32 0.26c-0.17 0.14-3.02 2.37-12.31 9.64l0.41 0.63c0.23 0.35 0.54 0.93 0.7 1.3c0.24 0.55 0.33 0.65 0.52 0.61c0.13-0.03 6.36-1.92 27.46-8.36l0.69 0.2c0.38 0.11 0.69 0.23 0.69 0.26c0 0.03-0.22 0.28-0.98 1.04l-13.88 3.8c-7.63 2.09-13.89 3.81-13.91 3.83c-0.02 0.01 0.03 0.34 0.11 0.72c0.08 0.38 0.14 1.29 0.14 2.02c0 0.73-0.07 1.54-0.14 1.81c-0.13 0.47-0.12 0.49 0.16 0.6c0.16 0.06 0.35 0.11 0.43 0.11c0.08 0 0.23-0.16 0.35-0.35c0.11-0.19 0.37-0.45 0.58-0.58c0.24-0.15 0.53-0.22 0.8-0.2c0.3 0.02 0.5-0.04 0.69-0.21c0.15-0.14 0.42-0.32 0.61-0.42c0.19-0.1 0.55-0.21 0.81-0.26c0.25-0.04 0.51-0.14 0.58-0.22c0.06-0.08 0.24-0.23 0.4-0.33c0.16-0.11 0.44-0.2 0.63-0.2c0.2 0 0.55 0.14 0.83 0.35c0.27 0.19 0.55 0.47 0.62 0.61c0.07 0.14 0.1 0.39 0.06 0.55c-0.04 0.16-0.58 0.86-1.21 1.55c-1.11 1.23-1.14 1.27-0.88 1.38c0.15 0.06 6.31 2.16 13.69 4.66c7.38 2.5 13.43 4.59 13.43 4.63c0 0.05-0.14 0.29-0.31 0.54c-0.23 0.33-0.43 0.48-0.72 0.53c-0.35 0.07-2.32-0.62-27.12-9.66l-1.11 1.2c-0.61 0.66-1.1 1.2-1.09 1.21c0.01 0.01 2.43 1.61 5.37 3.55c2.95 1.95 5.43 3.6 5.53 3.68c0.15 0.13 0.1 0.19-0.86 0.84l-10.77-7.34l-0.3 0.37c-0.16 0.21-0.41 0.56-0.55 0.78c-0.14 0.22-0.67 0.69-1.17 1.04c-0.5 0.35-1.63 1.32-2.5 2.16c-0.97 0.93-1.81 1.64-2.16 1.81c-0.32 0.16-1.11 0.42-1.76 0.58c-0.65 0.16-2.71 0.6-4.58 0.99c-1.87 0.39-3.73 0.81-4.15 0.93c-0.41 0.13-0.94 0.33-1.18 0.45c-0.37 0.18-0.43 0.28-0.43 0.59c0 0.21-0.12 0.61-0.26 0.89c-0.15 0.3-0.47 0.66-1.29 1.25l-0.51 1.77c-0.28 0.97-0.87 2.83-1.31 4.13c-0.44 1.3-1.27 3.53-1.84 4.95c-0.57 1.43-1.45 3.52-1.95 4.66c-0.5 1.14-1.61 3.47-2.45 5.18c-0.85 1.71-2.02 3.96-2.6 5.01c-0.58 1.05-1.36 2.37-1.73 2.94c-0.45 0.7-1.07 1.43-1.91 2.25c-0.69 0.67-1.86 1.73-2.61 2.36c-0.75 0.64-1.71 1.59-2.15 2.13c-0.43 0.54-0.96 1.14-1.17 1.35c-0.21 0.2-0.59 0.45-0.84 0.56c-0.39 0.16-0.58 0.17-1.27 0.05c-0.44-0.07-1.43-0.28-2.19-0.46c-0.76-0.18-4.44-0.98-8.18-1.78c-3.74-0.8-8.35-1.79-10.25-2.2c-1.9-0.42-4.08-0.91-4.84-1.1c-0.76-0.19-1.82-0.48-2.36-0.64c-0.54-0.16-1.63-0.54-2.42-0.84c-0.79-0.3-2.19-0.87-3.11-1.25c-0.92-0.39-1.68-0.7-1.7-0.7c-0.02 0-0.03 1-0.03 2.22c0 1.22-0.05 2.66-0.12 3.2c-0.07 0.54-0.25 1.6-0.4 2.36c-0.16 0.76-0.49 2.08-0.75 2.94c-0.26 0.85-0.81 2.41-1.22 3.45c-0.41 1.05-1.17 2.78-1.68 3.86c-0.51 1.08-1.56 3.2-2.34 4.72c-0.78 1.52-1.67 3.36-1.98 4.09c-0.31 0.73-0.65 1.61-0.74 1.96c-0.1 0.35-0.21 0.83-0.25 1.07c-0.05 0.32 0 0.6 0.23 1.09c0.16 0.36 0.6 1.15 0.97 1.76c0.64 1.03 0.7 1.1 1.14 1.18c0.3 0.06 0.64 0.24 0.95 0.52c0.26 0.24 0.58 0.64 0.7 0.89c0.13 0.25 0.23 0.64 0.23 0.86c0 0.22-0.02 0.45-0.06 0.52c-0.04 0.06 0.12 0.15 0.36 0.2c0.23 0.05 0.59 0.22 0.8 0.37c0.21 0.16 0.49 0.51 0.62 0.78c0.15 0.3 0.25 0.73 0.26 1.09c0.01 0.33 0.06 0.6 0.13 0.61c0.06 0 0.31 0.05 0.55 0.12c0.24 0.06 0.62 0.28 0.85 0.49c0.23 0.21 0.49 0.52 0.58 0.69c0.09 0.17 0.16 0.54 0.16 0.81c0 0.27-0.1 0.67-0.44 1.3l0.88 0.2c0.48 0.11 1.86 0.46 3.07 0.78c1.2 0.32 3.48 1.01 5.07 1.54c1.58 0.53 3.89 1.36 5.12 1.85c1.24 0.49 3.2 1.32 4.38 1.84c1.17 0.52 3.14 1.45 4.38 2.07c1.24 0.61 3.35 1.7 7.14 3.69l0 12.49l-2.68 2.68c-1.47 1.47-3.16 3.08-3.74 3.57c-0.59 0.49-1.06 0.85-1.06 0.8c0-0.05-0.14-0.17-0.32-0.28c-0.17-0.1-0.86-0.7-1.53-1.32c-0.67-0.62-1.55-1.4-1.96-1.73c-0.41-0.33-1.21-0.9-1.78-1.27c-0.57-0.37-1.66-0.97-2.42-1.33c-0.76-0.36-2.03-0.86-2.82-1.11c-0.79-0.25-1.96-0.57-2.59-0.7c-0.63-0.13-1.75-0.32-2.48-0.41c-0.73-0.1-2.28-0.23-3.45-0.31c-1.17-0.07-2.7-0.11-3.4-0.08c-0.71 0.03-1.67 0.16-2.19 0.3c-0.51 0.13-1.26 0.37-1.67 0.52c-0.41 0.16-1.34 0.54-2.07 0.86c-0.73 0.32-1.53 0.67-1.78 0.78c-0.25 0.11-0.5 0.21-0.54 0.21c-0.04 0.01-0.12 0.05-0.16 0.1c-0.05 0.05-0.03 0.09 0.05 0.09c0.07 0 0.85-0.26 1.72-0.59c0.87-0.32 2.13-0.71 2.79-0.86c0.67-0.15 1.96-0.34 2.88-0.41c1.3-0.11 2.17-0.11 3.92 0c1.24 0.08 3 0.24 3.92 0.36c0.92 0.12 2.14 0.3 2.71 0.4c0.57 0.1 1.4 0.3 1.84 0.45c0.44 0.15 1.27 0.51 1.84 0.8c0.57 0.29 1.53 0.85 2.13 1.24c0.6 0.4 1.61 1.12 2.25 1.6c0.63 0.48 1.88 1.45 4.38 3.41l-0.63 0.52c-0.35 0.28-1.38 1.08-2.3 1.77c-0.92 0.69-2.48 1.78-3.46 2.43c-0.98 0.65-2.56 1.63-3.51 2.19c-0.95 0.56-2.71 1.51-6.1 3.24l-0.86-0.09c-0.48-0.05-1.8-0.15-2.94-0.22c-1.14-0.07-3.03-0.26-4.2-0.41c-1.17-0.16-3.17-0.47-4.43-0.69c-1.27-0.22-3.68-0.72-5.35-1.1c-1.68-0.38-3.96-0.9-5.07-1.14c-1.11-0.24-2.84-0.58-3.86-0.76c-1.78-0.31-1.9-0.31-3.45-0.18c-0.89 0.07-2.39 0.26-3.34 0.42c-0.95 0.16-3.57 0.65-5.82 1.09c-2.25 0.44-4.63 0.88-5.3 0.98c-0.67 0.1-1.49 0.18-1.84 0.18c-0.35 0-0.97-0.07-1.38-0.16c-0.41-0.09-1.73-0.47-2.94-0.85c-1.2-0.38-2.81-0.83-3.57-1c-1.04-0.24-1.8-0.33-3.11-0.37c-1.25-0.04-2.04-0.01-2.88 0.12c-0.63 0.1-1.59 0.32-2.13 0.49c-0.54 0.17-1.45 0.51-2.02 0.76c-0.57 0.25-1.04 0.45-1.04 0.45c0 0-0.01-0.07-0.02-0.15c-0.01-0.08-0.13-0.45-0.27-0.83c-0.17-0.48-0.23-0.85-0.19-1.21c0.03-0.28 0.15-0.7 0.26-0.92c0.11-0.22 0.34-0.58 0.5-0.8c0.17-0.22 0.69-0.65 1.17-0.95c0.48-0.31 1.02-0.61 1.21-0.67c0.22-0.07 0.43-0.27 0.58-0.53c0.13-0.23 0.65-0.82 1.17-1.3c0.52-0.48 1.23-1.06 1.58-1.28c0.35-0.22 0.64-0.44 0.65-0.49c0-0.05-0.05-0.09-0.11-0.09c-0.06 0-0.57 0.17-1.12 0.37c-0.55 0.2-1.21 0.53-1.93 1.1l-1.09-0.41c-0.6-0.22-1.3-0.43-1.55-0.46c-0.31-0.04-0.6 0.01-0.86 0.15c-0.22 0.11-0.64 0.37-0.92 0.58c-0.29 0.21-0.75 0.48-1.04 0.61c-0.29 0.13-1.14 0.39-1.9 0.58c-0.76 0.19-2.81 0.67-4.55 1.06c-1.74 0.39-3.58 0.81-4.09 0.92c-0.51 0.12-1.06 0.22-1.24 0.22c-0.17 0-0.33 0.06-0.35 0.12c-0.02 0.07-0.73-0.38-1.58-0.99c-0.86-0.61-2.31-1.71-3.22-2.45c-0.92-0.73-2.29-1.88-3.05-2.55c-0.76-0.67-2.2-2.02-5.02-4.78l0.01-13.53l1.01-0.59c0.55-0.33 1.89-1.05 2.97-1.61c1.08-0.56 2.81-1.39 3.86-1.86c1.05-0.47 2.76-1.19 3.8-1.61c1.05-0.42 2.88-1.1 4.09-1.52c1.2-0.42 3.2-1.07 4.43-1.44c1.24-0.37 3.28-0.93 4.55-1.25c1.27-0.32 3.37-0.79 4.66-1.04c1.3-0.26 3.27-0.6 4.38-0.76c1.11-0.16 2.78-0.37 3.71-0.47c0.93-0.1 1.92-0.17 2.19-0.17c0.27 0 0.66-0.04 1.23-0.17l0.06-0.95c0.03-0.52 0.11-0.95 0.18-0.95c0.06 0 0.17-0.19 0.25-0.43c0.07-0.24 0.35-0.9 0.61-1.47c0.26-0.57 1-1.94 1.64-3.05c0.64-1.11 1.33-2.35 1.53-2.76c0.21-0.41 0.49-0.9 0.63-1.09c0.14-0.19 0.41-0.42 0.59-0.5c0.19-0.09 0.48-0.12 0.65-0.09c0.17 0.04 0.55 0.25 0.83 0.47c0.29 0.22 0.6 0.4 0.69 0.4c0.1 0 0.39-0.2 0.66-0.45c0.27-0.25 0.63-0.7 0.8-1.01c0.17-0.31 0.4-0.87 0.51-1.25c0.13-0.45 0.35-0.85 0.63-1.15c0.23-0.25 0.81-0.73 1.28-1.05c0.47-0.32 1.6-1.02 2.52-1.54c0.92-0.52 1.89-1.07 2.16-1.22c0.27-0.15 0.48-0.3 0.46-0.33c-0.02-0.03-0.52 0.05-1.12 0.17c-0.8 0.16-1.57 0.22-2.88 0.22c-1.06 0-2.23-0.07-2.88-0.18c-0.6-0.1-1.56-0.33-2.13-0.52c-0.57-0.19-1.24-0.47-1.5-0.61c-0.25-0.15-0.6-0.43-0.78-0.63c-0.18-0.21-0.32-0.49-0.31-0.68c0-0.17 0.04-0.37 0.09-0.44c0.05-0.07 0.61-0.13 1.29-0.14c0.68-0.01 1.96-0.15 2.94-0.31c0.95-0.16 2.56-0.51 3.57-0.77c1.01-0.26 1.92-0.52 2.02-0.58c0.11-0.06-0.25-0.07-0.92-0.02c-0.6 0.05-1.9 0.08-2.88 0.07c-1.27-0.01-2.1-0.08-2.88-0.24c-0.6-0.12-1.38-0.35-1.73-0.51c-0.35-0.16-0.84-0.47-1.09-0.69c-0.25-0.22-0.55-0.6-0.66-0.83c-0.11-0.23-0.2-0.63-0.2-0.88c0-0.25 0.08-0.62 0.35-1.15l0.6 0.27c0.33 0.15 0.97 0.37 1.41 0.49c0.67 0.18 1.22 0.22 3.22 0.22c1.84 0 2.9-0.06 4.43-0.26c1.11-0.14 2.25-0.29 3.05-0.38l-0.46-0.46c-0.25-0.25-0.69-0.56-0.98-0.68c-0.29-0.12-0.83-0.31-1.21-0.41c-0.46-0.12-1.54-0.22-3.22-0.29c-1.65-0.07-2.83-0.17-3.4-0.3c-0.48-0.11-1.23-0.35-1.67-0.53c-0.44-0.19-1.25-0.62-1.78-0.97c-0.71-0.46-1.42-1.09-2.59-2.31c-0.89-0.92-2.34-2.41-3.22-3.31c-0.89-0.89-2.17-2.04-2.84-2.54c-0.68-0.5-1.91-1.34-2.73-1.87c-0.83-0.52-1.53-0.94-1.56-0.92c-0.03 0.02 0.21 0.31 0.53 0.66c0.32 0.35 0.8 0.94 1.06 1.32c0.26 0.38 0.66 1.08 0.88 1.55c0.33 0.7 0.41 1.03 0.45 1.78c0.03 0.51 0.01 1.13-0.04 1.38c-0.06 0.32-0.25 0.63-0.63 1.04c-0.3 0.32-0.65 0.78-0.78 1.04c-0.13 0.25-0.31 0.77-0.41 1.15c-0.1 0.38-0.26 1.23-0.37 1.9c-0.11 0.67-0.3 1.49-0.44 1.84c-0.13 0.35-0.23 0.66-0.22 0.69c0.01 0.03-0.07 0.14-0.18 0.24c-0.11 0.1-0.92 0.7-1.81 1.32c-0.89 0.62-2.7 1.94-4.03 2.93c-1.33 0.99-3.84 2.93-5.58 4.31c-1.74 1.38-4.41 3.44-5.93 4.58c-1.52 1.14-3.07 2.28-3.45 2.54c-0.38 0.26-0.94 0.56-1.24 0.68c-0.3 0.11-0.75 0.21-1.01 0.21c-0.25 0-2.18-0.29-4.29-0.64c-2.11-0.35-5.1-0.9-6.65-1.21c-1.55-0.31-3.18-0.67-3.63-0.79c-0.44-0.12-1.3-0.41-1.9-0.64c-0.6-0.23-1.72-0.72-2.48-1.1c-0.76-0.37-1.95-1-2.65-1.39c-0.7-0.39-2.72-1.55-4.49-2.59c-1.77-1.03-3.56-2.04-3.97-2.25c-0.41-0.2-1.84-0.97-3.17-1.7c-1.33-0.73-2.83-1.59-3.34-1.9c-0.51-0.32-1.34-0.83-1.84-1.14c-0.76-0.46-1.12-0.6-2.07-0.79c-0.63-0.13-1.77-0.44-2.53-0.7c-0.76-0.26-2.19-0.82-3.17-1.25c-0.98-0.43-2.51-1.14-5.01-2.38l-0.62-0.91c-0.34-0.5-1.09-1.56-1.67-2.35c-0.57-0.79-1.4-1.87-1.82-2.39c-0.45-0.55-0.78-1.06-0.78-1.21c0-0.15-0.47-0.91-1.08-1.76c-0.6-0.82-1.46-1.94-1.92-2.48c-0.46-0.54-0.88-1.13-0.93-1.32c-0.07-0.26-0.03-0.46 0.37-1.21l-0.4-0.52c-0.29-0.37-0.4-0.64-0.4-0.92c0-0.22 0.08-0.56 0.17-0.75c0.1-0.19 0.34-0.43 0.55-0.53c0.26-0.13 0.53-0.17 0.89-0.12c0.29 0.04 0.8 0.12 1.15 0.17c0.55 0.09 0.7 0.17 1.12 0.63c0.49 0.53 0.49 0.53 0.69 0.29c0.16-0.2 0.29-0.23 0.66-0.18c0.25 0.04 0.66 0.21 0.9 0.39c0.24 0.18 0.63 0.63 0.86 1.01c0.23 0.38 0.67 1.29 0.98 2.02c0.31 0.73 0.68 1.54 0.83 1.81c0.15 0.27 0.31 0.49 0.36 0.49c0.05 0 0.09-0.53 0.09-1.18c0-0.94 0.07-1.4 0.33-2.27c0.3-1.01 0.31-1.15 0.2-1.84c-0.07-0.41-0.16-1.29-0.2-1.96c-0.04-0.68-0.01-1.81 0.06-2.59c0.07-0.76 0.2-1.67 0.41-2.67l-0.99 0.01c-0.73 0.01-1.04-0.03-1.19-0.16c-0.11-0.09-0.33-0.42-0.75-1.27l-0.55 0.07c-0.39 0.05-0.58 0.03-0.68-0.09c-0.09-0.11-0.11-0.47-0.06-1.17c0.06-0.8 0.12-1.04 0.28-1.12c0.11-0.06 0.18-0.16 0.14-0.22c-0.03-0.06-0.16-0.12-0.29-0.12c-0.13 0-0.36-0.13-0.52-0.29c-0.18-0.18-0.29-0.42-0.29-0.63c0-0.19 0.06-0.48 0.14-0.64c0.08-0.16 0.29-0.34 0.46-0.4c0.23-0.08 0.42-0.07 0.72 0.06c0.22 0.09 0.49 0.32 0.6 0.49c0.11 0.17 0.23 0.47 0.26 0.66c0.05 0.28 0.14 0.36 0.42 0.4c0.33 0.05 0.36 0.03 0.43-0.35c0.04-0.22 0.07-0.61 0.07-0.86c0-0.25 0.08-0.77 0.16-1.15c0.13-0.55 0.25-0.77 0.6-1.07c0.24-0.21 0.59-0.42 0.77-0.46c0.28-0.07 0.32-0.12 0.27-0.37c-0.03-0.16-0.11-0.52-0.18-0.81c-0.06-0.28-0.12-0.73-0.13-0.98c-0.01-0.3 0.12-0.71 0.34-1.15c0.19-0.38 0.48-0.83 0.64-1.01c0.21-0.23 0.4-0.32 0.69-0.32c0.24 0 0.58 0.12 0.83 0.29c0.24 0.16 0.55 0.29 0.69 0.29c0.19 0 0.32 0.13 0.5 0.49c0.15 0.29 0.22 0.61 0.18 0.78c-0.03 0.16-0.14 0.5-0.23 0.75c-0.09 0.25-0.13 0.58-0.1 0.74c0.04 0.15 0.14 0.31 0.22 0.35c0.08 0.04 0.31-0.1 0.52-0.3c0.2-0.2 0.6-0.47 0.89-0.6c0.29-0.13 1-0.63 2.66-2.03l-0.01-2.82c-0.01-2.57-0.03-2.87-0.24-3.34c-0.13-0.29-0.23-0.67-0.22-0.86c0.01-0.19 0.08-0.53 0.16-0.75c0.08-0.22 0.24-0.45 0.34-0.52c0.15-0.09 0.27-0.04 0.53 0.26c0.33 0.36 0.34 0.42 0.34 1.47c0 0.78 0.12 1.73 0.42 3.31c0.23 1.22 0.44 2.54 0.5 3.66l-1.72 1.7c-0.94 0.93-1.88 1.92-2.43 2.68l0.18 0.55c0.11 0.35 0.15 0.74 0.11 1.07c-0.04 0.28-0.2 1.14-0.67 3.28l0.64 1.73c0.35 0.95 0.88 2.5 1.17 3.45c0.29 0.95 0.63 2.12 0.75 2.59c0.17 0.66 0.27 1.81 0.41 4.78c0.11 2.15 0.24 4.25 0.29 4.66c0.05 0.41 0.2 1.05 0.58 2.07l1.18 0.55c0.65 0.3 1.75 0.91 2.45 1.35c0.97 0.61 1.58 0.89 2.59 1.22c0.73 0.23 2.15 0.63 3.17 0.89c1.01 0.26 2.93 0.71 4.26 1c1.33 0.29 3.95 0.81 5.82 1.15c1.87 0.34 4.1 0.72 4.95 0.85c0.86 0.13 2.54 0.37 3.74 0.53c1.2 0.16 2.78 0.43 3.51 0.59c0.73 0.16 2.28 0.6 3.45 0.97c1.17 0.37 2.44 0.74 2.82 0.81c0.68 0.13 0.71 0.12 1.44-0.26c0.43-0.23 1.12-0.75 2.54-2.12l0.28-1.38c0.16-0.76 0.39-1.72 0.53-2.13c0.13-0.41 0.5-1.24 0.81-1.84c0.31-0.6 0.84-1.46 1.17-1.9c0.33-0.44 1.04-1.27 1.58-1.83c0.54-0.56 1.68-1.6 2.53-2.31c0.86-0.71 1.7-1.47 1.87-1.68c0.21-0.26 0.4-0.75 0.56-1.43c0.13-0.57 0.37-1.48 0.53-2.02c0.16-0.54 0.48-1.34 0.71-1.78c0.23-0.44 0.79-1.3 1.24-1.9c0.45-0.6 1.44-1.69 2.19-2.42c0.75-0.73 1.99-1.79 2.75-2.36c0.76-0.57 1.85-1.32 2.42-1.66c0.57-0.34 1.76-0.95 2.65-1.35c0.89-0.4 2.03-1.01 2.53-1.34c0.51-0.34 1.36-1.08 2.88-2.66l0.15-1.03c0.08-0.57 0.2-1.65 0.26-2.41c0.06-0.76 0.22-2.11 0.62-4.61l-0.97-0.98c-0.53-0.54-1.18-1.29-1.43-1.67c-0.25-0.38-0.58-1-0.74-1.38c-0.21-0.51-0.3-0.97-0.33-1.78c-0.05-1.08-0.06-1.1-0.41-1.33c-0.24-0.15-0.44-0.44-0.59-0.83c-0.2-0.52-0.32-0.65-0.96-1.03c-0.4-0.24-1.05-0.7-1.44-1.02c-0.39-0.32-0.97-0.92-1.3-1.32c-0.33-0.41-0.8-1.13-1.06-1.61c-0.25-0.47-0.59-1.28-0.75-1.78c-0.16-0.51-0.35-1.39-0.42-1.96c-0.07-0.57-0.1-1.18-0.07-1.35c0.03-0.17 0.1-0.3 0.15-0.28c0.05 0.02 0.32 0.14 0.6 0.28c0.29 0.13 0.71 0.27 1.38 0.38l0-0.55c0-0.3 0.08-0.87 0.17-1.27c0.09-0.4 0.29-0.97 0.45-1.27c0.15-0.3 0.54-0.79 0.86-1.09c0.32-0.3 0.64-0.55 0.7-0.55c0.06 0 0.12 0.13 0.12 0.29c0 0.19 0.11 0.36 0.31 0.49c0.27 0.17 0.32 0.18 0.37 0.03c0.03-0.1 0.27-0.39 0.53-0.67c0.29-0.3 0.67-0.56 0.99-0.66c0.29-0.09 0.66-0.17 0.83-0.17c0.25 0 0.3 0.04 0.24 0.2c-0.04 0.11-0.1 0.31-0.13 0.43c-0.03 0.13 0 0.27 0.07 0.32c0.08 0.05 0.31-0.21 1.11-1.49l1.04 0.01c1 0.01 1.08-0.01 2.36-0.58c0.73-0.32 2.26-0.87 3.4-1.22c1.14-0.35 2.67-0.76 3.4-0.93c0.73-0.16 1.76-0.35 2.3-0.42c0.54-0.07 1.33-0.12 1.76-0.12c0.43 0 1.36 0.1 2.07 0.22c0.71 0.12 1.79 0.38 2.39 0.57c0.6 0.19 1.23 0.44 1.4 0.55c0.17 0.11 1.1 0.88 2.07 1.7c0.97 0.82 2.07 1.78 2.44 2.13c0.37 0.35 0.9 0.97 1.17 1.38c0.27 0.41 0.76 1.24 1.08 1.84c0.32 0.6 0.65 1.3 0.74 1.55c0.09 0.25 0.37 0.82 0.63 1.27c0.26 0.44 0.67 1.3 0.92 1.9c0.25 0.6 0.64 1.66 0.87 2.36c0.23 0.7 0.49 1.71 0.59 2.25c0.1 0.54 0.18 1.21 0.18 1.5c0 0.29 0.11 0.78 0.24 1.09c0.2 0.46 0.24 0.75 0.16 2.27l2.65 0.8c1.46 0.44 3.68 1.08 4.95 1.43c1.27 0.35 2.92 0.85 3.68 1.11c0.76 0.26 1.87 0.7 2.48 0.98c0.6 0.28 1.38 0.69 1.73 0.9c0.52 0.32 0.75 0.39 1.3 0.4c0.36 0 1.47 0.11 2.45 0.23c0.98 0.13 2.39 0.36 3.14 0.52c0.74 0.16 1.79 0.42 2.33 0.58c0.54 0.16 1.47 0.48 2.07 0.71c0.6 0.23 1.38 0.61 1.73 0.85c0.35 0.23 1.07 0.8 1.61 1.26c0.54 0.46 1.5 1.31 2.13 1.89c0.63 0.58 1.51 1.35 1.96 1.71c0.44 0.36 1.12 0.81 1.5 1c0.38 0.19 1.11 0.42 1.61 0.52c0.51 0.1 1.39 0.28 1.96 0.4c0.57 0.13 1.43 0.4 1.9 0.6c0.48 0.21 1.32 0.67 1.87 1.03c0.55 0.36 1.4 1.03 1.89 1.49c0.48 0.46 1.33 1.43 1.89 2.16c0.67 0.88 1.22 1.47 1.63 1.75c0.34 0.24 0.92 0.53 1.28 0.66c0.36 0.13 1.02 0.3 1.46 0.38c0.44 0.08 0.81 0.12 0.83 0.09c0.02-0.03 0.44-0.86 0.93-1.84c0.49-0.98 1.16-2.19 1.5-2.68c0.33-0.49 0.91-1.32 1.29-1.84c0.38-0.52 1.31-1.73 2.08-2.68c0.77-0.95 2.04-2.53 2.84-3.51c0.79-0.98 2.01-2.54 2.69-3.45c0.69-0.92 1.93-2.71 2.76-3.97c0.83-1.27 1.67-2.42 1.85-2.57c0.19-0.15 0.48-0.3 0.66-0.35c0.28-0.07 0.49-0.38 1.49-2.15c0.64-1.14 1.43-2.49 1.75-2.99c0.33-0.51 1.01-1.36 1.51-1.9c0.5-0.54 1.17-1.28 1.49-1.66c0.32-0.37 0.94-0.96 1.38-1.3c0.44-0.34 1.09-0.76 1.44-0.92c0.35-0.16 0.95-0.35 2.04-0.55l-0.41-0.55c-0.23-0.3-0.47-0.53-0.53-0.5c-0.06 0.02-5.32 3.12-11.69 6.87c-6.37 3.75-11.73 6.94-11.92 7.07c-0.19 0.14-3.04 1.84-12.32 7.29l-0.92 0.13c-0.51 0.07-0.94 0.12-0.96 0.1c-0.02-0.02 0.06-0.5 0.17-1.06c0.19-0.95 0.24-1.04 0.61-1.28c0.22-0.14 3.12-1.75 6.45-3.57c3.33-1.82 6.41-3.49 6.85-3.71c0.44-0.22 5.86-3.17 12.03-6.56c6.18-3.38 11.24-6.17 11.26-6.2c0.02-0.03-0.09-0.36-0.23-0.74c-0.14-0.38-0.31-0.69-0.37-0.69c-0.06 0-3.3 1.45-7.2 3.22c-3.9 1.77-7.17 3.23-7.28 3.23c-0.11 0-0.51-0.09-0.89-0.2c-0.38-0.11-0.69-0.23-0.69-0.26c0-0.03 3.6-1.59 8-3.45c6.07-2.58 7.99-3.44 7.95-3.57c-0.03-0.1-0.08-0.42-0.11-0.72c-0.06-0.47-0.1-0.55-0.33-0.54c-0.14 0-5.16 0.54-11.14 1.21c-5.99 0.66-19.07 2.1-47.27 5.2l-0.69-0.28c-0.38-0.15-0.7-0.29-0.72-0.3c-0.02-0.01 0.26-0.43 0.62-0.94c0.36-0.51 0.66-0.93 0.66-0.94c0.01-0.01 8.1-0.77 17.98-1.69c9.88-0.92 23.09-2.14 29.36-2.72c6.27-0.58 11.43-1.09 11.47-1.13c0.04-0.04 0.13-0.44 0.21-0.89c0.08-0.44 0.28-1.14 0.44-1.55c0.24-0.62 0.27-0.76 0.14-0.84c-0.09-0.05-4.85-2.29-21-9.86l-0.2-0.5c-0.11-0.27-0.2-0.52-0.2-0.55c0-0.03 0.33-0.1 1.49-0.23l20.67 10.16l0.28-0.39c0.15-0.21 0.68-0.78 1.16-1.25c0.49-0.48 1.2-1.05 1.59-1.27c0.39-0.22 0.71-0.44 0.71-0.49c0-0.05-1.2-2.33-2.66-5.07c-1.47-2.74-2.68-5.03-2.71-5.1c-0.02-0.06 0.14-0.26 0.36-0.43c0.37-0.29 0.43-0.3 0.72-0.16c0.26 0.13 0.72 1 2.73 5.24c1.33 2.8 2.46 5.08 2.5 5.08c0.05 0 0.49-0.11 0.98-0.25c0.49-0.13 0.9-0.25 0.92-0.26c0.01-0.01-0.62-6.31-2.84-28l0.47-0.72c0.26-0.4 0.49-0.72 0.51-0.72z" />
		<path class="s1" d="m95 62.69c0.51 0.03 1.15 0.16 1.55 0.31c0.38 0.14 0.95 0.47 1.27 0.73c0.32 0.26 0.75 0.76 0.95 1.1c0.21 0.35 0.43 0.81 0.5 1.03c0.07 0.22 0.15 0.82 0.19 1.32c0.05 0.73 0.01 1.08-0.18 1.73c-0.13 0.44-0.43 1.07-0.65 1.38c-0.23 0.32-0.58 0.71-0.78 0.88c-0.2 0.17-0.66 0.44-1 0.6c-0.35 0.16-0.94 0.34-1.32 0.39c-0.38 0.05-1.05 0.05-1.5 0c-0.48-0.06-1.09-0.23-1.5-0.43c-0.41-0.2-0.91-0.57-1.24-0.92c-0.3-0.32-0.67-0.86-0.83-1.19c-0.16-0.33-0.34-0.97-0.42-1.41c-0.1-0.61-0.1-0.99 0-1.55c0.07-0.41 0.26-1.03 0.42-1.38c0.16-0.35 0.54-0.88 0.83-1.19c0.3-0.31 0.8-0.69 1.12-0.85c0.32-0.16 0.83-0.37 1.15-0.45c0.34-0.09 0.94-0.13 1.44-0.1zm26.08 0c0.44 0.03 1.09 0.15 1.44 0.29c0.35 0.13 0.83 0.39 1.07 0.59c0.24 0.19 0.43 0.41 0.43 0.49c0 0.08-0.2 0.28-0.86 0.75l-0.43-0.39c-0.27-0.24-0.68-0.46-1.09-0.58c-0.45-0.12-0.83-0.16-1.18-0.1c-0.29 0.04-0.69 0.15-0.89 0.24c-0.21 0.09-0.61 0.38-0.91 0.65c-0.29 0.27-0.67 0.75-0.83 1.07c-0.27 0.52-0.3 0.7-0.3 1.78c0 1.08 0.03 1.27 0.3 1.78c0.17 0.32 0.48 0.75 0.69 0.97c0.21 0.22 0.65 0.51 0.97 0.66c0.43 0.2 0.78 0.27 1.38 0.27c0.61 0 0.95-0.07 1.38-0.27c0.32-0.15 0.71-0.41 0.86-0.58c0.16-0.17 0.34-0.31 0.4-0.31c0.06 0 0.27 0.16 0.81 0.7l-0.4 0.41c-0.22 0.22-0.66 0.53-0.98 0.69c-0.32 0.15-0.91 0.33-1.32 0.38c-0.41 0.06-1.03 0.07-1.38 0.02c-0.35-0.05-0.93-0.22-1.3-0.39c-0.36-0.17-0.93-0.55-1.25-0.85c-0.34-0.31-0.73-0.84-0.92-1.24c-0.19-0.38-0.4-1.05-0.47-1.5c-0.1-0.61-0.1-0.99 0-1.55c0.07-0.41 0.23-0.98 0.35-1.27c0.12-0.28 0.43-0.78 0.68-1.09c0.25-0.32 0.74-0.74 1.08-0.95c0.34-0.2 0.91-0.45 1.25-0.55c0.4-0.11 0.93-0.16 1.44-0.13zm39.96 0c0.44 0.03 1.09 0.15 1.44 0.29c0.35 0.13 0.83 0.39 1.07 0.59c0.24 0.19 0.43 0.41 0.43 0.49c0 0.08-0.2 0.28-0.86 0.75l-0.43-0.39c-0.27-0.24-0.68-0.46-1.09-0.58c-0.45-0.13-0.82-0.16-1.18-0.1c-0.29 0.05-0.69 0.16-0.89 0.24c-0.21 0.09-0.61 0.38-0.91 0.65c-0.29 0.27-0.67 0.75-0.83 1.07c-0.27 0.52-0.3 0.7-0.3 1.78c0 1.09 0.03 1.27 0.31 1.78c0.17 0.32 0.48 0.75 0.69 0.97c0.21 0.22 0.64 0.51 0.96 0.66c0.43 0.2 0.78 0.27 1.38 0.27c0.61 0 0.95-0.07 1.38-0.27c0.32-0.15 0.71-0.41 0.86-0.58c0.16-0.17 0.34-0.3 0.4-0.3c0.06 0 0.26 0.13 0.43 0.29c0.17 0.16 0.32 0.32 0.32 0.37c0 0.05-0.22 0.29-0.49 0.54c-0.27 0.25-0.7 0.55-0.96 0.66c-0.25 0.11-0.8 0.25-1.21 0.31c-0.41 0.06-1.03 0.07-1.38 0.02c-0.35-0.05-0.93-0.22-1.3-0.39c-0.36-0.17-0.93-0.55-1.25-0.85c-0.34-0.32-0.72-0.83-0.92-1.24c-0.18-0.38-0.39-0.98-0.45-1.32c-0.06-0.35-0.12-0.81-0.12-1.04c0-0.22 0.08-0.71 0.18-1.09c0.1-0.38 0.29-0.92 0.43-1.2c0.14-0.28 0.46-0.73 0.71-0.98c0.25-0.26 0.69-0.61 0.98-0.78c0.29-0.17 0.8-0.39 1.15-0.48c0.4-0.11 0.93-0.16 1.44-0.13zm-104.27 0.18l1.93 0c1.38 0 2.12 0.05 2.62 0.18c0.38 0.1 0.94 0.32 1.25 0.49c0.31 0.17 0.79 0.57 1.07 0.89c0.28 0.32 0.62 0.86 0.75 1.21c0.13 0.35 0.26 1.04 0.3 1.55c0.05 0.72 0.01 1.09-0.18 1.73c-0.13 0.45-0.42 1.05-0.65 1.35c-0.23 0.3-0.66 0.71-0.96 0.91c-0.3 0.2-0.83 0.47-1.18 0.59c-0.5 0.18-1.09 0.24-4.95 0.37l0-4.63l0-4.63zm15.72 0.06l0.06 0.98h-4.72v2.88h4.38v1.04h-4.38v3.11l4.89 0.06v1.04h-5.99l-0.02-4.43c-0.01-2.44 0-4.5 0.03-4.58c0.03-0.11 0.67-0.14 5.75-0.08zm1.21-0.06l7.08 0.06l0.06 0.98h-2.99l-0.06 8.12l-1.09 0.06v-8.18h-2.99l0-0.52l0-0.52zm8.66-0.03l1.92 0.06c1.05 0.03 2.1 0.12 2.32 0.18c0.22 0.07 0.58 0.24 0.81 0.39c0.22 0.15 0.52 0.5 0.66 0.78c0.16 0.31 0.26 0.72 0.26 1.04c0 0.28-0.05 0.7-0.11 0.92c-0.06 0.24-0.32 0.6-0.63 0.89c-0.31 0.29-0.71 0.54-0.99 0.6c-0.25 0.06-0.46 0.14-0.46 0.17c0 0.03 0.54 0.94 1.21 2.02c0.67 1.08 1.21 2.01 1.21 2.07c0 0.06-0.29 0.12-1.27 0.12l-2.48-4.15l-1.32 0l-0.06 4.09h-1.04l-0.01-4.59l-0.01-4.59zm19.2 0.03h1.04v9.21h-1.04v-4.61v-4.61zm2.65 0l7.08 0.06l0.06 0.98h-2.99l-0.06 8.12l-1.09 0.06v-8.18h-2.99l0-0.52l0-0.52zm21.88 0h1.15l-0.06 9.15l-1.09 0.06v-4.61v-4.61zm2.65 0h7.14v1.04h-2.99l-0.06 8.12h-1.04l-0.06-8.12h-2.99v-0.52v-0.52zm8.81-0.01l1.27 2.02c0.7 1.11 1.29 2.02 1.32 2.02c0.03 0 0.63-0.91 2.59-4.02l0.6 0c0.41 0 0.6 0.04 0.6 0.14c0 0.08-0.73 1.25-3.22 5.04l-0.06 3.97l-1.09 0.06l0-3.97l-1.66-2.53c-0.91-1.39-1.64-2.57-1.61-2.62c0.03-0.05 0.32-0.09 1.25-0.09zm11.69 0.01h5.65v1.04h-4.49v2.99h4.26v1.04h-4.26l-0.06 4.09h-1.04l-0.03-4.58l-0.03-4.58z" />
		<path class="s2" d="m95.06 63.75c0.38 0.03 0.9 0.16 1.15 0.28c0.25 0.12 0.65 0.38 0.89 0.57c0.26 0.21 0.57 0.64 0.77 1.07c0.19 0.4 0.37 1 0.41 1.35c0.05 0.43 0.01 0.87-0.11 1.38c-0.1 0.41-0.32 0.94-0.47 1.18c-0.16 0.24-0.43 0.56-0.6 0.73c-0.17 0.16-0.52 0.41-0.78 0.55c-0.38 0.21-0.65 0.25-1.55 0.25c-0.94 0-1.17-0.04-1.65-0.29c-0.31-0.16-0.75-0.5-0.97-0.75c-0.23-0.25-0.52-0.69-0.65-0.98c-0.19-0.41-0.24-0.75-0.24-1.67c0-0.99 0.04-1.23 0.27-1.67c0.15-0.28 0.46-0.72 0.69-0.96c0.23-0.24 0.61-0.54 0.85-0.66c0.24-0.12 0.63-0.27 0.86-0.33c0.24-0.06 0.74-0.08 1.12-0.05zm-37.1 0.13l1.57 0.07c1.45 0.06 1.62 0.09 2.29 0.42c0.52 0.25 0.81 0.49 1.05 0.84c0.18 0.27 0.4 0.7 0.48 0.95c0.09 0.25 0.15 0.88 0.15 1.38c0 0.72-0.07 1.06-0.28 1.55c-0.17 0.38-0.48 0.8-0.8 1.07c-0.29 0.25-0.77 0.52-1.09 0.61c-0.37 0.11-1.09 0.17-3.4 0.16l0.02-3.53l0.02-3.53zm25.56 0l1.22 0.06c0.77 0.04 1.35 0.12 1.57 0.23c0.19 0.1 0.45 0.29 0.58 0.43c0.16 0.18 0.23 0.42 0.23 0.81c0 0.39-0.07 0.63-0.23 0.81c-0.13 0.14-0.39 0.34-0.58 0.43c-0.22 0.11-0.8 0.2-2.82 0.31l0.02-1.54l0.02-1.54z" />
		<path class="s0" d="m68.96 76.92c0.03 0.1 0.51 1.18 1.07 2.42c0.61 1.34 1.07 2.53 1.14 2.94c0.09 0.49 0.09 0.87 0 1.3c-0.07 0.33-0.3 0.95-0.51 1.38c-0.21 0.43-0.51 1.1-0.66 1.5c-0.15 0.4-0.25 0.75-0.22 0.78c0.03 0.03 0.24-0.29 0.45-0.72c0.22-0.43 0.63-1.02 0.92-1.31c0.29-0.29 0.76-0.65 1.04-0.8c0.44-0.23 0.68-0.28 1.57-0.28c0.99 0 1.08 0.02 1.55 0.35c0.34 0.24 0.62 0.58 0.87 1.07c0.29 0.55 0.37 0.86 0.37 1.35c0 0.45-0.09 0.8-0.29 1.21c-0.16 0.32-0.46 0.7-0.66 0.86c-0.21 0.15-0.58 0.36-0.83 0.47c-0.25 0.1-0.47 0.17-0.49 0.15c-0.01-0.02 0.02-0.22 0.08-0.44c0.06-0.22 0.08-0.56 0.04-0.75c-0.04-0.19-0.13-0.48-0.21-0.63c-0.08-0.16-0.33-0.38-0.56-0.49c-0.23-0.11-0.52-0.2-0.65-0.2c-0.13 0-0.5 0.1-0.83 0.23c-0.34 0.13-0.79 0.42-1.03 0.66c-0.23 0.24-0.48 0.58-0.55 0.75c-0.1 0.27-0.09 0.32 0.08 0.32c0.11 0 0.32 0.08 0.46 0.17c0.14 0.1 0.26 0.28 0.26 0.4c0 0.13-0.08 0.31-0.18 0.4c-0.1 0.09-0.33 0.17-0.52 0.17c-0.3 0-0.33 0.03-0.25 0.25c0.05 0.14 0.22 0.35 0.37 0.46c0.16 0.12 0.39 0.21 0.52 0.21c0.13 0 0.35-0.09 0.51-0.21c0.24-0.18 0.27-0.27 0.22-0.72c-0.03-0.29-0.11-0.62-0.16-0.74c-0.09-0.21-0.07-0.22 0.42-0.14c0.29 0.05 0.65 0.18 0.81 0.29c0.16 0.12 0.35 0.33 0.43 0.49c0.08 0.15 0.14 0.54 0.14 0.85c0 0.38-0.08 0.71-0.23 0.95c-0.13 0.21-0.4 0.46-0.6 0.57c-0.22 0.11-0.64 0.19-1.01 0.19c-0.42 0-0.8-0.08-1.12-0.25c-0.27-0.14-0.52-0.3-0.55-0.36c-0.03-0.06-0.11-0.12-0.17-0.12c-0.07 0-0.08 0.13-0.04 0.32c0.04 0.17 0.14 0.43 0.23 0.58c0.09 0.14 0.13 0.3 0.1 0.35c-0.03 0.05-0.21 0.03-0.39-0.03c-0.32-0.11-0.33-0.1-0.57 0.52c-0.13 0.35-0.3 0.73-0.38 0.84c-0.13 0.19-0.18 0.13-0.49-0.61c-0.34-0.81-0.35-0.82-1.09-0.7l0.23-0.49c0.13-0.27 0.23-0.55 0.23-0.63c0-0.08 0.1-0.29 0.23-0.46c0.12-0.17 0.25-0.46 0.29-0.63c0.04-0.18 0.01-0.32-0.05-0.32c-0.06 0-0.18 0.25-0.26 0.55c-0.09 0.34-0.28 0.69-0.52 0.92c-0.21 0.21-0.57 0.43-0.81 0.49c-0.24 0.06-0.59 0.11-0.78 0.11c-0.19 0-0.5-0.07-0.7-0.14c-0.19-0.07-0.46-0.21-0.59-0.31c-0.13-0.09-0.33-0.33-0.43-0.52c-0.1-0.19-0.18-0.54-0.18-0.78c0-0.24 0.07-0.57 0.16-0.75c0.09-0.17 0.28-0.44 0.43-0.58c0.18-0.17 0.43-0.27 0.73-0.29c0.36-0.02 0.45 0.01 0.41 0.15c-0.03 0.09-0.07 0.38-0.09 0.63c-0.03 0.35 0.01 0.52 0.19 0.72c0.15 0.16 0.37 0.26 0.58 0.26c0.24 0 0.41-0.09 0.58-0.32c0.13-0.17 0.23-0.38 0.23-0.46c0-0.08-0.13-0.14-0.29-0.14c-0.16 0-0.37-0.08-0.46-0.17c-0.1-0.1-0.18-0.26-0.18-0.37c0-0.11 0.06-0.27 0.14-0.34c0.08-0.08 0.29-0.18 0.79-0.32l-0.44-0.61c-0.24-0.34-0.64-0.75-0.9-0.91c-0.29-0.19-0.68-0.32-1.04-0.35c-0.51-0.04-0.62-0.01-0.96 0.28c-0.21 0.18-0.44 0.51-0.5 0.73c-0.07 0.22-0.1 0.65-0.08 0.95c0.02 0.3 0.03 0.55 0.01 0.55c-0.02 0-0.25-0.1-0.52-0.21c-0.27-0.12-0.69-0.39-0.93-0.6c-0.25-0.22-0.52-0.61-0.62-0.91c-0.13-0.38-0.17-0.72-0.11-1.27c0.05-0.53 0.16-0.9 0.39-1.26c0.18-0.28 0.55-0.67 0.82-0.86c0.47-0.33 0.56-0.35 1.55-0.35c0.96 0 1.11 0.03 1.68 0.35c0.34 0.19 0.83 0.58 1.08 0.86c0.25 0.29 0.62 0.87 0.82 1.29c0.2 0.43 0.4 0.78 0.45 0.78c0.05 0-0.04-0.35-0.19-0.77c-0.15-0.43-0.46-1.17-0.69-1.64c-0.23-0.47-0.47-1.12-0.54-1.44c-0.09-0.41-0.09-0.78 0-1.27c0.07-0.38 0.38-1.23 0.69-1.9c0.31-0.66 0.78-1.7 1.06-2.3c0.27-0.6 0.52-1.14 0.55-1.21c0.03-0.07 0.08-0.04 0.11 0.05zm41.38 0.06c0.07 0.04 0.12 0.12 0.11 0.18c-0.01 0.06 0.41 1 0.91 2.09c0.51 1.09 1.01 2.27 1.11 2.62c0.12 0.4 0.16 0.89 0.13 1.32c-0.04 0.51-0.2 1.02-0.64 1.96c-0.32 0.7-0.65 1.47-0.72 1.73c-0.07 0.25-0.12 0.47-0.1 0.49c0.02 0.02 0.23-0.35 0.46-0.81c0.23-0.46 0.67-1.08 0.98-1.39c0.31-0.31 0.79-0.67 1.07-0.8c0.33-0.16 0.81-0.26 1.32-0.29c0.54-0.03 0.96 0.02 1.27 0.13c0.25 0.1 0.64 0.37 0.85 0.61c0.22 0.24 0.49 0.65 0.6 0.9c0.13 0.28 0.21 0.74 0.21 1.18c0 0.48-0.07 0.86-0.22 1.15c-0.12 0.24-0.37 0.57-0.55 0.74c-0.18 0.17-0.55 0.41-0.82 0.55c-0.27 0.13-0.54 0.24-0.6 0.24c-0.07 0-0.07-0.13 0.01-0.37c0.07-0.21 0.1-0.58 0.06-0.83c-0.04-0.25-0.17-0.6-0.3-0.78c-0.13-0.17-0.43-0.37-0.66-0.44c-0.31-0.09-0.57-0.09-0.95 0c-0.29 0.07-0.74 0.28-1.01 0.47c-0.27 0.19-0.59 0.51-0.72 0.72c-0.13 0.21-0.23 0.43-0.23 0.49c0 0.06 0.17 0.17 0.37 0.23c0.3 0.1 0.38 0.19 0.41 0.46c0.02 0.19-0.03 0.41-0.12 0.49c-0.08 0.08-0.29 0.15-0.46 0.14c-0.18 0-0.32 0.06-0.32 0.14c0 0.08 0.09 0.26 0.2 0.4c0.11 0.14 0.36 0.29 0.55 0.33c0.28 0.06 0.41 0.02 0.66-0.23c0.21-0.2 0.3-0.39 0.27-0.56c-0.02-0.14-0.09-0.44-0.24-1.05l0.46 0.09c0.25 0.05 0.58 0.16 0.72 0.25c0.14 0.09 0.35 0.31 0.45 0.48c0.13 0.21 0.19 0.54 0.18 0.95c-0.01 0.44-0.08 0.72-0.24 0.92c-0.12 0.16-0.4 0.39-0.61 0.51c-0.26 0.15-0.6 0.22-1.02 0.22c-0.47 0-0.78-0.08-1.18-0.31c-0.3-0.17-0.55-0.36-0.55-0.42c0-0.06-0.05-0.09-0.12-0.06c-0.08 0.04-0.08 0.18 0 0.43c0.06 0.21 0.21 0.5 0.52 0.94l-0.92-0.15l-0.33 0.83c-0.2 0.5-0.37 0.79-0.43 0.72c-0.05-0.06-0.23-0.43-0.38-0.81c-0.27-0.66-0.3-0.69-1.05-0.64l0.2-0.43c0.11-0.24 0.24-0.58 0.38-1.11l-0.4 0.41c-0.25 0.25-0.6 0.47-0.92 0.55c-0.29 0.08-0.73 0.11-0.98 0.07c-0.25-0.04-0.64-0.18-0.86-0.33c-0.22-0.14-0.5-0.47-0.62-0.72c-0.16-0.34-0.2-0.59-0.14-0.95c0.04-0.29 0.2-0.63 0.39-0.84c0.17-0.19 0.5-0.41 0.72-0.47c0.22-0.06 0.47-0.09 0.55-0.05c0.11 0.05 0.11 0.14 0.03 0.36c-0.06 0.16-0.12 0.4-0.12 0.55c0 0.14 0.1 0.4 0.23 0.58c0.15 0.2 0.34 0.32 0.52 0.32c0.16 0 0.39-0.05 0.52-0.12c0.13-0.06 0.28-0.27 0.35-0.46c0.11-0.32 0.09-0.35-0.14-0.34c-0.14 0-0.39-0.1-0.55-0.22c-0.26-0.2-0.27-0.25-0.14-0.52c0.09-0.18 0.28-0.34 0.49-0.39c0.19-0.05 0.35-0.11 0.34-0.14c0-0.03-0.19-0.3-0.41-0.6c-0.22-0.3-0.59-0.68-0.83-0.84c-0.24-0.16-0.67-0.32-0.95-0.36c-0.36-0.05-0.63-0.01-0.89 0.12c-0.25 0.13-0.45 0.36-0.62 0.73c-0.17 0.38-0.23 0.71-0.2 1.09c0.02 0.3 0.03 0.55 0.01 0.55c-0.02 0-0.25-0.11-0.52-0.24c-0.27-0.13-0.63-0.34-0.81-0.46c-0.17-0.12-0.43-0.44-0.57-0.7c-0.19-0.36-0.25-0.7-0.26-1.3c0-0.69 0.05-0.9 0.35-1.44c0.25-0.44 0.52-0.74 0.91-0.98c0.43-0.27 0.72-0.35 1.31-0.39c0.49-0.03 0.96 0.02 1.33 0.14c0.32 0.1 0.83 0.4 1.14 0.68c0.31 0.27 0.73 0.75 0.93 1.07c0.2 0.32 0.43 0.76 0.52 0.98c0.08 0.22 0.2 0.45 0.25 0.52c0.05 0.06 0.07-0.04 0.03-0.23c-0.04-0.19-0.24-0.76-0.45-1.27c-0.21-0.51-0.52-1.23-0.68-1.61c-0.21-0.49-0.3-0.9-0.3-1.38c0-0.38 0.06-0.9 0.13-1.15c0.07-0.25 0.43-1.11 0.79-1.9c0.37-0.79 0.83-1.79 1.03-2.23c0.21-0.45 0.41-0.76 0.48-0.71zm41.34-0.06c0.06 0 0.1 0.05 0.1 0.12c0 0.06 0.44 1.06 0.97 2.22c0.53 1.16 1.03 2.31 1.11 2.56c0.08 0.26 0.12 0.84 0.09 1.32c-0.04 0.74-0.12 1.02-0.57 1.96c-0.29 0.6-0.59 1.3-0.67 1.55c-0.08 0.25-0.11 0.47-0.07 0.49c0.04 0.02 0.22-0.28 0.41-0.66c0.19-0.38 0.57-0.93 0.83-1.22c0.27-0.29 0.75-0.66 1.07-0.82c0.4-0.2 0.83-0.31 1.38-0.34c0.56-0.04 0.95 0 1.27 0.12c0.25 0.1 0.67 0.4 0.92 0.68c0.27 0.3 0.55 0.77 0.66 1.13c0.11 0.34 0.2 0.75 0.2 0.91c0 0.16-0.06 0.47-0.12 0.69c-0.06 0.22-0.23 0.57-0.37 0.78c-0.14 0.21-0.49 0.53-0.78 0.71c-0.29 0.18-0.63 0.36-0.78 0.4c-0.25 0.07-0.26 0.05-0.19-0.65c0.06-0.63 0.04-0.77-0.21-1.12c-0.17-0.25-0.44-0.46-0.73-0.56c-0.35-0.12-0.56-0.13-0.92-0.03c-0.25 0.07-0.69 0.28-0.98 0.47c-0.29 0.19-0.63 0.54-0.78 0.78c-0.14 0.24-0.26 0.5-0.26 0.58c0 0.08 0.06 0.11 0.14 0.08c0.08-0.04 0.26-0.01 0.4 0.06c0.14 0.07 0.29 0.24 0.32 0.38c0.04 0.17-0.01 0.33-0.14 0.46c-0.11 0.11-0.35 0.2-0.53 0.2c-0.17 0-0.32 0.02-0.32 0.05c0 0.03 0.05 0.17 0.12 0.32c0.06 0.14 0.25 0.32 0.4 0.4c0.16 0.08 0.39 0.14 0.52 0.14c0.13 0 0.34-0.12 0.48-0.26c0.19-0.2 0.23-0.35 0.18-0.66c-0.04-0.22-0.11-0.53-0.16-0.68c-0.09-0.27-0.08-0.28 0.37-0.19c0.25 0.05 0.6 0.16 0.78 0.25c0.17 0.09 0.39 0.34 0.49 0.56c0.1 0.22 0.17 0.58 0.17 0.81c0 0.22-0.1 0.6-0.22 0.83c-0.12 0.24-0.37 0.52-0.55 0.62c-0.18 0.1-0.5 0.22-0.7 0.26c-0.21 0.04-0.65 0.01-0.98-0.06c-0.35-0.08-0.76-0.27-0.98-0.46c-0.37-0.32-0.37-0.32-0.37-0.07c0 0.14 0.11 0.47 0.5 1.18l-0.48-0.09c-0.39-0.07-0.48-0.05-0.48 0.09c0 0.1-0.13 0.46-0.29 0.81c-0.16 0.35-0.33 0.61-0.37 0.59c-0.05-0.03-0.22-0.39-0.66-1.56l-0.46 0.07c-0.44 0.07-0.45 0.06-0.28-0.15c0.1-0.12 0.24-0.4 0.32-0.62c0.07-0.22 0.11-0.43 0.08-0.46c-0.03-0.03-0.2 0.07-0.37 0.24c-0.18 0.16-0.53 0.36-0.78 0.45c-0.28 0.09-0.65 0.13-0.95 0.08c-0.27-0.04-0.64-0.15-0.83-0.25c-0.19-0.1-0.45-0.34-0.58-0.55c-0.15-0.24-0.23-0.58-0.23-0.95c0-0.41 0.07-0.69 0.26-0.98c0.17-0.26 0.44-0.46 0.75-0.58c0.32-0.12 0.52-0.13 0.6-0.06c0.08 0.08 0.08 0.24 0 0.49c-0.07 0.25-0.07 0.49 0 0.72c0.06 0.19 0.22 0.4 0.35 0.46c0.13 0.06 0.35 0.12 0.49 0.12c0.14 0 0.34-0.09 0.45-0.2c0.1-0.11 0.22-0.32 0.26-0.46c0.06-0.21 0.03-0.26-0.19-0.26c-0.14 0-0.35-0.06-0.47-0.14c-0.13-0.09-0.2-0.25-0.17-0.43c0.02-0.18 0.17-0.35 0.38-0.46c0.19-0.1 0.36-0.19 0.37-0.21c0.02-0.02-0.02-0.13-0.09-0.26c-0.06-0.13-0.31-0.44-0.55-0.7c-0.24-0.26-0.63-0.57-0.86-0.69c-0.24-0.12-0.64-0.22-0.89-0.22c-0.34 0-0.56 0.08-0.83 0.33c-0.22 0.19-0.44 0.54-0.53 0.83c-0.08 0.28-0.12 0.7-0.02 1.37l-0.32-0.13c-0.17-0.07-0.45-0.19-0.6-0.28c-0.16-0.08-0.45-0.33-0.66-0.54c-0.2-0.21-0.42-0.53-0.49-0.7c-0.07-0.17-0.12-0.65-0.12-1.07c0-0.41 0.07-0.92 0.15-1.12c0.08-0.21 0.36-0.6 0.6-0.87c0.25-0.27 0.66-0.58 0.91-0.67c0.32-0.12 0.72-0.16 1.32-0.13c0.57 0.03 1.03 0.13 1.35 0.3c0.27 0.14 0.72 0.48 1.01 0.77c0.31 0.31 0.69 0.88 0.95 1.44c0.24 0.5 0.47 0.92 0.52 0.92c0.05 0-0.06-0.4-0.25-0.89c-0.18-0.49-0.53-1.33-0.77-1.87c-0.29-0.65-0.45-1.21-0.49-1.67c-0.04-0.54 0.01-0.87 0.23-1.5c0.16-0.44 0.69-1.67 1.18-2.73c0.49-1.06 0.94-1.93 1-1.93z" />
		<path class="s1" d="m207.22 90.24c0.32 0.03 0.83 0.1 1.15 0.17c0.32 0.07 1.04 0.35 1.61 0.62c0.57 0.27 1.34 0.75 1.72 1.05c0.38 0.31 0.97 0.9 1.32 1.32c0.35 0.42 0.8 1.09 1.01 1.5c0.2 0.4 0.4 0.89 0.44 1.08c0.06 0.29 0.02 0.37-0.25 0.54c-0.18 0.11-0.47 0.32-0.65 0.46c-0.25 0.2-0.37 0.46-0.72 1.98l-0.63-0.79c-0.35-0.43-0.72-0.83-0.83-0.89c-0.11-0.05-0.34-0.1-0.52-0.1c-0.26 0-0.35 0.08-0.52 0.46c-0.18 0.41-0.25 0.46-0.58 0.46c-0.25 0-0.5-0.12-0.75-0.35c-0.31-0.28-0.39-0.46-0.55-1.72l-0.63-0.23c-0.35-0.13-0.64-0.22-0.65-0.21c-0.01 0.01-0.17 0.26-0.37 0.54c-0.34 0.48-0.36 0.56-0.29 1.21c0.06 0.57 0.03 0.75-0.14 1.03c-0.13 0.2-0.27 0.72-0.45 2.21l-0.75-0.19l0.01-0.83c0-0.62-0.04-0.88-0.18-1.01c-0.11-0.11-0.18-0.36-0.18-0.66c0-0.36-0.08-0.59-0.31-0.89c-0.22-0.29-0.41-0.4-0.63-0.4c-0.22 0-0.42 0.12-0.66 0.4c-0.3 0.35-0.35 0.49-0.35 1.09c0 0.54-0.04 0.69-0.17 0.69c-0.1 0-0.22 0.1-0.29 0.23c-0.06 0.13-0.12 0.44-0.12 1.15l-0.43-0.14c-0.24-0.07-0.5-0.19-0.58-0.26c-0.08-0.07-0.14-0.28-0.14-0.47c0.01-0.27-0.06-0.38-0.31-0.49c-0.18-0.08-0.47-0.18-0.66-0.23c-0.18-0.05-0.35-0.14-0.37-0.21c-0.02-0.06-0.06-0.41-0.16-1.44l-0.63-0.35c-0.39-0.21-0.63-0.42-0.64-0.55c0-0.11 0.21-0.64 0.48-1.18c0.39-0.79 0.69-1.18 1.53-2.02c0.79-0.79 1.27-1.16 1.97-1.52c0.51-0.26 1.31-0.59 1.78-0.73c0.48-0.14 1.23-0.3 1.67-0.34c0.44-0.05 1.07-0.06 1.38-0.04z" />
		<path class="s2" d="m110.83 90.39c0.03 0.03 0.11 0.25 0.18 0.49c0.08 0.29 0.08 0.43 0 0.43c-0.06 0-0.14-0.08-0.17-0.17c-0.03-0.09-0.06-0.32-0.06-0.49c0-0.17 0.02-0.29 0.06-0.26zm40.18-0.06l0.03 0.43c0.02 0.29-0.04 0.53-0.2 0.75c-0.13 0.17-0.23 0.25-0.23 0.17c0-0.08 0.05-0.26 0.11-0.4c0.06-0.14 0.15-0.41 0.2-0.6l0.09-0.35zm-41.37 0.17c0.05 0 0.1 0.13 0.1 0.29c0 0.16-0.05 0.39-0.12 0.52c-0.06 0.13-0.15 0.23-0.2 0.23c-0.05 0-0.04-0.23 0.02-0.52c0.06-0.28 0.15-0.52 0.2-0.52zm-41.35 0.12c0.06 0 0.11 0.05 0.11 0.12c0 0.06-0.08 0.3-0.17 0.52c-0.1 0.22-0.24 0.44-0.32 0.49c-0.08 0.05-0.11 0.04-0.07-0.03c0.04-0.06 0.13-0.33 0.21-0.6c0.07-0.27 0.18-0.49 0.24-0.49z" />
		<path class="s0" d="m174.23 103.18v11.52l-4.66 2.53l-0.03-6.76c-0.01-3.72-0.01-6.78 0-6.79c0.01-0.02 0.86-0.13 1.87-0.25c1.01-0.12 2.06-0.22 2.82-0.24zm-105.28 5.64c0.03 0.09 0.49 1.11 1.01 2.25c0.52 1.14 1.02 2.28 1.1 2.53c0.08 0.25 0.15 0.82 0.15 1.27c0 0.73-0.06 0.93-0.59 2.07c-0.32 0.7-0.65 1.47-0.72 1.73c-0.07 0.25-0.12 0.47-0.1 0.49c0.02 0.02 0.2-0.29 0.4-0.69c0.2-0.4 0.59-0.97 0.86-1.28c0.3-0.33 0.77-0.69 1.19-0.89c0.56-0.27 0.84-0.34 1.47-0.33c0.44 0 0.97 0.08 1.21 0.18c0.24 0.1 0.56 0.29 0.71 0.43c0.15 0.14 0.42 0.56 0.6 0.94c0.23 0.47 0.33 0.87 0.33 1.27c0 0.4-0.09 0.76-0.32 1.2c-0.21 0.41-0.48 0.73-0.78 0.93c-0.25 0.17-0.62 0.37-0.81 0.44c-0.19 0.08-0.36 0.13-0.37 0.11c-0.01-0.02 0.02-0.21 0.08-0.43c0.06-0.22 0.08-0.56 0.04-0.75c-0.04-0.19-0.14-0.49-0.23-0.66c-0.09-0.17-0.34-0.39-0.56-0.49c-0.22-0.09-0.55-0.17-0.72-0.17c-0.17 0-0.58 0.12-0.89 0.27c-0.32 0.15-0.74 0.45-0.94 0.66c-0.2 0.21-0.42 0.53-0.49 0.71c-0.11 0.29-0.1 0.32 0.17 0.32c0.16 0 0.37 0.08 0.46 0.17c0.1 0.09 0.17 0.28 0.17 0.4c0 0.13-0.08 0.31-0.18 0.4c-0.1 0.1-0.33 0.17-0.52 0.17c-0.27 0-0.32 0.04-0.26 0.2c0.04 0.11 0.16 0.29 0.26 0.4c0.1 0.11 0.34 0.23 0.53 0.27c0.22 0.04 0.44-0.01 0.6-0.12c0.18-0.12 0.26-0.3 0.26-0.55c0-0.21-0.05-0.54-0.12-0.75c-0.11-0.35-0.1-0.37 0.17-0.37c0.16 0 0.46 0.07 0.66 0.15c0.21 0.08 0.49 0.3 0.64 0.49c0.2 0.26 0.26 0.48 0.26 0.97c0 0.4-0.08 0.76-0.21 0.98c-0.11 0.19-0.41 0.44-0.66 0.56c-0.34 0.16-0.64 0.21-1.16 0.17c-0.57-0.04-0.81-0.12-1.77-0.79l0.07 0.37c0.04 0.21 0.14 0.49 0.23 0.63c0.09 0.14 0.14 0.28 0.1 0.32c-0.03 0.03-0.21 0.01-0.4-0.06c-0.33-0.11-0.35-0.1-0.48 0.32c-0.07 0.24-0.23 0.64-0.58 1.35l-0.33-0.75c-0.18-0.41-0.33-0.81-0.33-0.89c0-0.11-0.08-0.11-0.29-0.03c-0.16 0.06-0.34 0.09-0.4 0.06c-0.07-0.03-0.02-0.23 0.12-0.49c0.13-0.24 0.23-0.52 0.23-0.63c0-0.16-0.07-0.14-0.4 0.14c-0.22 0.19-0.61 0.4-0.86 0.46c-0.25 0.06-0.65 0.09-0.89 0.05c-0.24-0.04-0.6-0.16-0.81-0.29c-0.21-0.12-0.48-0.39-0.6-0.6c-0.13-0.21-0.23-0.57-0.23-0.81c0-0.24 0.1-0.64 0.23-0.89c0.13-0.26 0.38-0.54 0.58-0.63c0.19-0.09 0.5-0.17 0.69-0.17c0.32 0 0.34 0.02 0.23 0.29c-0.06 0.16-0.12 0.43-0.12 0.6c0 0.17 0.1 0.46 0.23 0.63c0.15 0.2 0.34 0.32 0.53 0.32c0.16 0 0.42-0.13 0.58-0.29c0.16-0.16 0.28-0.35 0.28-0.43c0-0.08-0.16-0.2-0.36-0.26c-0.2-0.06-0.42-0.21-0.49-0.32c-0.09-0.15-0.09-0.26 0-0.4c0.07-0.11 0.29-0.25 0.87-0.43l-0.39-0.58c-0.22-0.32-0.59-0.72-0.84-0.9c-0.25-0.18-0.66-0.37-0.91-0.43c-0.36-0.08-0.55-0.06-0.86 0.09c-0.22 0.11-0.52 0.38-0.67 0.6c-0.22 0.34-0.26 0.52-0.23 1.12c0.02 0.4 0.01 0.72-0.02 0.72c-0.03 0-0.37-0.17-0.75-0.38c-0.43-0.24-0.82-0.57-1.04-0.87c-0.32-0.45-0.35-0.57-0.34-1.43c0-0.74 0.06-1.04 0.25-1.4c0.14-0.25 0.39-0.6 0.57-0.77c0.18-0.17 0.52-0.39 0.76-0.49c0.24-0.1 0.76-0.18 1.15-0.18c0.4 0 0.98 0.09 1.3 0.19c0.41 0.14 0.78 0.4 1.27 0.89c0.49 0.49 0.8 0.93 1.04 1.48c0.19 0.43 0.38 0.78 0.43 0.78c0.05 0-0.04-0.35-0.19-0.78c-0.15-0.43-0.46-1.18-0.69-1.67c-0.23-0.49-0.47-1.16-0.53-1.5c-0.08-0.41-0.08-0.8 0-1.24c0.07-0.35 0.46-1.38 0.88-2.3c0.42-0.92 0.91-2.01 1.1-2.42c0.21-0.46 0.37-0.68 0.4-0.58z" />
		<path class="s2" d="m96.33 108.76c0.33 0.04 0.58 0.18 0.9 0.49c0.24 0.24 0.53 0.6 0.63 0.81c0.11 0.22 0.4 0.48 0.7 0.63c0.44 0.23 0.53 0.33 0.63 0.79c0.07 0.29 0.2 0.62 0.3 0.73c0.1 0.11 0.35 0.25 0.58 0.3c0.22 0.06 1.02 0.14 1.78 0.18c0.87 0.05 1.7 0.03 2.25-0.06c0.48-0.07 1.17-0.28 1.55-0.45c0.48-0.22 1.04-0.65 1.84-1.42c0.63-0.6 1.32-1.18 1.53-1.29c0.21-0.11 0.44-0.19 0.52-0.2c0.08 0-0.09 0.16-0.37 0.36c-0.29 0.2-1.14 0.97-1.9 1.71c-0.76 0.74-1.67 1.54-2.02 1.77c-0.35 0.23-0.94 0.53-1.32 0.66c-0.38 0.13-1.03 0.26-1.44 0.3c-0.45 0.04-1.09 0-1.61-0.11c-0.48-0.09-0.89-0.15-0.92-0.12c-0.03 0.03 0.05 0.15 0.17 0.28c0.13 0.13 0.44 0.36 0.69 0.51c0.25 0.15 0.77 0.35 1.15 0.45c0.38 0.1 1 0.18 1.38 0.18c0.38 0 1.05-0.08 1.5-0.17c0.44-0.09 1.27-0.4 1.84-0.68c0.57-0.28 1.06-0.48 1.09-0.46c0.03 0.03-0.11 0.22-0.31 0.42c-0.2 0.2-0.67 0.55-1.03 0.78c-0.37 0.22-1.06 0.54-1.53 0.71c-0.48 0.17-1.33 0.37-1.9 0.44c-0.57 0.08-1.18 0.11-1.35 0.07c-0.22-0.05-0.3-0.03-0.28 0.07c0.02 0.08 0.16 0.24 0.32 0.35c0.15 0.11 0.48 0.25 0.74 0.31c0.25 0.06 0.77 0.11 1.15 0.11c0.38 0 0.98-0.04 1.32-0.1c0.35-0.06 0.79-0.14 0.98-0.18c0.33-0.07 0.34-0.07 0.12 0.11c-0.13 0.1-0.72 0.34-1.32 0.54c-0.84 0.27-1.31 0.35-2.94 0.36l0.29 0.23c0.16 0.12 0.55 0.3 0.86 0.4c0.32 0.1 1.15 0.2 1.84 0.24c0.96 0.05 1.44 0.02 1.99-0.12c0.4-0.1 0.76-0.19 0.81-0.19c0.05 0 0.01 0.08-0.09 0.18c-0.1 0.1-0.59 0.31-1.09 0.47c-0.51 0.16-1.4 0.32-1.99 0.37c-0.98 0.07-1.07 0.1-1.04 0.31c0.03 0.19 0.12 0.23 0.55 0.23c0.29 0 0.65 0.08 0.81 0.18c0.16 0.1 0.4 0.37 0.55 0.6c0.14 0.23 0.23 0.48 0.2 0.54c-0.03 0.06 0.01 0.22 0.09 0.34c0.08 0.12 0.37 0.29 0.64 0.37c0.27 0.08 0.49 0.19 0.49 0.24c0 0.05-0.28 0.06-0.61 0.02c-0.33-0.04-0.81-0.12-1.07-0.18c-0.25-0.06-0.71-0.25-1.02-0.42c-0.31-0.17-0.71-0.49-0.88-0.71c-0.18-0.22-0.38-0.56-0.45-0.75c-0.08-0.21-0.34-0.48-0.66-0.69c-0.3-0.19-0.74-0.58-0.99-0.86c-0.25-0.28-0.64-0.86-0.87-1.27c-0.23-0.41-0.59-1.28-0.8-1.93c-0.21-0.65-0.42-1.47-0.47-1.82c-0.05-0.38-0.17-0.72-0.29-0.83c-0.11-0.1-0.2-0.31-0.2-0.45c0-0.2-0.13-0.33-0.57-0.55c-0.32-0.16-0.67-0.29-0.78-0.29c-0.11 0-0.43 0.12-0.72 0.26c-0.29 0.14-0.91 0.65-1.38 1.13c-0.77 0.78-0.94 0.89-1.61 1.08c-0.41 0.12-0.82 0.19-0.91 0.17c-0.09-0.02 0.17-0.21 0.58-0.41c0.48-0.24 1.25-0.83 2.21-1.7c1.39-1.26 1.47-1.35 1.46-1.76c0-0.24-0.07-0.51-0.14-0.61c-0.08-0.1-0.26-0.24-0.4-0.32c-0.14-0.07-0.43-0.13-0.63-0.13c-0.21 0-0.59 0.11-0.86 0.23c-0.27 0.13-0.49 0.18-0.49 0.11c0-0.06 0.14-0.2 0.32-0.31c0.17-0.11 0.58-0.29 0.89-0.4c0.36-0.13 0.75-0.19 1.04-0.16z" />
		<path class="s0" d="m151.69 108.78c0.06 0.03 0.1 0.1 0.1 0.16c-0.01 0.06 0.42 1.05 0.95 2.21c0.53 1.16 1.03 2.31 1.11 2.56c0.09 0.28 0.12 0.8 0.09 1.32c-0.04 0.69-0.14 1.02-0.46 1.67c-0.22 0.44-0.54 1.19-0.71 1.67c-0.17 0.48-0.28 0.92-0.26 0.98c0.03 0.06 0.09 0.01 0.13-0.12c0.05-0.13 0.22-0.52 0.38-0.86c0.17-0.36 0.6-0.93 1-1.33c0.53-0.53 0.85-0.75 1.33-0.91c0.44-0.14 0.88-0.19 1.45-0.16c0.63 0.03 0.91 0.11 1.24 0.33c0.24 0.16 0.58 0.52 0.77 0.81c0.19 0.29 0.4 0.8 0.48 1.15c0.1 0.49 0.1 0.75-0.01 1.15c-0.08 0.28-0.28 0.69-0.45 0.91c-0.17 0.21-0.44 0.48-0.6 0.6c-0.16 0.12-0.47 0.29-1.09 0.54v-0.85c0-0.81-0.02-0.87-0.38-1.23c-0.33-0.33-0.45-0.38-0.98-0.38c-0.42 0-0.78 0.09-1.17 0.29c-0.31 0.16-0.7 0.47-0.88 0.69c-0.17 0.22-0.35 0.52-0.39 0.66c-0.06 0.21-0.02 0.26 0.19 0.26c0.14 0 0.36 0.11 0.49 0.24c0.21 0.22 0.22 0.27 0.05 0.55c-0.13 0.22-0.28 0.32-0.55 0.34c-0.2 0.02-0.37 0.08-0.37 0.14c0 0.06 0.16 0.27 0.35 0.46c0.19 0.19 0.44 0.35 0.55 0.35c0.11 0 0.35-0.11 0.53-0.26c0.29-0.23 0.32-0.32 0.27-0.67c-0.04-0.22-0.11-0.53-0.16-0.68c-0.09-0.28-0.09-0.28 0.43-0.2c0.29 0.05 0.63 0.16 0.78 0.25c0.14 0.09 0.34 0.35 0.43 0.57c0.1 0.22 0.17 0.57 0.17 0.78c0 0.21-0.09 0.55-0.2 0.77c-0.11 0.22-0.38 0.52-0.6 0.67c-0.3 0.2-0.56 0.26-1.07 0.26c-0.41 0-0.83-0.08-1.09-0.22c-0.24-0.12-0.51-0.3-0.6-0.41c-0.1-0.11-0.21-0.19-0.26-0.19c-0.05 0-0.03 0.2 0.04 0.44c0.07 0.24 0.21 0.52 0.32 0.63c0.1 0.11 0.15 0.24 0.1 0.29c-0.05 0.05-0.25 0.02-0.43-0.06c-0.3-0.13-0.35-0.12-0.4 0.06c-0.03 0.11-0.18 0.45-0.57 1.28l-0.29-0.25c-0.16-0.14-0.34-0.46-0.4-0.71c-0.09-0.37-0.16-0.45-0.34-0.42c-0.13 0.02-0.26 0.1-0.3 0.17c-0.05 0.09-0.1 0.08-0.16-0.04c-0.05-0.1-0.03-0.28 0.03-0.4c0.06-0.13 0.28-0.57 0.48-0.98c0.23-0.47 0.35-0.88 0.33-1.09c-0.03-0.3-0.07-0.26-0.25 0.35c-0.11 0.38-0.32 0.81-0.46 0.96c-0.14 0.15-0.39 0.34-0.57 0.43c-0.3 0.15-0.35 0.14-1.09-0.37c-0.43-0.29-1.02-0.65-1.32-0.81c-0.38-0.19-0.55-0.35-0.55-0.51c0-0.13 0.09-0.42 0.2-0.66c0.11-0.23 0.36-0.52 0.55-0.63c0.19-0.11 0.49-0.21 0.66-0.21c0.17 0 0.32 0.04 0.32 0.09c0 0.05-0.05 0.24-0.12 0.43c-0.1 0.27-0.08 0.44 0.06 0.78c0.11 0.26 0.28 0.46 0.44 0.5c0.14 0.04 0.38 0.04 0.52 0c0.14-0.04 0.34-0.22 0.43-0.41c0.1-0.19 0.17-0.37 0.17-0.4c0-0.03-0.18-0.08-0.4-0.12c-0.24-0.03-0.43-0.14-0.47-0.26c-0.04-0.11-0.04-0.32 0-0.46c0.05-0.16 0.2-0.29 0.42-0.35c0.19-0.05 0.35-0.1 0.35-0.12c0-0.02-0.07-0.17-0.16-0.35c-0.09-0.17-0.41-0.55-0.72-0.83c-0.31-0.28-0.77-0.58-1.02-0.65c-0.25-0.07-0.61-0.1-0.8-0.06c-0.19 0.04-0.49 0.21-0.66 0.39c-0.17 0.18-0.37 0.54-0.44 0.81c-0.07 0.27-0.09 0.68 0.01 1.35l-0.48-0.2c-0.26-0.11-0.66-0.36-0.89-0.56c-0.23-0.19-0.51-0.54-0.62-0.78c-0.13-0.28-0.2-0.69-0.2-1.2c0-0.51 0.08-0.94 0.21-1.24c0.12-0.25 0.34-0.59 0.49-0.76c0.15-0.16 0.49-0.41 0.76-0.55c0.37-0.19 0.69-0.25 1.32-0.25c0.65 0 0.97 0.07 1.47 0.3c0.35 0.16 0.87 0.54 1.15 0.84c0.3 0.31 0.69 0.92 0.92 1.43c0.22 0.49 0.44 0.89 0.49 0.89c0.05 0-0.04-0.35-0.19-0.78c-0.15-0.43-0.5-1.27-0.77-1.87c-0.38-0.84-0.5-1.27-0.54-1.84c-0.03-0.57 0.02-0.92 0.22-1.46c0.14-0.39 0.67-1.62 1.17-2.73c0.5-1.11 0.96-1.99 1.02-1.96z" />
		<path class="s2" d="m112.1 115.61c0.25 0 0.72 0.07 1.04 0.16c0.32 0.08 0.74 0.24 0.95 0.34c0.21 0.1 0.51 0.38 0.67 0.62c0.16 0.24 0.46 0.72 0.66 1.06c0.26 0.45 0.47 0.66 0.71 0.74c0.27 0.08 0.45 0.06 0.81-0.12c0.28-0.14 0.61-0.44 0.84-0.79c0.21-0.31 0.49-0.87 0.63-1.24c0.14-0.37 0.3-0.71 0.36-0.75c0.06-0.04 0.08 0.04 0.03 0.19c-0.05 0.15-0.03 0.26 0.04 0.26c0.06 0 0.12 0.06 0.12 0.14c0 0.08-0.42 1-1.91 3.96l-0.86 0.19c-0.68 0.15-0.9 0.16-1.01 0.05c-0.08-0.08-0.15-0.35-0.15-0.6c0-0.25-0.07-0.72-0.15-1.04c-0.08-0.32-0.26-0.78-0.39-1.04c-0.13-0.25-0.44-0.65-0.68-0.89c-0.24-0.23-0.64-0.51-0.87-0.6c-0.24-0.1-0.69-0.18-1.01-0.18c-0.32 0-0.76 0.08-0.98 0.17c-0.25 0.11-0.42 0.13-0.46 0.06c-0.03-0.06 0.21-0.25 0.55-0.4c0.34-0.16 0.81-0.29 1.07-0.29zm-0.17 1.73c0.49 0 0.71 0.05 0.97 0.26c0.18 0.14 0.45 0.47 0.6 0.72c0.15 0.25 0.33 0.75 0.4 1.09c0.1 0.5 0.1 0.79-0.02 1.37c-0.09 0.4-0.19 0.75-0.24 0.78c-0.05 0.02-0.09-0.23-0.09-0.56c0-0.33-0.08-0.89-0.17-1.24c-0.09-0.35-0.32-0.87-0.49-1.15c-0.18-0.28-0.5-0.64-0.72-0.78c-0.23-0.15-0.57-0.26-0.8-0.26c-0.3 0-0.36-0.03-0.23-0.11c0.1-0.06 0.46-0.11 0.81-0.12z" />
		<path class="s0" d="m174.14 119.64c0.05 0 0.09 2.81 0.08 12.49l-0.96 1.44c-0.53 0.79-1.28 2.01-1.66 2.71c-0.39 0.7-0.77 1.44-0.85 1.66c-0.14 0.37-0.17 0.39-0.61 0.31c-0.25-0.04-0.5-0.1-0.55-0.13c-0.05-0.03-0.09-3.59-0.12-15.77l2.29-1.35c1.26-0.74 2.33-1.35 2.38-1.35z" />
		<path class="s2" d="m110.22 120.16c0.25 0.31 0.41 0.4 0.7 0.41c0.21 0 0.49-0.08 0.63-0.17c0.14-0.1 0.34-0.15 0.43-0.12c0.12 0.04 0.16 0.19 0.12 0.92h-0.54c-0.3 0-0.58 0.04-0.63 0.08c-0.05 0.05-0.24 0.01-0.41-0.09c-0.17-0.09-0.42-0.29-0.55-0.43c-0.13-0.14-0.24-0.39-0.25-0.56c-0.01-0.16 0.03-0.33 0.08-0.38c0.05-0.04 0.24 0.1 0.42 0.33zm-19.17 0.93c0.24 0.16 0.67 0.32 0.96 0.35c0.29 0.04 0.8 0.14 1.15 0.24c0.35 0.1 1.2 0.41 1.9 0.7c0.7 0.29 1.29 0.55 1.32 0.56c0.03 0.02 0.03 0.06 0 0.08c-0.03 0.03-0.37-0.05-0.75-0.18c-0.38-0.12-1.13-0.35-1.67-0.51c-0.78-0.23-1.01-0.26-1.13-0.14c-0.08 0.08-0.15 0.18-0.14 0.23c0 0.05 0.13 0.23 0.29 0.4c0.15 0.17 0.45 0.51 0.66 0.76c0.21 0.25 0.58 0.51 0.84 0.6c0.25 0.09 0.69 0.21 1.5 0.38l-0.66 0.01c-0.36 0.01-0.79-0.04-0.95-0.1c-0.16-0.06-0.29-0.09-0.29-0.06c0 0.03 0.09 0.19 0.2 0.35c0.11 0.16 0.18 0.32 0.14 0.35c-0.03 0.03-0.34-0.02-0.69-0.11c-0.35-0.1-0.74-0.29-0.87-0.44c-0.13-0.15-0.31-0.45-0.4-0.67c-0.09-0.22-0.47-0.71-0.86-1.09c-0.47-0.46-0.75-0.84-0.84-1.15c-0.07-0.25-0.14-0.55-0.14-0.66c-0.01-0.17 0.05-0.16 0.43 0.09zm60 1.49c0.03 0.22-0.09 0.62-0.33 1.09c-0.2 0.41-0.42 0.86-0.5 1c-0.12 0.23-0.15 0.24-0.39 0.09c-0.14-0.09-0.26-0.22-0.26-0.28c0-0.06 0.05-0.12 0.12-0.12c0.06 0 0.28-0.15 0.49-0.33c0.26-0.23 0.44-0.55 0.6-1.07c0.2-0.64 0.23-0.69 0.27-0.39zm-82.71-0.17c0.03 0 0.03 0.16 0 0.35c-0.03 0.19-0.14 0.46-0.24 0.6c-0.18 0.25-0.18 0.25-0.1-0.14c0.04-0.22 0.13-0.49 0.19-0.6c0.06-0.11 0.13-0.2 0.16-0.2zm41.21 0.69c0.28 0.28 0.49 0.56 0.46 0.6c-0.03 0.05-0.16 0.09-0.28 0.09c-0.13 0-0.34-0.14-0.46-0.32c-0.13-0.17-0.23-0.45-0.23-0.6c0-0.27 0.03-0.26 0.52 0.23zm-0.3 1.61c0.07 0 0.13 0.08 0.13 0.17c0 0.09 0.16 0.33 0.35 0.52c0.26 0.26 0.45 0.35 0.77 0.35c0.34 0 0.4 0.03 0.28 0.14c-0.08 0.08-0.4 0.14-0.71 0.14c-0.31 0-0.62-0.05-0.69-0.12c-0.07-0.06-0.16-0.36-0.2-0.66c-0.05-0.37-0.03-0.55 0.06-0.55zm41.6 0.23c0.05 0.03 0.11 0.21 0.15 0.38c0.04 0.17 0.03 0.32-0.02 0.31c-0.05 0-0.2-0.12-0.35-0.26c-0.14-0.14-0.27-0.29-0.29-0.33c-0.01-0.04 0.08-0.1 0.2-0.12c0.12-0.02 0.26-0.01 0.31 0.02zm-56.94 2.51c0.16 0.11 0.39 0.33 0.51 0.49c0.11 0.16 0.26 0.55 0.46 1.44l0.83 0.27c0.46 0.15 0.99 0.35 1.18 0.45c0.19 0.1 0.67 0.44 1.07 0.76c0.4 0.32 0.78 0.74 0.85 0.93c0.07 0.19 0.11 0.56 0.08 0.81c-0.03 0.26-0.12 0.56-0.22 0.67c-0.1 0.11-0.3 0.2-0.46 0.19c-0.16 0-0.64 0.1-1.84 0.46l-0.63-0.55l0.78-0.07c0.43-0.04 0.78-0.11 0.78-0.16c0-0.05-0.19-0.17-0.43-0.28c-0.26-0.12-0.83-0.21-1.41-0.24c-0.71-0.03-1.08-0.1-1.35-0.27c-0.21-0.12-0.38-0.25-0.38-0.28c0-0.03 0.22-0.16 0.49-0.28c0.39-0.18 0.75-0.23 1.66-0.23c0.64 0 1.2-0.04 1.24-0.09c0.04-0.05 0-0.2-0.08-0.33c-0.08-0.13-0.53-0.51-1.01-0.83c-0.63-0.42-0.96-0.58-1.21-0.56c-0.19 0.01-0.49 0.09-0.67 0.17c-0.18 0.08-0.35 0.23-0.37 0.34c-0.03 0.11-0.03 0.25 0.01 0.32c0.03 0.06-0.05 0.3-0.17 0.52c-0.13 0.22-0.27 0.4-0.32 0.41c-0.05 0-0.2-0.11-0.33-0.26c-0.14-0.14-0.36-0.48-0.49-0.75c-0.13-0.27-0.31-0.52-0.39-0.57c-0.08-0.04-0.51-0.06-0.95-0.05c-0.53 0.02-0.95-0.03-1.24-0.15c-0.24-0.1-0.43-0.22-0.43-0.27c0-0.05 0.32-0.07 0.72-0.05c0.4 0.02 1.03-0.02 1.41-0.09c0.52-0.09 0.85-0.09 1.35 0.02c0.64 0.14 0.67 0.14 0.95-0.14c0.16-0.16 0.29-0.4 0.29-0.55c0-0.14-0.07-0.4-0.16-0.58c-0.09-0.17-0.24-0.38-0.35-0.46c-0.1-0.08-0.16-0.2-0.12-0.26c0.04-0.07 0.18-0.03 0.36 0.09zm16.42 2.57c0.05-0.01 0.09 0.01 0.09 0.04c0 0.03-0.41 0.67-0.9 1.41c-0.5 0.74-1.14 1.65-1.43 2.02c-0.29 0.37-0.58 0.78-0.64 0.92c-0.06 0.14-0.15 0.59-0.19 1c-0.08 0.73-0.1 0.77-0.86 1.55c-0.43 0.44-0.89 1.03-1.02 1.3c-0.13 0.27-0.24 0.63-0.24 0.81c0 0.17-0.02 0.36-0.06 0.4c-0.03 0.05-0.41-0.11-0.84-0.34c-0.53-0.29-1.13-0.79-2.97-2.67l-0.63 0.12c-0.35 0.07-1.01 0.09-1.47 0.05c-0.46-0.04-1.11-0.17-1.44-0.3c-0.33-0.13-0.71-0.31-0.83-0.4c-0.13-0.09-0.2-0.19-0.17-0.22c0.03-0.03 0.37 0.04 0.75 0.16c0.38 0.12 1.03 0.25 1.44 0.29c0.44 0.05 1.01 0.03 1.38-0.05c0.45-0.09 0.97-0.35 1.78-0.88c0.63-0.41 2.16-1.25 3.4-1.86c1.24-0.61 2.53-1.3 2.88-1.54c0.35-0.24 0.92-0.74 1.27-1.12c0.35-0.38 0.67-0.7 0.72-0.7z" />
		<path class="s1" d="m10.75 131.33l0.09 0.35c0.05 0.19 0.17 0.76 0.26 1.27c0.09 0.51 0.16 0.94 0.15 0.95c-0.01 0.02-0.24-0.02-0.51-0.09c-0.42-0.1-0.48-0.16-0.44-0.38c0.03-0.14 0.08-0.47 0.12-0.72c0.04-0.25 0.13-0.67 0.2-0.92l0.13-0.46z" />
		<path class="s0" d="m68.92 140.6c0.04 0 0.15 0.25 0.25 0.55c0.1 0.3 0.39 0.96 0.63 1.47c0.43 0.89 0.44 0.94 0.32 1.5c-0.07 0.32-0.33 1-0.58 1.53c-0.35 0.75-0.66 1.17-2.46 3.05l-0.28-0.62c-0.2-0.45-0.28-0.83-0.28-1.37c0-0.41 0.06-0.96 0.15-1.21c0.08-0.25 0.42-1.06 0.76-1.78c0.34-0.73 0.79-1.73 1.02-2.22c0.22-0.49 0.44-0.89 0.47-0.89zm-4.72 7.22c0.32 0.03 0.78 0.15 1.04 0.26c0.25 0.11 0.66 0.35 0.9 0.54c0.24 0.19 0.43 0.38 0.43 0.43c0 0.05-0.4 0.46-0.88 0.92c-0.57 0.55-0.98 0.84-1.18 0.86c-0.17 0.02-0.45 0.17-0.63 0.35c-0.18 0.17-0.37 0.5-0.44 0.72c-0.07 0.22-0.1 0.45-0.07 0.52c0.03 0.06-0.05 0.26-0.16 0.43c-0.21 0.31-0.23 0.31-0.56 0.14c-0.19-0.1-0.53-0.34-0.76-0.55c-0.23-0.21-0.49-0.61-0.6-0.89c-0.13-0.35-0.17-0.72-0.12-1.15c0.03-0.35 0.15-0.81 0.26-1.04c0.11-0.22 0.34-0.55 0.5-0.73c0.17-0.18 0.46-0.41 0.65-0.51c0.19-0.1 0.5-0.22 0.69-0.27c0.19-0.05 0.6-0.06 0.92-0.03z" />
		<path class="s2" d="m84.47 147.74c0.03 0 0.73 0.43 1.56 0.95c0.83 0.52 2.06 1.36 2.73 1.87c0.68 0.5 1.96 1.65 2.84 2.54c0.89 0.89 2.34 2.38 3.22 3.31c1.17 1.22 1.88 1.85 2.59 2.31c0.54 0.35 1.34 0.79 1.78 0.97c0.44 0.19 1.19 0.43 1.67 0.53c0.56 0.13 1.75 0.23 3.4 0.3c1.69 0.07 2.76 0.16 3.22 0.29c0.38 0.1 0.92 0.29 1.21 0.41c0.29 0.12 0.73 0.43 1.44 1.13l-0.52 0.06c-0.29 0.03-1.43 0.18-2.53 0.32c-1.53 0.2-2.6 0.26-4.43 0.26c-2 0-2.56-0.04-3.22-0.22c-0.44-0.12-1.08-0.34-2.02-0.76l-0.17 0.35c-0.1 0.19-0.17 0.55-0.17 0.81c0 0.25 0.09 0.65 0.2 0.88c0.11 0.23 0.41 0.6 0.66 0.83c0.25 0.22 0.75 0.54 1.09 0.69c0.35 0.16 1.13 0.38 1.73 0.51c0.78 0.16 1.61 0.23 2.88 0.24c0.98 0.01 2.28-0.02 2.88-0.07c0.67-0.05 1.03-0.05 0.92 0.02c-0.1 0.06-1 0.32-2.02 0.58c-1.01 0.26-2.62 0.6-3.57 0.77c-0.97 0.17-2.26 0.3-2.94 0.31c-0.68 0.01-1.25 0.07-1.29 0.14c-0.05 0.07-0.09 0.26-0.09 0.44c0 0.18 0.13 0.47 0.31 0.68c0.17 0.2 0.52 0.48 0.78 0.63c0.25 0.15 0.93 0.42 1.5 0.61c0.57 0.19 1.53 0.43 2.13 0.52c0.65 0.11 1.81 0.18 2.88 0.18c1.31 0 2.08-0.06 2.88-0.22c0.6-0.12 1.11-0.2 1.12-0.17c0.02 0.03-0.19 0.18-0.46 0.33c-0.27 0.15-1.24 0.7-2.16 1.22c-0.92 0.52-2.05 1.22-2.52 1.54c-0.47 0.32-1.04 0.8-1.28 1.05c-0.28 0.3-0.5 0.7-0.63 1.15c-0.11 0.38-0.34 0.94-0.51 1.25c-0.17 0.31-0.53 0.76-0.8 1.01c-0.27 0.25-0.57 0.45-0.66 0.45c-0.1 0-0.41-0.18-0.69-0.4c-0.29-0.22-0.66-0.43-0.83-0.47c-0.17-0.04-0.47 0-0.65 0.09c-0.19 0.09-0.45 0.31-0.59 0.5c-0.14 0.19-0.42 0.68-0.63 1.09c-0.21 0.41-0.89 1.66-1.53 2.76c-0.64 1.11-1.37 2.48-1.64 3.05c-0.26 0.57-0.54 1.23-0.61 1.47c-0.07 0.24-0.17 0.43-0.22 0.43c-0.05 0-0.07-0.63-0.05-1.41c0.02-0.78 0.11-1.95 0.2-2.62c0.09-0.67 0.3-1.73 0.46-2.36c0.16-0.63 0.6-2.08 1.68-5.3l-0.49-0.86c-0.27-0.47-0.79-1.49-1.15-2.25c-0.36-0.76-0.95-2.06-1.3-2.88c-0.35-0.82-0.95-2.33-1.33-3.34c-0.38-1.01-0.82-2.36-0.98-2.99c-0.16-0.63-0.4-1.85-0.53-2.71c-0.13-0.85-0.29-1.61-0.34-1.67c-0.07-0.07-0.34 0.07-0.77 0.4c-0.37 0.28-1.3 1.05-2.08 1.7c-0.78 0.65-1.46 1.18-1.53 1.18c-0.06 0 0.01-0.3 0.16-0.66c0.15-0.36 0.37-1.21 0.47-1.87c0.11-0.66 0.27-1.52 0.37-1.9c0.1-0.38 0.28-0.9 0.41-1.15c0.13-0.25 0.48-0.72 0.78-1.04c0.38-0.4 0.57-0.72 0.63-1.04c0.05-0.25 0.07-0.88 0.04-1.38c-0.04-0.75-0.12-1.08-0.45-1.78c-0.22-0.47-0.62-1.17-0.88-1.55c-0.26-0.38-0.74-0.98-1.06-1.32c-0.32-0.35-0.59-0.65-0.58-0.66c0-0.02 0.03-0.03 0.06-0.03zm56.57 1.96c0.05 0 0.37 0.11 0.72 0.24c0.35 0.13 0.98 0.36 1.41 0.52c0.72 0.26 0.78 0.31 0.78 0.63c0 0.19 0.1 0.54 0.22 0.78c0.12 0.24 0.34 0.54 0.49 0.68c0.15 0.14 0.49 0.36 0.76 0.49c0.27 0.13 0.54 0.24 0.6 0.24c0.07 0 0.09-0.18 0.05-0.43c-0.04-0.25 0-0.63 0.1-0.89c0.14-0.38 0.21-0.46 0.44-0.43c0.15 0.02 0.91 0.17 1.68 0.35c1.25 0.28 1.42 0.34 1.53 0.6c0.07 0.16 0.11 0.29 0.09 0.29c-0.02 0-0.19 0.06-0.38 0.12c-0.28 0.09-0.35 0.18-0.37 0.48c-0.02 0.32 0.02 0.39 0.32 0.49c0.19 0.06 0.4 0.09 0.46 0.06c0.06-0.03 0.12-0.01 0.12 0.06c0 0.06-0.08 0.27-0.17 0.46c-0.11 0.22-0.29 0.37-0.49 0.41c-0.19 0.04-0.42-0.01-0.58-0.12c-0.14-0.1-0.31-0.32-0.38-0.49c-0.08-0.22-0.08-0.42 0-0.66c0.07-0.19 0.12-0.38 0.12-0.43c0-0.05-0.17-0.09-0.38-0.09c-0.21 0-0.52 0.1-0.69 0.23c-0.17 0.13-0.39 0.39-0.49 0.58c-0.1 0.19-0.17 0.58-0.17 0.86c0 0.29 0.09 0.67 0.2 0.86c0.11 0.19 0.41 0.46 0.66 0.59c0.37 0.2 0.6 0.24 1.22 0.2c0.59-0.04 0.84-0.11 1.15-0.35c0.22-0.17 0.46-0.42 0.53-0.58c0.08-0.15 0.2-0.51 0.43-1.31l0.04 0.4c0.03 0.26-0.04 0.5-0.18 0.69c-0.12 0.16-0.3 0.52-0.4 0.81c-0.1 0.28-0.22 0.62-0.28 0.75c-0.07 0.18-0.06 0.21 0.07 0.16c0.09-0.04 0.29-0.1 0.43-0.14c0.2-0.06 0.26-0.03 0.26 0.13c0 0.11 0.15 0.51 0.63 1.58l0.3-0.69c0.16-0.38 0.33-0.78 0.37-0.89c0.06-0.17 0.13-0.18 0.45-0.09c0.21 0.06 0.39 0.09 0.4 0.06c0.02-0.03-0.05-0.17-0.14-0.31c-0.1-0.14-0.22-0.47-0.4-1.18l0.32 0.31c0.17 0.17 0.51 0.39 0.75 0.49c0.24 0.1 0.7 0.18 1.04 0.18c0.44 0 0.71-0.07 1.01-0.26c0.22-0.15 0.49-0.44 0.6-0.67c0.11-0.22 0.2-0.58 0.2-0.8c0-0.22-0.08-0.56-0.17-0.75c-0.1-0.19-0.16-0.36-0.14-0.37c0.02-0.02 2.57 0.51 5.67 1.17c3.1 0.66 5.84 1.23 6.51 1.33v22.45c0 12.35-0.04 22.47-0.09 22.5c-0.05 0.02-0.6-0.24-1.24-0.59c-0.63-0.35-2.58-1.34-4.32-2.22c-1.74-0.88-3.97-1.95-4.95-2.4c-0.98-0.44-2.67-1.17-3.74-1.61c-1.08-0.44-2.89-1.14-4.03-1.56c-1.14-0.41-3.01-1.04-4.15-1.39c-1.14-0.35-2.94-0.86-5.93-1.62l0-0.58c0-0.36-0.1-0.8-0.27-1.15c-0.15-0.32-0.45-0.76-0.67-0.98c-0.22-0.22-0.62-0.51-0.88-0.63c-0.39-0.19-0.48-0.3-0.53-0.63c-0.03-0.22-0.23-0.69-0.44-1.03c-0.21-0.35-0.61-0.81-0.9-1.02c-0.34-0.26-0.56-0.53-0.64-0.81c-0.07-0.23-0.23-0.62-0.36-0.88c-0.13-0.25-0.46-0.68-0.74-0.94c-0.27-0.26-0.67-0.56-0.87-0.66c-0.21-0.1-0.44-0.18-0.52-0.18c-0.08 0-0.41-0.42-0.74-0.95c-0.33-0.53-0.67-1.12-0.78-1.33c-0.17-0.34-0.17-0.44-0.01-1.09c0.1-0.4 0.31-1.06 0.47-1.47c0.16-0.41 1.37-2.92 2.69-5.58c1.32-2.66 2.71-5.56 3.09-6.45c0.38-0.89 0.88-2.16 1.12-2.82c0.24-0.66 0.6-1.78 0.81-2.48c0.21-0.7 0.48-1.78 0.61-2.42c0.13-0.63 0.32-1.76 0.42-2.5c0.1-0.74 0.18-1.79 0.18-2.33c0-0.54 0.04-0.98 0.09-0.98zm-76.42 1.11c0.05 0.02-0.2 0.41-0.57 0.85c-0.36 0.45-0.68 0.79-0.7 0.78c-0.02-0.02 0-0.21 0.05-0.44c0.05-0.22 0.21-0.55 0.35-0.73c0.15-0.18 0.38-0.37 0.51-0.42c0.14-0.05 0.29-0.07 0.34-0.05z" />
		<path class="s0" d="m144.25 150.9c0.18 0.08 0.73 0.25 2.09 0.58l-0.17 0.46c-0.1 0.27-0.14 0.64-0.1 0.89c0.04 0.25 0.02 0.43-0.05 0.43c-0.06 0-0.34-0.11-0.6-0.24c-0.27-0.13-0.61-0.35-0.76-0.49c-0.15-0.14-0.37-0.44-0.49-0.68c-0.12-0.24-0.23-0.58-0.23-0.77c-0.01-0.33-0.01-0.33 0.32-0.18zm5.8 1.29c0.22 0.04 1.2 0.24 3.97 0.79l0.04 0.34c0.03 0.23-0.03 0.39-0.17 0.49c-0.12 0.08-0.33 0.15-0.47 0.14c-0.14 0-0.26 0.05-0.26 0.11c0 0.06 0.12 0.25 0.26 0.42c0.19 0.22 0.37 0.3 0.66 0.3c0.29 0 0.46-0.08 0.61-0.27c0.11-0.15 0.2-0.39 0.2-0.53c0-0.14-0.06-0.39-0.12-0.55c-0.11-0.29-0.11-0.29 0.37-0.22c0.27 0.04 0.59 0.11 0.72 0.16c0.13 0.05 0.32 0.27 0.43 0.5c0.11 0.23 0.2 0.59 0.2 0.79c0 0.21-0.09 0.55-0.2 0.77c-0.11 0.22-0.38 0.52-0.6 0.67c-0.29 0.19-0.57 0.26-1.01 0.26c-0.33 0-0.8-0.08-1.04-0.18c-0.24-0.1-0.57-0.32-1.06-0.8l0.11 0.46c0.06 0.25 0.19 0.58 0.29 0.72c0.1 0.14 0.16 0.28 0.14 0.31c-0.02 0.03-0.2 0-0.4-0.06c-0.31-0.09-0.39-0.08-0.45 0.09c-0.04 0.11-0.21 0.51-0.67 1.58l-0.31-0.69c-0.17-0.38-0.32-0.78-0.32-0.89c0-0.11-0.07-0.18-0.15-0.16c-0.08 0.02-0.27 0.08-0.43 0.14c-0.26 0.08-0.28 0.07-0.19-0.13c0.05-0.12 0.18-0.45 0.28-0.74c0.1-0.28 0.28-0.65 0.4-0.81c0.14-0.19 0.2-0.43 0.14-1.09l-0.14 0.52c-0.08 0.28-0.21 0.64-0.28 0.79c-0.08 0.15-0.32 0.41-0.53 0.58c-0.31 0.24-0.56 0.31-1.15 0.35c-0.61 0.04-0.84 0-1.22-0.2c-0.25-0.14-0.55-0.4-0.66-0.59c-0.11-0.19-0.2-0.58-0.2-0.86c0-0.28 0.08-0.67 0.17-0.86c0.1-0.19 0.32-0.45 0.49-0.58c0.17-0.13 0.49-0.23 0.69-0.23c0.21 0 0.38 0.04 0.38 0.09c0 0.05-0.05 0.24-0.12 0.43c-0.08 0.24-0.09 0.44 0 0.66c0.07 0.17 0.24 0.4 0.38 0.49c0.15 0.1 0.39 0.15 0.58 0.12c0.2-0.04 0.38-0.19 0.49-0.41c0.1-0.19 0.17-0.4 0.17-0.46c0-0.06-0.05-0.09-0.12-0.06c-0.06 0.03-0.27 0.01-0.46-0.06c-0.3-0.1-0.34-0.17-0.32-0.49c0.02-0.31 0.09-0.39 0.41-0.49c0.23-0.07 0.35-0.17 0.32-0.26c-0.03-0.08-0.1-0.22-0.14-0.32c-0.07-0.14-0.01-0.16 0.32-0.09z" />
		<path class="s2" d="m154.22 153.03c0.08 0 0.24 0.06 0.35 0.14c0.11 0.08 0.24 0.35 0.27 0.61c0.05 0.34 0.01 0.53-0.15 0.74c-0.15 0.2-0.33 0.27-0.62 0.27c-0.29 0-0.47-0.08-0.66-0.3c-0.14-0.17-0.26-0.36-0.26-0.42c0-0.06 0.1-0.12 0.23-0.12c0.13 0 0.33-0.05 0.46-0.12c0.15-0.08 0.23-0.23 0.23-0.46c0-0.2 0.06-0.35 0.14-0.35z" />
		<path class="s0" d="m169.68 156.38c0.1 0 0.78 0.13 1.53 0.29c0.74 0.16 1.69 0.37 2.1 0.48c0.41 0.1 0.81 0.27 0.89 0.37c0.12 0.15 0.15 6.08 0.15 59.49l-1.88 2.07c-1.04 1.14-2.58 2.75-3.43 3.57c-0.85 0.82-2.22 2.09-3.04 2.81c-0.82 0.72-2.09 1.79-2.82 2.37c-0.73 0.58-2 1.56-2.82 2.16c-0.82 0.6-2.4 1.69-3.51 2.42c-1.11 0.73-2.9 1.83-3.97 2.45c-1.08 0.62-3.25 1.76-4.84 2.54c-1.58 0.78-3.71 1.76-4.72 2.18c-1.01 0.42-2.7 1.07-3.74 1.45c-1.05 0.38-2.81 0.97-3.92 1.3c-1.11 0.34-2.95 0.85-4.09 1.14c-1.14 0.29-3.11 0.73-4.38 0.98c-1.27 0.25-3.21 0.59-4.32 0.75c-1.11 0.16-2.82 0.37-3.8 0.47c-0.98 0.1-2.61 0.23-3.63 0.29c-1.01 0.06-3.35 0.12-5.18 0.12c-1.84 0-4.17-0.05-5.18-0.12c-1.01-0.06-2.65-0.2-3.63-0.3c-0.98-0.1-2.69-0.31-3.8-0.47c-1.11-0.16-3.16-0.51-4.55-0.79c-1.39-0.28-3.44-0.74-4.55-1.02c-1.11-0.29-2.9-0.79-3.97-1.11c-1.08-0.33-2.68-0.85-3.57-1.17c-0.89-0.32-2.39-0.89-3.34-1.27c-0.95-0.38-2.45-1.01-3.34-1.41c-0.89-0.4-2.31-1.07-3.17-1.5c-0.86-0.43-2.12-1.09-2.82-1.47c-0.7-0.38-2.02-1.14-2.94-1.68c-0.92-0.54-2.6-1.61-3.74-2.38c-1.14-0.76-2.69-1.85-3.45-2.42c-0.76-0.57-1.95-1.49-2.65-2.05c-0.7-0.56-2.02-1.67-2.94-2.47c-0.92-0.8-2.87-2.66-7.02-6.82l0-5.84c0-3.21 0.03-12.3 0.15-34.52l4.74 1.18l-0.08 37.16l2.17 2.13c1.2 1.17 2.93 2.78 3.85 3.57c0.92 0.79 2.33 1.94 3.13 2.56c0.8 0.62 1.47 1.17 1.49 1.22c0.02 0.06 1.14 0.84 2.5 1.74c1.36 0.9 3.28 2.12 4.26 2.7c0.98 0.59 2.67 1.54 3.74 2.12c1.08 0.58 2.79 1.43 3.8 1.9c1.01 0.47 2.65 1.17 3.63 1.57c0.98 0.4 2.54 1 3.45 1.33c0.92 0.33 2.55 0.88 3.63 1.2c1.08 0.33 2.86 0.83 3.97 1.11c1.11 0.28 2.92 0.69 4.03 0.91c1.11 0.22 2.87 0.52 3.92 0.68c1.05 0.16 2.68 0.36 3.63 0.46c0.95 0.1 2.48 0.23 3.4 0.29c0.92 0.06 3.33 0.12 5.35 0.12c2.03 0 4.44-0.05 5.35-0.11c0.92-0.06 2.24-0.17 2.94-0.24c0.7-0.07 2.2-0.25 3.34-0.41c1.14-0.16 3.11-0.49 4.38-0.74c1.27-0.25 3.21-0.69 4.32-0.98c1.11-0.29 2.87-0.78 3.92-1.11c1.05-0.32 2.91-0.96 4.15-1.43c1.24-0.46 3.23-1.28 4.43-1.81c1.2-0.53 2.68-1.22 3.28-1.52c0.6-0.3 1.72-0.89 2.48-1.3c0.76-0.41 2.03-1.14 2.82-1.62c0.79-0.48 2.19-1.37 3.11-1.99c0.92-0.62 2.29-1.58 3.05-2.15c0.76-0.56 2.03-1.56 2.82-2.21c0.79-0.65 2.08-1.76 2.87-2.47c0.78-0.71 2.43-2.32 5.89-5.89l0-29.45c0-26.1 0.02-29.45 0.17-29.45z" />
		<path class="s2" d="m112.84 158.85l0.26 0.35c0.15 0.19 0.47 0.57 0.73 0.84c0.25 0.27 0.77 0.65 1.15 0.83c0.43 0.21 1.21 0.43 2.07 0.59c1.24 0.23 1.77 0.25 5.24 0.25c3.04 0 4.18-0.04 5.35-0.2c0.82-0.11 1.99-0.31 2.59-0.44c0.6-0.13 1.35-0.34 1.67-0.46c0.32-0.12 0.6-0.19 0.63-0.16c0.03 0.03-0.29 0.22-0.72 0.41c-0.43 0.19-1.31 0.49-1.96 0.68c-0.65 0.18-1.72 0.44-2.39 0.58c-0.67 0.13-1.75 0.33-2.42 0.43c-0.72 0.11-2.38 0.21-4.09 0.24c-1.58 0.03-3.58 0.01-4.43-0.05c-1.15-0.08-1.7-0.18-2.1-0.36c-0.35-0.16-0.65-0.4-0.83-0.68c-0.15-0.24-0.36-0.72-0.45-1.07c-0.1-0.35-0.21-0.89-0.25-1.21l-0.07-0.58zm-24.68 1.88c0.02 0.04 0.15 0.75 0.28 1.57c0.13 0.82 0.45 2.35 0.71 3.4c0.26 1.04 0.7 2.55 0.99 3.34c0.29 0.79 0.77 1.96 1.08 2.59c0.31 0.63 0.81 1.54 1.13 2.02c0.31 0.47 0.8 1.12 1.62 2.02l-0.41 0.98c-0.22 0.54-0.59 1.5-0.81 2.13c-0.22 0.63-0.53 1.67-0.69 2.3c-0.16 0.63-0.37 1.64-0.46 2.25c-0.09 0.6-0.21 1.93-0.33 4.82l-0.86 0.07c-0.48 0.04-1.56 0.15-2.42 0.24c-0.86 0.09-2.41 0.3-3.45 0.46c-1.05 0.16-2.91 0.49-4.15 0.74c-1.24 0.25-3.18 0.68-4.32 0.97c-1.14 0.28-2.9 0.75-3.92 1.05c-1.01 0.29-2.65 0.8-3.63 1.12c-0.98 0.32-2.74 0.94-3.92 1.38c-1.17 0.44-3.06 1.19-4.2 1.68c-1.14 0.48-3.14 1.41-4.43 2.05c-1.3 0.64-2.79 1.41-3.31 1.7c-0.52 0.3-0.99 0.54-1.04 0.54c-0.05 0-0.06-4.79-0.03-10.64c0.03-5.85 0.08-10.67 0.12-10.71c0.03-0.04 0.55 0.01 1.15 0.1c0.6 0.09 2.49 0.39 4.2 0.65c1.79 0.28 3.56 0.49 4.17 0.49c0.59 0.01 1.07 0.03 1.07 0.04c0 0.02-0.14 0.17-0.32 0.35c-0.17 0.18-0.42 0.53-0.54 0.78c-0.12 0.25-0.25 0.77-0.28 1.15c-0.05 0.58-0.01 0.79 0.24 1.32c0.2 0.42 0.44 0.73 0.74 0.92c0.24 0.16 0.58 0.35 0.76 0.43c0.17 0.08 0.36 0.14 0.4 0.14c0.05 0 0.07-0.22 0.05-0.49c-0.02-0.27-0.01-0.66 0.03-0.86c0.04-0.21 0.22-0.53 0.41-0.72c0.19-0.19 0.49-0.37 0.66-0.41c0.17-0.04 0.52-0.01 0.78 0.05c0.26 0.07 0.71 0.33 1.02 0.61c0.31 0.27 0.63 0.64 0.72 0.81c0.09 0.17 0.16 0.36 0.16 0.4c0 0.05-0.15 0.13-0.35 0.17c-0.25 0.06-0.37 0.17-0.41 0.37c-0.03 0.16 0.01 0.37 0.09 0.47c0.08 0.1 0.29 0.18 0.46 0.17c0.22 0 0.32 0.05 0.32 0.2c0 0.11-0.09 0.33-0.2 0.48c-0.15 0.2-0.32 0.27-0.61 0.27c-0.29 0-0.46-0.08-0.61-0.27c-0.11-0.15-0.2-0.44-0.2-0.65c0-0.21 0.06-0.48 0.12-0.6c0.1-0.21 0.08-0.23-0.32-0.23c-0.28 0-0.55 0.09-0.77 0.26c-0.19 0.14-0.41 0.43-0.49 0.64c-0.08 0.21-0.15 0.57-0.15 0.81c0 0.24 0.1 0.6 0.23 0.81c0.13 0.21 0.44 0.48 0.69 0.6c0.28 0.14 0.69 0.23 1.04 0.23c0.32 0 0.74-0.07 0.95-0.15c0.21-0.09 0.45-0.24 0.55-0.35c0.1-0.11 0.21-0.19 0.26-0.19c0.05 0 0.06 0.12 0.02 0.26c-0.04 0.14-0.15 0.41-0.41 0.95l0.76-0.15l0.35 0.84c0.19 0.46 0.38 0.82 0.43 0.8c0.05-0.03 0.23-0.41 0.72-1.65l0.77 0.16l-0.24-0.55c-0.13-0.3-0.21-0.6-0.18-0.66c0.03-0.07 0.17-0.02 0.32 0.11c0.14 0.12 0.45 0.3 0.69 0.4c0.24 0.1 0.64 0.18 0.89 0.18c0.25 0 0.63-0.07 0.83-0.16c0.21-0.09 0.5-0.3 0.66-0.47c0.22-0.24 0.3-0.47 0.33-0.96c0.03-0.42-0.02-0.77-0.13-1c-0.09-0.19-0.36-0.44-0.59-0.55c-0.23-0.11-0.57-0.2-0.76-0.2c-0.32 0-0.34 0.02-0.23 0.29c0.06 0.16 0.11 0.46 0.11 0.66c0 0.21-0.09 0.47-0.2 0.58c-0.11 0.11-0.34 0.2-0.52 0.2c-0.17 0-0.4-0.04-0.51-0.09c-0.1-0.05-0.26-0.23-0.35-0.4c-0.15-0.3-0.14-0.32 0.1-0.32c0.14 0 0.38-0.08 0.52-0.17c0.14-0.1 0.26-0.29 0.26-0.43c0-0.14-0.06-0.32-0.14-0.4c-0.08-0.08-0.29-0.14-0.78-0.14l0.18-0.43c0.1-0.24 0.29-0.55 0.43-0.7c0.14-0.15 0.51-0.39 0.83-0.55c0.37-0.18 0.77-0.28 1.12-0.28c0.4 0 0.63 0.07 0.86 0.27c0.2 0.17 0.37 0.48 0.46 0.83c0.11 0.41 0.11 0.67 0.03 0.94c-0.1 0.31-0.09 0.37 0.06 0.37c0.1 0 0.37-0.1 0.6-0.22c0.24-0.12 0.6-0.39 0.8-0.6c0.2-0.21 0.45-0.58 0.55-0.82c0.1-0.24 0.18-0.65 0.18-0.92c0-0.27-0.08-0.72-0.17-1.01c-0.09-0.28-0.37-0.75-0.61-1.02c-0.24-0.28-0.59-0.59-0.78-0.69c-0.22-0.11-0.66-0.18-1.21-0.18c-0.7 0-0.98 0.05-1.5 0.3c-0.37 0.18-0.88 0.57-1.21 0.93c-0.32 0.35-0.73 0.96-0.92 1.39c-0.19 0.42-0.38 0.77-0.43 0.77c-0.05 0 0.04-0.35 0.19-0.77c0.15-0.43 0.46-1.17 0.69-1.64c0.23-0.47 0.47-1.15 0.54-1.5c0.09-0.43 0.09-0.83 0.01-1.27c-0.06-0.35-0.35-1.15-0.64-1.78c-0.29-0.63-0.54-1.21-0.56-1.28c-0.02-0.07 0.87-0.85 1.98-1.72c1.11-0.88 2.53-2 3.17-2.49c0.63-0.5 2.27-1.62 3.63-2.5c1.36-0.88 3.07-2.03 3.8-2.54c0.73-0.52 1.81-1.34 2.41-1.82c0.6-0.48 1.55-1.38 2.11-1.99c0.57-0.61 1.05-1.08 1.07-1.04zm26 3.82l0.53 0.31c0.29 0.17 0.87 0.43 1.28 0.58c0.41 0.15 1.6 0.51 2.65 0.8c1.05 0.28 2.31 0.65 2.82 0.8c0.51 0.16 1.39 0.47 1.96 0.7c0.57 0.23 1.43 0.64 1.9 0.92c0.48 0.28 1.19 0.8 1.6 1.17c0.4 0.36 0.78 0.75 0.83 0.86c0.07 0.15 0.06 0.18-0.04 0.12c-0.08-0.04-0.4-0.28-0.72-0.53c-0.32-0.25-1.08-0.7-1.7-1.01c-0.62-0.31-1.73-0.76-2.48-1.01c-0.74-0.25-2.44-0.76-3.77-1.14c-1.33-0.38-2.98-0.83-3.66-0.99c-0.68-0.16-1.34-0.35-1.47-0.41c-0.13-0.06-0.24-0.23-0.25-0.37c-0.01-0.14 0.1-0.37 0.25-0.52l0.27-0.27zm-0.19 4.33c0.24 0.16 0.77 0.39 1.19 0.5c0.41 0.12 1.11 0.3 1.55 0.4c0.44 0.1 1.3 0.42 1.9 0.71c0.6 0.29 1.56 0.85 2.13 1.24c0.57 0.39 1.57 1.23 2.23 1.86c0.66 0.63 1.44 1.49 1.74 1.9c0.3 0.41 0.66 0.94 0.79 1.18c0.14 0.24 0.21 0.43 0.16 0.43c-0.05 0-0.33-0.32-0.62-0.72c-0.29-0.4-1.05-1.21-1.68-1.82c-0.63-0.6-1.66-1.44-2.29-1.86c-0.63-0.42-1.61-1-2.18-1.28c-0.57-0.28-1.3-0.6-1.61-0.7c-0.32-0.1-0.99-0.27-1.5-0.37c-0.51-0.1-1.14-0.31-1.41-0.46c-0.27-0.15-0.57-0.43-0.66-0.62c-0.1-0.19-0.18-0.42-0.18-0.51c0-0.13 0.11-0.1 0.43 0.12z" />
		<path class="s0" d="m151.69 172.5c0.07 0 0.14 0.12 0.15 0.26c0.02 0.14 0.49 1.24 2.06 4.63v1.09c0 1.03-0.02 1.14-0.44 2.02c-0.24 0.51-0.57 1.27-0.72 1.7c-0.15 0.43-0.24 0.78-0.19 0.78c0.05 0 0.2-0.27 0.35-0.6c0.14-0.33 0.48-0.89 0.76-1.24c0.34-0.44 0.72-0.76 1.24-1.03c0.65-0.35 0.84-0.4 1.61-0.4c0.67 0 0.97 0.05 1.35 0.25c0.27 0.14 0.62 0.43 0.77 0.63c0.16 0.21 0.39 0.65 0.52 0.98c0.13 0.33 0.23 0.8 0.23 1.04c0 0.24-0.12 0.69-0.27 1.01c-0.15 0.32-0.39 0.69-0.55 0.82c-0.15 0.14-0.48 0.36-0.73 0.49c-0.25 0.13-0.51 0.24-0.58 0.24c-0.07 0-0.1-0.23-0.07-0.55c0.02-0.3-0.01-0.74-0.09-0.98c-0.09-0.28-0.26-0.51-0.5-0.66c-0.21-0.13-0.58-0.23-0.83-0.23c-0.25 0-0.72 0.12-1.04 0.27c-0.32 0.15-0.74 0.46-0.95 0.69c-0.21 0.23-0.37 0.47-0.37 0.54c0 0.06-0.03 0.19-0.06 0.29c-0.04 0.12 0.03 0.17 0.23 0.17c0.16 0 0.37 0.08 0.46 0.17c0.1 0.1 0.17 0.22 0.17 0.29c0 0.06-0.05 0.22-0.12 0.35c-0.07 0.14-0.27 0.25-0.52 0.29c-0.22 0.03-0.4 0.11-0.4 0.17c0 0.06 0.13 0.24 0.29 0.4c0.2 0.2 0.41 0.29 0.69 0.29c0.32 0 0.44-0.07 0.6-0.32c0.12-0.2 0.17-0.44 0.12-0.66c-0.04-0.19-0.1-0.44-0.13-0.55c-0.05-0.16 0-0.2 0.31-0.2c0.21 0 0.54 0.1 0.75 0.23c0.21 0.13 0.46 0.4 0.56 0.6c0.13 0.26 0.17 0.54 0.12 0.95c-0.03 0.32-0.16 0.71-0.28 0.86c-0.12 0.16-0.4 0.38-0.61 0.49c-0.22 0.11-0.6 0.2-0.86 0.2c-0.25 0-0.64-0.06-0.86-0.13c-0.22-0.07-0.57-0.26-0.78-0.4c-0.33-0.24-0.37-0.25-0.38-0.07c0 0.11 0.1 0.4 0.46 1.07l-0.41-0.03c-0.4-0.03-0.42-0.01-0.69 0.66c-0.16 0.38-0.33 0.74-0.39 0.81c-0.07 0.07-0.21-0.13-0.4-0.58c-0.16-0.38-0.29-0.76-0.29-0.83c0-0.1-0.11-0.12-0.81 0.03l0.23-0.6c0.13-0.33 0.23-0.67 0.23-0.75c0-0.08-0.12-0.01-0.26 0.16c-0.14 0.17-0.43 0.39-0.63 0.49c-0.21 0.1-0.63 0.18-0.95 0.18c-0.32 0-0.74-0.07-0.95-0.15c-0.21-0.08-0.52-0.32-0.69-0.52c-0.25-0.29-0.32-0.48-0.32-0.94c0-0.32 0.08-0.73 0.17-0.92c0.1-0.19 0.32-0.45 0.49-0.58c0.17-0.13 0.49-0.23 0.69-0.23c0.35 0 0.37 0.02 0.29 0.32c-0.05 0.17-0.08 0.47-0.07 0.66c0.01 0.22 0.12 0.44 0.31 0.6c0.17 0.14 0.38 0.26 0.48 0.26c0.1 0 0.33-0.16 0.52-0.35c0.19-0.19 0.34-0.42 0.34-0.52c0-0.11-0.11-0.17-0.32-0.17c-0.17 0-0.38-0.06-0.46-0.14c-0.08-0.08-0.15-0.25-0.15-0.38c0-0.13 0.06-0.3 0.14-0.37c0.08-0.08 0.26-0.14 0.4-0.14c0.15 0 0.26-0.06 0.26-0.14c0-0.08-0.18-0.39-0.4-0.69c-0.22-0.3-0.65-0.69-0.95-0.86c-0.3-0.17-0.73-0.33-0.95-0.35c-0.27-0.03-0.53 0.04-0.78 0.19c-0.22 0.14-0.47 0.46-0.62 0.78c-0.18 0.41-0.23 0.67-0.17 1.04c0.04 0.3 0.03 0.49-0.04 0.49c-0.06 0-0.31-0.1-0.55-0.22c-0.24-0.12-0.6-0.36-0.81-0.55c-0.21-0.18-0.46-0.54-0.56-0.79c-0.11-0.3-0.16-0.74-0.14-1.28c0.03-0.67 0.1-0.92 0.39-1.38c0.22-0.35 0.56-0.7 0.91-0.91c0.5-0.3 0.66-0.35 1.43-0.34c0.7 0 1 0.06 1.51 0.31c0.38 0.18 0.86 0.55 1.19 0.92c0.31 0.34 0.71 0.93 0.89 1.31c0.18 0.38 0.33 0.76 0.33 0.83c0 0.08 0.06 0.14 0.12 0.14c0.07 0 0.04-0.25-0.07-0.6c-0.1-0.33-0.45-1.17-0.78-1.87c-0.57-1.22-0.59-1.3-0.59-2.25c0-0.96 0.02-1 0.82-2.76c0.45-0.98 0.96-2.11 1.13-2.5c0.17-0.4 0.37-0.72 0.44-0.72zm-81.74 2.32c0.06-0.01 0.33 0.54 0.62 1.22c0.28 0.68 0.56 1.52 0.63 1.87c0.08 0.44 0.07 0.83-0.01 1.27c-0.07 0.35-0.31 1.02-0.54 1.5c-0.23 0.47-0.54 1.21-0.69 1.64c-0.15 0.43-0.24 0.78-0.19 0.77c0.05 0 0.24-0.35 0.43-0.77c0.19-0.43 0.6-1.04 0.92-1.39c0.33-0.36 0.84-0.75 1.21-0.93c0.52-0.25 0.79-0.3 1.5-0.3c0.55 0 0.99 0.07 1.21 0.18c0.19 0.1 0.54 0.41 0.78 0.69c0.24 0.28 0.51 0.74 0.61 1.02c0.09 0.28 0.17 0.74 0.17 1.01c0 0.27-0.08 0.68-0.18 0.92c-0.1 0.24-0.34 0.6-0.55 0.82c-0.2 0.21-0.56 0.48-0.8 0.6c-0.24 0.12-0.51 0.22-0.6 0.22c-0.14 0-0.15-0.07-0.06-0.37c0.08-0.27 0.08-0.53-0.03-0.94c-0.09-0.35-0.27-0.67-0.46-0.83c-0.23-0.2-0.46-0.27-0.86-0.27c-0.35 0-0.75 0.1-1.12 0.28c-0.32 0.16-0.69 0.4-0.83 0.55c-0.14 0.15-0.33 0.46-0.61 1.13l0.32 0c0.17 0 0.38 0.06 0.46 0.14c0.08 0.08 0.14 0.26 0.14 0.4c0 0.14-0.12 0.34-0.26 0.43c-0.14 0.1-0.38 0.17-0.52 0.17c-0.24 0-0.25 0.02-0.1 0.32c0.09 0.17 0.24 0.36 0.35 0.4c0.1 0.05 0.33 0.09 0.51 0.08c0.17 0 0.41-0.09 0.52-0.2c0.12-0.11 0.2-0.36 0.2-0.57c0-0.21-0.06-0.5-0.12-0.66c-0.11-0.27-0.09-0.29 0.23-0.29c0.19 0 0.53 0.09 0.76 0.2c0.23 0.11 0.5 0.36 0.59 0.55c0.11 0.22 0.16 0.57 0.13 1c-0.03 0.5-0.11 0.73-0.33 0.96c-0.16 0.17-0.46 0.38-0.66 0.47c-0.21 0.09-0.58 0.16-0.83 0.16c-0.25 0-0.65-0.08-0.89-0.18c-0.24-0.1-0.55-0.28-0.69-0.4c-0.15-0.13-0.28-0.17-0.32-0.11c-0.03 0.06 0.05 0.36 0.42 1.21l-0.77-0.16l-0.32 0.8c-0.17 0.44-0.36 0.82-0.4 0.85c-0.05 0.03-0.24-0.33-0.78-1.64l-0.76 0.15l0.17-0.35c0.09-0.19 0.2-0.46 0.24-0.6c0.04-0.14 0.03-0.26-0.02-0.26c-0.05 0-0.16 0.08-0.26 0.19c-0.1 0.11-0.34 0.27-0.55 0.35c-0.21 0.09-0.63 0.15-0.95 0.15c-0.35 0-0.76-0.09-1.04-0.23c-0.25-0.13-0.56-0.4-0.69-0.6c-0.13-0.21-0.23-0.57-0.23-0.81c0-0.24 0.07-0.6 0.15-0.81c0.08-0.21 0.3-0.49 0.49-0.64c0.22-0.17 0.49-0.26 0.77-0.26c0.39 0 0.42 0.02 0.32 0.23c-0.06 0.13-0.12 0.4-0.12 0.6c0 0.21 0.09 0.5 0.2 0.65c0.15 0.2 0.32 0.27 0.61 0.27c0.29 0 0.46-0.08 0.61-0.27c0.11-0.15 0.2-0.37 0.2-0.48c0-0.14-0.1-0.2-0.32-0.2c-0.17 0-0.38-0.07-0.46-0.17c-0.08-0.1-0.12-0.31-0.09-0.47c0.04-0.2 0.16-0.31 0.41-0.37c0.19-0.05 0.35-0.13 0.35-0.17c0-0.05-0.07-0.23-0.16-0.4c-0.09-0.17-0.41-0.54-0.72-0.81c-0.32-0.28-0.76-0.55-1.02-0.61c-0.25-0.06-0.6-0.09-0.78-0.05c-0.17 0.04-0.47 0.22-0.66 0.41c-0.19 0.19-0.38 0.51-0.41 0.72c-0.04 0.21-0.05 0.59-0.03 0.86c0.02 0.27 0 0.49-0.05 0.49c-0.05 0-0.23-0.06-0.4-0.14c-0.17-0.08-0.52-0.27-0.76-0.43c-0.3-0.2-0.54-0.5-0.74-0.92c-0.25-0.53-0.29-0.74-0.24-1.32c0.03-0.38 0.16-0.9 0.28-1.15c0.12-0.25 0.36-0.6 0.54-0.78c0.17-0.18 0.32-0.36 0.32-0.41c0-0.05 0.23-0.16 0.51-0.26c0.28-0.09 0.52-0.15 0.52-0.12c0 0.03 0.33 0.06 0.72 0.07c0.5 0.01 0.91 0.1 1.35 0.29c0.35 0.16 0.86 0.51 1.14 0.8c0.31 0.31 0.7 0.92 1.01 1.55c0.27 0.57 0.5 0.98 0.5 0.92c0-0.06-0.08-0.4-0.18-0.75c-0.1-0.35-0.44-1.18-0.75-1.84c-0.43-0.92-0.57-1.36-0.58-1.84c-0.01-0.35-0.01-0.84 0.02-1.09c0.04-0.44 0.1-0.5 1.66-1.68c0.89-0.67 1.67-1.23 1.73-1.24z" />
		<path class="s2" d="m113.21 175.84c0.05 0.31 0.16 0.58 0.29 0.66c0.12 0.08 0.28 0.15 0.36 0.14c0.08 0 0.14 0.05 0.14 0.11c0 0.06-0.16 0.15-0.35 0.2c-0.26 0.07-0.36 0.17-0.42 0.43c-0.04 0.19-0.04 0.63 0 0.98c0.04 0.35 0.14 1.09 0.21 1.64c0.13 0.91 0.17 1.02 0.43 1.12c0.16 0.06 0.6 0.16 0.98 0.22c0.38 0.06 1.05 0.15 1.5 0.19c0.5 0.05 0.74 0.11 0.63 0.17c-0.1 0.05-0.82 0.21-1.61 0.35c-1.11 0.2-1.49 0.23-1.64 0.13c-0.11-0.07-0.31-0.13-0.43-0.13c-0.13 0-0.34 0.12-0.47 0.26c-0.23 0.26-0.28 0.26-3.08 0.25c-2.47 0-2.95-0.03-3.64-0.23c-0.44-0.12-0.81-0.29-0.83-0.37c-0.03-0.11 0.28-0.14 1.26-0.15c0.71 0 2.23-0.05 3.37-0.12c1.14-0.06 2.28-0.17 2.99-0.36l-0.09-1.11c-0.05-0.61-0.14-1.47-0.2-1.92c-0.07-0.48-0.19-0.89-0.31-1.01c-0.11-0.11-0.47-0.24-0.8-0.29c-0.33-0.05-0.61-0.11-0.61-0.15c0-0.03 0.36-0.12 0.81-0.2c0.44-0.08 0.89-0.22 0.98-0.32c0.1-0.1 0.17-0.25 0.16-0.35c-0.01-0.1 0.06-0.29 0.14-0.43c0.14-0.24 0.15-0.22 0.23 0.27zm-46.66 1.56c0.04 0.02 0.03 0.29-0.02 0.59c-0.05 0.3-0.04 0.81 0.02 1.13c0.06 0.32 0.34 1.07 0.62 1.67c0.28 0.6 0.6 1.38 0.7 1.73c0.1 0.35 0.19 0.69 0.18 0.75c0 0.06-0.23-0.35-0.5-0.92c-0.3-0.63-0.7-1.24-1.01-1.55c-0.28-0.28-0.79-0.64-1.14-0.8c-0.44-0.2-0.85-0.29-1.35-0.29c-0.4-0.01-0.71-0.04-0.69-0.09c0.02-0.04 0.72-0.57 1.57-1.17c0.85-0.6 1.58-1.07 1.61-1.05zm61.53 6.97c0.05 0 0.09 0.02 0.09 0.05c0 0.03-1 0.8-2.22 1.71c-1.22 0.91-3.05 2.22-4.06 2.92c-1.01 0.7-2.46 1.66-3.22 2.13c-0.76 0.47-2 1.21-2.76 1.63c-0.76 0.42-1.93 1-2.59 1.28c-0.67 0.28-1.65 0.64-2.19 0.79c-0.54 0.16-1.42 0.35-1.96 0.42c-0.76 0.11-1.38 0.11-2.82-0.01c-1.04-0.08-2.39-0.11-3.11-0.07c-0.7 0.04-1.71 0.15-2.25 0.25c-0.54 0.1-1.24 0.26-1.55 0.36c-0.32 0.1-0.96 0.39-1.44 0.63c-0.48 0.25-1.03 0.45-1.24 0.45c-0.26 0-0.43-0.08-0.55-0.26c-0.11-0.17-0.21-0.22-0.29-0.14c-0.08 0.08-0.03 0.33 0.13 0.75c0.21 0.55 0.23 0.81 0.19 1.96c-0.05 1.15-0.11 1.48-0.89 3.68l0.43 0.19c0.24 0.1 0.87 0.21 1.41 0.24c0.84 0.05 1.16 0.01 2.3-0.3c0.73-0.19 2.46-0.74 3.86-1.21c1.39-0.47 3.49-1.23 4.66-1.68c1.17-0.45 3.11-1.24 4.32-1.75c1.2-0.51 3.43-1.53 4.95-2.27c1.52-0.74 3.52-1.78 4.43-2.3c0.92-0.53 2.1-1.24 2.62-1.58c0.52-0.34 1-0.62 1.07-0.62c0.06 0 0.14-0.06 0.16-0.14c0.04-0.12 0.05-0.12 0.06 0c0.01 0.08-0.81 0.75-1.81 1.5c-1 0.74-2.44 1.77-3.2 2.27c-0.76 0.51-2.18 1.4-3.17 1.99c-0.98 0.59-2.95 1.66-4.38 2.37c-1.43 0.71-3.26 1.57-4.09 1.91c-0.82 0.34-2.14 0.84-2.94 1.13c-0.79 0.28-2.22 0.71-3.17 0.95c-0.95 0.24-2.25 0.53-2.88 0.65c-0.8 0.14-1.76 0.21-3.14 0.21c-1.09 0-1.99 0.01-1.99 0.01c0 0 0.13 0.35 0.29 0.78c0.16 0.43 0.4 1.31 0.54 1.96c0.22 1.03 0.25 1.53 0.25 3.89c0 1.92-0.06 3.14-0.2 4.2c-0.18 1.35-0.18 1.52-0.02 1.76c0.1 0.14 0.31 0.31 0.46 0.37c0.16 0.06 0.5 0.12 0.75 0.12c0.25 0 0.86-0.08 1.35-0.18c0.49-0.1 1.44-0.37 2.1-0.59c0.67-0.22 2.12-0.79 3.22-1.26c1.11-0.47 3.73-1.7 5.82-2.74c2.09-1.04 4.66-2.34 5.7-2.91c1.05-0.56 2-1.06 2.36-1.18l-0.23 0.18c-0.13 0.1-2.51 1.58-5.3 3.3c-2.79 1.72-5.74 3.56-6.56 4.1c-0.82 0.54-2.07 1.4-2.76 1.92c-0.7 0.52-1.5 1.2-1.79 1.51c-0.29 0.31-0.64 0.78-0.78 1.05c-0.14 0.27-0.25 0.63-0.25 0.81c0 0.17 0.1 0.49 0.23 0.69c0.16 0.27 0.36 0.41 0.69 0.49c0.27 0.07 0.82 0.08 1.33 0.03c0.48-0.05 0.86-0.05 0.86 0c0 0.05-0.35 0.2-0.78 0.34c-0.43 0.14-1.13 0.4-2.33 0.9l-3.02-0.99c-1.78-0.58-3.35-1.17-3.83-1.43c-0.44-0.24-1.17-0.53-1.61-0.63c-0.44-0.1-1.36-0.2-2.04-0.21c-0.68-0.01-1.24-0.05-1.24-0.08c0-0.03 0.3-0.18 0.66-0.34c0.37-0.15 0.92-0.44 1.24-0.64c0.32-0.2 0.75-0.57 0.97-0.82c0.22-0.25 0.52-0.74 0.67-1.08c0.15-0.35 0.38-1.07 0.49-1.61c0.12-0.54 0.58-3.21 1.04-5.93c0.81-4.86 0.82-4.98 0.75-6.45c-0.04-0.82-0.02-1.68 0.04-1.9c0.06-0.22 0.25-0.74 0.42-1.15c0.17-0.41 0.39-1.01 0.48-1.32c0.09-0.32 0.2-1.2 0.25-1.96c0.08-1.28 0.13-1.48 0.63-2.71c0.3-0.73 0.67-1.54 0.82-1.81c0.16-0.27 0.32-0.49 0.37-0.49c0.05 0 0.16 0.08 0.26 0.19c0.11 0.13 0.19 0.54 0.23 1.21c0.05 0.94 0.07 1.01 0.29 0.96c0.13-0.03 1.19-0.28 2.36-0.56c1.17-0.28 2.75-0.61 3.51-0.74c0.76-0.13 1.67-0.26 2.02-0.3c0.35-0.04 1.49-0.12 2.53-0.18c1.05-0.06 2.34-0.19 2.88-0.29c0.54-0.09 1.35-0.27 1.81-0.4c0.46-0.13 1.37-0.44 2.02-0.7c0.65-0.26 2.09-0.93 3.2-1.49c1.11-0.56 2.82-1.48 3.8-2.05c0.98-0.56 2.77-1.63 3.97-2.36c1.2-0.73 2.23-1.34 2.27-1.34zm22.95 1.72c0.03 0 0.05 0.17 0.05 0.37c0 0.21-0.07 0.48-0.16 0.6c-0.09 0.13-0.19 0.2-0.21 0.17c-0.03-0.03 0.02-0.3 0.11-0.6c0.09-0.3 0.18-0.55 0.21-0.55zm-82.74 0.12c0.06 0 0.08 0.17 0.05 0.37c-0.03 0.21-0.11 0.43-0.17 0.49c-0.06 0.06-0.13 0.09-0.16 0.06c-0.03-0.03 0-0.25 0.06-0.49c0.06-0.24 0.16-0.43 0.22-0.43zm1.15 0c0.06 0 0.12 0.01 0.12 0.03c0 0.02 0.05 0.2 0.12 0.4c0.08 0.25 0.08 0.37 0 0.37c-0.06 0-0.17-0.17-0.23-0.37c-0.06-0.21-0.12-0.39-0.12-0.4c0-0.02 0.05-0.03 0.12-0.03zm69.32 27.19c0.73-0.01 2.1 0.04 3.05 0.1c0.95 0.06 2.35 0.19 3.11 0.29c0.76 0.1 1.9 0.28 2.53 0.42c0.63 0.13 1.8 0.45 2.59 0.7c0.79 0.25 2.09 0.77 2.88 1.15c0.79 0.38 1.93 1.01 2.53 1.41c0.6 0.4 1.46 1.02 1.9 1.39c0.44 0.37 1.19 1.04 1.67 1.5c0.48 0.45 1.07 0.97 1.32 1.16c0.25 0.18 0.49 0.35 0.52 0.37c0.03 0.02-0.1 0.19-0.29 0.38c-0.19 0.19-0.4 0.34-0.46 0.34c-0.06 0-0.81-0.56-1.67-1.24c-0.86-0.68-2.07-1.63-2.71-2.11c-0.63-0.48-1.64-1.2-2.25-1.6c-0.6-0.4-1.56-0.95-2.13-1.24c-0.57-0.29-1.4-0.65-1.84-0.8c-0.44-0.15-1.27-0.35-1.84-0.45c-0.57-0.1-1.79-0.28-2.71-0.4c-0.92-0.12-2.68-0.28-3.92-0.36c-1.75-0.11-2.62-0.11-3.92 0c-0.92 0.08-2.21 0.26-2.88 0.41c-0.67 0.15-1.92 0.54-2.79 0.86c-0.87 0.32-1.64 0.59-1.72 0.59c-0.07 0-0.1-0.04-0.05-0.09c0.05-0.05 0.12-0.09 0.16-0.1c0.04-0.01 0.28-0.1 0.54-0.21c0.25-0.11 1.06-0.46 1.78-0.78c0.73-0.32 1.71-0.72 2.19-0.89c0.48-0.17 1.23-0.4 1.67-0.5c0.44-0.1 0.94-0.21 1.09-0.23c0.16-0.02 0.88-0.05 1.61-0.06zm-53.69 7.7c0.08 0 0.14 0.04 0.14 0.08c0 0.05-0.29 0.27-0.65 0.49c-0.35 0.22-1.06 0.8-1.58 1.28c-0.52 0.48-1.04 1.06-1.17 1.3c-0.14 0.27-0.36 0.46-0.58 0.53c-0.19 0.06-0.74 0.36-1.23 0.68c-0.49 0.31-1.01 0.74-1.17 0.95c-0.16 0.21-0.37 0.57-0.48 0.79c-0.11 0.22-0.22 0.64-0.26 0.92c-0.04 0.36 0.02 0.73 0.19 1.21c0.14 0.38 0.26 0.76 0.27 0.83c0.01 0.08 0.02 0.14 0.02 0.15c0 0 0.47-0.2 1.04-0.45c0.57-0.25 1.48-0.59 2.02-0.76c0.54-0.17 1.5-0.39 2.13-0.49c0.84-0.13 1.63-0.17 2.88-0.12c1.31 0.04 2.06 0.13 3.11 0.37c0.76 0.17 2.37 0.62 3.57 1c1.2 0.38 2.52 0.76 2.94 0.85c0.41 0.09 1.03 0.16 1.38 0.16c0.35 0 1.18-0.08 1.84-0.18c0.67-0.1 3.05-0.54 5.3-0.98c2.25-0.44 4.87-0.93 5.82-1.09c0.95-0.16 2.45-0.34 3.34-0.42c1.55-0.13 1.68-0.12 3.45 0.18c1.01 0.17 2.75 0.52 3.86 0.76c1.11 0.24 3.39 0.76 5.07 1.14c1.68 0.38 4.09 0.88 5.35 1.1c1.27 0.22 3.26 0.53 4.43 0.69c1.17 0.16 2.99 0.34 4.03 0.41c1.05 0.07 2.33 0.15 2.85 0.18c0.52 0.03 0.95 0.1 0.95 0.17c0 0.06-0.32 0.24-0.72 0.4c-0.4 0.16-1.63 0.64-2.73 1.08c-1.11 0.44-2.95 1.12-4.09 1.51c-1.14 0.39-2.77 0.91-3.63 1.16c-0.86 0.25-2.2 0.61-2.99 0.81c-0.79 0.2-2.45 0.56-3.68 0.81c-1.24 0.24-3.2 0.58-4.38 0.74c-1.17 0.16-2.93 0.38-3.92 0.48c-1.06 0.11-3.49 0.21-5.99 0.24c-2.68 0.04-4.97 0.01-6.33-0.07c-1.17-0.07-2.86-0.21-3.74-0.31c-0.89-0.09-2.47-0.3-3.51-0.46c-1.05-0.16-2.81-0.47-3.92-0.69c-1.11-0.22-3.1-0.68-4.43-1.02c-1.33-0.34-3.48-0.97-4.78-1.39c-1.3-0.42-3.01-1.02-3.8-1.32c-0.79-0.3-2.14-0.84-2.99-1.2c-0.86-0.36-1.63-0.72-1.73-0.8c-0.1-0.08-0.59-0.31-1.09-0.53c-0.51-0.21-1.49-0.67-2.19-1.02c-0.7-0.35-1.86-0.96-2.59-1.38c-0.73-0.41-1.92-1.11-2.65-1.56c-0.73-0.44-1.83-1.14-2.45-1.54c-0.62-0.4-1.12-0.78-1.12-0.85c0-0.06 0.14-0.12 0.32-0.12c0.17 0 0.73-0.1 1.24-0.22c0.51-0.12 2.35-0.53 4.09-0.92c1.74-0.39 3.79-0.87 4.55-1.06c0.76-0.19 1.62-0.45 1.9-0.58c0.29-0.13 0.75-0.4 1.04-0.61c0.29-0.21 0.7-0.47 0.92-0.58c0.27-0.13 0.56-0.18 0.86-0.15c0.25 0.03 0.95 0.24 2.65 0.87l0.4-0.34c0.22-0.19 0.87-0.52 1.44-0.73c0.57-0.22 1.1-0.4 1.18-0.4z" />
	</g>
</svg>