<?xml version="1.0" encoding="UTF-8"?>
<svg width="225pt" height="222.88pt" version="1.2" viewBox="0 0 225 222.88" xmlns="http://www.w3.org/2000/svg" xmlns:cc="http://creativecommons.org/ns#" xmlns:dc="http://purl.org/dc/elements/1.1/" xmlns:rdf="http://www.w3.org/1999/02/22-rdf-syntax-ns#" xmlns:xlink="http://www.w3.org/1999/xlink">
<metadata>
<rdf:RDF>
<cc:Work rdf:about="">
<dc:format>image/svg+xml</dc:format>
<dc:type rdf:resource="http://purl.org/dc/dcmitype/StillImage"/>
<dc:title/>
</cc:Work>
</rdf:RDF>
</metadata>
<defs>
<symbol id="f" overflow="visible"></symbol>
<symbol id="e" overflow="visible"></symbol>
<symbol id="h" overflow="visible"></symbol>
<symbol id="c" overflow="visible"></symbol>
<symbol id="d" overflow="visible"></symbol>
<symbol id="g" overflow="visible"></symbol>
<symbol id="a" overflow="visible"></symbol>
<symbol id="b" overflow="visible"></symbol>
<symbol id="i" overflow="visible"></symbol>
<clipPath id="j">
<rect width="240" height="140"/>
</clipPath>
<g clip-path="url(#j)"></g>
<clipPath>
<rect width="34" height="78"/>
</clipPath>
<clipPath>
<rect width="31" height="33"/>
</clipPath>
</defs>
<g transform="translate(379.02 13.392)">
<g>
<use x="1349.3295" y="1079.4521" width="100%" height="100%" xlink:href="#f"/>
</g>
<g>
<use x="1460.0863" y="1079.4521" width="100%" height="100%" xlink:href="#f"/>
</g>
<g>
<use x="82.834999" y="1079.4521" width="100%" height="100%" xlink:href="#e"/>
</g>
<g>
<use x="193.5929" y="1079.4521" width="100%" height="100%" xlink:href="#e"/>
</g>
<g>
<use x="908.8089" y="1079.969" width="100%" height="100%" xlink:href="#h"/>
</g>
<g fill="#142138">
<use x="617.77509" y="749.5647" width="100%" height="100%" xlink:href="#c"/>
</g>
<g fill="#142138">
<use x="739.8241" y="749.5647" width="100%" height="100%" xlink:href="#c"/>
</g>
<g fill="#142138">
<use x="688.47913" y="760.36469" width="100%" height="100%" xlink:href="#c"/>
</g>
<g fill="#142138">
<use x="411.8551" y="826.11871" width="100%" height="100%" xlink:href="#c"/>
</g>
<g fill="#142138">
<use x="724.03717" y="815.31873" width="100%" height="100%" xlink:href="#c"/>
</g>
<g fill="#142138">
<use x="689.60321" y="836.9187" width="100%" height="100%" xlink:href="#c"/>
</g>
<g fill="#142138">
<use x="621.5191" y="847.71869" width="100%" height="100%" xlink:href="#c"/>
</g>
<g fill="#142138">
<use x="562.44312" y="858.51868" width="100%" height="100%" xlink:href="#c"/>
</g>
<g fill="#142138">
<use x="481.29819" y="902.67273" width="100%" height="100%" xlink:href="#c"/>
</g>
<g fill="#142138">
<use x="421.2601" y="913.47272" width="100%" height="100%" xlink:href="#c"/>
</g>
<g fill="#142138">
<use x="363.19211" y="924.27271" width="100%" height="100%" xlink:href="#c"/>
</g>
<g fill="#142138">
<use x="690.52209" y="881.07269" width="100%" height="100%" xlink:href="#c"/>
</g>
<g fill="#142138">
<use x="618.56708" y="891.87268" width="100%" height="100%" xlink:href="#c"/>
</g>
<g fill="#142138">
<use x="656.31311" y="891.87268" width="100%" height="100%" xlink:href="#c"/>
</g>
<g fill="#142138">
<use x="682.44818" y="902.67273" width="100%" height="100%" xlink:href="#c"/>
</g>
<g fill="#142138">
<use x="622.95007" y="913.47272" width="100%" height="100%" xlink:href="#c"/>
</g>
<g fill="#142138">
<use x="562.44312" y="924.27271" width="100%" height="100%" xlink:href="#c"/>
</g>
<g fill="#142138">
<use x="640.47308" y="957.31171" width="100%" height="100%" xlink:href="#c"/>
</g>
<g>
<use x="706.63263" y="102.9119" width="100%" height="100%" xlink:href="#d"/>
</g>
<g>
<use x="738.26459" y="102.9119" width="100%" height="100%" xlink:href="#d"/>
</g>
<g fill="#071e3f">
<use x="367.20001" y="86.200996" width="100%" height="100%" xlink:href="#g"/>
</g>
<g>
<use x="204.26801" y="267.2804" width="100%" height="100%" xlink:href="#a"/>
</g>
<g>
<use x="305.79001" y="267.2804" width="100%" height="100%" xlink:href="#a"/>
</g>
<g>
<use x="60.655998" y="281.08041" width="100%" height="100%" xlink:href="#a"/>
</g>
<g>
<use x="127.19385" y="281.08041" width="100%" height="100%" xlink:href="#a"/>
</g>
<g>
<use x="173.6987" y="281.08041" width="100%" height="100%" xlink:href="#a"/>
</g>
<g>
<use x="256.90234" y="281.08041" width="100%" height="100%" xlink:href="#a"/>
</g>
<g>
<use x="278.66034" y="281.08041" width="100%" height="100%" xlink:href="#a"/>
</g>
<g>
<use x="254.98186" y="294.8804" width="100%" height="100%" xlink:href="#a"/>
</g>
<g>
<use x="275.62436" y="294.8804" width="100%" height="100%" xlink:href="#a"/>
</g>
<g>
<use x="110.49585" y="308.68039" width="100%" height="100%" xlink:href="#a"/>
</g>
<g>
<use x="138.73985" y="308.68039" width="100%" height="100%" xlink:href="#a"/>
</g>
<g>
<use x="241.58435" y="308.68039" width="100%" height="100%" xlink:href="#a"/>
</g>
<g>
<use x="319.04834" y="308.68039" width="100%" height="100%" xlink:href="#a"/>
</g>
<g>
<use x="55.790352" y="322.48041" width="100%" height="100%" xlink:href="#a"/>
</g>
<g>
<use x="166.55949" y="322.48041" width="100%" height="100%" xlink:href="#a"/>
</g>
<g>
<use x="222.74734" y="322.48041" width="100%" height="100%" xlink:href="#a"/>
</g>
<g>
<use x="132.33435" y="350.08041" width="100%" height="100%" xlink:href="#a"/>
</g>
<g>
<use x="309.44354" y="350.08041" width="100%" height="100%" xlink:href="#a"/>
</g>
<g>
<use x="80.459" y="363.8804" width="100%" height="100%" xlink:href="#a"/>
</g>
<g>
<use x="119.50035" y="363.8804" width="100%" height="100%" xlink:href="#a"/>
</g>
<g>
<use x="227.47501" y="363.8804" width="100%" height="100%" xlink:href="#a"/>
</g>
<g>
<use x="173.66534" y="377.68039" width="100%" height="100%" xlink:href="#a"/>
</g>
<g>
<use x="256.98285" y="377.68039" width="100%" height="100%" xlink:href="#a"/>
</g>
<g>
<use x="277.29184" y="377.68039" width="100%" height="100%" xlink:href="#a"/>
</g>
<g>
<use x="86.232002" y="419.08041" width="100%" height="100%" xlink:href="#a"/>
</g>
<g>
<use x="191.40985" y="419.08041" width="100%" height="100%" xlink:href="#a"/>
</g>
<g>
<use x="257.63834" y="419.08041" width="100%" height="100%" xlink:href="#a"/>
</g>
<g>
<use x="299.14185" y="419.08041" width="100%" height="100%" xlink:href="#a"/>
</g>
<g>
<use x="206.9337" y="432.8804" width="100%" height="100%" xlink:href="#a"/>
</g>
<g>
<use x="245.2057" y="432.8804" width="100%" height="100%" xlink:href="#a"/>
</g>
<g>
<use x="289.22769" y="432.8804" width="100%" height="100%" xlink:href="#a"/>
</g>
<g>
<use x="239.16936" y="446.68039" width="100%" height="100%" xlink:href="#a"/>
</g>
<g>
<use x="291.01251" y="446.68039" width="100%" height="100%" xlink:href="#a"/>
</g>
<g>
<use x="100.75535" y="460.48041" width="100%" height="100%" xlink:href="#a"/>
</g>
<g>
<use x="181.20821" y="460.48041" width="100%" height="100%" xlink:href="#a"/>
</g>
<g>
<use x="244.3317" y="460.48041" width="100%" height="100%" xlink:href="#a"/>
</g>
<g>
<use x="314.1022" y="460.48041" width="100%" height="100%" xlink:href="#a"/>
</g>
<g>
<use x="110.589" y="474.2804" width="100%" height="100%" xlink:href="#a"/>
</g>
<g>
<use x="271.18649" y="474.2804" width="100%" height="100%" xlink:href="#a"/>
</g>
<g>
<use x="260.41101" y="488.08041" width="100%" height="100%" xlink:href="#a"/>
</g>
<g>
<use x="309.8035" y="488.08041" width="100%" height="100%" xlink:href="#a"/>
</g>
<g>
<use x="186.54535" y="501.8804" width="100%" height="100%" xlink:href="#a"/>
</g>
<g>
<use x="273.78436" y="501.8804" width="100%" height="100%" xlink:href="#a"/>
</g>
<g>
<use x="215.62885" y="515.68042" width="100%" height="100%" xlink:href="#a"/>
</g>
<g>
<use x="262.69836" y="515.68042" width="100%" height="100%" xlink:href="#a"/>
</g>
<g>
<use x="296.30136" y="515.68042" width="100%" height="100%" xlink:href="#a"/>
</g>
<g>
<use x="100.8485" y="529.48041" width="100%" height="100%" xlink:href="#a"/>
</g>
<g>
<use x="316.87485" y="529.48041" width="100%" height="100%" xlink:href="#a"/>
</g>
<g>
<use x="49.259499" y="570.88037" width="100%" height="100%" xlink:href="#a"/>
</g>
<g>
<use x="88.957497" y="570.88037" width="100%" height="100%" xlink:href="#a"/>
</g>
<g>
<use x="276.10849" y="570.88037" width="100%" height="100%" xlink:href="#a"/>
</g>
<g>
<use x="288.57449" y="570.88037" width="100%" height="100%" xlink:href="#a"/>
</g>
<g>
<use x="81.378998" y="584.68042" width="100%" height="100%" xlink:href="#a"/>
</g>
<g>
<use x="101.7685" y="584.68042" width="100%" height="100%" xlink:href="#a"/>
</g>
<g>
<use x="224.0825" y="584.68042" width="100%" height="100%" xlink:href="#a"/>
</g>
<g>
<use x="275.867" y="584.68042" width="100%" height="100%" xlink:href="#a"/>
</g>
<g>
<use x="305.0885" y="584.68042" width="100%" height="100%" xlink:href="#a"/>
</g>
<g>
<use x="201.23199" y="612.2804" width="100%" height="100%" xlink:href="#a"/>
</g>
<g>
<use x="232.89149" y="612.2804" width="100%" height="100%" xlink:href="#a"/>
</g>
<g>
<use x="191.75485" y="626.08038" width="100%" height="100%" xlink:href="#a"/>
</g>
<g>
<use x="317.09335" y="626.08038" width="100%" height="100%" xlink:href="#a"/>
</g>
<g>
<use x="122.388" y="639.88037" width="100%" height="100%" xlink:href="#a"/>
</g>
<g>
<use x="118.97135" y="653.68042" width="100%" height="100%" xlink:href="#a"/>
</g>
<g>
<use x="1102.0022" y="495.47449" width="100%" height="100%" xlink:href="#b"/>
</g>
<g>
<use x="1129.9922" y="495.47449" width="100%" height="100%" xlink:href="#b"/>
</g>
<g>
<use x="873.78522" y="507.47449" width="100%" height="100%" xlink:href="#b"/>
</g>
<g>
<use x="947.06519" y="507.47449" width="100%" height="100%" xlink:href="#b"/>
</g>
<g>
<use x="1139.5721" y="507.47449" width="100%" height="100%" xlink:href="#b"/>
</g>
<g>
<use x="851.62622" y="519.47449" width="100%" height="100%" xlink:href="#b"/>
</g>
<g>
<use x="1027.7142" y="519.47449" width="100%" height="100%" xlink:href="#b"/>
</g>
<g>
<use x="1093.6832" y="519.47449" width="100%" height="100%" xlink:href="#b"/>
</g>
<g>
<use x="850.20618" y="531.47449" width="100%" height="100%" xlink:href="#b"/>
</g>
<g>
<use x="976.68518" y="531.47449" width="100%" height="100%" xlink:href="#b"/>
</g>
<g>
<use x="1024.8842" y="531.47449" width="100%" height="100%" xlink:href="#b"/>
</g>
<g>
<use x="1036.9542" y="531.47449" width="100%" height="100%" xlink:href="#b"/>
</g>
<g>
<use x="874.13519" y="543.47449" width="100%" height="100%" xlink:href="#b"/>
</g>
<g>
<use x="1149.0122" y="543.47449" width="100%" height="100%" xlink:href="#b"/>
</g>
<g>
<use x="904.12518" y="555.47449" width="100%" height="100%" xlink:href="#b"/>
</g>
<g>
<use x="1089.1932" y="555.47449" width="100%" height="100%" xlink:href="#b"/>
</g>
<g>
<use x="853.67621" y="567.47449" width="100%" height="100%" xlink:href="#b"/>
</g>
<g>
<use x="914.42517" y="567.47449" width="100%" height="100%" xlink:href="#b"/>
</g>
<g>
<use x="1141.8832" y="567.47449" width="100%" height="100%" xlink:href="#b"/>
</g>
<g>
<use x="1017.8842" y="579.47449" width="100%" height="100%" xlink:href="#b"/>
</g>
<g>
<use x="1093.8032" y="579.47449" width="100%" height="100%" xlink:href="#b"/>
</g>
<g>
<use x="1123.8032" y="579.47449" width="100%" height="100%" xlink:href="#b"/>
</g>
<g>
<use x="842.64618" y="934.1499" width="100%" height="100%" xlink:href="#b"/>
</g>
<g>
<use x="896.31519" y="934.1499" width="100%" height="100%" xlink:href="#b"/>
</g>
<g>
<use x="963.67419" y="934.1499" width="100%" height="100%" xlink:href="#b"/>
</g>
<g>
<use x="1102.8232" y="934.1499" width="100%" height="100%" xlink:href="#b"/>
</g>
<g>
<use x="1055.3342" y="946.1499" width="100%" height="100%" xlink:href="#b"/>
</g>
<g>
<use x="1134.3932" y="946.1499" width="100%" height="100%" xlink:href="#b"/>
</g>
<g>
<use x="857.28619" y="958.1499" width="100%" height="100%" xlink:href="#b"/>
</g>
<g>
<use x="961.05518" y="958.1499" width="100%" height="100%" xlink:href="#b"/>
</g>
<g>
<use x="982.3642" y="958.1499" width="100%" height="100%" xlink:href="#b"/>
</g>
<g>
<use x="990.10419" y="958.1499" width="100%" height="100%" xlink:href="#b"/>
</g>
<g>
<use x="1036.3232" y="958.1499" width="100%" height="100%" xlink:href="#b"/>
</g>
<g>
<use x="1143.0623" y="958.1499" width="100%" height="100%" xlink:href="#b"/>
</g>
<g>
<use x="863.33618" y="970.1499" width="100%" height="100%" xlink:href="#b"/>
</g>
<g>
<use x="935.99518" y="970.1499" width="100%" height="100%" xlink:href="#b"/>
</g>
<g>
<use x="1137.3022" y="970.1499" width="100%" height="100%" xlink:href="#b"/>
</g>
<g>
<use x="1056.6932" y="982.1499" width="100%" height="100%" xlink:href="#b"/>
</g>
<g>
<use x="1147.0922" y="982.1499" width="100%" height="100%" xlink:href="#b"/>
</g>
<g>
<use x="1013.9952" y="994.1499" width="100%" height="100%" xlink:href="#b"/>
</g>
<g>
<use x="1056.6442" y="994.1499" width="100%" height="100%" xlink:href="#b"/>
</g>
<g>
<use x="1086.7832" y="1006.1499" width="100%" height="100%" xlink:href="#b"/>
</g>
<g>
<use x="937.75421" y="1018.1499" width="100%" height="100%" xlink:href="#b"/>
</g>
<g>
<use x="1016.8132" y="1018.1499" width="100%" height="100%" xlink:href="#b"/>
</g>
<g>
<use x="1133.2722" y="1018.1499" width="100%" height="100%" xlink:href="#b"/>
</g>
<g>
<use x="915.05518" y="1030.1499" width="100%" height="100%" xlink:href="#b"/>
</g>
<g>
<use x="995.34521" y="1030.1499" width="100%" height="100%" xlink:href="#b"/>
</g>
<g>
<use x="1017.8252" y="1030.1499" width="100%" height="100%" xlink:href="#b"/>
</g>
<g>
<use x="1092.6042" y="1030.1499" width="100%" height="100%" xlink:href="#b"/>
</g>
<g>
<use x="868.5152" y="1042.1499" width="100%" height="100%" xlink:href="#b"/>
</g>
<g>
<use x="978.49518" y="1042.1499" width="100%" height="100%" xlink:href="#b"/>
</g>
<g>
<use x="996.31519" y="1042.1499" width="100%" height="100%" xlink:href="#b"/>
</g>
<path d="m-180.68 38.172h-8.857l-29.577-23.75-10.411 2.1515-28.161-17.146-8.8331-5.3847-37 22.531-10.411-2.1515-29.577 23.75h-8.857c-1.6076 10.327-9.9627 18.527-20.308 19.943v38.948c0.12546 0.0179 0.25101 0.04177 0.37651 0.05982 11.182 1.7152 19.955 11.367 20.206 22.985v25.776c4.7931 1.1654 14.242 5.2712 23.971 19.698 5.1696 7.6677 12.06 10.979 16.973 12.407 3.4484 1.004 7.088 1.1534 9.2933 1.1295v8.7315c4.0819 0.21514 10.967 1.6196 17.834 7.7036 8.5642 7.59 13.65 7.5841 17.499 7.5841 3.8488 0 8.9288 6e-3 17.493-7.5841 6.8729-6.084 13.758-7.4884 17.84-7.7036v-8.7315c2.2053 0.0239 5.8449-0.12546 9.2873-1.1295 4.9186-1.4284 11.809-4.7393 16.979-12.407 9.7296-14.427 19.178-18.533 23.965-19.698v-25.776h6e-3c0.251-11.75 9.2156-21.497 20.577-23.045v-38.948c-10.345-1.4164-18.7-9.616-20.308-19.943" fill="#141e38"/>
<path d="m-261.64 22.066 13.716 11.421-5.1457-8.5044z" fill="#fff"/>
<path d="m-267.37 7.0533-6.2095 7.3868 5.7433 4.0401z" fill="#fff"/>
<path d="m-259.47 14.44-6.2513-7.3868 0.51396 11.427z" fill="#fff"/>
<path d="m-244.11 15.313h-11.02l-4.7512 1.7989z" fill="#fff"/>
<path d="m-278.31 15.313h-11.02l15.772 1.7989z" fill="#fff"/>
<path d="m-251 22.998 12.682-5.7314-25.292 2.2949z" fill="#fff"/>
<path d="m-264.56 30.009 16.704 6.4844-17.308-14.331z" fill="#fff"/>
<path d="m-269.36 19.562-25.376-2.2949 12.658 5.7194z" fill="#fff"/>
<path d="m-267.88 22.162-17.296 14.325 16.734-6.5561z" fill="#fff"/>
<path d="m-285.33 33.708 13.955-11.69-8.6 2.9404z" fill="#fff"/>
<path d="m-307.54 49.504h-9.8133v-1.9364h9.132l0.22113-2.522h-9.3531v-1.9363h9.3531v-2.5161h-12.216v11.427h12.676z" fill="#faca05"/>
<path d="m-291.69 49.504h-8.2235v-8.9108h-2.8627v11.427h10.859z" fill="#faca05"/>
<path d="m-269.08 41.418c-0.29882-0.29882-0.65143-0.51397-1.0578-0.63948-0.40639-0.1255-0.92635-0.18527-1.5658-0.18527h-10.279v11.427h2.8627v-3.4245h7.4167c0.63946 0 1.1594-0.06579 1.5658-0.19124 0.4064-0.12546 0.75901-0.33468 1.0578-0.63351 0.29285-0.29882 0.50201-0.63946 0.62154-1.0339 0.11949-0.39444 0.1793-0.92036 0.1793-1.5718v-1.1475c0-0.65143-0.0598-1.1714-0.1793-1.5658-0.11949-0.39444-0.32869-0.74107-0.62154-1.0339m-2.0559 3.801c0 0.3287-0.0717 0.5558-0.21515 0.67532-0.14336 0.11949-0.41834 0.1793-0.8128 0.1793h-6.9565v-2.9643h6.9565c0.39446 0 0.66936 0.05982 0.8128 0.18526 0.14335 0.11352 0.21515 0.34066 0.21515 0.67534z" fill="#faca05"/>
<path d="m-261.58 49.761h7.9008l1.4224 2.2591h3.305l-7.4705-11.463h-2.3966l-7.4884 11.463h3.305zm3.9564-6.3231 2.4503 3.9205h-4.9126z" fill="#faca05"/>
<path d="m-243.49 40.778c-0.4064 0.1255-0.75303 0.34066-1.0399 0.63948-0.26297 0.26296-0.46018 0.59167-0.59765 0.98014-0.13739 0.39444-0.20319 0.82474-0.20319 1.2789v0.68729c0 0.45422 0.0658 0.87853 0.20319 1.273 0.13755 0.39446 0.33468 0.72315 0.59765 0.98611 0.28687 0.29883 0.6335 0.50801 1.0399 0.63351 0.40041 0.12546 0.93231 0.18526 1.5837 0.18526h6.3708c0.40042 0 0.66936 0.06579 0.81279 0.18526 0.14336 0.11949 0.21516 0.34066 0.21516 0.67534v0.34066c0 0.33468-0.0718 0.56177-0.21516 0.67532-0.14336 0.12546-0.41237 0.18528-0.81279 0.18528h-5.564c-0.49008 0-0.83073-0.05385-1.016-0.1554-0.17928-0.10756-0.29881-0.32271-0.35857-0.65143l-2.8567 0.34066c0.0418 0.56179 0.12546 1.004 0.23906 1.3208 0.11352 0.32273 0.29881 0.60362 0.56178 0.85462 0.29882 0.28687 0.65143 0.49008 1.0578 0.61558 0.40042 0.12546 0.92634 0.19124 1.5658 0.19124h6.8549c0.64546 0 1.1774-0.06579 1.5838-0.19124 0.40042-0.12546 0.74705-0.33468 1.0339-0.6335 0.26296-0.26297 0.46019-0.59167 0.60362-0.98612 0.13142-0.39444 0.20319-0.81279 0.20319-1.273v-0.68729c0-0.4542-0.0717-0.87852-0.20319-1.273-0.14336-0.39444-0.34066-0.72314-0.60362-0.98611-0.28686-0.29882-0.63349-0.50799-1.0339-0.6335-0.40641-0.12546-0.9383-0.19124-1.5838-0.19124h-6.3768c-0.40042 0-0.66935-0.05982-0.81279-0.1793-0.14336-0.11949-0.21514-0.34663-0.21514-0.67532v-0.34066c0-0.33468 0.0718-0.56179 0.21514-0.68131 0.14336-0.11949 0.41237-0.1793 0.81279-0.1793h5.57c0.49007 0 0.82474 0.05385 1.01 0.15538 0.17929 0.10159 0.29883 0.31675 0.35859 0.65143l2.8627-0.34064c-0.0477-0.56179-0.12545-0.99807-0.23905-1.3208-0.11949-0.31676-0.3048-0.60362-0.56776-0.85463-0.29284-0.28687-0.64545-0.49604-1.0518-0.62155-0.40641-0.11954-0.93233-0.18527-1.5658-0.18527h-6.8549c-0.65143 0-1.1833 0.06574-1.5837 0.18527" fill="#faca05"/>
<path d="m-225.73 51.195c0.29285 0.29882 0.64546 0.50799 1.0518 0.6335 0.4064 0.12546 0.93233 0.19124 1.5658 0.19124h6.8549c0.63948 0 1.1594-0.06579 1.5658-0.19124 0.40639-0.12546 0.759-0.33468 1.0578-0.6335 0.29285-0.29285 0.50203-0.64546 0.62155-1.0399 0.11949-0.40042 0.17929-0.92634 0.17929-1.5778v-4.5421c0-0.65143-0.0598-1.1774-0.17929-1.5778-0.11949-0.39444-0.3287-0.74706-0.62155-1.0399-0.29881-0.29882-0.65142-0.51397-1.0578-0.63948-0.40641-0.1255-0.92635-0.18527-1.5658-0.18527h-6.8549c-0.63349 0-1.1594 0.05976-1.5658 0.18527-0.40639 0.1255-0.759 0.34066-1.0518 0.63948-0.29882 0.29284-0.50799 0.64546-0.62751 1.0399-0.11949 0.40042-0.1793 0.92634-0.1793 1.5778v4.5421c0 0.65143 0.0598 1.1774 0.1793 1.5778 0.11949 0.39444 0.32869 0.74705 0.62751 1.0399m2.0559-7.2255c0-0.33468 0.0718-0.56179 0.21516-0.68131 0.13739-0.11949 0.41237-0.1793 0.81279-0.1793h5.9286c0.40639 0 0.68131 0.05982 0.81878 0.17331 0.13739 0.11352 0.20916 0.34066 0.20916 0.68729v4.6736c0 0.33468-0.0718 0.5558-0.21515 0.67532-0.14335 0.12546-0.41835 0.18528-0.81279 0.18528h-5.9286c-0.40042 0-0.67534-0.05982-0.81279-0.18528-0.14335-0.11949-0.21516-0.34065-0.21516-0.67532z" fill="#faca05"/>
<path d="m-174.67 31.825h-12.634l-30.163-24.228-10.895 2.2531-38.159-23.242-38.165 23.242-10.889-2.2531-30.169 24.228h-12.628c0 13.549-7.8052 20.565-20.648 20.565v50.393c12.843 0 20.362 8.0442 20.577 17.427h6e-3v30.605c3.9265 0.0837 13.65 1.3387 25.053 18.324 8.0442 11.977 19.632 15.246 25.179 15.981v9.108c3.0181-0.27491 11.821-1.1475 19.979 6.078 10.363 9.1858 17.433 9.1858 21.706 9.1858 4.2672 0 11.337 0 21.706-9.1858 8.1578-7.2255 16.961-6.3529 19.973-6.078v-9.108c5.5521-0.7351 17.134-4.0042 25.185-15.981 11.403-16.985 21.121-18.24 25.053-18.324v-30.605c0.22112-9.383 7.7335-17.427 20.583-17.427v-50.393c-12.849 0-20.649-7.0163-20.649-20.565m14.296 65.238c-11.361 1.5539-20.326 11.295-20.583 23.045v25.776c-4.7871 1.1654-14.236 5.2712-23.965 19.698-5.1756 7.6677-12.06 10.979-16.979 12.407-3.4424 1.004-7.082 1.1534-9.2873 1.1295v8.7315c-4.0819 0.21515-10.967 1.6196-17.84 7.7036-8.5642 7.59-13.644 7.5841-17.493 7.5841-3.8488 0-8.9347 6e-3 -17.499-7.5841-6.8669-6.084-13.752-7.4884-17.834-7.7036v-8.7315c-2.2053 0.0239-5.8449-0.12545-9.2933-1.1295-4.9126-1.4284-11.803-4.7393-16.973-12.407-9.7296-14.427-19.178-18.533-23.971-19.698v-25.716l-0.11352-0.0598h0.11352c-0.25101-11.618-9.0244-21.27-20.2-22.985-0.13142-0.0179-0.25698-0.04177-0.38249-0.05982v-38.948c10.345-1.4164 18.7-9.616 20.308-19.943h8.857l29.577-23.75 10.411 2.1515 37-22.531 8.8331 5.3847 28.167 17.146 10.411-2.1515 29.571 23.75h8.863c1.6077 10.327 9.9627 18.527 20.302 19.943z" fill="#73b3e6"/>
<path d="m-269.86 103.19v-2.5161h-12.216v11.427h2.8627v-4.0401h9.126l0.22709-2.5161h-9.3531v-2.3547z" fill="#faca05"/>
<path d="m-261.8 104.32v-0.26894c0-0.33468 0.0718-0.56179 0.21516-0.68131 0.14336-0.11949 0.41237-0.17929 0.81279-0.17929h5.57c0.49006 0 0.82474 0.0538 1.01 0.15538 0.17929 0.10159 0.29881 0.31675 0.35857 0.65143l2.8567-0.34065c-0.0418-0.56178-0.12546-1.004-0.23307-1.3208-0.11949-0.32273-0.3048-0.60362-0.56777-0.86061-0.29882-0.2809-0.65143-0.49007-1.0518-0.61558-0.40639-0.12545-0.93231-0.18526-1.5658-0.18526h-6.8549c-0.65143 0-1.1833 0.0598-1.5838 0.18526-0.40638 0.12546-0.75303 0.34067-1.0399 0.63352-0.26295 0.26295-0.46018 0.59165-0.59763 0.9861-0.13739 0.39444-0.20917 0.81876-0.20917 1.2789v5.2592c0 0.45422 0.0718 0.87853 0.20917 1.273 0.13739 0.39444 0.33468 0.72314 0.59763 0.98611 0.28687 0.29881 0.63352 0.50799 1.0399 0.63349 0.40043 0.12546 0.93233 0.19125 1.5838 0.19125h6.8549c0.6335 0 1.1594-0.0658 1.5658-0.19125 0.40042-0.12546 0.75303-0.3287 1.0518-0.61556 0.26297-0.25102 0.44823-0.53789 0.56777-0.85464 0.10755-0.32273 0.19124-0.759 0.23307-1.3208l-2.8567-0.34663c-0.0598 0.33468-0.17928 0.54982-0.35857 0.65741-0.18528 0.10159-0.51996 0.14932-1.01 0.14932h-5.57c-0.40042 0-0.66936-0.0598-0.81279-0.1793-0.14336-0.11949-0.21516-0.34064-0.21516-0.67532z" fill="#faca05"/>
<path d="m-190.43 109.33c1.7332-6.1976 6.335-8.6957 6.335-8.6957h-45.702c20.726 3.1376 39.367 8.6957 39.367 8.6957" fill="#73b3e6"/>
<path d="m-348.96 100.64s4.6018 2.4981 6.335 8.6957c0 0 18.634-5.564 39.361-8.6957z" fill="#73b3e6"/>
<path d="m-243.49 87.406v-22.143c0-3.8847-2.8567-6.6996-6.7892-6.6996-3.9384 0-6.7892 2.8149-6.7892 6.6996v22.143c0 3.8847 2.8508 6.6996 6.7892 6.6996 3.9325 0 6.7892-2.8149 6.7892-6.6996m-8.2355 0.81877v-23.78c0-0.78291 0.59765-1.3268 1.4463-1.3268 0.84864 0 1.4403 0.54386 1.4403 1.3268v23.78c0 0.77693-0.59167 1.3268-1.4403 1.3268-0.84865 0-1.4463-0.54984-1.4463-1.3268" fill="#fff"/>
<path d="m-301.8 65.264v22.143c0 3.8787 2.8567 6.6996 6.7952 6.6996 3.9325 0 6.7832-2.8209 6.7832-6.6996v-22.143c0-3.8847-2.8508-6.6996-6.7832-6.6996-3.9385 0-6.7952 2.8149-6.7952 6.6996m8.2355-0.81877v23.78c0 0.77693-0.59167 1.3268-1.4403 1.3268-0.85462 0-1.4463-0.54984-1.4463-1.3268v-23.78c0-0.78291 0.59167-1.3268 1.4463-1.3268 0.84865 0 1.4403 0.54386 1.4403 1.3268" fill="#fff"/>
<path d="m-334.28 94.106c3.9325 0 6.7892-2.8209 6.7892-6.6996v-22.143c0-3.8847-2.8567-6.6996-6.7892-6.6996-3.9325 0-6.7892 2.8149-6.7892 6.6996v22.143c0 3.8787 2.8567 6.6996 6.7892 6.6996m-1.4463-29.661c0-0.78291 0.59765-1.3268 1.4463-1.3268 0.84864 0 1.4463 0.54386 1.4463 1.3268v23.78c0 0.77693-0.59765 1.3268-1.4463 1.3268-0.84865 0-1.4463-0.54984-1.4463-1.3268z" fill="#fff"/>
<path d="m-240.8 65.258h0.41835c0.29285-0.38846 1.7033-1.9125 5.564-1.9125h0.0777v23.505c0 4.811-1.1774 6.1557-1.5897 6.4784v0.27492h8.606v-0.27492c-0.41237-0.32273-1.5897-1.6674-1.5897-6.4784v-23.505h0.0777c3.8608 0 5.2712 1.524 5.564 1.9125h0.41834l-1.6076-6.1916h-14.331z" fill="#fff"/>
<path d="m-212.33 59.341v-0.2749h-8.612v0.2749c0.41834 0.32273 1.5957 1.6614 1.5957 6.4725v21.037c0 4.811-1.1774 6.1557-1.5957 6.4784v0.27492h8.612v-0.27492c-0.41834-0.32273-1.5957-1.6674-1.5957-6.4784v-21.037c0-4.811 1.1774-6.1497 1.5957-6.4725" fill="#fff"/>
<path d="m-174.24 87.412c-0.35261 0.37054-2.038 1.9125-5.9346 1.9125h-1.6136v-12.144h5.3608v-4.2791h-5.3608v-9.5563h1.255c3.8966 0 5.582 1.5359 5.9346 1.9125h0.4303l-1.6077-6.1916h-13.029v0.2749c0.41237 0.32273 1.5897 1.6614 1.5897 6.4725v21.037c0 4.811-1.1774 6.1557-1.5897 6.4784v0.27492h13.387l1.6017-6.1916z" fill="#fff"/>
<path d="m-344.34 87.412h-0.4303c-0.35261 0.37054-2.038 1.9125-5.9346 1.9125h-0.69923v-23.511c0-4.811 1.1833-6.1497 1.5957-6.4725v-0.2749h-8.612v0.2749c0.41237 0.32273 1.5957 1.6614 1.5957 6.4725v21.037c0 4.811-1.1833 6.1557-1.5957 6.4784v0.27492h12.473z" fill="#fff"/>
<path d="m-272.64 74.473-4.811-15.407h-5.7493v0.28089c0.38249 0.32273 1.4702 1.6674 1.4702 6.4665v21.037c0 4.805-1.0877 6.1497-1.4702 6.4725v0.2809h7.8291v-0.2809c-0.38249-0.32273-1.4642-1.6614-1.4702-6.4426v-13.805l3.8189 12.222h0.76498l3.813-12.222v13.805c0 4.7811-1.0877 6.1198-1.4702 6.4426v0.2809h7.8291v-0.2809c-0.38249-0.32273-1.4702-1.6674-1.4702-6.4725v-21.037c0-4.805 1.0877-6.1437 1.4702-6.4665v-0.28089h-5.7493z" fill="#fff"/>
<path d="m-207.84 64.313 4.4943 29.29h5.7314l4.4943-29.29c0.57374-3.5141 1.4045-4.6317 1.763-4.9604v-0.28687h-7.4406v0.28687c0.66936 0.5558 0.92634 1.7869 0.77096 3.6576l-2.4503 20.774-2.4563-20.768c-0.15538-1.8766 0.10159-3.1077 0.77095-3.6635v-0.28687h-7.4406v0.28687c0.35859 0.3287 1.1893 1.4463 1.763 4.9604" fill="#fff"/>
<path d="m-314.99 94.106c3.9325 0 6.7892-2.8209 6.7892-6.6996v-0.07772c0.16733-3.9145 1.2012-5.062 1.5658-5.3429v-0.27492h-6.9147v6.5143c0 0.77693-0.59166 1.3268-1.4403 1.3268-0.85464 0-1.4463-0.54984-1.4463-1.3268v-23.78c0-0.78291 0.59167-1.3268 1.4463-1.3268 0.84864 0 1.4403 0.54386 1.4403 1.3268v6.5143h6.9147v-0.2749c-0.36456-0.28687-1.3985-1.4343-1.5658-5.3429v-0.07772c0-3.8847-2.8567-6.6996-6.7892-6.6996-3.9385 0-6.7952 2.8149-6.7952 6.6996v22.143c0 3.8787 2.8567 6.6996 6.7952 6.6996" fill="#fff"/>
<path d="m-248.84 88.219v-23.774c0-0.78291-0.59167-1.3268-1.4403-1.3268-0.84865 0-1.4463 0.54386-1.4463 1.3268v23.774c0 0.78291 0.59765 1.3327 1.4463 1.3327 0.84864 0 1.4403-0.54984 1.4403-1.3327" fill="#141e38"/>
<path d="m-296.45 64.445v23.78c0 0.77693 0.59167 1.3268 1.4403 1.3268 0.85464 0 1.4463-0.54984 1.4463-1.3268v-23.78c0-0.78291-0.59167-1.3268-1.4463-1.3268-0.84863 0-1.4403 0.54386-1.4403 1.3268" fill="#141e38"/>
<path d="m-334.28 89.552c0.84864 0 1.4463-0.54984 1.4463-1.3268v-23.78c0-0.78291-0.59765-1.3268-1.4463-1.3268-0.84865 0-1.4463 0.54386-1.4463 1.3268v23.78c0 0.77693 0.59765 1.3268 1.4463 1.3268" fill="#141e38"/>
<path d="m-272.16 43.109h-6.9565v2.9643h6.9565c0.39446 0 0.66936-0.05982 0.8128-0.1793 0.14335-0.11949 0.21515-0.34663 0.21515-0.67532v-1.2491c0-0.33468-0.0717-0.56179-0.21515-0.68131-0.14336-0.11949-0.41834-0.1793-0.8128-0.1793" fill="#141e38"/>
<path d="m-257.62 43.438-2.4623 3.9205h4.9126z" fill="#141e38"/>
<path d="m-222.65 49.504h5.9286c0.39444 0 0.66936-0.05982 0.81279-0.18528 0.14336-0.11949 0.20918-0.34065 0.20918-0.67532v-4.6736c0-0.34663-0.0658-0.57374-0.20319-0.68729-0.13755-0.11352-0.41239-0.17331-0.81878-0.17331h-5.9286c-0.40042 0-0.66935 0.05982-0.81279 0.18526-0.14335 0.11352-0.21516 0.34066-0.21516 0.67534v4.6736c0 0.33468 0.0718 0.5558 0.21516 0.67532 0.14336 0.12546 0.41237 0.18528 0.81279 0.18528" fill="#141e38"/>
<path d="m-186.49 158.01v-0.54982h3.9265v0.54982h-1.6375v4.3628h-0.65741v-4.3628z" fill="#73b3e6"/>
<path d="m-181.11 157.46 1.5479 4.1297 1.5539-4.1297h0.89645v4.9126h-0.62155v-4.0878h-0.0122l-1.5359 4.0878h-0.55582l-1.5359-4.0878h-0.0122v4.0878h-0.62154v-4.9126z" fill="#73b3e6"/>
<path d="m-198.12 131.17-6.5501 3.9624v-18.909c-1.6017-0.49605-3.2572-0.98014-4.9306-1.4403v23.332l-7.088 4.2911v-29.41c-1.787-0.41237-3.6576-0.81279-5.576-1.1953v33.976l-8.2176 4.9664v-40.407c-2.0439-0.32273-4.1297-0.61557-6.2155-0.88452v45.05l-9.3411 5.6537v-41.124h-6.8609v45.271l-10.028 6.066v-51.337h-7.2016v51.337l-10.022-6.066v-45.271h-6.8669v41.124l-9.3352-5.6537v-45.05c-2.0858 0.26895-4.1715 0.56179-6.2214 0.88452v40.407l-8.2116-4.9664v-33.976c-1.9184 0.38249-3.795 0.78291-5.576 1.1953v29.41l-7.088-4.2911v-23.332c-1.6734 0.46018-3.3289 0.94427-4.9305 1.4403v18.909l-6.5561-3.9624v-12.766c-1.4343 0.51995-2.8687 1.0638-4.2851 1.6316v17.535l72.697 52.7 72.697-52.7v-17.535c-1.4164-0.56775-2.8567-1.1116-4.291-1.6316z" fill="#faca05"/>
<g>
<use x="1267.6722" y="189.5125" width="100%" height="100%" xlink:href="#i"/>
</g>
</g>
</svg>
