<svg xmlns="http://www.w3.org/2000/svg" width="316.227703087" height="316.227828947" viewBox="0 0 50.25098 50.251">
  <title>Hartford Athletic logo</title>
  <g id="Layer_2">
    <g id="Layer_1-2">
      <g id="Hartford_Athletic">
        <path d="M49.79968,25.12629a24.6745,24.6745,0,1,0-24.674,24.674,24.67435,24.67435,0,0,0,24.674-24.674" style="fill: #fff"/>
        <g>
          <path d="M21.78009,26.96019h.532v-2.54h-5.287v-5.555a3.67774,3.67774,0,0,1,2.165-3.054v-.399a7.533,7.533,0,0,0-3.254,1.387,4.123,4.123,0,0,1-3.748.261v.391a2.62884,2.62884,0,0,1,1.697,2.496v2.878c0,2.254-1.185,2.788-1.185,2.788v.104s1.185.086,1.185,2.655v4.149c0,2.566-1.722,2.796-1.722,2.796v.392a4.97377,4.97377,0,0,1,3.74694.677,7.831,7.831,0,0,0,4.084,1.177v-.465c-1.389-.379-2.128-.75-2.616-1.831a4.35215,4.35215,0,0,1-.353-1.8v-6.507Z" style="fill: #009845"/>
          <path d="M36.36609,32.52079v-4.804c0-1.914,1.185-2,1.185-2v-.103c-.19306-.074-1.185-.534-1.185-2.788v-2.878a2.62725,2.62725,0,0,1,1.696-2.496v-.392a4.11934,4.11934,0,0,1-3.748-.261,7.52742,7.52742,0,0,0-3.25305-1.386v.398a3.67726,3.67726,0,0,1,2.164,3.055v5.554H28.113v2.54h5.112v6.507a4.3637,4.3637,0,0,1-.351,1.8c-.489,1.081-1.228,1.452-2.617,1.831v.465a7.82217,7.82217,0,0,0,4.084-1.177,4.98143,4.98143,0,0,1,3.748-.677v-.391s-1.723-.231-1.723-2.797" style="fill: #009845"/>
        </g>
        <path d="M31.04712,29.96069v-8.179c.097-1.533,1.341-1.32,1.341-1.32a1.7747,1.7747,0,0,0-.105-.398c-.053-.08-.45-.145-.45-.145a5.40621,5.40621,0,0,1-3.047-1.657,5.58715,5.58715,0,0,0-2.602-1.286,4.8221,4.8221,0,0,0-.991-.114v-.003c-.023,0-.04505.001-.067.002-.024-.001-.045-.002-.069-.002v.003a4.83466,4.83466,0,0,0-.991.114,5.58457,5.58457,0,0,0-2.601,1.286,5.41053,5.41053,0,0,1-3.046,1.657s-.398.065-.451.145a1.78953,1.78953,0,0,0-.106.398s1.244-.213,1.341,1.32v8.179a1.66512,1.66512,0,0,1-1.589,1.784v.405a6.42,6.42,0,0,1,3.65,1.043,8.81108,8.81108,0,0,0,3.02,1.555l-.102-.409c-1.418-.53-1.734-2.194-1.802-3.181v-4.246a.27025.27025,0,0,0,.034.014c.02906.013.057.026.086.038l.085.039c.028.013.056.026.085.039l.085.038c.028.012.057.024.085.037.029.013.058.024.087.036.03.013.059.024.088.035.03.012.06.024.09.034.03.011.061.022.092.033.031.009.062.019.095.029.03094.009.064.018.09594.026.034.009.067.017.101.025l.104.021c.036.006.072.012.109.017.036.006.074.009.112.013s.077.008.115.011l.114.009c.038.003.075.005.111.008l.109.009c.036.003.072.006.107.01.03405.004.068.009.101.014.034.005.066.011.098.017.031.006.062.014.092.022.029.009.058.018.086.028.027.011.053.023.079.036a.57569.57569,0,0,1,.072.044.84187.84187,0,0,1,.065.054.68126.68126,0,0,1,.055.064.38441.38441,0,0,1,.039.065v.002l.004.006a.34674.34674,0,0,1,.018.057.11921.11921,0,0,1,.007.025.05458.05458,0,0,0,.021.044.02786.02786,0,0,0,.018.003h.001a.025.025,0,0,0,.017-.003c.01-.005.02-.017.022-.044a.24039.24039,0,0,1,.007-.025.27354.27354,0,0,1,.018-.057l.00306-.006v-.002a.58175.58175,0,0,1,.04-.065.48275.48275,0,0,1,.056-.064.665.665,0,0,1,.06305-.054.77413.77413,0,0,1,.072-.044.8613.8613,0,0,1,.081-.036c.027-.01.055-.019.085-.028.03-.008.061-.016.092-.022.032-.006.065-.012.098-.017s.066-.01.101-.014.071-.007.106-.01l.109-.009c.037-.003.075-.005.112-.008l.114-.009c.038-.003.076-.007.114-.011.039-.004.076-.007.113-.013.037-.005.073-.011.109-.017l.103-.021c.035-.008.068-.016.101-.025.033-.008.065-.017.098-.026.031-.01.063-.02.093-.029q.048-.0165.093-.033c.02905-.01.06-.022.08905-.034.03-.011.06-.022.089-.035.028-.012.057-.023.086-.036s.057-.025.086-.037l.085-.038c.028-.013.056-.026.085-.039.028-.013.056-.026.086-.039l.085-.038.035-.014v4.246c-.069.987-.386,2.651-1.803,3.181l-.103.409a8.794,8.794,0,0,0,3.02-1.555,6.42275,6.42275,0,0,1,3.651-1.043v-.405a1.66526,1.66526,0,0,1-1.59-1.784m-5.85394-5.601h-2.642c-.133-.024-.115-.175-.115-.175l-.001.001v-3.556a2.103,2.103,0,0,1,1.246-2.134,5.13972,5.13972,0,0,1,1.098-.259c.105-.008.223-.012.347-.011.124-.001.241.003.345.011a5.08545,5.08545,0,0,1,1.098.259,2.10126,2.10126,0,0,1,1.246,2.134v3.599a.135.135,0,0,1-.11395.131Z" style="fill: #002d74"/>
        <polygon points="25.126 14.324 22.986 15.449 23.395 13.066 21.664 11.381 24.056 11.033 25.126 8.865 26.195 11.033 28.588 11.381 26.856 13.066 27.266 15.449 25.126 14.324" style="fill: #be1e2d"/>
        <path d="M15.629,6.121l-.601-1.288L16.413,4.188l.601,1.288ZM50.251,25.126A25.12549,25.12549,0,1,1,25.126,0,25.154,25.154,0,0,1,50.251,25.126M36.332,9.163l.871.757.575-.661.688.598-.139,1.041.843.732.025-.03-.034-.457.095-.635.041.018a.75726.75726,0,0,0,.858-.201l1.191-1.371a.76214.76214,0,0,0-.076-1.076L39.094,5.986l-.027.031-.06806.38L36.725,9.011l-.366.121ZM32.065,6.987l1.757.782A.76357.76357,0,0,0,34.83,7.382l1.092-2.451a.76441.76441,0,0,0-.388-1.008l-1.757-.782a.76317.76317,0,0,0-1.008.387L31.678,5.979a.76487.76487,0,0,0,.387,1.008M25.944,5.663l1.338.188.006-.041-.149-.356.175-1.246,1.538.217.409-.9-1.815-.256.094-.668,2.188.308.411-.908L26.53,1.493l-.006.042.15.355-.482,3.432-.242.3Zm-.818,1.59A17.87249,17.87249,0,1,0,42.998,25.126,17.873,17.873,0,0,0,25.126,7.253m-5.09-4.28,1.38-.194.4,2.853-.149.356.006.041,1.338-.189-.006-.041-.241-.3-.402-2.853,1.388-.195-.409-.909-3.161.445ZM13.578,4.455l.018.038.319.216L15.379,7.85l-.038.384.016.037,1.046-.488L16.033,6.989l.82605-.385.895.55,1.011-.472-.016-.036-.433-.154-.541-.345.032-.03a.75562.75562,0,0,0,.166-.867l-.766-1.645A.76521.76521,0,0,0,16.192,3.236ZM8.584,9.108l2.147,2.384.076.378.027.031.857-.773-.603-.67L12.223,9.436l.604.67.863-.778-.027-.03-.368-.114L11.147,6.799a.62887.62887,0,0,0-.887-.047L8.625,8.224a.62659.62659,0,0,0-.041.884m-4.221,5.41,2.94,1.836.175.343.036.022.611-.978L6.749,14.88l.974-1.557,1.375.859.612-.979-.034-.021-.386-.009L6.35,11.337l-.175-.343-.035-.022-.612.979,1.383.864-.974,1.558-1.382-.864-.612.979.035.021ZM10.384,37.65,9.029,35.916a.62591.62591,0,0,0-.878-.102L5.623,37.789l-.383.049-.032.026.711.909.711-.556.94,1.204-.711.556.716.916.032-.025.14-.36L10.275,38.533a.629.629,0,0,0,.109-.883M14.916,41.643l-2.583-1.876-.788.61,1.127.819-1.694,2.331-.354.152-.025.033,1.094.794.024-.033.035-.384,1.693-2.331,1.134.823Zm5.551,2.411-1.085-.394-.558,1.532-1.726-.628.557-1.533-1.084-.395-.014.038.072.379L15.444,46.31l-.299.244-.014.038,1.085.395.554-1.525,1.727.629-.555,1.525,1.084.394.014-.038-.072-.379,1.185-3.257.29895-.244Zm4.984,3.799-2.354-.164.227-3.246-1.151-.08-.003.041.174.343-.268,3.829,3.03.211Zm5.999-.865-2.259.439-.129-.662,1.65-.32-.181-.931-1.649.32-.129-.662,2.135-.415.091-.992-3.541.688.008.04.257.289.732,3.766,2.923-.567ZM36.697,45.721l-.019-.036-.33-.2-1.352-2.544,1.236-.657-.695-.714-2.818,1.498.202.976,1.23-.654,1.353,2.544-.019.386.02.036ZM41.033,42.625l-.026-.031-.365-.127-2.227-2.654-.062-.381-.026-.032-1.035.869.026.031.364.127,2.228,2.654.062.381.026.031Zm3.757-5.407-.849-.616-.567.781.577.419-.898,1.236-1.86-1.35.899-1.236.577.418.566-.781-.841-.611a.62966.62966,0,0,0-.878.14l-1.293,1.78a.62351.62351,0,0,0,.144.871l2.396,1.74a.62773.62773,0,0,0,.866-.137l1.293-1.78a.62664.62664,0,0,0-.132-.874m.71-24.037-1.526-2.349-.034.023-.17.346-2.906,1.887-.386.015-.034.022,1.525,2.349a.84824.84824,0,0,0,1.172.249l2.111-1.371a.84685.84685,0,0,0,.248-1.171m-3.625.391.832,1.282,1.927-1.252-.832-1.281ZM11.595,8.738l-.946-1.05L9.514,8.71l.945,1.05Zm28.896-.271L39.338,7.464l-.932,1.072L39.559,9.539Zm-5.53-3.753-1.396-.621-.934,2.099,1.395.621ZM7.369,37.639l.941,1.204,1.114-.869L8.482,36.77Z" style="fill: #002d74"/>
      </g>
    </g>
  </g>
</svg>
