<?xml version="1.0" encoding="UTF-8"?>
<svg width="160.91pt" height="225pt" version="1.2" viewBox="0 0 160.91 225" xmlns="http://www.w3.org/2000/svg" xmlns:cc="http://creativecommons.org/ns#" xmlns:dc="http://purl.org/dc/elements/1.1/" xmlns:rdf="http://www.w3.org/1999/02/22-rdf-syntax-ns#" xmlns:xlink="http://www.w3.org/1999/xlink">
<metadata>
<rdf:RDF>
<cc:Work rdf:about="">
<dc:format>image/svg+xml</dc:format>
<dc:type rdf:resource="http://purl.org/dc/dcmitype/StillImage"/>
<dc:title/>
</cc:Work>
</rdf:RDF>
</metadata>
<defs>
<symbol id="f" overflow="visible"></symbol>
<symbol id="e" overflow="visible"></symbol>
<symbol id="g" overflow="visible"></symbol>
<symbol id="c" overflow="visible"></symbol>
<symbol id="a" overflow="visible"></symbol>
<symbol id="d" overflow="visible"></symbol>
<symbol id="b" overflow="visible"></symbol>
<symbol id="h" overflow="visible"></symbol>
<clipPath id="i">
<rect width="240" height="140"/>
</clipPath>
<g clip-path="url(#i)"></g>
<clipPath>
<rect width="34" height="78"/>
</clipPath>
<clipPath>
<rect width="31" height="33"/>
</clipPath>
</defs>
<g transform="translate(307.01 89.922)">
<g>
<use x="1349.3295" y="1079.4521" width="100%" height="100%" xlink:href="#f"/>
</g>
<g>
<use x="1460.0863" y="1079.4521" width="100%" height="100%" xlink:href="#f"/>
</g>
<g>
<use x="82.834999" y="1079.4521" width="100%" height="100%" xlink:href="#e"/>
</g>
<g>
<use x="193.5929" y="1079.4521" width="100%" height="100%" xlink:href="#e"/>
</g>
<g>
<use x="908.8089" y="1079.969" width="100%" height="100%" xlink:href="#g"/>
</g>
<g fill="#cf1c2b">
<use x="458.51111" y="749.5647" width="100%" height="100%" xlink:href="#c"/>
</g>
<g fill="#cf1c2b">
<use x="498.08411" y="749.5647" width="100%" height="100%" xlink:href="#c"/>
</g>
<g fill="#cf1c2b">
<use x="607.59613" y="749.5647" width="100%" height="100%" xlink:href="#c"/>
</g>
<g fill="#cf1c2b">
<use x="716.07312" y="749.5647" width="100%" height="100%" xlink:href="#c"/>
</g>
<g fill="#cf1c2b">
<use x="397.29309" y="815.31873" width="100%" height="100%" xlink:href="#c"/>
</g>
<g fill="#cf1c2b">
<use x="408.34509" y="815.31873" width="100%" height="100%" xlink:href="#c"/>
</g>
<g fill="#cf1c2b">
<use x="634.81207" y="815.31873" width="100%" height="100%" xlink:href="#c"/>
</g>
<g fill="#cf1c2b">
<use x="688.42419" y="815.31873" width="100%" height="100%" xlink:href="#c"/>
</g>
<g fill="#cf1c2b">
<use x="468.64511" y="881.07269" width="100%" height="100%" xlink:href="#c"/>
</g>
<g>
<use x="140.61549" y="267.2804" width="100%" height="100%" xlink:href="#a"/>
</g>
<g>
<use x="229.959" y="267.2804" width="100%" height="100%" xlink:href="#a"/>
</g>
<g>
<use x="47.201" y="281.08041" width="100%" height="100%" xlink:href="#a"/>
</g>
<g>
<use x="68.957848" y="281.08041" width="100%" height="100%" xlink:href="#a"/>
</g>
<g>
<use x="188.39571" y="281.08041" width="100%" height="100%" xlink:href="#a"/>
</g>
<g>
<use x="286.76669" y="281.08041" width="100%" height="100%" xlink:href="#a"/>
</g>
<g>
<use x="316.83115" y="294.8804" width="100%" height="100%" xlink:href="#a"/>
</g>
<g>
<use x="200.78349" y="308.68039" width="100%" height="100%" xlink:href="#a"/>
</g>
<g>
<use x="318.31351" y="308.68039" width="100%" height="100%" xlink:href="#a"/>
</g>
<g>
<use x="144.261" y="322.48041" width="100%" height="100%" xlink:href="#a"/>
</g>
<g>
<use x="319.31171" y="322.48041" width="100%" height="100%" xlink:href="#a"/>
</g>
<g>
<use x="110.3475" y="336.2804" width="100%" height="100%" xlink:href="#a"/>
</g>
<g>
<use x="124.228" y="336.2804" width="100%" height="100%" xlink:href="#a"/>
</g>
<g>
<use x="257.00699" y="336.2804" width="100%" height="100%" xlink:href="#a"/>
</g>
<g>
<use x="282.51401" y="336.2804" width="100%" height="100%" xlink:href="#a"/>
</g>
<g>
<use x="93.362" y="350.08041" width="100%" height="100%" xlink:href="#a"/>
</g>
<g>
<use x="74.983849" y="363.8804" width="100%" height="100%" xlink:href="#a"/>
</g>
<g>
<use x="87.968498" y="391.48041" width="100%" height="100%" xlink:href="#a"/>
</g>
<g>
<use x="314.98886" y="391.48041" width="100%" height="100%" xlink:href="#a"/>
</g>
<g>
<use x="179.47285" y="405.2804" width="100%" height="100%" xlink:href="#a"/>
</g>
<g>
<use x="154.74785" y="432.8804" width="100%" height="100%" xlink:href="#a"/>
</g>
<g>
<use x="175.39035" y="432.8804" width="100%" height="100%" xlink:href="#a"/>
</g>
<g>
<use x="242.6412" y="432.8804" width="100%" height="100%" xlink:href="#a"/>
</g>
<g>
<use x="314.11484" y="446.68039" width="100%" height="100%" xlink:href="#a"/>
</g>
<g>
<use x="88.313499" y="460.48041" width="100%" height="100%" xlink:href="#a"/>
</g>
<g>
<use x="147.69949" y="460.48041" width="100%" height="100%" xlink:href="#a"/>
</g>
<g>
<use x="213.3185" y="460.48041" width="100%" height="100%" xlink:href="#a"/>
</g>
<g>
<use x="321.42999" y="460.48041" width="100%" height="100%" xlink:href="#a"/>
</g>
<g>
<use x="186.1647" y="474.2804" width="100%" height="100%" xlink:href="#a"/>
</g>
<g>
<use x="210.8667" y="474.2804" width="100%" height="100%" xlink:href="#a"/>
</g>
<g>
<use x="252.67149" y="488.08041" width="100%" height="100%" xlink:href="#a"/>
</g>
<g>
<use x="123.2965" y="501.8804" width="100%" height="100%" xlink:href="#a"/>
</g>
<g>
<use x="230.88934" y="501.8804" width="100%" height="100%" xlink:href="#a"/>
</g>
<g>
<use x="244.76871" y="501.8804" width="100%" height="100%" xlink:href="#a"/>
</g>
<g>
<use x="77.273499" y="515.68042" width="100%" height="100%" xlink:href="#a"/>
</g>
<g>
<use x="269.66849" y="515.68042" width="100%" height="100%" xlink:href="#a"/>
</g>
<g>
<use x="310.95236" y="529.48041" width="100%" height="100%" xlink:href="#a"/>
</g>
<g>
<use x="97.387001" y="543.2804" width="100%" height="100%" xlink:href="#a"/>
</g>
<g>
<use x="242.57449" y="557.08038" width="100%" height="100%" xlink:href="#a"/>
</g>
<g>
<use x="91.21035" y="570.88037" width="100%" height="100%" xlink:href="#a"/>
</g>
<g>
<use x="158.7487" y="570.88037" width="100%" height="100%" xlink:href="#a"/>
</g>
<g>
<use x="239.2027" y="570.88037" width="100%" height="100%" xlink:href="#a"/>
</g>
<g>
<use x="181.6245" y="598.48041" width="100%" height="100%" xlink:href="#a"/>
</g>
<g>
<use x="251.78485" y="598.48041" width="100%" height="100%" xlink:href="#a"/>
</g>
<g>
<use x="156.04849" y="626.08038" width="100%" height="100%" xlink:href="#a"/>
</g>
<g>
<use x="258.51349" y="626.08038" width="100%" height="100%" xlink:href="#a"/>
</g>
<g>
<use x="145.50301" y="639.88037" width="100%" height="100%" xlink:href="#a"/>
</g>
<g>
<use x="197.80499" y="639.88037" width="100%" height="100%" xlink:href="#a"/>
</g>
<g>
<use x="69.774353" y="653.68042" width="100%" height="100%" xlink:href="#a"/>
</g>
<g>
<use x="224.94385" y="653.68042" width="100%" height="100%" xlink:href="#a"/>
</g>
<g>
<use x="92.774353" y="667.48041" width="100%" height="100%" xlink:href="#a"/>
</g>
<g>
<use x="120.88035" y="667.48041" width="100%" height="100%" xlink:href="#a"/>
</g>
<g>
<use x="205.3927" y="667.48041" width="100%" height="100%" xlink:href="#a"/>
</g>
<g>
<use x="243.67619" y="667.48041" width="100%" height="100%" xlink:href="#a"/>
</g>
<g>
<use x="302.22385" y="667.48041" width="100%" height="100%" xlink:href="#a"/>
</g>
<g>
<use x="134.62285" y="681.2804" width="100%" height="100%" xlink:href="#a"/>
</g>
<g>
<use x="166.95856" y="681.2804" width="100%" height="100%" xlink:href="#a"/>
</g>
<g>
<use x="206.68069" y="681.2804" width="100%" height="100%" xlink:href="#a"/>
</g>
<g>
<use x="116.9945" y="695.08038" width="100%" height="100%" xlink:href="#a"/>
</g>
<g>
<use x="131.105" y="695.08038" width="100%" height="100%" xlink:href="#a"/>
</g>
<g>
<use x="156.4395" y="695.08038" width="100%" height="100%" xlink:href="#a"/>
</g>
<g>
<use x="224.23085" y="695.08038" width="100%" height="100%" xlink:href="#a"/>
</g>
<g fill="#059747">
<use x="134.842" y="245.0517" width="100%" height="100%" xlink:href="#d"/>
</g>
<g fill="#059747">
<use x="136.606" y="759.0957" width="100%" height="100%" xlink:href="#d"/>
</g>
<g>
<use x="864.63422" y="494.66751" width="100%" height="100%" xlink:href="#b"/>
</g>
<g>
<use x="962.58032" y="494.66751" width="100%" height="100%" xlink:href="#b"/>
</g>
<g>
<use x="973.39832" y="494.66751" width="100%" height="100%" xlink:href="#b"/>
</g>
<g>
<use x="1007.1834" y="494.66751" width="100%" height="100%" xlink:href="#b"/>
</g>
<g>
<use x="888.49811" y="505.4675" width="100%" height="100%" xlink:href="#b"/>
</g>
<g>
<use x="938.02509" y="505.4675" width="100%" height="100%" xlink:href="#b"/>
</g>
<g>
<use x="1092.0312" y="505.4675" width="100%" height="100%" xlink:href="#b"/>
</g>
<g>
<use x="1110.0583" y="505.4675" width="100%" height="100%" xlink:href="#b"/>
</g>
<g>
<use x="872.74902" y="516.26752" width="100%" height="100%" xlink:href="#b"/>
</g>
<g>
<use x="858.90698" y="527.0675" width="100%" height="100%" xlink:href="#b"/>
</g>
<g>
<use x="892.69208" y="527.0675" width="100%" height="100%" xlink:href="#b"/>
</g>
<g>
<use x="912.02411" y="527.0675" width="100%" height="100%" xlink:href="#b"/>
</g>
<g>
<use x="1096.0543" y="527.0675" width="100%" height="100%" xlink:href="#b"/>
</g>
<g>
<use x="1144.8424" y="527.0675" width="100%" height="100%" xlink:href="#b"/>
</g>
<g>
<use x="927.57611" y="537.86749" width="100%" height="100%" xlink:href="#b"/>
</g>
<g>
<use x="993.01422" y="537.86749" width="100%" height="100%" xlink:href="#b"/>
</g>
<g>
<use x="1123.9272" y="537.86749" width="100%" height="100%" xlink:href="#b"/>
</g>
<g>
<use x="910.9342" y="548.66748" width="100%" height="100%" xlink:href="#b"/>
</g>
<g>
<use x="994.15723" y="548.66748" width="100%" height="100%" xlink:href="#b"/>
</g>
<g>
<use x="1002.4012" y="559.46753" width="100%" height="100%" xlink:href="#b"/>
</g>
<g>
<use x="1068.6133" y="559.46753" width="100%" height="100%" xlink:href="#b"/>
</g>
<g>
<use x="1135.5732" y="559.46753" width="100%" height="100%" xlink:href="#b"/>
</g>
<g>
<use x="878.185" y="570.26752" width="100%" height="100%" xlink:href="#b"/>
</g>
<g>
<use x="917.12708" y="570.26752" width="100%" height="100%" xlink:href="#b"/>
</g>
<g>
<use x="939.45612" y="581.0675" width="100%" height="100%" xlink:href="#b"/>
</g>
<g>
<use x="953.33411" y="581.0675" width="100%" height="100%" xlink:href="#b"/>
</g>
<g>
<use x="1077.2181" y="581.0675" width="100%" height="100%" xlink:href="#b"/>
</g>
<g>
<use x="1106.3602" y="581.0675" width="100%" height="100%" xlink:href="#b"/>
</g>
<g>
<use x="1147.33" y="581.0675" width="100%" height="100%" xlink:href="#b"/>
</g>
<g>
<use x="940.38312" y="591.86749" width="100%" height="100%" xlink:href="#b"/>
</g>
<g>
<use x="1128.9043" y="591.86749" width="100%" height="100%" xlink:href="#b"/>
</g>
<g>
<use x="1148.2363" y="591.86749" width="100%" height="100%" xlink:href="#b"/>
</g>
<g>
<use x="880.25818" y="933.34302" width="100%" height="100%" xlink:href="#b"/>
</g>
<g>
<use x="1053.5073" y="933.34302" width="100%" height="100%" xlink:href="#b"/>
</g>
<g>
<use x="987.89642" y="944.14301" width="100%" height="100%" xlink:href="#b"/>
</g>
<g>
<use x="1053.8206" y="944.14301" width="100%" height="100%" xlink:href="#b"/>
</g>
<g>
<use x="1148.1576" y="944.14301" width="100%" height="100%" xlink:href="#b"/>
</g>
<g>
<use x="1099.7295" y="954.94299" width="100%" height="100%" xlink:href="#b"/>
</g>
<g>
<use x="855.73322" y="965.74298" width="100%" height="100%" xlink:href="#b"/>
</g>
<g>
<use x="910.1463" y="965.74298" width="100%" height="100%" xlink:href="#b"/>
</g>
<g>
<use x="947.74829" y="965.74298" width="100%" height="100%" xlink:href="#b"/>
</g>
<g>
<use x="1031.6274" y="976.54303" width="100%" height="100%" xlink:href="#b"/>
</g>
<g>
<use x="1091.4945" y="976.54303" width="100%" height="100%" xlink:href="#b"/>
</g>
<g>
<use x="1062.3075" y="987.34302" width="100%" height="100%" xlink:href="#b"/>
</g>
<g>
<use x="1069.2736" y="987.34302" width="100%" height="100%" xlink:href="#b"/>
</g>
<g>
<use x="1086.3015" y="987.34302" width="100%" height="100%" xlink:href="#b"/>
</g>
<g>
<use x="1117.2075" y="987.34302" width="100%" height="100%" xlink:href="#b"/>
</g>
<g>
<use x="1128.0255" y="987.34302" width="100%" height="100%" xlink:href="#b"/>
</g>
<g>
<use x="922.73639" y="998.14301" width="100%" height="100%" xlink:href="#b"/>
</g>
<g>
<use x="1004.6454" y="1008.943" width="100%" height="100%" xlink:href="#b"/>
</g>
<g>
<use x="1128.7986" y="1008.943" width="100%" height="100%" xlink:href="#b"/>
</g>
<g>
<use x="1139.6616" y="1008.943" width="100%" height="100%" xlink:href="#b"/>
</g>
<g>
<use x="869.5473" y="1019.743" width="100%" height="100%" xlink:href="#b"/>
</g>
<g>
<use x="883.42529" y="1019.743" width="100%" height="100%" xlink:href="#b"/>
</g>
<g>
<use x="946.01129" y="1019.743" width="100%" height="100%" xlink:href="#b"/>
</g>
<g fill="#0c4a8f">
<use x="903.64337" y="134.0517" width="100%" height="100%" xlink:href="#d"/>
</g>
<g fill="#0c4a8f">
<use x="1293.6674" y="134.0517" width="100%" height="100%" xlink:href="#d"/>
</g>
<path d="m-148.09-75.421-0.40103-2.9816-2.8886-0.84276c-24.394-7.085-49.642-10.677-75.046-10.677h-0.31967c-25.393 0-50.63 3.5919-75 10.677l-2.8886 0.84276-0.40104 2.9816c-1.4937 11.183-5.5332 51.234 5.3298 97.034 9.5377 40.226 27.491 72.03 53.466 94.854 0.59284 10.357 9.1774 18.61 19.686 18.61s19.099-8.2649 19.68-18.634c25.963-22.824 43.911-54.617 53.454-94.831 10.869-45.811 6.8235-85.857 5.3297-97.034" fill="#fff"/>
<path d="m-237.31 1.8985v-0.29642c-0.0756-0.20343-0.22667-0.55797-0.30804-0.7672-0.74395-1.7843-1.9819-4.7718-1.9587-8.5845 6e-3 -1.6274 0.3836-3.0688 0.92413-4.3126-0.8602 0.0465-1.7204 0.06394-2.5806 0.11625v14.013c1.3077-0.075556 2.6155-0.11625 3.9232-0.16855m-18.57 4.1789c0.0582 0.098812 0.12781 0.1918 0.17437 0.29642l0.1046 0.24411c0.093 0.21505 0.13376 0.44754 0.122 0.68002l3.5454-1.145c0.30805-0.38941 0.69164-0.70327 1.1334-0.91251 0.42428-0.20924 0.91251-0.31967 1.4007-0.31967 1.2496 0 2.3656 0.69746 2.9177 1.8192 0.15693 0.33129 0.25574 0.68002 0.30224 1.0288 1.3252-1.3019 3.3187-2.0982 4.9461-2.5573v-3.1444c-4.888 0.27898-9.776 0.69165-14.647 1.2496zm14.647-46.055v13.996c0.52891-0.02906 1.052-0.04068 1.5809-0.06974 3.8128-3.6849 7.7476-4.4056 10.253-4.4056 1.4472 0 2.3714 0.24992 2.476 0.27898l0.14537 0.04068c0.0756 0.02326 0.15111 0.05812 0.22667 0.08718v-10.334c-0.0582 0-0.11621-0.0058-0.17437-0.0058-4.8415 0-9.6772 0.13949-14.507 0.41266m-25.765 30.822c0.28479 0.21505 0.6219 0.43591 1.0404 0.65096l0.24411 0.12787c0.33129 0.16274 0.5812 0.44172 0.72069 0.77883l0.1046 0.26155c0.14522 0.34873 0.52309 1.3775 0.58703 2.5864l0.36036 0.19761c0.48239 0.25573 0.78463 0.75558 0.79625 1.2961l0.0232 0.84276 1.6448 2.9584c0.12782-0.046497 0.26735-0.069738 0.40684-0.075556l0.41848-0.023256c1.4647 0 2.7375 0.77302 3.3827 2.0808l0.11621 0.2383c0.1104 0.21505 0.13942 0.45916 0.13942 0.69746 0.37778-0.040679 0.75557-0.098812 1.1334-0.14531v-14.013c-3.714 0.42429-7.4221 0.959-11.119 1.5402m11.119-1.5402c4.8706-0.55797 9.7586-0.97644 14.647-1.2496v-2.8015l-2.9758 0.79045c-0.12781 0.03488-0.25572 0.05232-0.38359 0.05232-0.43592 0-0.8602-0.1918-1.1508-0.52891-0.37778-0.44172-0.47078-1.0636-0.23829-1.5925l0.63934-1.4414c1.2554-2.8654 2.6561-5.1089 4.1092-6.87v-1.6448c-4.888 0.27898-9.776 0.69746-14.647 1.2554zm-14.519 11.834-0.0464-0.040679v4.3068c0.58703-0.098812 1.174-0.18018 1.7611-0.27898zm-0.0464-37.785v14.007c4.8357-0.83695 9.6947-1.5344 14.565-2.0866v-14.007c-4.8706 0.55215-9.7295 1.2496-14.565 2.0866m-13.566 19.965c0.29642 3.5687 0.64515 7.0908 1.0578 10.572 3.1211-0.69746 6.2481-1.331 9.3866-1.918-0.0348-0.26736-0.0232-0.54053 0.0814-0.79045l0.76722-1.8018c0.24992-0.56378 0.80207-0.91251 1.4007-0.91251 0.12782 0 0.25575 0.01161 0.38362 0.0465l0.48821 0.12787v-11.281c-4.6207 0.79045-9.2181 1.7262-13.798 2.7724 0.0756 1.0694 0.15113 2.1331 0.23249 3.1851m60.231-9.2006c0.49985-0.1918 0.85439-0.29061 0.96482-0.32548l0.47079-0.13367c-0.50566-0.0058-1.0113-0.0116-1.517-0.01744 0.0522 0.15693 0.0814 0.31386 0.0814 0.4766m-16.524 46.945c-0.16273 0.17436-0.27898 0.34292-0.32548 0.43591l-0.0698 0.14531c-0.1046 0.20924-0.26155 0.38941-0.44753 0.53472l-0.0872 0.06394v7.8638c-1.6971 0.09299-3.3885 0.23249-5.0856 0.36035 0.87182 1.7843 1.7843 3.6675 2.7317 5.632 0.74396-2.1679 1.5693-4.0336 2.3539-5.5797v-0.40685c0.0698-0.0058 0.13942-0.0058 0.21507-0.01161 1.1043-2.1272 2.104-3.5919 2.6155-4.2952l0.29642-2.0749c-0.31386-0.7672-1.2147-1.796-2.197-2.6678m41.388-46.991c-0.0582-0.23249-0.0988-0.44754-0.12781-0.63934l-0.56377-1.517c-0.1104-0.29061-0.12781-0.60446-0.0524-0.90088l0.0582-0.22667c0.19763-0.7672 0.72072-1.4124 1.5402-1.9006l0.0872-2.8189-0.27316-0.94157c-0.0348-0.11625-0.0582-0.23249-0.064-0.34873l-6e-3 -0.09299c-1.7378-0.95319-2.8072-2.3016-3.0572-3.8011-3.4931-0.34292-6.992-0.63934-10.491-0.84276v13.978c4.2312 0.24411 8.4625 0.61028 12.682 1.0578-0.029-0.36035 0.0582-0.7149 0.26736-1.0055m-20.819 29.369c0.56378 0.13367 1.1799 0.2848 1.6216 0.38941 0.41847-0.14531 1.4705-0.58122 4.0685-1.8366 0.0174-0.0058 0.0232-0.011606 0.0348-0.017438-2.0168-0.098812-4.0278-0.18599-6.0388-0.23249zm9.7818-3.621 2.9991-3.3013c0.28478-0.31386 0.69746-0.49403 1.1217-0.49403 6e-3 0 0.7614 0.011606 0.7614 0.011606l1.9587-1.4763c0.40104-1.3019 1.2147-3.1792 2.412-5.6029-3.7198-0.37198-7.4396-0.69165-11.165-0.90088v12.874c0.49403-0.27898 1.1624-0.6684 1.9122-1.1101m-63.567 20.029c-0.77303-1.5809-0.1104-3.5222 1.4937-4.3126 0.45917-0.21505 0.92414-0.31967 1.4007-0.31967h0.0174l0.16273-0.10462v-9.7063c-3.5338 0.61028-7.0501 1.3194-10.561 2.0749 0.77302 4.58 1.6623 9.0611 2.6562 13.449 1.6274-0.33129 3.2664-0.64515 4.8996-0.95319-0.0232-0.04068-0.0464-0.08137-0.0698-0.12787m55.884-34.367c0.0348 0.42429 0.0174 1.0578-0.0119 1.6158 0.14522 0.29642 0.24411 0.55216 0.30223 0.72071 1.825 0.06394 3.6558 0.12787 5.4809 0.2383v-14.036c-1.9006-0.11043-3.7954-0.18018-5.6959-0.24411 0 0.0058 6e-3 0.0058 6e-3 0.0116l0.19179 0.77883c1.0462 4.1557 0.0698 8.1719-0.47659 9.9155 0.1104 0.33129 0.17437 0.6684 0.20343 0.99969m-67.281-19.256v0.05232c4.8008-1.1159 9.6249-2.0924 14.472-2.9235v-0.02906c-4.8532 0.83114-9.6772 1.796-14.472 2.9003m29.038-4.9636v0.0058c0.14536-0.01744 0.29642-0.03488 0.44173-0.05232-0.14537 0.01744-0.29642 0.02906-0.44173 0.0465m-29.038 5.1728v-0.15693h-6e-3c0 0.05232 6e-3 0.10462 6e-3 0.15693m112.8 41.04c0.75557-4.4405 1.3949-8.974 1.9413-13.589-4.1441-0.92994-8.2998-1.7727-12.473-2.4934v14.013c3.5222 0.61028 7.0327 1.3135 10.532 2.0691m-32.664 46.672 0.0232 0.08137c0.0232 0.09881 0.0348 0.19761 0.0406 0.30223v0.08137c6e-3 0.09881 0.0524 1.5053-0.19761 4.0104 2.569 0.22086 5.1321 0.47079 7.6953 0.7672v-14.007c-3.2606-0.37198-6.5212-0.65677-9.7877-0.9067 0.86601 4.0569 1.8134 8.015 2.226 9.6714m22.255-6.6549c-0.0464-0.01161-0.0872-0.01744-0.122-0.02326v0.35454c0.0406-0.11043 0.0756-0.22086 0.122-0.33129m-14.693 25.928c0.87763 0.10462 1.7611 0.23249 2.6445 0.34292 2.383-4.2138 4.609-8.5845 6.6723-13.112-3.1037-0.47078-6.2074-0.90088-9.3169-1.2612zm0-42.063v-14.007c-3.22-0.37198-6.4399-0.65677-9.6656-0.90088l-0.45915 6.9106c0 0.07556-0.0119 0.15112-0.029 0.22667-0.0232 0.08137-0.73233 3.4408-1.1392 6.7653 3.7663 0.26155 7.5326 0.58122 11.293 1.0113v14.019c4.8706 0.55797 9.7295 1.2496 14.571 2.0866v-14.019c1.4821 0.25574 2.9584 0.55215 4.4405 0.83114 1.2612-4.3417 2.4062-8.7938 3.4408-13.351-2.6213-0.54053-5.2484-1.0404-7.8813-1.4937v14.013c-4.8415-0.83695-9.7005-1.5286-14.571-2.0924m-14.647 52.745v2.0866c2.9991 0.17437 5.9923 0.41266 8.9798 0.69164 1.9703-2.7956 3.8593-5.6668 5.6669-8.631v-4.8299c-3.4989-0.39523-7.0036-0.70327-10.514-0.959-1.4414 5.0914-2.9468 8.9681-4.1324 11.642m24.161-107.54 0.093 3.1851v0.09881c-0.14537 4.0453-0.7614 7.6372-1.453 10.532 2.1389 0.31386 4.2777 0.64515 6.4166 1.0113v-14.031c-1.6855-0.29061-3.3652-0.54053-5.0566-0.79626m-68.839 54.884c-2.2958-4.7718-4.1847-8.7473-5.3704-11.252l-1.732-0.73233-4.8008 1.3949c-0.22667 0.20924-0.47659 0.37779-0.76139 0.51147-0.37198 0.18018-0.80208 0.27898-1.238 0.30223v11.775c-1.4937 0.25574-2.9816 0.55215-4.4637 0.83114 1.3135 4.5277 2.755 8.9333 4.3184 13.211 0.0464-0.0058 0.093-0.01744 0.14522-0.02326v-14.019c4.6148-0.79627 9.253-1.4588 13.903-1.9994m60.284-26.939-0.18599 1.3542c-0.0582 0.41266-0.27898 0.77883-0.6219 1.0229l-0.15111 0.11043v10.351c4.8706 0.55216 9.7295 1.2496 14.571 2.0866v-14.031c-4.2952-0.73814-8.602-1.3542-12.915-1.8715zm28.061-38.203c-4.7892-1.1101-9.6075-2.0808-14.449-2.9177v13.972c4.6032 0.79045 9.2006 1.7204 13.769 2.7666 0.31966-4.4695 0.55215-9.0902 0.68002-13.821m-87.682 79.074c-4.8706 0.55797-9.7295 1.2496-14.565 2.0866v0.41847c1.1741 3.2025 2.4179 6.3411 3.7314 9.4041 0.48823 1.1334 0.99388 2.2435 1.4996 3.3594 3.1037-0.4766 6.2132-0.9067 9.3343-1.2612zm0 32.908v-4.8706c-0.88925 0.10462-1.7785 0.23249-2.6678 0.34292 0.86601 1.5344 1.7611 3.0339 2.6678 4.5277m13.542-7.9568c-1.546-3.9523-2.6097-7.9278-3.2025-11.886-3.4466 0.24992-6.899 0.55215-10.34 0.94157v14.031c4.4521-0.50566 8.9158-0.88345 13.385-1.1624 0.0464-0.77302 0.1104-1.4414 0.15693-1.9238m28.578 17.617c0.1104 1.3426 0.13942 2.3714 0.1046 3.1734l0.80789 0.55797 0.98226 0.70328v-6.1957c-0.31968-0.01741-0.63934-0.02321-0.95902-0.04062-0.3836 0.79045-0.70908 1.3949-0.93574 1.8018m-42.121-55.128v12.56c1.9413-0.22086 3.8883-0.40685 5.8354-0.58122-2.0808-4.2196-4.0627-8.2998-5.8354-11.979m42.44 67.316c0.52891-0.58703 1.052-1.1741 1.5751-1.7785v-0.0119c-0.5231 0.59866-1.0462 1.1973-1.5809 1.7901zm-27.794-1.7437v-6e-3c-0.0348-0.04642-0.0756-0.08719-0.1104-0.12781 0.0348 0.04062 0.0698 0.08719 0.1104 0.13361m-5.0798-11.851c-1.3077 0.1046-2.6155 0.21505-3.9232 0.3371 1.9529 2.7666 3.993 5.446 6.1028 8.0498l2.9002-2.4004v-0.12781c-0.27317-0.18017-0.58703-0.3836-0.95901-0.6219-2.319-1.4356-3.5105-3.4931-4.1208-5.2367" fill="#87192e"/>
<path d="m-213.82 93.091-1.6507-1.1392c0.13942-0.65678 0.18017-1.9122-0.0348-4.394 0.67422-1.1392 4.487-7.9394 7.4686-20.744 1.7669-7.5849 1.6158-11.961 1.61-12.142 0-0.03488-6e-3 -0.07556-0.0174-0.11625-0.0408-0.16855-4.1848-16.913-4.0569-20.993 0.12201-4.1034 1.4298-10.229 1.453-10.375l0.55797-8.3404 6.5445-6.5735 3.621-2.5922c0.12201-0.087177 0.20923-0.22667 0.22667-0.37779l0.19761-1.4472 4.8996-6.8583c0.0174-0.029059 0.0348-0.058118 0.0524-0.092995 0.13361-0.29642 3.278-7.3756 3.6268-17.105l-0.16275-5.8005c0-0.06394-0.0119-0.12205-0.0348-0.18018l-0.69165-1.8889-0.4301-4.6555c-0.0232-0.25573-0.22086-0.46497-0.48241-0.49984l-0.44753-0.05812-0.0119-0.48241 0.55796-1.3194 0.18599-0.84276c1.6623-0.37779 2.8305-1.2031 3.2258-2.2551 0.2441 0.25574 0.3836 0.41848 0.3836 0.42429 0.12781 0.15693 0.33129 0.23249 0.53471 0.1918 0.19762-0.03488 0.36617-0.18018 0.43011-0.37198 0.64514-1.918 3.2839-2.011 3.807-2.011h0.12201c0.21505 0.01744 0.38941-0.08718 0.49985-0.25574 0.1046-0.16855 0.1162-0.3836 0.0232-0.56378l-0.92413-1.7553c-0.14537-0.27317-0.47659-0.37779-0.74977-0.2383-0.49403 0.25573-1.2961 0.13949-1.6448 0.02326-0.94158-1.9936-2.6271-2.8654-2.7026-2.9003-0.11041-0.05812-0.23249-0.07556-0.34874-0.05231-0.30222 0.05231-0.58702 0.08137-0.84857 0.08137-1.2729 0-1.8831-0.6219-2.5864-1.3368-0.68002-0.69165-1.4472-1.4763-2.8247-1.4763-2.8247 0-5.539 2.7259-5.6494 2.8421-0.14537 0.14531-0.19761 0.36035-0.13941 0.55216 0.37197 1.2089 1.145 2.2144 1.8715 2.9409-0.80207 0.53472-1.2787 1.2264-1.3658 2.0052-0.15693 1.4182 1.0346 2.8305 3.063 3.6617l0.0582 1.0171c0 0.0465 6e-3 0.08718 0.0174 0.12787l0.33128 1.1217-0.13362 4.208c-0.0872-0.0058-0.16855 0.0058-0.24992 0.03488-0.34292 0.13949-1.1508 0.51728-1.3077 1.1101-0.029 0.11043-0.0174 0.22667 0.0232 0.3371l0.55797 1.4879c0.0232 0.22667 0.1046 0.83114 0.36036 1.3368l-0.31968 0.4301c-0.0988 0.12787-0.13362 0.29061-0.0988 0.44754 0.0232 0.13367 0.27317 1.2787 0.80789 2.0575l-0.0988 3.0107-0.70907 0.97644c-0.093 0.12787-0.12201 0.2848-0.093 0.43591 0.029 0.15112 0.12201 0.2848 0.25573 0.36616 0 0.0058 0.6219 0.41848 0.56959 1.4007-6e-3 0.07556 6e-3 0.14531 0.029 0.21505 0.0119 0.04068 0.1046 0.2848 0.36034 0.51147-2.1912 4.0394-4.7602 9.0495-5.3239 11.363l-2.8886 2.1737-0.98224-0.011606c-0.15693 0.017438-0.31386 0.063936-0.41847 0.18599l-2.9468 3.2374c-1.331 0.79045-2.8073 1.639-3.127 1.7785-0.14536 0.029059-0.3894 0.14531-1.3077 0.58703-1.2612 0.61028-4.2254 2.0459-4.859 2.0459-0.65676-0.14531-2.3307-0.55215-3.063-0.73233l-0.81952-4.4289c0.40104-0.48822 1.145-1.4298 1.3252-1.8773 0.1918-0.49403 0.98226-4.9229 1.2206-6.2713 0.0119-0.069738 0.0119-0.14531-6e-3 -0.22086l-0.22087-0.97063 0.77883-2.2551c0.0348-0.11043 0.0406-0.23249 6e-3 -0.34292-0.0174-0.05812-0.16275-0.52891-0.44755-0.98806 0.0232-0.41848 0.0814-1.3717 0.0406-1.8599-0.0348-0.44172-0.20343-0.84276-0.32548-1.0927 0.38941-1.0694 1.7262-5.2426 0.64514-9.5552-0.0348-0.15112-0.13361-0.27898-0.26736-0.35454-0.13362-0.06974-0.29641-0.08718-0.44172-0.04068-0.15693 0.0465-1.2147 0.39523-2.0691 1.0171-0.029-0.03488-0.0698-0.06394-0.1046-0.093-0.13362-0.08137-0.30223-0.11043-0.45335-0.06393-0.13362 0.03488-3.1502 0.89507-4.5567 2.8828-0.32548-0.15693-0.79625-0.48241-0.99968-1.1566 0.63934-0.38941 1.8657-1.3077 2.3423-2.8421 0.0406-0.13949 0.029-0.29061-0.0348-0.41848-0.0872-0.17436-0.88345-1.7436-1.5751-2.3249-0.0582-0.05812-0.13376-0.093-0.20924-0.11625-0.0348-0.0058-0.79626-0.21505-2.0052-0.21505-3.4059 0-9.7993 1.5577-14.385 11.973-0.0872 0.1918-0.0524 0.42429 0.0872 0.58703 0.13942 0.16274 0.36036 0.23249 0.56959 0.17436l4.4056-1.1682c0.12781-0.03488 0.24411-0.11625 0.31966-0.22667 1.3194-1.9471 3.2083-2.1621 3.9581-2.1621 1.0578 0 1.8657 0.37779 2.1679 0.79626-0.37779 0.52891-1.145 1.7146-1.4414 3.0339-0.82533 0.65096-4.1266 3.528-4.1557 7.9975-0.0174 3.4757 1.1392 6.2597 1.825 7.922 0.20341 0.49403 0.4359 1.052 0.44171 1.2089 0 0.27898 0.20343 0.51147 0.4766 0.55215 0.68002 0.10462 1.4182 0.31967 1.6216 0.42429-0.0524 1.4298-0.19763 3.0514-0.36036 3.6791-0.91832 0.087177-3.4698 0.32548-4.7543 0.33129-0.5696 0.092994-5.4634 0.93576-6.9223 3.3071l-2.1098 0.62771c-0.49403 0.23249-2.8828 1.4065-3.5222 2.6562l-1.2845 0.77883-1.7785-0.63934 4.7892-3.4292c0.24992 0.011606 0.49403-0.034877 0.70909-0.13949 0.76138-0.36617 1.0811-1.2787 0.71488-2.0459-0.36034-0.73814-1.3193-1.0578-2.0401-0.70908-0.3371 0.16274-0.59864 0.44754-0.73814 0.80208l-6.3004 2.0401-0.0582-0.063936c0.0872-0.2383 0.16855-0.47078 0.16855-0.47078 0.0464-0.12205 0.0524-0.25573 6e-3 -0.3836-0.11621-0.3371-0.27318-0.5754-0.42429-0.73814l0.15693-0.54053c0.029-0.12205 0.0232-0.24992-0.029-0.37198-0.093-0.22667-0.34292-0.45335-0.73233-0.68002l-0.13942-0.65677c-0.0174-0.081374-0.0582-0.16274-0.1162-0.23249-0.22087-0.27898-0.51147-0.45916-0.7614-0.56959l0.27317-1.2612c0.029-0.12205 0.0119-0.25573-0.0464-0.37198-0.41265-0.83114-1.1857-1.1276-1.8366-1.1276h-6e-3c-0.15693 0.011606-0.29642 0.081374-0.39523 0.19761l-0.35454 0.42429-0.83695-0.081374-2.5922-4.6439-0.0174-0.82532c-6e-3 -0.20343-0.1162-0.3836-0.29642-0.4766l-0.91832-0.49403c0.22086-1.36-0.3836-2.877-0.41266-2.9468-0.0524-0.12787-0.14537-0.22667-0.26736-0.29061-1.8773-0.95319-2.6852-2.1737-2.6968-2.1854-0.0698-0.11625-0.19181-0.20343-0.32548-0.2383l-0.98226-0.26155c-0.26735-0.069738-0.54633 0.069738-0.65677 0.32548l-0.40103 0.92413c-0.0524 0.12787-0.0582 0.27317-0.0119 0.40104 0 0.017438 0.45336 1.4124 0.0464 3.4757-0.029 0.13367-6e-3 0.26736 0.064 0.3836 0.0348 0.069738 0.85439 1.4879 2.0575 2.1505l-0.18599 1.0288c-0.0348 0.19761 0.0408 0.40104 0.19762 0.52891l0.63933 0.5289 2.2842 5.2949-0.48241 0.92413c-0.029 0.058118-0.0464 0.12205-0.0582 0.18599l-0.89507 6.7712c-6e-3 0.06974-6e-3 0.13949 0.0174 0.20924 0.15111 0.60446 0.4301 1.145 0.81951 1.5983l-2.877 1.9296c-0.36034-0.11043-0.74396-0.08718-1.0869 0.08137-0.37197 0.18018-0.64514 0.49403-0.77881 0.88345-0.12781 0.3836-0.1046 0.79627 0.0756 1.1566 0.34872 0.73233 1.3252 1.0578 2.0343 0.70908 0.22085-0.10462 0.40684-0.26155 0.55797-0.47078l5.847-1.703 2.8886 1.2264c2.6968 5.7017 9.4622 19.93 16.274 33.495 0.15111 5.8528 1.424 11.816 3.7837 17.721-0.12201 1.0811-0.79045 7.5849 0.39522 11.322-1.7088 0.51147-3.9929 1.1508-4.5393 1.1915-0.2906 0.02326-0.51727 0.26736-0.51727 0.55796 0 0.19179 0.0464 4.7369 3.9581 7.1664 1.9296 1.1973 2.598 1.8483 2.8247 2.1331l-4.487 3.714c-0.0348 0.02321-0.0522 0.05818-0.0756 0.08719 1.1741 1.4123 2.3714 2.7956 3.5919 4.1499 3.464-2.9933 7.9568-4.8183 12.886-4.8183 4.9171 0 9.4099 1.825 12.868 4.8066 1.3019-1.4589 2.5922-2.941 3.8476-4.4521zm-22.952-66.619c-0.6742 0.87182-4.4405 5.9981-6.4224 14.403-2.8189-5.8935-5.8935-12.211-9.1483-18.814l4.3707-0.3371 0.94738 0.54634c0.0756 0.04068 0.15693 0.06974 0.24411 0.07556h0.18019c0.55215 0 2.4818-0.10462 4.2777-1.4298 0.0756-0.05231 0.13361-0.12205 0.16855-0.20342 6e-3 -0.01161 0.6684-1.3077 1.9877-1.7553 1.0985 0.83114 3.3885 2.8654 3.807 4.6381zm-23.894-97.696c-0.15693 5.3995-0.31386 10.799-0.47659 16.193 0.79045-0.10462 1.5751-0.20342 2.3655-0.29642 0.30224-0.36617 0.59284-0.72652 0.89507-1.0869 0.12201-4.7427 0.24992-9.4796 0.37779-14.217-0.27898-0.29642-0.55796-0.58703-0.83113-0.88345-0.77883 0.09881-1.5518 0.1918-2.3307 0.29061m108-3.5861c-24.138-7.0153-49.031-10.514-73.919-10.497-24.876-0.01744-49.746 3.4815-73.867 10.497-4.7311 35.338-5.3704 129.9 54.739 185.49 0.60447-2.4992 1.6855-4.8124 3.1444-6.8409-11.543-12.729-21.063-27.712-28.387-44.73-9.4099-21.86-15.356-47.23-17.657-75.418-0.55796-6.8002-0.89507-13.897-1.0171-21.098 28.869-7.0792 58.633-9.2064 88.037-6.3934-0.0988-0.24411-0.19181-0.48822-0.26737-0.73233l-0.12781-0.4301c-0.16273-0.52891-0.0232-1.1101 0.36618-1.5053l0.31386-0.31967c0.3371-0.34292 3.3885-3.3478 6.87-3.3478 2.0982 0 3.2722 1.1915 4.0453 1.9819 0.62772 0.63934 0.83695 0.82532 1.3658 0.82532 0.16275 0 0.34874-0.01744 0.55217-0.05232l0.2441-0.0465c0.0872-0.01161 0.17437-0.02326 0.26737-0.02326 0.23829 0 0.47077 0.05812 0.68002 0.16855l0.22666 0.11043c0.19181 0.09881 1.7843 0.92994 2.97 2.784l0.48823-0.2383c0.22667-0.11043 0.45915-0.16274 0.68583-0.16274 0.54634 0 1.0694 0.29061 1.3426 0.80208l1.6797 3.1734c5.4867 0.98806 10.956 2.1505 16.39 3.4873-0.12201 6.9513-0.44171 13.827-0.97062 20.453-2.2609 28.282-8.1777 53.757-17.582 75.709-7.3408 17.128-16.896 32.194-28.497 44.992 1.4647 2.0226 2.5457 4.3359 3.156 6.8351 60.086-55.593 59.464-150.14 54.727-185.48m-127.46 6.6026c-0.77883 0.16274-1.5518 0.33129-2.3307 0.49985-0.26735 5.6145-0.53471 11.229-0.79625 16.844 0.78463-0.18018 1.5751-0.34873 2.3655-0.51147-0.0464 1.1101-0.1046 2.2202-0.15112 3.3362-2.9119 0.61609-5.8122 1.2845-8.7008 1.9994 0.0582-1.1159 0.1162-2.2319 0.17437-3.3478 0.78463-0.19761 1.5693-0.3836 2.3539-0.5754 0.2848-5.6204 0.56958-11.241 0.85438-16.867-0.77883 0.18018-1.5518 0.36617-2.3249 0.55797 0.0582-1.1159 0.11621-2.2319 0.17437-3.3536 2.8363-0.68583 5.6785-1.3252 8.5322-1.918-0.0464 1.1101-0.1046 2.2261-0.15111 3.3362m12.328 17.721c-1.1276 0.17436-2.2551 0.36035-3.3827 0.55797-1.331-4.4405-2.6445-8.8752-3.9406-13.298-0.19181 4.702-0.3836 9.4099-0.58121 14.112-1.1682 0.22668-2.3481 0.45335-3.5222 0.69746 0.34872-7.8348 0.69164-15.664 1.0346-23.493 1.0985-0.22086 2.2028-0.4301 3.3013-0.63934 1.2845 4.3475 2.5922 8.7066 3.9116 13.072 0.17435-4.6207 0.34872-9.2413 0.52309-13.856 1.1508-0.19761 2.3074-0.3836 3.464-0.56378-0.26734 7.7999-0.53471 15.606-0.80787 23.411m13.891-4.6497c-0.89507 1.0404-1.7901 2.0808-2.691 3.1269-2.8886 0.32548-5.7715 0.70327-8.6543 1.1334 0.25574-7.7999 0.51147-15.6 0.76139-23.394 2.8247-0.41266 5.6552-0.77302 8.4858-1.0869 0.83113 0.84857 1.6681 1.7088 2.505 2.5632-0.13941 5.8877-0.27316 11.77-0.40685 17.657m9.2588-5.074c-0.0406 2.3772-0.0756 4.7543-0.1162 7.1257-1.331 0.093-2.662 0.1918-3.9988 0.30223 0.0464-2.3772 0.093-4.7543 0.13376-7.1315-1.3368-5.2716-2.6503-10.543-3.9465-15.803 1.3717-0.13368 2.755-0.26155 4.1324-0.37198 0.65096 3.557 1.3194 7.1141 1.9878 10.677 0.86601-3.6733 1.7262-7.3407 2.5748-11.008 1.2612-0.08137 2.5167-0.15112 3.7721-0.21505-1.4937 5.4634-3.0107 10.938-4.5393 16.425m10.375 6.6375c0.0522-7.765 0.0988-15.524 0.15111-23.283 3.1037-0.08718 6.2016-0.11043 9.3052-0.08137 6e-3 1.2729 6e-3 2.5457 6e-3 3.8186-1.7901-0.01744-3.5745-0.01744-5.3646 0-6e-3 1.9006-0.0119 3.8011-0.0174 5.7017 1.6332-0.01744 3.2606-0.02325 4.8938-0.0058 6e-3 1.267 6e-3 2.5399 6e-3 3.8128-1.639-0.01744-3.2722-0.01162-4.9113 0.0058 0 2.0459-0.0119 4.0918-0.0174 6.1434 1.8366-0.02325 3.6617-0.02325 5.4983-0.0058 0 1.2729 0 2.5399 6e-3 3.8128-3.185-0.02906-6.3701-0.0058-9.5552 0.08137m12.281-0.03487c-0.029-7.765-0.0582-15.524-0.093-23.283 1.3252 0.02325 2.6387 0.06393 3.9581 0.11043 0.0524 6.4864 0.0988 12.984 0.14537 19.471 1.5402 0.05812 3.0804 0.12787 4.6207 0.20924 0.0119 1.2729 0.029 2.5457 0.0408 3.8186-2.8828-0.15693-5.7831-0.26736-8.6717-0.32548m10.427 0.42429c-0.0988-7.765-0.20341-15.53-0.30222-23.301 3.0979 0.18599 6.1958 0.4301 9.282 0.72652 0.029 1.2729 0.0582 2.5457 0.0814 3.8244-1.7785-0.17436-3.5628-0.32548-5.3414-0.46497 0.0232 1.9064 0.0582 3.807 0.0872 5.7133 1.6274 0.12206 3.2606 0.26155 4.8822 0.41266 0.0232 1.2729 0.0524 2.5515 0.0756 3.8244-1.6274-0.15693-3.2664-0.29642-4.8938-0.42429 0.0348 2.0517 0.0698 4.0976 0.0988 6.1493 1.825 0.1453 3.6558 0.30223 5.4809 0.48241 0.029 1.2729 0.0582 2.5457 0.0756 3.8186-3.1676-0.31386-6.3469-0.56378-9.5261-0.76139m20.093 2.0226c-1.9471-0.27317-3.8942-0.52309-5.847-0.75558-1.2147-7.8987-2.4062-15.792-3.5803-23.673 1.3368 0.13949 2.6736 0.2848 4.0046 0.44172 0.83695 6.6433 1.6681 13.298 2.5225 19.953 0.50567-6.4864 0.99388-12.961 1.4763-19.447 1.2438 0.16855 2.4818 0.34292 3.7198 0.52891-0.74396 7.6488-1.5112 15.303-2.2958 22.952m4.5393 0.67421c-0.26155-7.7999-0.52309-15.6-0.78464-23.406 3.0804 0.48241 6.1434 1.0113 9.2064 1.5983 0.0524 1.2845 0.1046 2.5632 0.15693 3.8476-1.7669-0.34292-3.528-0.66259-5.2949-0.96482 0.064 1.9122 0.13942 3.8244 0.20925 5.7366 1.61 0.27898 3.2199 0.56959 4.8299 0.87764 0.0524 1.2845 0.1046 2.5632 0.15693 3.8418-1.61-0.30804-3.2258-0.60446-4.8473-0.88345 0.0756 2.0575 0.15111 4.1208 0.22666 6.1841 1.8134 0.31386 3.621 0.64515 5.4286 0.99969 0.0524 1.2845 0.1046 2.5632 0.15693 3.8418-3.1386-0.61609-6.2888-1.1741-9.4448-1.6739m20.133 4.0104c-1.732-5.0856-3.4466-10.142-5.1379-15.181 0.21505 4.7137 0.4301 9.4273 0.65097 14.147-1.1741-0.26155-2.3423-0.51147-3.5164-0.75558-0.33712-7.8348-0.67422-15.664-1.0113-23.493 1.0985 0.22086 2.197 0.45335 3.2897 0.69165 1.6855 4.9578 3.3827 9.9272 5.0914 14.926-0.22667-4.6439-0.45916-9.2878-0.69164-13.932 1.1508 0.27317 2.2842 0.54634 3.4292 0.83114 0.40686 7.8638 0.81953 15.728 1.2322 23.592-1.1159-0.27898-2.226-0.55797-3.3362-0.82532" fill="#14213a"/>
<path d="m-215.47 96.544c-0.0119 0-0.0232-6e-3 -0.0348-0.01741-0.54633-0.37198-1.0927-0.70909-1.6216-0.9997-0.0174-0.0119-0.029-0.02901-0.0348-0.04642-6e-3 -0.01741-6e-3 -0.04062 6e-3 -0.05818 0.17437-0.29642 0.39522-0.49403 0.67421-0.60446h0.029c0.0119 0 0.0232 0 0.0348 6e-3l0.61608 0.31384 1.1624 0.54635c0.0232 6e-3 0.0406 0.02901 0.0406 0.05818 0 0.02321-0.0119 0.04642-0.029 0.06398-0.20925 0.15111-0.55217 0.48241-0.79046 0.7149-0.0119 0.0119-0.029 0.02321-0.0524 0.02321m-21.052-0.7149c-0.0232 0-0.0406-0.0119-0.0522-0.02902l-0.31386-0.33712-0.47659-0.7149c-0.0119-0.01741-0.0119-0.04062-6e-3 -0.06398 0.0119-0.02321 0.029-0.04062 0.0524-0.04642l0.76139-0.16856v-0.06978l6e-3 -0.02321c6e-3 -0.13361 0.0232-0.37198-0.0406-0.59865-6e-3 -0.01741-6e-3 -0.04062 6e-3 -0.05818 0.0119-0.01741 0.029-0.02901 0.0464-0.03482l0.76721-0.15111 0.21505-0.61608c0.0119-0.02901 0.0406-0.04642 0.0698-0.04642h0.0119l0.61027 0.08719 0.17437-0.52891c6e-3 -0.02321 0.029-0.04642 0.0582-0.04642l0.81371-0.13942-0.7614-2.8654-1.6913-0.0988c-0.0174 0-0.0348-6e-3 -0.0464-0.01741-1.2961-1.2205-2.3772-3.5396-2.6794-4.2196-0.0119-0.02901-6e-3 -0.05818 0.0119-0.08139 0.0119-0.0119 0.0348-0.02321 0.0524-0.02321 6e-3 0 0.0174 0 0.0232 6e-3l1.4588 0.51729c0.16275-1.4472-1.2903-2.4876-1.7436-2.7724-0.0232-0.01744-0.0348-0.0465-0.0348-0.07556 0.0119-0.02906 0.0348-0.05232 0.064-0.05812 0.15111-0.02326 0.31386-0.04068 0.48241-0.04068 2.2028 0 5.0333 2.2493 5.0624 2.2726 0-3.4117-2.9351-8.9217-2.9642-8.974l-1.7843-1.7843c-0.0174-0.01744-0.0232-0.0465-0.0174-0.06974l0.9125-3.743c0.0119-0.02906 0.0406-0.05232 0.0698-0.05232h0.0119c0.0348 0 0.064 0.02906 0.064 0.06394 0.0756 1.3135 0.39524 2.8421 0.40686 2.9061 1.4472 0.95319 2.6387 3.0107 2.7666 3.2432 6e-3 0.0058 6e-3 0.01161 6e-3 0.01744 0.59284 2.4179 3.0862 4.8183 3.371 5.0856 0.0119 0.01161 0.0232 0.02906 0.0232 0.0465 0.24992 3.8186 2.8828 6.9106 2.9119 6.9455 1.8366 0.84277 3.5919 3.6094 4.2603 4.7602 0.0119 0.02902 0.0119 0.05818-6e-3 0.08139-0.0119 0.01741-0.0348 0.02901-0.0582 0.02901h-0.0119c-0.59865-0.09299-1.2264-0.15111-1.8715-0.18599-0.0119 0-0.0232-6e-3 -0.029-0.0119-0.45336-0.22667-0.78464-0.44173-0.87763-0.50565-0.0119-6e-3 -0.0232-0.02321-0.029-0.04062-0.74977-2.598-4.8125-4.6148-5.2716-4.8357-0.0174-6e-3 -0.029-0.01741-0.0348-0.02901-1.1857-2.197-4.1615-3.1211-4.1906-3.1328-1.4124 1.6972 0.59866 3.8941 0.6219 3.9174l1.3833 0.13942c0.029 0 0.0524 0.01741 0.0582 0.04642l1.0404 2.6329c0.77301-0.08719 1.546-0.9067 1.6913-1.0694 0.0174-0.01741 0.0348-0.02321 0.0582-0.02321h0.0119c2.5748 0.54635 3.5105 2.2784 3.7372 2.7956 0.0119 0.02321 6e-3 0.05238-6e-3 0.06978-0.0119 0.02321-0.0348 0.03482-0.0582 0.03482-0.0872 6e-3 -0.17435 0.0119-0.26735 0.01741h-0.1104c-1.3426 0-2.6968 0.22667-4.0162 0.6742-1.639 0.45335-3.2025 1.1159-4.6672 1.9819-0.0119 6e-3 -0.0232 0.0119-0.0348 0.0119m18.471-0.76721c-0.0119 0-0.0232 0-0.0348-6e-3 -1.0288-0.49405-2.0808-0.89508-3.1269-1.1915-0.029-6e-3 -0.0464-0.02901-0.0524-0.05818-6e-3 -0.02902 6e-3 -0.05237 0.029-0.06978 0.39524-0.26736 1.1334-0.61028 2.4237-0.73815 6e-3 -6e-3 0.0119-6e-3 0.0174-6e-3 0.0174 0 0.0348 0.0119 0.0522 0.02321l0.48823 0.51729 1.0985 0.74396c0.0174 0.0119 0.029 0.03482 0.029 0.05818 0 0.02902-0.0119 0.05237-0.0348 0.06398-0.2906 0.16855-0.59865 0.40685-0.83695 0.64514-0.0174 0.0119-0.0348 0.01741-0.0522 0.01741m-0.12781-2.5922c-6e-3 0-0.0174 0-0.0232-6e-3 -0.88345-0.31386-2.6852-0.62772-2.8886-0.66258-0.0119-6e-3 -0.0232-0.0119-0.0348-0.02321-1.0752-1.0462-1.4182-3.557-1.4937-4.301-6e-3 -0.03482 0.0119-0.06398 0.0408-0.07559 0.0119-6e-3 0.0174-6e-3 0.029-6e-3 0.0174 0 0.0406 6e-3 0.0524 0.01741l4.0162 3.8883c0.34874-1.7902-1.7901-3.3187-2.226-3.6093-0.0174-0.0119-0.029-0.02902-0.029-0.05238-6e-3 -0.01741 0-0.04062 0.0174-0.05818 0.55796-0.63934 1.5344-0.77301 2.2493-0.77301 0.3894 0 0.69164 0.04062 0.77302 0.05237 0.0174 6e-3 0.0348 0.0119 0.0464 0.02321 0.48821 0.56377 0.79625 1.238 0.91251 1.9936 0 0.13942-0.0119 0.27898-0.029 0.44173 0 0.03482-0.029 0.05818-0.0582 0.06978h-0.0119c-0.029 0-0.0522-0.01741-0.064-0.04062-0.53471-1.0113-1.7669-1.7553-1.8192-1.7843l1.4298 2.784c0 6e-3 6e-3 0.01741 6e-3 0.02321 0.0348 0.30804-0.0524 0.78463-0.23831 1.3659-6e-3 6e-3 -6e-3 0.0119-0.0119 0.01741-0.24411 0.36034-0.45916 0.57539-0.59865 0.69746-0.0119 0.0119-0.029 0.01741-0.0464 0.01741m1.7727-6.1028c-0.029 0-0.0582-0.01741-0.064-0.04642-0.79046-1.8948-1.7611-4.208-2.2493-5.3356-0.6219-1.424-0.94158-5.1786-1.052-6.7247 0-0.03488 0.0232-0.06974 0.064-0.07556h0.0119c0.0348 0 0.064 0.02326 0.0698 0.05812 0.40104 1.5925 1.4182 5.4344 2.2435 6.7421 0.54054 0.86601 1.2264 2.662 1.7088 4.0162 6e-3 0.02321 6e-3 0.04062-6e-3 0.05818-0.24412 0.48821-0.47079 0.92994-0.66259 1.267-0.0119 0.02321-0.0348 0.04062-0.064 0.04062zm-11.752-9.962c-0.029 0-0.0582-0.02326-0.0698-0.05232l-2.0866-6.1783-1.145-8.7822c0-0.0058 0-0.01161 6e-3 -0.01744 0.0814-0.49403 1.9994-12.147 1.8076-14.228-0.0582-0.08137-1.5344-1.9413-2.7433-2.5108-0.0232-0.01161-0.0348-0.03488-0.0408-0.06394 0-0.02906 0.0174-0.05232 0.0408-0.06394 0.12781-0.07556 0.32548-0.20924 0.56377-0.38941-6e-3 -0.0465-0.40684-4.3533-0.77882-6.1434-0.24992-1.1624-2.505-5.4227-4.3591-8.788-0.0119-0.02326-0.0119-0.05232 6e-3 -0.07556 0.38361-0.6219 0.70327-1.0869 0.90088-1.3659 0.0119-0.01744 0.0348-0.02906 0.0582-0.02906 0.029 0 0.0464 0.01161 0.064 0.03488 0.83695 1.3019 2.0575 2.9584 3.2606 3.6733 0.064 0.04068 0.093-0.14531 0.093-0.14531l-2.1738-5.1089c-0.0119-0.03488 0-0.06974 0.029-0.093 0.0119-0.0058 0.0232-0.01161 0.0408-0.01161 0.0174 0 0.0406 0.01161 0.0522 0.02906 0.92414 1.1334 3.1211 4.0453 3.65 6.6259 0.64514 3.1269 5.632 20.191 5.8412 20.918 6e-3 0.02326 6e-3 0.05232-0.0174 0.06974-0.0119 0.01161-0.029 0.02326-0.0522 0.02326h-0.0119c-0.22085-0.0465-0.80207-0.14531-1.3949-0.14531-0.98806 0-1.5983 0.27317-1.7611 0.79045l0.54634 2.1214c0 0.01161 6e-3 0.01744 6e-3 0.02326l-0.25572 19.808c-6e-3 0.03488-0.029 0.06974-0.064 0.07556zm-3.4524-5.2367c-0.0232 0-0.0522-0.01161-0.064-0.04068l-21.191-43.056 12.025 27.166c0.0174 0.03488 0 0.07556-0.0348 0.09299-0.0119 0.0058-0.0232 0.0058-0.029 0.0058-0.029 0-0.0582-0.0116-0.0698-0.04068l-19.285-39.203c-6e-3 -0.01744-6e-3 -0.03488 0-0.05812 6e-3 -0.01744 0.0174-0.02906 0.0348-0.04068l2.598-1.2612c6e-3 0 0.0119 0 0.0174-0.0058l0.18599-0.0465h0.0174c0.029 0 0.0522 0.01744 0.064 0.04068 0.64515 1.3019 9.84 20.203 13.659 28.201 0.1162 0.24411 11.281 23.841 12.147 28.16 6e-3 0.04068-0.0174 0.07556-0.0524 0.08718h-0.0232m12.299-5.8412c-0.0174 0-0.0348-0.0058-0.0464-0.01161-0.0232-0.01744-0.0348-0.0465-0.0232-0.07556l0.5289-2.2086c0-0.01161 0.0119-0.02906 0.0232-0.04068 0.1918-0.14531 1.8657-1.4705 2.2493-2.7956 0.0119-0.03488 0.0406-0.05232 0.0698-0.05232h0.0119c0.0348 0 0.064 0.02906 0.064 0.06394 0.064 1.3019-0.22085 3.6907-2.8421 5.1147-0.0119 0.0058-0.0232 0.0058-0.0348 0.0058m9.747-0.12787h-0.0174c-0.0348-0.0058-0.064-0.04068-0.0582-0.08137 0.15692-1.4007 0.37779-3.9465 0.14536-5.2658l-6.3585-3.2316c-0.0119 0-2.197 0.05232-2.197 0.05232-0.0232 0-0.0408-0.01161-0.0524-0.02326-0.22086-0.22086-5.3414-5.3879-6.6026-11.002-6e-3 -0.02906 6e-3 -0.05812 0.029-0.07556 0.0119-0.01161 0.029-0.01744 0.0464-0.01744 0.0119 0 0.0232 0.0058 0.0348 0.01161l1.517 0.80208c0.0119 0.0058 0.0232 0.01744 0.029 0.02906l2.4295 4.2719c0.0232 0.01744 1.8076 1.7378 3.7895 1.7378 1.1217 0 2.0982-0.54053 2.9003-1.61l-8.0266-6.3469c-6e-3 -0.0058-0.0119-0.01161-0.0174-0.01744-0.29062-0.4301-7.1896-10.549-8.3521-14.536-6e-3 -0.02906 0-0.05812 0.0232-0.07556 0.0174-0.01161 0.029-0.01744 0.0464-0.01744 0.0119 0 0.029 0.0058 0.0406 0.01161 0.48241 0.32548 1.6506 1.1566 2.0633 1.8192 6e-3 0.0058 6e-3 0.01161 6e-3 0.01744 0.0406 0.17436 0.94739 4.208 4.0511 4.208 0.43009 0 0.88344-0.07556 1.36-0.22667-0.32548-0.34292-7.951-8.4567-10.84-10.473-0.029-0.02326-0.0348-0.06394-0.0232-0.09299 0.0119-0.02906 0.0406-0.04068 0.0698-0.04068 6e-3 0 0.0119 0 0.0174 0.0058l1.3426 0.44754s0.14537 0.0058 0.0988-0.06394c-0.20343-0.24992-0.65096-0.79626-1.0113-1.1508-0.0232-0.02326-0.029-0.06394-0.0119-0.093 0.0174-0.02326 0.0406-0.03488 0.064-0.03488 6e-3 0 0.0174 0.0058 0.029 0.0058 1.1915 0.4766 5.2716 2.0343 7.5907 2.0343 0.1104 0 0.17437-0.09299-0.0119-0.1918-1.1218-0.59284-4.7195-2.4411-6.2422-2.7724-0.029-0.0116-0.0582-0.04068-0.0582-0.06974 0-0.03488 0.0232-0.06394 0.0582-0.07556 0.36616-0.09299 1.0869-0.24411 1.7669-0.24411 0.24411 0 0.46497 0.01744 0.65676 0.05232l0.91833-0.72071c0.0119-0.0116 0.029-0.01744 0.0464-0.01744 0.59284 0.01744 5.3007 0.18599 7.7244 1.3949 0.31386 0.15693 0.58702 0.27317 0.1046-0.07556-1.0171-0.73233-3.1909-1.918-6.899-2.2319-0.0406-0.0058-0.0698-0.03488-0.0698-0.07556 0-0.03488 0.029-0.06974 0.0698-0.06974 0.73234-0.06974 1.889-0.15693 3.2548-0.15693 3.0339 0 7.2478 0.41266 10.084 2.3714 0.064 0.0465 1.7262 1.1217 2.8538 3.9581 6e-3 0.01161 6e-3 0.02906 6e-3 0.04068-0.40103 2.4992-0.63352 4.5974-0.68584 6.2364-0.12781 4.2603 3.9116 20.569 4.086 21.261v0.01744c6e-3 0.34292 0.029 3.528-0.96482 8.7763-6e-3 0.0058-6e-3 0.01744-0.0119 0.02326-0.32548 0.48822-0.5754 0.99388-0.77883 1.546-6e-3 0.02906-0.0348 0.0465-0.064 0.0465m-20.895-38.988 6.0911 6.6782-0.0174-1.7611-3.9348-3.3594c-0.0174-0.01744-0.0232-0.04068-0.0232-0.06394s0.0174-0.0465 0.0348-0.05812c0.18019-0.09881 0.65096-0.3371 1.4066-0.52309 0.1046-0.02326 0.18599-0.093 0-0.12787-0.73233-0.13367-2.4586-0.46497-3.4466-0.88926-0.14537-0.06394-0.1104 0.10462-0.1104 0.10462m9.654 37.622c-0.6742 0-1.4472-0.63353-1.7495-0.9067-0.0232-0.01744-0.029-0.0465-0.0232-0.07556 0.0119-0.02906 0.0348-0.0465 0.064-0.05232 0.53471-0.07556 2.3132-0.41848 2.7201-1.5693 0.0119-0.02906 0.0406-0.05232 0.0698-0.05232h0.0119c0.0348 0.0058 0.0582 0.03488 0.064 0.06974 0.0582 0.61028 0.064 1.732-0.54053 2.3365-0.16275 0.16274-0.37198 0.24992-0.6161 0.24992m-0.90669-3.3304c-0.0119 0-0.0232-0.0058-0.0348-0.0058-0.4301-0.22667-1.5228-0.7672-2.412-0.91832-0.0232-0.0058-0.0464-0.02326-0.0582-0.0465l-1.5518-3.5687c-0.0119-0.02326-6e-3 -0.05232 0.0119-0.06974 0.0119-0.01744 0.0348-0.02906 0.0582-0.02906h0.0119c0.40686 0.06974 1.4066 0.27898 1.8657 0.73233 6e-3 0.0058 6e-3 0.01161 0.0119 0.01744l2.1621 3.7779c0.0119 0.02906 6e-3 0.06394-0.0119 0.08718-0.0174 0.01744-0.0348 0.02326-0.0524 0.02326m0.85439-1.1159c-0.0232 0-0.0464-0.0116-0.064-0.03488-0.47659-0.90088-2.9177-5.5564-3.6617-9.1367-6e-3 -0.03488 0.0119-0.06974 0.0464-0.08137 6e-3 -0.0058 0.0174-0.0058 0.0232-0.0058 0.029 0 0.0522 0.01161 0.064 0.04068 0.78465 1.4937 3.4176 6.4341 4.5044 7.3582 0.029 0.02326 0.0348 0.05812 0.0174 0.08718l-0.8602 1.732c-0.0174 0.02326-0.0406 0.04068-0.064 0.04068zm-14.897-3.9174c-0.0348 0-0.064-0.02326-0.0698-0.05812-0.43591-1.61-2.5922-9.8807-2.4178-14.094-6e-3 -0.02906-0.54053-3.2897-1.9006-5.7017-0.0119-0.01744-0.0119-0.04068-6e-3 -0.05812 0.69165-1.7843 1.4821-3.4757 2.3539-5.0391 0.0119-0.02326 0.0408-0.04068 0.064-0.04068h6e-3c0.029 0.0058 0.0524 0.02326 0.064 0.05232 0.73234 2.1854 1.8831 5.1031 3.2199 6.5677 0.0119 0.01161 0.0174 0.02906 0.0232 0.0465 0.0174 0.5289 0.40684 13.037-1.2671 18.273-0.0119 0.02906-0.0348 0.05232-0.0698 0.05232zm23.975-33.089c-0.0119 0-0.029-0.0058-0.0406-0.01161-1.1624-0.69746-5.2891-2.9642-9.4273-2.9642-0.7149 0-1.4124 0.06394-2.0633 0.19761 0 0-3.0398 0.34292-3.0456 0.34292-0.0348 0-0.064-0.02326-0.0698-0.05812-0.0119-0.03488 6e-3 -0.06974 0.0406-0.08137l2.8131-1.1566h0.0232c0.0814-0.0058 0.39524-0.02326 0.87183-0.02326 1.0752 0 3.2141 0.08137 5.4111 0.63352 2.4411 0.60446 4.3068 1.6158 5.539 2.9991 0.0232 0.02326 0.0232 0.06394 6e-3 0.09299-0.0174 0.01744-0.0348 0.02906-0.0582 0.02906m1.0694-0.26736c-0.0174 0-0.0406-0.0116-0.0524-0.02906-1.3949-1.5751-4.5102-4.2254-9.776-4.2254-0.15693 0-0.31966 0-0.47659 0.0058-0.0406 0-0.0698-0.02906-0.0756-0.06394 0-0.03488 0.0232-0.06974 0.0582-0.08137l1.6506-0.3836 0.029-0.08718-2.6794-0.48241c-0.029 0.0058-2.5573 0.37198-4.2603 1.6855-0.0119 0.01161-0.029 0.01161-0.0464 0.01161-0.0119 0-0.0232 0-0.0348-0.0058-0.0232-0.01744-0.0408-0.0465-0.0348-0.07556l0.0872-0.64515s-0.0119-0.09881-0.0582-0.07556c-0.54634 0.22667-3.7779 1.6623-6.3585 4.0336-0.0174 0.01161-0.0348 0.01744-0.0522 0.01744s-0.0348-0.0058-0.0464-0.01744c-0.029-0.02906-0.029-0.06974-6e-3 -0.09881 0.92994-1.0811 2.3074-2.5515 3.7082-3.6093 0.1046-0.08137 0.12201-0.13949 0.0232-0.09299-0.69745 0.30223-1.7088 0.69164-2.5515 1.0055-0.25575 0.09881-0.49404 0.1918-0.70328 0.27317h-0.029c-0.0232 0-0.0524-0.01161-0.064-0.03488-0.0174-0.03488-6e-3 -0.07556 0.029-0.09881l4.1324-2.5341 13.252-7.085s0.0406-0.10462-0.0119-0.087177c-1.9064 0.60446-9.654 3.0746-11.491 3.9581-0.0119 0.0058-0.0232 0.01161-0.0348 0.01161-0.0119 0-0.0174-0.0058-0.0232-0.0058l-1.0404-0.40104c-0.029-0.01161-0.0464-0.03488-0.0464-0.05812-6e-3 -0.02906 6e-3 -0.05812 0.0348-0.06974 0.84276-0.51728 3.6965-2.197 4.8531-2.2784l1.5867-1.1566-0.0988-0.04068-2.1563 0.72071c-0.0524 0.01161-4.3765 1.0869-5.4634 2.1214-0.0174 0.01161-0.0348 0.02326-0.0524 0.02326-6e-3 0-6e-3 0-0.0119-0.0058-0.51147-0.08137-5.0217-0.83114-6.0214-2.2493-0.0464 0.017438-1.2089 0.3836-1.6332 1.1973-0.0119 0.02326-0.0406 0.03488-0.064 0.03488h-0.0174c-0.029-0.0058-0.0522-0.02906-0.0582-0.06394-0.0814-0.66258-0.40686-2.2958-1.7727-3.1851-0.029-0.017438-0.0406-0.052315-0.029-0.081374 6e-3 -0.029059 0.0348-0.052315 0.0698-0.052315 1.4472-0.040679 4.2719-0.33129 5.103-0.41847l0.38942-0.046497 0.20343-0.30223c0.0174-0.029059 0.064-0.18599 0.1162-0.34292 0.0232-0.075556 0.0464-0.15693 0.064-0.20924 0.0119-0.029059 0.0406-0.046497 0.0698-0.046497h0.0174c0.093 0.017438 0.19181 0.052315 0.29643 0.092995 0.19761 0.069738 0.41847 0.15693 0.70326 0.15693 0.15693 0 0.31386-0.029059 0.48241-0.081374 0.029-0.034877 0.71489-0.95319 0.68002-1.9645 0-0.029059 0.0174-0.052315 0.0406-0.069738 0.0119-0.0058 0.0232-0.0058 0.0348-0.0058 0.0174 0 0.029 0.0058 0.0406 0.017438 0.41266 0.32548 1.5054 1.0752 2.7608 1.0752 0.13361 0 0.26736-0.0058 0.39522-0.023256l-1.3194-2.2726c-0.029-0.023256-0.69164-0.53472-1.1392-0.8137-0.029-0.017438-0.0406-0.052315-0.0348-0.081374 0.0119-0.029059 0.0348-0.052315 0.0698-0.052315 0.0698-0.0058 0.15693-0.011606 0.24992-0.011606 0.3894 0 0.99387 0.052315 1.6739 0.31967 0.0174 0.0058 0.029 0.011606 0.0406 0.029059l1.6681 2.8015c0.0174-0.0058 1.7378-0.83695 2.8828-2.5108 0.0174-0.023256 0.0408-0.034877 0.064-0.034877h0.0174c0.029 0.011606 0.0464 0.034877 0.0524 0.063935l0.4766 2.5515c6e-3 0.034877-0.0119 0.063935-0.0406 0.081374l-0.6684 0.31967c-0.0119 0-0.0232 0.0058-0.0348 0.0058-0.12201-0.0058-0.78463-0.034877-1.6216-0.034877-1.2089 0-2.7956 0.058118-3.7024 0.30223-0.064 0.017438-0.0698 0.063936 0.0698 0.081374 0.85438 0.087177 3.6675 0.3836 4.9113 0.6684 0.0119 0 1.7495-0.31386 3.2199-0.56378h0.0119 0.0174c0.69166 0.16855 1.4298 0.34292 1.8134 0.43591l0.0872 0.017438 0.18599 0.0058c0.8137 0 2.5457-0.76139 5.4576-2.1737 0.0119 0 0.0174-0.0058 0.029-0.0058 0.1162-0.0058 0.22667-0.011606 0.3371-0.011606 0.91832 0 1.6216 0.24992 2.0343 0.7149 0.029 0.023256 0.0582-0.011606 0.0232-0.13367-0.0872-0.2848-0.29061-0.79045-0.7672-1.2147-0.0174-0.017438-0.0232-0.04068-0.0232-0.063936s0.0174-0.046497 0.0408-0.058118c0.61027-0.33711 1.7553-0.98807 2.9351-1.6913l0.0988-0.058118 0.21505-0.2383c0.0119-0.011606 0.0348-0.023256 0.0524-0.023256h0.0119c0.97644 0.11625 2.2784 0.55215 3.0572 1.9529 0.0348 0.052315 0.093 0.069738 0.0814-0.087177-0.064-0.68002-0.3836-2.5108-1.9819-3.0339-0.0232-0.005803-0.0406-0.023256-0.0464-0.046497-0.0119-0.029059 0-0.052315 0.0119-0.069738l1.4182-1.5577c0.0119-0.011606 0.0348-0.023256 0.0524-0.023256h0.0119c0.41265 0.063936 4.0859 0.72652 5.1321 4.6207 6e-3 0.029059 0 0.058118-0.0232 0.075556l-0.91831 0.72071c-0.0119 0.011606-0.029 0.017438-0.0464 0.017438h-0.0174c-0.0232-0.0058-0.0348-0.023256-0.0464-0.046497-0.30224-0.70908-1.0927-2.383-2.0168-3.0572-0.0348-0.029059-0.0814-0.011606-0.0524 0.063935 0.22668 0.56959 1.0288 2.6852 0.86601 4.0336-6e-3 0.017438-0.0119 0.034877-0.029 0.046497l-4.7543 3.7488c0 0.029059 0.093 0.66258-0.13362 1.8192 0 0.02326-0.0232 0.0465-0.0464 0.05812h-0.0232c-0.0174 0-0.0406-0.0058-0.0524-0.02326l-0.99387-1.0869-1.0927 1.1915c-0.0232 0.01744-1.2322 0.96482-1.8483 2.2144-0.0119 0.02326-0.0348 0.04068-0.064 0.04068-6e-3 0-0.0119-0.0058-0.0232-0.0058-0.0348-0.01161-0.0524-0.04068-0.0464-0.08137l0.64514-4.2603h-0.1104l-2.1912 2.29c-0.0174 0.01744-0.0348 0.02326-0.0524 0.02326-0.0119 0-0.0232 0-0.0406-0.0116l-0.85439-0.49403c-0.0756 0.03488-7.1431 3.1967-12.24 5.5622-0.093 0.04068 0.0464 0.06974 0.0464 0.06974l3.557-0.62771 1.2554-0.74977c0.0119-0.0116 0.0232-0.0116 0.0348-0.0116 0.0582 0 0.22667-0.0058 0.48241-0.0058 1.2438 0 5.4227 0.06393 7.178 0.89507 0.0348 0.01744 0.0522 0.05232 0.0406 0.08718-6e-3 0.02906-0.0406 0.05232-0.0698 0.05232h-6e-3c-0.74395-0.09881-2.662-0.32548-4.3998-0.32548-1.3775 0-2.3656 0.13949-2.9468 0.41266-0.0582 0.02326 6e-3 0.10462 6e-3 0.10462l2.9409 0.43591 0.99388-0.37198c6e-3 0 0.0174-0.0058 0.0232-0.0058 0.0119 0 0.0232 0.0058 0.0348 0.01161 0.42429 0.20924 4.2371 2.1912 6.3876 5.4983 0.0174 0.03488 0.0119 0.07556-0.0174 0.09881-0.0174 0.01161-0.029 0.01744-0.0464 0.01744m-40.685-4.2371h-0.0232l-4.3068-1.424c-0.0174-0.0058-0.0348-0.02326-0.0406-0.04068-0.58122-1.1508-0.94156-1.8831-1.0462-2.0808-0.0174-0.03488-6e-3 -0.06974 0.0232-0.093l0.56959-0.40685c0.0119-0.01161 0.029-0.01744 0.0464-0.01744 6e-3 0 0.0119 0.0058 0.0232 0.0058l3.836 1.3891c1.5635-0.89507 2.4179-1.3891 2.6097-1.5112 0.0119-0.01161 0.0232-0.01161 0.0406-0.01161h0.0232c2.1679 0.76139 2.2609 2.5225 2.2609 2.8654-6e-3 0.03488-0.0232 0.06394-0.0524 0.06974l-3.9406 1.2554h-0.0232m7.0327-0.06394h-0.0119c-0.0348-0.0116-0.064-0.04068-0.0582-0.07556 0.1046-1.5693-0.77883-2.7666-1.1392-3.1909-0.093-0.10462-0.0988 0.0058-0.0698 0.09299 0.27317 0.96482 0.0814 1.6971-0.0698 2.0633-0.0119 0.02906-0.0348 0.0465-0.064 0.0465h-0.0174c-0.029-0.0058-0.0582-0.03488-0.0582-0.06974-0.0464-1.8599-1.3484-2.9991-1.9064-3.4001-0.029-0.02326-0.0348-0.05812-0.0232-0.08718 0.0119-0.02906 0.0348-0.0465 0.064-0.0465h0.0119c1.4763 0.22086 2.6038 0.72071 2.6155 0.72652-0.093-0.7149-0.2383-1.1799-0.31966-1.3891-0.0119-0.02326-6e-3 -0.05812 0.0174-0.07556 0.0119-0.01744 0.029-0.02326 0.0522-0.02326 6e-3 0 0.0119 0 0.0232 0.0058 1.7436 0.58703 2.0284 2.0401 2.0401 2.8538 0 0.03488-0.0232 0.06394-0.0582 0.07556h-0.0119c-0.029 0-0.0582-0.01744-0.0698-0.0465-0.13942-0.31967-0.36616-0.64515-0.53471-0.8602-0.1046-0.12787-0.12201-0.093-0.093-0.02906 0.44171 1.1043 0.0406 2.5748-0.24993 3.3827-0.0119 0.02906-0.0348 0.0465-0.0698 0.0465m2.4818-2.476c-0.029 0-0.0582-0.01744-0.0698-0.0465-0.24993-0.58122-0.97645-2.0517-2.2493-3.1386-0.51147-0.44172-1.1624-0.66259-1.9413-0.66259-0.15111 0-0.30804 0.0058-0.47079 0.02326h-6e-3c-0.0348 0-0.064-0.02326-0.0698-0.05812-6e-3 -0.03488 0.0119-0.07556 0.0524-0.08137l1.9703-0.56959h0.0232 0.0174c0.72652 0.16855 1.2612 0.53472 1.5228 0.74396 0.1046 0.08718 0.093-0.02326 0.0522-0.10462-0.35454-0.67421-0.87181-1.0055-1.1682-1.1508-0.0174-0.0116-0.0348-0.02906-0.0408-0.05232 0-0.01744 0-0.04068 0.0174-0.05812 0.26736-0.34292 0.6684-0.66259 1.1915-0.96482 6e-3 0 0.0174-0.0058 0.0232-0.0058 0.22087-0.040679 0.44172-0.063935 0.6684-0.063935 1.0636 0 1.889 0.48241 2.197 0.69165 0.0814 0.058118 0.1046 0 0.0814-0.052315-0.14537-0.41266-0.44754-0.85439-0.91833-1.3368-0.0174-0.017438-0.029-0.040679-0.0232-0.063935 0.0119-0.029059 0.029-0.046497 0.0522-0.052315 0.42429-0.13367 1.1624-0.34873 1.5054-0.43591 6e-3 -0.0058 0.0119-0.0058 0.0174-0.0058 0.0232 0 0.0406 0.0058 0.0524 0.023256 1.6623 1.6332 0.86019 4.0569 0.58121 4.7602-0.0119 0.02906-0.0406 0.0465-0.0698 0.0465h-6e-3c-0.029 0-0.0582-0.02326-0.064-0.05232-0.22086-0.80208-0.59864-1.2612-0.83695-1.4821-0.1162-0.11043-0.13361-0.06393-0.1046-0.0058 0.40104 0.73814 0.18017 1.8425 0.15693 1.9761-6e-3 0.0058-6e-3 0.01744-0.0119 0.02326l-0.50565 0.75558c-0.0174 0.02326-0.0406 0.03488-0.064 0.03488h-0.0119c-0.029-0.0058-0.0464-0.02326-0.0582-0.05231-0.20925-0.73814-1.1624-1.7146-1.5577-2.0982-0.0988-0.093-0.0872-0.01161-0.0464 0.06394 0.58122 1.1741 0.32548 2.7433 0.18019 3.3943-6e-3 0.03488-0.0348 0.05812-0.064 0.05812h-6e-3m-16.228-1.1682c-6e-3 0-0.0174 0-0.0232-0.0058l-1.61-0.59865c-0.0174-0.01161-0.0348-0.02326-0.0406-0.04068-6e-3 -0.02326-6e-3 -0.04068 0-0.05812l0.1046-0.2383c6e-3 -0.01744 0.0232-0.03488 0.0408-0.04068 1.424-0.62771 2.3714-1.4065 2.383-1.4182 0.0174-0.13949 0.0406-0.32548 0.0582-0.40685 0-0.02906 0.0232-0.05232 0.0464-0.05812l4.4114-1.453 0.56958-0.4301c6e-3 -0.0058 0.0174-0.0058 0.0232-0.011606l1.0229-0.32548c6e-3 -0.0058 0.0174-0.0058 0.0232-0.0058 0.0232 0 0.0522 0.011606 0.064 0.040679 0.0174 0.029059 6e-3 0.069738-0.0232 0.092994l-6.0911 4.5044-0.92413 0.44754c-0.0119 0.0058-0.0232 0.0058-0.0348 0.0058m-3.0572-4.0162h-0.0232c-0.19181-0.06394-0.54053-0.20343-0.70328-0.42429-0.0119-0.017438-0.0174-0.040679-0.0119-0.058118 0-0.023256 0.0174-0.040679 0.0348-0.046497l1.8773-1.1334c0.0464-0.023256 0.41847-0.20924 1.1043-0.29061h6e-3c0.029 0 0.0464 0.011606 0.064 0.029059 0.0988 0.14531 0.27317 0.39523 0.3836 0.55215 0.0174 0.029059 0.0174 0.058118 0 0.081374s-0.0348 0.034877-0.0582 0.034877c-0.0119 0-0.0119 0-0.0232-0.0058-0.0872-0.017438-0.16855-0.034877-0.23828-0.034877-0.0232 0-0.0408 0.0058-0.0582 0.0058l-2.2493 1.0985-0.0348 0.13949c-6e-3 0.01744-0.0174 0.03488-0.0348 0.0465-6e-3 0.0058-0.0232 0.0058-0.0348 0.0058m-2.6794-1.1101c-0.17437 0-0.31386-0.011606-0.41266-0.046497-0.029-0.0058-0.0464-0.034877-0.0464-0.058118-6e-3 -0.029059 6e-3 -0.058118 0.029-0.069738l0.75558-0.48241c0.093-0.058118 2.3539-1.4821 3.5687-1.7204h0.0174l0.59865 0.034877c0.0232 0 0.0464 0.011606 0.0582 0.029059l0.49985 0.69165c0.0174 0.029059 0.0174 0.058118 6e-3 0.081374-0.0174 0.023256-0.0408 0.034877-0.064 0.034877h-0.0119c-0.2383-0.034877-0.44753-0.058118-0.6219-0.058118-0.15693 0-0.2848 0.017438-0.38942 0.046497l-3.1386 1.1217-6e-3 0.24992c0 0.034877-0.0232 0.063936-0.0582 0.069738-0.13376 0.023256-0.47079 0.075556-0.78464 0.075556m-0.74396-1.1508c-0.50565 0-0.959-0.17436-1.1857-0.2848-0.0232-0.011606-0.0408-0.034877-0.0408-0.069738 6e-3 -0.029059 0.0232-0.052315 0.0524-0.063936l0.90089-0.27317c1.3252-0.94738 3.0921-1.7088 3.1095-1.7146 0.37198-0.11625 0.84277-0.16274 1.1741-0.18018 0.0232 0 0.0408 0.011606 0.0582 0.029059 0.0119 0.017438 0.0174 0.04068 0.0119 0.063936l-0.12201 0.48241c-6e-3 0.029059-0.029 0.052315-0.0582 0.052315l-0.44173 0.058118-3.2258 1.5344-0.0406 0.30223c-6e-3 0.029059-0.0348 0.058118-0.0698 0.058118-0.0406 0.0058-0.0814 0.0058-0.12201 0.0058m-0.94156-1.0229c-0.0119 0-0.0174-0.0058-0.029-0.0058l-0.41847-0.16274c-0.0232-0.011606-0.0348-0.029059-0.0464-0.046497-6e-3 -0.023256 0-0.046497 0.0119-0.063936 0.0464-0.069738 0.1162-0.17436 0.19761-0.30223 0.37779-0.58122 1.0694-1.6448 1.3775-1.9122l-2.662-5.4867c-6e-3 -0.023256-0.0119-0.040679 0-0.058118 6e-3 -0.017438 0.0174-0.034877 0.0348-0.040679 0.29642-0.14531 0.58121-0.26155 0.86601-0.35454 0.0119-0.0058 0.0174-0.0058 0.029-0.0058 0.0232 0 0.0464 0.011606 0.064 0.040679l2.9526 5.4169 2.6504 0.22086c0.0174 0 0.0406 0.0058 0.0522 0.023256 0.0756 0.10462 0.13942 0.19761 0.18019 0.27898 0.0119 0.017438 0.0119 0.034877 6e-3 0.052315l-0.0872 0.33129c-6e-3 0.029059-0.0348 0.058118-0.0698 0.058118 0 0-1.9354-0.13949-1.9587-0.13949-0.84859 0.27898-2.662 1.7553-3.1037 2.1389-0.0119 0.0058-0.029 0.017438-0.0464 0.017438m66.741-4.4986c-0.0232 0-0.0464-0.011606-0.064-0.040679-0.47079-0.94157-1.6797-2.6562-4.5102-3.5745-0.029-0.011606-0.0464-0.034877-0.0524-0.058118-6e-3 -0.029059 6e-3 -0.052315 0.029-0.069738l2.9526-2.2842 0.064-0.29061c0.0524-0.24992 0.13361-0.55215 0.24992-0.88345 0-0.011606 6e-3 -0.017438 0.0174-0.029059 1.3368-1.3368 3.6442-3.9988 4.0976-6.8177l-0.40686-1.0462c-6e-3 -0.01744-6e-3 -0.04068 6e-3 -0.05812 0.73233-1.3891 1.5577-2.9177 2.5283-4.6672 0.0119-0.01161 0.0174-0.01744 0.0232-0.02326l3.063-2.0866c0.0119-0.0058 0.029-0.01161 0.0406-0.01161 0.0119 0 0.0232 0.0058 0.0348 0.01161 0.0232 0.0116 0.0406 0.04068 0.0406 0.06394-0.23828 4.6381-1.145 8.6194-1.8599 11.148-6e-3 0.017438-0.0174 0.034877-0.0348 0.040679-0.0119 0.0058-0.0232 0.011606-0.0348 0.011606-6e-3 0-0.0174-0.0058-0.0232-0.0058-0.17435-0.063936-0.3371-0.15112-0.48241-0.25573-6e-3 0.029059-0.3429 2.6736-1.517 4.5742-0.0174 0.023256-0.0348 0.034877-0.064 0.034877h-0.0119l-1.4124-0.24992s-0.0814 0.040679-0.0406 0.11043c0.21505 0.32548 0.7149 1.1159 0.7672 1.4647v0.040679l-0.45334 1.1799c-0.0119 0.029059-0.0348 0.046497-0.064 0.046497l-0.70327 0.063935-0.62771 1.3368c-6e-3 0.017438-0.0232 0.034877-0.0408 0.040679l-1.5693 0.4766 0.13362 1.732c6e-3 0.034877-0.0174 0.063936-0.0524 0.075556h-0.0232m-69.502-3.9465c-0.0119 0-0.029-0.0058-0.0406-0.011606-0.0232-0.017438-0.0348-0.046497-0.0348-0.075556l0.1162-0.64515c0.3313-1.0752 0.26737-2.2028 0.21507-2.7201-0.0232-0.17437-0.0698-0.17437-0.0872-0.11625-0.18017 0.54053-0.55796 0.94157-0.85438 1.1799-0.0174 0.011606-0.029 0.017438-0.0464 0.017438s-0.0348-0.0058-0.0464-0.017438c-0.029-0.023256-0.0348-0.058118-0.0174-0.092994 0.40105-0.70908 0.36618-1.4588 0.31968-1.8192-0.0232-0.12787-0.0872-0.11625-0.1104-0.063936-0.23249 0.44172-0.60447 0.65677-0.81371 0.74977-0.0119 0.0058-0.0232 0.0058-0.0348 0.0058-0.0174 0-0.0348-0.0058-0.0524-0.017438-0.0174-0.023256-0.0232-0.058118-0.0119-0.087177 0.31967-0.68002 0.29642-1.4588 0.25573-1.8599-6e-3 -0.029059 0.0119-0.058118 0.0408-0.069738 0.0119-0.0058 0.0232-0.0058 0.029-0.0058 0.0232 0 0.0406 0.0058 0.0522 0.017438 0.53472 0.4766 1.1276 0.89507 1.7727 1.2496 0.0174 0.011606 0.029 0.023256 0.0348 0.04068 0.22086 0.6684 0.3836 1.6042 0.17437 2.2144l-0.20343 0.61609 0.98224 0.52309c0.029 0.017438 0.0408 0.046497 0.0408 0.069738-6e-3 0.034877-0.0232 0.058118-0.0464 0.063935-0.73234 0.26736-1.2671 0.60446-1.5925 0.84276-0.0119 0.0058-0.029 0.011606-0.0406 0.011606m46.532-1.5402c-0.0232 0-0.0406-0.011606-0.0582-0.034877-0.33712-0.48822-1.6448-0.90088-2.29-1.052-1.0985 0.32548-2.569 0.54053-2.9933 0.59865h-6e-3c-0.0232 0-0.0406-0.0058-0.0524-0.017438-0.0119-0.011606-0.0232-0.029059-0.0232-0.052315l0.0232-2.5341c-0.54634-1.6623-3.8883-2.4527-4.2661-2.5399-0.0348-0.0058-0.0582-0.040679-0.0582-0.075556 0.0348-1.2496 1.7262-2.7201 1.7437-2.7375 0.50565-2.2435 2.5515-4.1789 2.9584-4.5451 0.0174-0.0116 0.029-0.02326 0.0524-0.02326 6e-3 0 0.0119 0 0.0174 0.0058 0.0232 0.0058 0.0464 0.02326 0.0524 0.05232 0.0872 0.32548 0.37197 1.0985 1.1624 1.2031 0.0348 0 0.064 0.0058 0.093 0.0058 0.91251 0 1.6855-1.6507 1.7669-1.8366 6e-3 -0.0116 0.0119-0.01744 0.0174-0.02326 0.40104-0.36617 1.0346-0.44754 1.4937-0.44754 0.43591 0 0.80208 0.06974 0.87182 0.08137 0.0119 0.0058 0.0232 0.01161 0.0348 0.01744 0.19181 0.15693 0.32548 0.45916 0.39522 0.8602 6e-3 0.01161 0 0.02326 0 0.03488l-0.0174 0.05812c-0.0119 0.02326-0.0348 0.04068-0.0582 0.0465h-0.0119c-0.0232 0-0.0464-0.01161-0.0582-0.02906-0.16855-0.22086-0.3836-0.33129-0.63352-0.33129-0.41848 0-0.83115 0.31386-0.98226 0.44172-0.029 0.02906-0.0348 0.12205-0.0232 0.15693 0.31384 1.0288 0.91831 1.7204 1.9064 2.1854 0.0232 0.01161 0.0406 0.04068 0.0406 0.06974-0.0119 0.35454-0.0524 0.959-0.0698 1.2845-6e-3 0.02326-0.0174 0.0465-0.0348 0.05812-0.0119 0.0058-0.0232 0.01161-0.0408 0.01161h-0.0174c-0.45334-0.13949-0.83113-0.16855-0.87181-0.16855l-0.35454 0.26155-0.029 0.09299 0.90089 2.6736c6e-3 0.023256 0 0.052315-0.0174 0.075556-0.0119 0.011606-0.0348 0.023256-0.0524 0.023256-6e-3 0-0.0119 0-0.0119-0.0058-0.12201-0.023256-0.24412-0.034877-0.35455-0.034877-0.52309 0-0.80788 0.27317-0.90087 0.38941-0.0174 0.017438-0.0348 0.023256-0.0582 0.023256h-0.0119c-0.029-0.0058-0.0582-0.0058-0.093-0.0058-0.42429 0-0.80789 0.4766-0.94738 0.67421-0.0406 0.052315 0.0232 0.13949 0.0232 0.13949l0.46497 0.24992c0.029 0.011606 0.0464 0.046497 0.0348 0.075556-6e-3 0.034877-0.029 0.058118-0.0582 0.058118-1.1217 0.14531-2.0284 0.76139-2.2842 0.94738-0.0408 0.029059-0.0174 0.075556 6e-3 0.087177 0.72651 0.40104 1.2787 1.2496 1.4356 1.517 0.0232 0.046497 0.0756 0.069738 0.1162 0.058118 0.0988-0.029059 0.30805-0.081374 0.54053-0.081374 0.27318 0 0.49985 0.069738 0.6684 0.20924 0.23831 0.18599 0.57541 0.22086 0.81951 0.22086 0.12201 0 0.20925-0.0058 0.22669-0.011606 0.0464-0.15112-0.0756-0.40104-0.15693-0.52309-0.38362-0.069738-0.83115-0.38941-0.88345-0.4301h-0.029c-0.26737 0-1.0171-0.25573-1.4414-0.40685-0.029-0.0058-0.0464-0.034877-0.0524-0.063935 0-0.029059 0.0174-0.052315 0.0406-0.063936 0.31386-0.16274 0.59866-0.2383 0.8602-0.2383 0.51728 0 0.75558 0.30804 0.7614 0.31967 0.0464-0.0058 0.093-0.0058 0.13941-0.0058 0.40684 0 0.61609 0.20924 0.70908 0.33129 0.0348 0.052315 0.0814 0.034877 0.093 0.0058 0.19761-0.49403-0.0348-1.2496-0.11621-1.4763-0.0119-0.023256-6e-3 -0.046497 6e-3 -0.063936 0.0119-0.023256 0.0348-0.034877 0.0582-0.034877l0.40104-0.023256c0.064-0.092994 0.0988-0.31386 0.1046-0.61028 0-0.034877 0.0174-0.058118 0.0464-0.069738 6e-3 0 0.0174-0.0058 0.0232-0.0058 0.0232 0 0.0408 0.011606 0.0524 0.023256 0.0872 0.098812 0.15111 0.20343 0.18017 0.25573 0.0119 0.011606 0.0119 0.029059 0.0119 0.046497-0.25573 1.4182-0.61027 3.3652-0.86019 4.6148-6e-3 0.029059-0.029 0.046497-0.0582 0.052315-6e-3 0.0058-0.0119 0.0058-0.0174 0.0058m-2.8712-8.23c0.0232 0 0.0464 0.0116 0.0582 0.02906 0.0174 0.01744 0.0232 0.0465 0.0119 0.06974l-0.46497 1.0869s0.0406 0.04068 0.0814 0.02326c1.0288-0.5754 1.7843-1.796 1.8192-1.8483l-0.20342-0.68002c-0.4301-0.69746-1.6506-1.1217-2.1273-1.267-0.1046-0.02906-0.1162 0.01161-0.0872 0.0465 0.27899 0.2848 0.44172 0.53472 0.51729 0.6684 0.0119 0.02906 0.0119 0.05812-6e-3 0.08137-0.0119 0.01744-0.0348 0.02906-0.0582 0.02906h-0.0119l-1.4182-0.22086c-0.60446 0.06974-1.4414 1.145-1.5344 1.267-0.0119 0.01744-0.0232 0.02326-0.0406 0.02906l-0.83695 0.20924c0.0756 0.78464 0.96481 1.3426 0.99969 1.3659l0.43591-0.52309c0.0174-0.01744 0.0348-0.02906 0.0582-0.02906 0.0119 0 0.0232 0.0058 0.0348 0.01161 0.24411 0.15693 0.87763 0.27317 1.3891 0.34873 0.13942 0.01744 0.22087 0.0058 0.14537-0.02326-0.45915-0.14531-0.77883-0.39523-0.97644-0.59284-0.029-0.02906-0.029-0.06394-0.0174-0.093 0.0174-0.02326 0.0406-0.03488 0.064-0.03488 0.0119 0 0.0174 0 0.0232 0.0058 0.26736 0.07556 0.6161 0.11625 1.0346 0.11625 0.45333 0 0.88344-0.0465 1.1043-0.07556h6e-3m-7.8057 6.8235c-1.2031-0.0058-2.0633-0.29642-2.5457-0.87182-0.29061-0.34292-0.38942-0.72071-0.41266-0.97644-6e-3 -0.034877 0.0174-0.063936 0.0464-0.075556 0.0119-0.0058 0.0174-0.0058 0.0232-0.0058 0.029 0 0.0524 0.017438 0.064 0.04068 0.24993 0.45335 0.69746 0.72652 0.98806 0.8602 0.14537 0.069738 0.15112 0.046497 0.0988 0.011606-0.77883-0.52891-0.76139-1.6565-0.74977-1.8948 0-0.029059 0.0232-0.058118 0.0524-0.063936 0.0522-0.011606 0.0988-0.017438 0.15112-0.017438 0.33129 0 0.56958 0.27317 0.68583 0.4301 0.0119 0.029059 0.0174 0.058118 0 0.081374-0.0119 0.023256-0.0348 0.034877-0.0582 0.034877-6e-3 0-0.37198-0.017438-0.38362-0.017438 0 0.94157 1.1566 1.2787 1.1682 1.2787l0.99388 0.36035c0.029 0.017438 0.0464 0.046497 0.0406 0.081374l-0.0872 0.68583c-6e-3 0.034877-0.0408 0.058118-0.0756 0.058118m-37.628-2.0401c-6e-3 0-0.0174 0-0.0232-0.0058-0.029-0.011606-0.0524-0.04068-0.0464-0.069738 6e-3 -0.38941-0.0756-0.84276-0.24992-1.3542-0.0119-0.034877 6e-3 -0.075556 0.0348-0.087177 0.0119-0.0058 0.0232-0.011606 0.0348-0.011606 0.0174 0 0.0406 0.0058 0.0582 0.023256 0.12781 0.15693 0.34292 0.39523 0.63934 0.67421 0.0232 0.023256 0.029 0.052315 0.0232 0.081374-0.0988 0.25573-0.27898 0.52891-0.41266 0.7149-0.0119 0.023256-0.0348 0.034877-0.0582 0.034877m36.506-2.9351c-0.0348-0.0058-0.0582-0.034877-0.0582-0.069738-0.0174-0.22667 0.0348-0.44172 0.13941-0.6219 0.18599-0.30223 0.52891-0.51147 1.0346-0.61609h0.0174c0.0232 0 0.0464 0.01161 0.0582 0.03488 0.0174 0.02326 0.0174 0.05232 0 0.08137l-0.24993 0.34873c-6e-3 0.01744-0.0232 0.02326-0.0348 0.02906-0.0988 0.03488-0.61029 0.2383-0.82533 0.7672-0.0119 0.029059-0.0408 0.046497-0.0698 0.046497h-0.0119m-2.4411-0.10462c-0.0119 0-0.0232 0-0.029-0.0058-0.0348-0.017438-0.0522-0.052315-0.0406-0.087177 0.16855-0.65096 0.69164-1.4705 0.7149-1.5053-0.0698 0.0116-0.15693 0.05232-0.24993 0.11043-0.0174 0.0058-0.029 0.0058-0.0406 0.0058-0.0174 0-0.0348-0.0058-0.0464-0.01744-0.0232-0.02326-0.0348-0.05232-0.0174-0.08718 0.24993-0.53472 0.76139-0.84858 1.0462-0.98225 0.40104-0.19761 0.80789-0.69164 1.0171-0.97063 0.0119-0.01744 0.0348-0.02906 0.0582-0.02906 0.0119 0 0.0232 0.0058 0.0348 0.0058 0.029 0.01744 0.0464 0.05232 0.0348 0.08718-0.093 0.34292-0.24411 0.65096-0.24411 0.65677 0.0119 0 0.65096-0.05232 0.65678-0.05232 0.0232 0 0.0522 0.01744 0.064 0.0465 0.0119 0.02906 6e-3 0.05812-0.0174 0.08137-0.1918 0.18599-0.6219 0.5754-1.3019 1.0462-0.70328 0.48822-1.2903 1.2554-1.5809 1.6681-0.0119 0.017438-0.0348 0.029059-0.0582 0.029059m1.453-0.49403c-0.0174 0-0.029 0-0.0408-0.01161-0.029-0.01744-0.0406-0.05812-0.029-0.08718 0.24992-0.5754 0.97064-1.5809 2.9758-1.8831h0.0119c0.0232 0 0.0522 0.01161 0.064 0.03488 0.0119 0.02326 0.0119 0.05812-6e-3 0.08137l-0.63934 0.83114c-0.0119 0.01161-0.029 0.02326-0.0524 0.02326-0.23249 0.01744-1.4414 0.11625-2.2319 0.98807-0.0174 0.01744-0.0348 0.02326-0.0522 0.02326m7.765-1.9878c-0.0232 0-0.0464-0.01161-0.0582-0.02906-0.0174-0.02906-0.0174-0.06393 6e-3 -0.08718 0.20925-0.2383 0.54635-0.51728 0.93577-0.51728 0.35453 0 0.6742 0.22668 0.87762 0.41848 0.0232 0.02326 0.029 0.06394 0.0119 0.093-0.0119 0.02326-0.0348 0.03488-0.064 0.03488-6e-3 0-0.0119 0-0.0174-0.0058-0.16855-0.05232-0.36618-0.07556-0.58122-0.07556-0.41266 0-0.81951 0.08718-1.0869 0.16855h-0.0232m-5.7947-1.238c-0.0232 0-0.0408-0.0058-0.0524-0.02326-0.0232-0.01744-0.029-0.0465-0.0174-0.07556 0.093-0.25573 0.2383-0.78464 0.14536-1.4007-6e-3 -0.02326 0-0.0465 0.0174-0.06394 0.29061-0.2848 2.8538-2.7956 4.6439-3.1153 6e-3 -0.0058 6e-3 -0.0058 0.0119-0.0058h0.0119c0.0988 0.01744 0.64515 0.09299 1.3252 0.29061 6e-3 -0.0058 0.56378-0.33711 1.1392-0.33711 0.4359 0 0.7672 0.18599 0.98807 0.55216 0.0119 0.02326 0.0119 0.05812-0.0119 0.08137-0.0119 0.01744-0.0348 0.02906-0.0524 0.02906-6e-3 0-0.0174 0-0.029-0.0058-0.18598-0.06974-0.49984-0.15693-0.88926-0.15693-0.6219 0-1.5576 0.22668-2.4876 1.2961-0.0119 0.01161-0.0232 0.01744-0.0348 0.02326-0.22667 0.05812-2.0924 0.58122-2.8131 1.3252-0.0464 0.0465-0.0174 0.11625-0.0174 0.11625l1.0752-0.32548h0.0232c0.029 0 0.0522 0.01161 0.064 0.04068 0.0174 0.02906 6e-3 0.06974-0.0232 0.08718-0.6277 0.45916-1.8483 1.2903-2.9933 1.6623-6e-3 0.0058-0.0174 0.0058-0.0232 0.0058m38.343-4.7776c-0.0119 0-0.029-0.0058-0.0406-0.01161-0.35454-0.2383-1.0287-0.30804-1.2264-0.31967-0.0232-0.0058-0.0408-0.0116-0.0524-0.02906-0.0174-0.01744-0.0174-0.04068-0.0174-0.05812l0.1162-0.5754c6e-3 -0.03488 0.0348-0.05812 0.0698-0.05812 0.46498 0.01161 0.98226 0.13949 1.1334 0.17436 0.029 0.01161 0.0524 0.03488 0.0524 0.06974l0.0406 0.73233c0 0.02906-0.0174 0.05232-0.0406 0.06394-0.0119 0.0058-0.0232 0.0116-0.0348 0.0116m-29.497-0.9067c-0.0119 0-0.0174 0-0.029-0.0058-0.0348-0.01161-0.0524-0.05232-0.0406-0.08718 0.18019-0.6684 0.49985-1.7146 1.0171-2.877 0.0119-0.02326 0.0406-0.04068 0.0698-0.04068h6e-3c0.0348 0 0.0582 0.02906 0.064 0.05812l0.0814 0.49403 1.0752-1.4356c0.2848-0.37198 0.84857-0.69165 1.2729-0.89507 6e-3 -0.0058 0.0174-0.0058 0.029-0.0058 0.0119 0 0.0232 0 0.0348 0.0058 0.0174 0.01161 0.0348 0.02906 0.0348 0.05232 0.0348 0.19761 0.0582 0.38941 0.0814 0.58122 6e-3 0.02326-6e-3 0.05232-0.0232 0.06394-0.62772 0.55797-2.7375 2.4934-3.6094 4.0511-0.0174 0.02906-0.0406 0.04068-0.064 0.04068m-4.3533-0.08137c-0.0232 0-0.0464-0.01744-0.064-0.03488-0.42429-0.67421-0.3313-1.453-0.32548-1.4879l-0.56958 0.23249c-0.0119 0-0.0174 0.0058-0.029 0.0058-0.0119 0-0.0232-0.0058-0.0348-0.0116-0.0174-0.01161-0.029-0.02906-0.0348-0.0465-0.1046-0.47078-0.0872-0.95319 0.0524-1.4705 6e-3 -0.02906 0.029-0.0465 0.064-0.05232h6e-3c0.029 0 0.0524 0.01744 0.064 0.04068 0.47079 0.91251 1.2264 1.331 1.6332 1.4995 0.0232 0.0058 0.0348 0.02326 0.0406 0.0465 6e-3 0.02326 0 0.0465-0.0119 0.06394-0.42429 0.56378-0.63352 0.97644-0.72652 1.1682-0.0119 0.02326-0.0348 0.04068-0.0582 0.0465h-6e-3m34.21-0.69165c-0.0174 0-0.029-0.0058-0.0408-0.0116-0.45335-0.29061-1.0287-0.31967-1.2554-0.32548-0.0232 0-0.0406-0.0058-0.0522-0.01744-0.0174-0.01744-0.0232-0.04068-0.0232-0.05812l0.13361-1.4414c0-0.02906 0.0232-0.05812 0.0582-0.06394 0.15111-0.02906 0.30804-0.04068 0.45916-0.04068 0.49984 0 0.87762 0.15112 1.0113 0.21505 0.029 0.01744 0.0464 0.0465 0.0406 0.08137l-0.26154 1.5983c0 0.02326-0.0174 0.0465-0.0406 0.05812-0.0119 0-0.0174 0.0058-0.029 0.0058m3.1618-2.8247c-0.029 0-0.0582-0.01161-0.0698-0.04068-0.24992-0.54634-0.92994-1.8889-1.7553-2.505-0.0174-0.01161-0.029-0.02906-0.029-0.0465 0-0.02326 6e-3 -0.04068 0.0174-0.05812 0.22087-0.27898 0.35454-0.52891 0.35454-0.65677 0 0-2.1854-0.07556-2.2028-0.07556-0.0406 0.03488-1.0694 0.73814-1.4182 1.3019-0.0119 0.02326-0.0348 0.03488-0.064 0.03488-6e-3 0-0.0119 0-0.0174-0.0058-0.029-0.0058-0.0524-0.02906-0.0524-0.06394l-0.0406-0.40685c0-0.01161 0-0.02906 6e-3 -0.04068 0.0756-0.12787 0.47659-0.79626 1.3658-1.331 6e-3 -0.0058 0.0174-0.01161 0.029-0.01161l2.0924-0.22667-0.0119-0.08718-1.1334-0.69165-1.4647 0.70327c-0.0119 0.0058-0.0174 0.01161-0.0348 0.01161-6e-3 0-0.0119-0.0058-0.0174-0.0058l-0.46498-0.15112c-0.029-0.0116-0.0464-0.03488-0.0524-0.06394 0-0.02906 0.0119-0.05812 0.0348-0.06974l1.9529-1.1915c0.0119-0.0058 0.0232-0.0058 0.0348-0.0058 0.0119 0 0.0232 0 0.029 0.0058l1.1101 0.45916 0.0119-0.06394-1.1508-0.96482-2.0749 1.2089c-0.0119 0.0058-0.0232 0.01161-0.0406 0.01161-0.0119 0-0.0174-0.0058-0.029-0.01161-0.0232-0.0058-0.0408-0.02906-0.0408-0.05812l-0.029-0.3836c-6e-3 -0.02906 0.0119-0.05812 0.0348-0.06974l2.2377-1.2961c0.0119-0.0058 0.0232-0.01161 0.0348-0.01161 0.0119 0 0.0232 0.0058 0.0348 0.01161l1.0869 0.64515c6e-3 0.0058 6e-3 0.0058 0.0119 0.01161l1.0753 0.98225c0.0119 0.0058 0.0174 0.01744 0.0174 0.02906l0.70908 1.9994c6e-3 0.0058 6e-3 0.01744 6e-3 0.02326l-0.0232 3.0863c0 0.03488-0.0232 0.06394-0.0582 0.06974h-0.0119m-5.9575-5.446c-0.029 0-0.0524-0.01744-0.064-0.05232l-0.15111-0.4766c-6e-3 -0.03488 6e-3 -0.06394 0.029-0.08718l0.2441-0.16855c0.0119-0.0058 0.029-0.0116 0.0408-0.0116 0.0119 0 0.0232 0.0058 0.029 0.0058 0.0232 0.01161 0.0406 0.03488 0.0406 0.05812 0.0232 0.14531 0.0348 0.42429-0.0988 0.69165-0.0119 0.02906-0.0348 0.04068-0.064 0.04068h-6e-3m1.8715-1.3833c-0.0174 0-0.029-0.0058-0.0406-0.01161-0.0232-0.01161-0.0348-0.04068-0.0348-0.06394l0.18017-3.7895c6e-3 -0.03488 0.029-0.06394 0.0698-0.06974 0.14537-0.01161 0.3371-0.02326 0.54053-0.02326 0.0756 0 0.15111 0 0.22667 0.0058 0.0348 0 0.064 0.02906 0.064 0.06974l0.064 2.5225 0.0524-0.03488 0.30805-2.4179c0-0.02326 0.0119-0.04068 0.029-0.05232 0.0119-0.01161 0.029-0.01161 0.0464-0.01161h0.0119c0.20924 0.03488 0.40685 0.08137 0.59284 0.13367 0.029 0.01161 0.0524 0.04068 0.0524 0.07556l-0.17436 3.3478c0 0.02326-0.0174 0.0465-0.0406 0.05812-0.0119 0.0058-0.0174 0.0058-0.029 0.0058-0.0174 0-0.029 0-0.0406-0.0058l-0.69746-0.44172-1.145 0.69164c-0.0119 0.0058-0.0232 0.0116-0.0348 0.0116m2.4992-6.0098c-0.0119 0-0.0232 0-0.0348-0.0058-0.51728-0.2848-1.2845-0.34292-1.8366-0.34292-0.1918 0-0.34292 0.0058-0.43011 0.01161h-6e-3c-0.0174 0-0.0348-0.0058-0.0524-0.01744-0.0119-0.01744-0.0174-0.03488-0.0232-0.05812l-0.0464-2.4004c0-0.03488 0.0232-0.06394 0.0522-0.07556 0.2383-0.07556 0.48241-0.12205 0.72652-0.12205 1.0404 0 1.8599 0.73814 2.011 0.88345 0.0174 0.01744 0.0232 0.04068 0.0232 0.06394l-0.30804 2.0052c-6e-3 0.02326-0.0174 0.04068-0.0406 0.05232-0.0119 0.0058-0.0232 0.0058-0.0348 0.0058m4.2545-3.9639c-0.0348 0-0.064-0.02326-0.0698-0.05812-0.38942-1.4937-2.5108-2.7433-5.1496-3.0339-0.30223-0.03488-0.62771-0.05232-0.95319-0.05232-0.19762 0-0.40103 0.0058-0.61028 0.02326h-6e-3c-0.029 0-0.0582-0.01744-0.0698-0.0465l-0.34292-0.78464c-0.0119-0.01744-0.0119-0.0465 6e-3 -0.06394 0.0119-0.01744 0.029-0.03488 0.0522-0.03488 0.20925-0.02906 0.45336-0.0465 0.7614-0.05812-0.37778-0.32548-0.97063-0.75558-1.6274-0.97063-0.0348-0.01161-0.0522-0.0465-0.0464-0.08137 6e-3 -0.03488 0.0348-0.05812 0.0698-0.05812 1.0462 0.02326 2.8944 0.22086 3.4931 1.2496 2.691 0.49985 4.6149 2.1331 4.5625 3.8941 0 0.04068-0.029 0.06974-0.064 0.07556h-6e-3m1.5054-2.3888c-0.0174 0-0.0406-0.0058-0.0582-0.02326-0.54634-0.62771-1.8831-2.1098-2.4934-2.4179-0.1046-0.05232-0.21504-0.07556-0.32548-0.07556-0.52309 0-0.9532 0.56378-1.0694 0.73814-6e-3 0.01744-0.0232 0.02906-0.0464 0.02906 0 0.0058-6e-3 0.0058-0.0119 0.0058-0.0119 0-0.029-0.0058-0.0408-0.01744-0.54053-0.37198-0.87181-0.97644-1.052-1.4182-0.0174-0.02906-6e-3 -0.06394 0.0232-0.08137 0.0119-0.01161 0.029-0.01744 0.0406-0.01744 0.0174 0 0.0348 0.0058 0.0524 0.02326 0.52309 0.48822 1.174 0.55216 1.6797 0.55216 0.24412 0 0.47661-0.01744 0.7091-0.03488 0.20923-0.01161 0.40684-0.02326 0.59282-0.02326 0.31386 0 0.52891 0.04068 0.69166 0.13367 0.59865 0.35454 1.1217 1.7378 1.3775 2.5341 0.0119 0.02906-6e-3 0.06974-0.0348 0.08718-0.0119 0.0058-0.0232 0.0058-0.0348 0.0058m-5.6843-2.4818c-0.0232 0-0.0464-0.01161-0.064-0.02906-0.37197-0.58122-1.2205-1.1857-2.104-1.4995-0.9532-0.34292-1.0869-0.74977-1.0985-0.91251 0-0.02906 0.0119-0.05232 0.0348-0.06974 0.32548-0.16274 0.64514-0.24992 0.96481-0.24992 1.1741 0 1.9064 1.1682 1.9122 1.1857 0.2383 0.23249 0.36036 0.94157 0.4301 1.4937 0 0.03488-0.0174 0.06974-0.0522 0.08137h-0.0232" fill="#75a8de"/>
<path d="m-238.88 4.6825c0.0756-0.011606 0.22086-0.023256 0.29642-0.023256 0.79045 0 2.1563-0.10462 3.2316-0.19761 0.0232-0.24992 0.0464-0.52891 0.0698-0.81951-0.029 0-0.73234-0.10462-0.73234-0.10462-0.74395-0.11043-1.2903-0.74977-1.2903-1.4995v-0.13949c-1.3077 0.052315-2.6155 0.092995-3.9232 0.16855v3.1444c1.0055-0.29061 1.8657-0.45335 2.3481-0.52891m-2.3481-2.6155v-14.013c-4.888 0.27317-9.7702 0.69165-14.647 1.2496v14.013c4.8764-0.55797 9.7586-0.97644 14.647-1.2496m-27.805-13.054c0.36617 0.09881 0.68003 0.33129 0.88926 0.65096l0.15693 0.24411s0.32548 0.43591 0.99388 0.93576c3.6965-0.58122 7.4047-1.1159 11.119-1.5402v-14.031c-4.8706 0.55215-9.7295 1.2496-14.565 2.0808v11.287zm12.008 14.745-0.093 0.43591c0.064 0.069738 0.12201 0.13949 0.18599 0.21505l0.1162 0.13949c0.14537 0.18599 0.24993 0.40104 0.30224 0.63352l0.0406 0.18018c0.25574 0.22086 0.44173 0.46497 0.59865 0.71489v-2.7608c-0.37778 0.046497-0.75558 0.10462-1.1334 0.14531-6e-3 0.098812 6e-3 0.19761-0.0174 0.29642m15.797 94.628v6e-3c0.24992 0.2848 0.50567 0.5696 0.75559 0.84858-0.24992-0.2848-0.50567-0.5696-0.75559-0.85439m-29.212-97.29-0.6219-0.50566c-0.41848-0.34873-0.61609-0.90088-0.52309-1.4356l0.0756-0.41266c-0.95318-0.83695-1.546-1.8192-1.6739-2.0517l-0.13942-0.24411c-0.18017-0.31967-0.23829-0.68583-0.16855-1.0462l0.0582-0.27898c0.30805-1.5518 0-2.6097-6e-3 -2.6213l-0.0814-0.24411c-0.029-0.092994-0.029-0.18599-0.0406-0.2848-3.1386 0.58703-6.2655 1.2206-9.3866 1.918 0.54635 4.6148 1.1973 9.1425 1.9471 13.589 3.5105-0.75558 7.0269-1.4647 10.561-2.0749zm29.212 91.431 0.0872-0.06978c-0.029-0.01741-0.0582-0.04062-0.0872-0.05818zm-0.0582-70.24c-2.2319 1.639-4.6207 1.7669-5.3007 1.7669-0.19761 0-0.30222-0.0058-0.30222-0.0058l-0.17437-0.0116c-0.22667-0.01744-0.44754-0.08718-0.64515-0.19761l-0.64515-0.37198-1.3368 0.10462c0.98807 1.9936 2.1331 4.3359 3.3827 6.899 1.6913-0.13367 3.3827-0.26736 5.0798-0.36617v0.41266c0.0698-0.13949 0.14537-0.2848 0.21506-0.42429-0.0698 0.0058-0.14537 0.0058-0.21506 0.01161v-7.8638zm-28.294-7.7592c-0.0756-0.20924-0.14537-0.41848-0.19763-0.63934l-0.0348-0.13949c-0.0524-0.18599-0.064-0.3836-0.0408-0.5754l0.93576-7.0443c0.0232-0.17437 0.0756-0.34292 0.15111-0.49985l0.16855-0.31967-0.0814-0.18599c-0.58704 0.098812-1.1741 0.18018-1.7611 0.27898v9.7005zm43.51-44.254c0.84277 0.7149 1.6158 2.104 1.9994 2.8654l0.13361 0.27317c0.0406 0.07556 0.0582 0.15112 0.0814 0.22667 0.50565 0.0058 1.0113 0.01161 1.517 0.02326l0.34292-0.09881c0.12201-0.03488 0.24991-0.05232 0.37198-0.05812 0.6742-0.33129 1.2496-0.51728 1.3833-0.55797l0.76721-0.24411c0.14537-0.04068 0.29642-0.06974 0.45335-0.06974 0.26155 0 0.51147 0.06974 0.73814 0.1918 0.36036 0.20342 0.6219 0.54634 0.72652 0.94738 1.9006 0.06974 3.7953 0.13367 5.6959 0.24411v-13.978c-4.888-0.27898-9.7877-0.41848-14.687-0.42429v10.334c0.12781 0.05812 0.2441 0.12787 0.35454 0.21505zm8.7822 17.704 0.0698 0.2383c0.0872 0.30223 0.0872 0.62771-0.0174 0.92413l-0.69745 2.0284 0.14536 0.64515c0.0406 0.19761 0.0464 0.40104 0.0119 0.59865l-0.0232 0.15112c-1.0404 5.8993-1.2438 6.4108-1.3136 6.6026-0.0756 0.17437-0.24412 0.60446-1.0927 1.6971l0.16275 0.87764c2.011 0.052315 4.0278 0.13367 6.0388 0.23249 0.81951-0.39523 1.1508-0.55215 1.4124-0.63934 0.13942-0.075556 0.39522-0.21505 0.73234-0.40685v-12.874c-1.8308-0.11043-3.6559-0.17436-5.4809-0.2383 0.0232 0.06974 0.0408 0.12787 0.0524 0.16274m3.8534 112.16h-6e-3c-0.029 0.0348-0.0582 0.0698-0.0872 0.0988 0.029-0.0348 0.064-0.064 0.093-0.0988m12.74-111.18c0.68002-1.3833 1.4879-2.9409 2.4237-4.6846 0-0.0116-0.0464-0.15693-0.0464-0.15693-0.064-0.18599-0.093-0.37779-0.0814-0.56959 0 0 6e-3 -0.15112 6e-3 -0.16274l-0.47661-0.32548c-0.3371-0.22667-0.56377-0.5754-0.63352-0.97063-0.0756-0.40104 0.0119-0.80789 0.24412-1.1392l0.43589-0.63934 0.4243-0.58122 0.064-1.9878c-0.47659-0.89507-0.69746-1.8541-0.7614-2.1621l-0.064-0.33129c-0.0174-0.05812-0.0174-0.11043-0.0174-0.16855-4.2254-0.45335-8.4509-0.81951-12.682-1.0578v14.036c3.7256 0.20924 7.4454 0.52891 11.165 0.90088m-40.534-28.933c-2.5806 0.14531-5.1612 0.33129-7.7418 0.55216-2.3016 0.19761-4.6032 0.42429-6.9048 0.69165v14.007c4.8764-0.55797 9.7586-0.97644 14.647-1.2554zm-43.69 6.2016v0.05232h6e-3v-0.05232h-6e-3m45.271 7.7243c-0.52889 0.02906-1.052 0.04068-1.5809 0.06974v1.6448c0.5231-0.62771 1.052-1.1973 1.5809-1.7146m4.4289 9.3459c0.12201-0.40104 0.27317-0.77883 0.43592-1.1334-0.6219 0.07556-1.5054 0.37198-2.1912 1.3891l-0.16275 0.23249c-0.19761 0.30223-0.50565 0.52309-0.86601 0.61609l-3.2257 0.85439v2.8015c0.8602-0.05232 1.7204-0.06974 2.5806-0.11625 0.98806-2.2667 2.5341-3.8593 3.4292-4.6439m-35.222-19.947c-4.8473 0.83695-9.6714 1.8134-14.472 2.9293v0.15693c0.12781 4.673 0.35454 9.2529 0.6742 13.699 4.58-1.0462 9.1774-1.9761 13.798-2.7782zm73.227 68.008c-3.7605-0.42429-7.5267-0.74977-11.293-1.0113-0.13941 1.1392-0.24992 2.2784-0.27898 3.2722-0.0522 1.7378 0.81951 6.3585 1.7785 10.857 3.2722 0.24992 6.5329 0.53472 9.7935 0.9067v-14.019c4.8706 0.55797 9.7295 1.2554 14.571 2.0866v14.019c0.0406 0.0058 0.0756 0.01744 0.12201 0.02326 1.5635-4.2836 3.0049-8.6892 4.3184-13.211-1.4821-0.2848-2.9584-0.58122-4.4405-0.83114v-14.013c-4.8415-0.83695-9.7005-1.5344-14.571-2.0924zm22.452-10.427c0.98806-4.394 1.8773-8.8752 2.6503-13.455-3.4989-0.75558-7.0095-1.4588-10.532-2.0691v14.031c2.6329 0.45335 5.26 0.95319 7.8813 1.4937m-7.8813-43.574v14.036c4.1731 0.72071 8.3288 1.5635 12.473 2.4934 0.4301-3.6558 0.80207-7.364 1.1043-11.119 0.0698-0.87182 0.12781-1.7553 0.1918-2.6387-4.5683-1.0462-9.16-1.9761-13.769-2.7724m-14.571 82.033c3.1095 0.35454 6.2132 0.78464 9.3169 1.2554 0.54634-1.1973 1.0869-2.4062 1.61-3.621 1.2845-2.9991 2.4934-6.0679 3.6442-9.1948v-0.36035c-4.8415-0.83695-9.7005-1.5286-14.571-2.0866zm-73.227-11.502v-0.41847c-0.0522 0.0058-0.0988 0.01744-0.14522 0.02906 0.0464 0.12787 0.093 0.26155 0.14522 0.38942m65.532 10.747c-0.20923 2.1098-0.6219 4.9984-1.4588 8.5729-0.43592 1.8831-0.89507 3.621-1.3542 5.2542 3.5047 0.25574 7.0094 0.55797 10.508 0.959v-14.031c-2.5632-0.29061-5.1321-0.54053-7.6953-0.75558m13.525-61.022c-0.0406 0.092995-0.12201 0.24411-0.18017 0.32548l-3.993 5.5971c4.3126 0.52309 8.6194 1.1334 12.915 1.8715v-14.013c-2.1389-0.36617-4.2777-0.69746-6.4166-1.0113-1.0346 4.3126-2.2377 7.0443-2.3249 7.2303m-9.4099 11.944-6.0272 6.0504-0.0582 0.84276c3.2257 0.24992 6.4457 0.52891 9.6656 0.89507v-10.346zm16.012-46.503-0.2906 0.84857c-0.17437 0.52309-0.61609 0.91251-1.1566 1.0113-0.093 0.01744-0.18598 0.02326-0.27318 0.02326-0.41265 0-0.80207-0.16274-1.0869-0.45916-0.51146 0.3836-1.1159 0.70327-1.796 0.95319-0.0119 0.05232-0.029 0.10462-0.0464 0.15112 0.24993 0.24411 0.41268 0.5754 0.44755 0.94157l0.46498 5.0333 0.65676 1.796c0.0524 0.15693 0.0872 0.31386 0.0872 0.48241l0.0814 2.7317c1.6797 0.25574 3.3652 0.50566 5.0508 0.79045v-13.967c-0.71488-0.12205-1.4298-0.22086-2.1389-0.3371m-12.432 115.2c0.90087-1.4821 1.7843-2.9758 2.6445-4.4928-0.88345-0.11043-1.7669-0.2383-2.6445-0.34292zm-67.996-17.599c2.0633 4.5219 4.2835 8.8984 6.6665 13.106 0.88925-0.11043 1.7785-0.2383 2.6678-0.34292v-14.031c-3.1153 0.36036-6.2306 0.79045-9.3343 1.267m19.674-2.2377c-0.28479-1.8773-0.46497-3.7546-0.52891-5.6145-1.3426-2.6736-2.6794-5.3646-3.9755-8.0033-1.9471 0.17436-3.8942 0.36035-5.8354 0.58122v14.007c3.4408-0.39523 6.8874-0.71489 10.34-0.97063m3.0456 13.839c-4.4696 0.27898-8.9333 0.65677-13.385 1.1624v4.8648c1.796 2.9526 3.6791 5.818 5.6436 8.5962 1.3077-0.12201 2.6155-0.23249 3.9232-0.3371-0.62771-1.7902-0.64515-3.2606-0.64515-3.3769v-0.69746c0-0.79626 0.61027-1.453 1.4007-1.517l0.69746-0.0465c0.23249-0.02906 1.1915-0.26736 2.6271-0.67421-0.47079-2.6329-0.40685-5.7657-0.26154-7.9743m29.671 13.891c0.31968 0.01741 0.63934 0.02321 0.95902 0.04062v-2.0866c-0.35456 0.78465-0.67422 1.4705-0.95902 2.0459m-43.056-53.326c-0.22667-0.45916-0.44753-0.92413-0.66258-1.3775-4.6497 0.54634-9.2878 1.2031-13.903 2.0052v-11.775c-0.0582 0-0.1046 0.01744-0.15693 0.01744-1.1915 0-2.29-0.67421-2.8421-1.7146-1.639 0.30804-3.2722 0.6219-4.9055 0.95319 1.0288 4.5625 2.1738 9.0146 3.4408 13.356 1.4821-0.2848 2.97-0.58122 4.4637-0.83695v14.019c4.8357-0.83695 9.6947-1.5286 14.565-2.0866zm44.015 65.538c0.1104-0.12781 0.22085-0.26156 0.33128-0.38942-0.1104 0.12781-0.22087 0.24992-0.33128 0.37778zm0-5.9749 3.1153 2.2435c2.0226-2.505 3.9871-5.0856 5.8644-7.7476-2.9874-0.27898-5.9807-0.51727-8.9798-0.69164zm-14.687 7.8348c-8.3521 0-15.123 6.7653-15.123 15.123 0 8.3521 6.7712 15.123 15.123 15.123 8.3463 0 15.117-6.7712 15.117-15.123 0-8.3579-6.7712-15.123-15.117-15.123m4.1673 17.018 2.5864 7.9394-6.7595-4.9054-6.7479 4.9054 2.5806-7.9394-6.7537-4.9055h8.3462l2.5748-7.9394 2.5806 7.9394h8.3462z" fill="#cf1c2b"/>
<path d="m-205.65 117.42h-0.87182v-0.86603h2.7085v0.86603h-0.88345v4.2835h-0.9532z" fill="#14213a"/>
<path d="m-203.46 116.55h1.4472l0.55797 4.1208 0.55215-4.1208h1.4647v5.1496h-0.88927v-4.3359l-0.66258 4.3359h-1.0229l-0.6684-4.3359v4.3359h-0.77883z" fill="#14213a"/>
<g>
<use x="1267.6722" y="189.5125" width="100%" height="100%" xlink:href="#h"/>
</g>
</g>
</svg>
