<svg xmlns="http://www.w3.org/2000/svg" width="272.252308644" height="367.306343509" viewBox="0 0 38.466 51.896">
  <title>Loudoun United FC logo</title>
  <g>
    <g>
      <g>
        <path id="crest-white" d="M38.466,18.836h-.01c.007.284.01.571.01.857A36.8042,36.8042,0,0,1,19.234,51.896,36.80205,36.80205,0,0,1,0,19.693c0-.286.003-.573.01-.857H0V1.792A93.76,93.76,0,0,1,19.234,0,93.97189,93.97189,0,0,1,38.466,1.792Z" style="fill: #fff"/>
        <g id="red">
          <polygon points="19.242 28.942 3.756 28.942 2.901 12.598 19.242 28.942" style="fill: #ec222f"/>
          <polygon points="35.581 12.543 34.717 13.413 25.594 22.565 24.594 23.571 23.924 24.245 19.242 28.942 19.242 11.141 35.581 12.543" style="fill: #ec222f"/>
          <polygon points="34.695 28.962 29.272 38.968 19.242 28.942 34.695 28.962" style="fill: #ec222f"/>
          <polygon points="19.242 48.688 11.09 42.244 9.172 39.013 19.242 28.942 19.242 48.688" style="fill: #ec222f"/>
        </g>
        <path id="crest-black" d="M36.50888,3.74869a82.55642,82.55642,0,0,0-17.263-1.644,82.56346,82.56346,0,0,0-17.263,1.644v15.619h.009c-.005.261-.009.522-.009.787a33.83187,33.83187,0,0,0,17.263,29.51,33.83668,33.83668,0,0,0,17.263-29.51c0-.261-.003-.526-.01-.787h.01Zm-1.789,14.159h-1.289v2.208h-.007c.007.229.007.461.007.693,0,.51-.014,1.013-.039,1.516l1.27.164a31.75428,31.75428,0,0,1-.574,4.391l-1.247-.168c-.155.767-.342,1.522-.555,2.263q-.25952.9-.574,1.776l1.152.5a31.19324,31.19324,0,0,1-1.793,4.068l-1.158-.525a29.7666,29.7666,0,0,1-1.856,3.008c-.161.231-.329.46-.497.686l1.106.69a31.48592,31.48592,0,0,1-2.918,3.462l-1.011-.883a30.162,30.162,0,0,1-3.215,2.798l.848,1.1a31.53769,31.53769,0,0,1-3.128,2.13c-.008-.006-.022-.012-.032-.019a32.61893,32.61893,0,0,1-3.094-2.111l.848-1.1a30.4001,30.4001,0,0,1-3.215-2.798l-.927.813-.084.07c-.41-.422-.806-.854-1.194-1.295q-.90747-1.04549-1.724-2.167l1.106-.69q-.267-.357-.522-.725a29.87021,29.87021,0,0,1-1.831-2.969l-1.158.525a31.19593,31.19593,0,0,1-1.793-4.068l1.152-.5c-.21-.59-.404-1.186-.577-1.792-.213-.738-.397-1.489-.552-2.247l-1.247.168a31.76343,31.76343,0,0,1-.574-4.391l1.27-.164c-.026-.503-.039-1.006-.039-1.516,0-.232.004-.464.007-.693h-.007v-2.208H3.7659v-4.465a87.51463,87.51463,0,0,1,15.441-1.28h.033a87.1795,87.1795,0,0,1,15.438,1.273c.013.004.022.004.036.007v4.465Z" style="fill: #010101"/>
        <g id="text-loudoun">
          <path d="M5.049,11.54688q.885-.13949,1.776-.264v.831q-1.5705.219-3.133.491v-8.237c.451-.077.905-.155,1.357-.226Z" style="fill: #fff"/>
          <path d="M9.7623,3.42328a1.54138,1.54138,0,0,1,1.112.248,1.00692,1.00692,0,0,1,.435.855v5.69a1.44743,1.44743,0,0,1-.477,1.192,2.51245,2.51245,0,0,1-1.364.487c-.09.009-.177.019-.268.029a1.51678,1.51678,0,0,1-1.118-.281,1.19138,1.19138,0,0,1-.474-1.021v-5.462a1.58664,1.58664,0,0,1,.449-1.118,1.88127,1.88127,0,0,1,1.214-.568c.164-.019.326-.035.491-.051m.193,1.502v-.238a.74966.74966,0,0,0-.013-.116.3258.3258,0,0,0-.029-.12c-.01-.019-.029-.048-.055-.087a.18224.18224,0,0,0-.09-.077.5752.5752,0,0,0-.129-.029.84351.84351,0,0,0-.174,0,.47078.47078,0,0,0-.39.196,1.36925,1.36925,0,0,0-.091.603v5.516c0,.361.156.526.465.49a.48885.48885,0,0,0,.402-.203,1.22438,1.22438,0,0,0,.097-.57q.01053-2.685.007-5.365" style="fill: #fff"/>
          <path d="M14.58423,3.14938c.468-.023.936-.045,1.402-.062v6.887a1.6233,1.6233,0,0,1-.112.651,1.15329,1.15329,0,0,1-.368.441,2.0413,2.0413,0,0,1-.632.326,3.53828,3.53828,0,0,1-.873.138,3.10727,3.10727,0,0,1-.854-.064,1.60072,1.60072,0,0,1-.62-.254,1.08357,1.08357,0,0,1-.322-.4,1.51594,1.51594,0,0,1-.109-.636V3.3074c.461-.036.925-.068,1.385-.097v6.963a.53738.53738,0,0,0,.139.435.57386.57386,0,0,0,.406.097.71863.71863,0,0,0,.407-.135.56227.56227,0,0,0,.155-.461q-.006-3.477-.004-6.96" style="fill: #fff"/>
          <path d="M19.09439,3.03339a2.66224,2.66224,0,0,1,.777.1.92739.92739,0,0,1,.471.312,1.21671,1.21671,0,0,1,.215.458,2.672,2.672,0,0,1,.059.603v5.29a3.47121,3.47121,0,0,1-.017.348,1.95506,1.95506,0,0,1-.054.31,1.13417,1.13417,0,0,1-.11.277.94432.94432,0,0,1-.19.226.97389.97389,0,0,1-.277.171,1.79605,1.79605,0,0,1-.377.103,3.06211,3.06211,0,0,1-.506.039c-.771,0-1.541.009-2.312.032v-8.243c.777-.023,1.547-.03,2.321-.026m-.187,7.411a.34527.34527,0,0,0,.161-.032.21611.21611,0,0,0,.101-.087.684.684,0,0,0,.048-.129.88042.88042,0,0,0,.016-.161v-5.864a.41973.41973,0,0,0-.007-.09.33205.33205,0,0,1-.019-.065.10176.10176,0,0,0-.032-.058c-.013-.01-.03-.022-.048-.038a.15414.15414,0,0,0-.065-.033c-.023-.006-.051-.013-.084-.019-.032-.007-.068-.013-.109-.02-.235,0-.468.004-.703.007v6.592c.245,0,.493-.003.741-.003" style="fill: #fff"/>
          <path d="M23.56589,3.03918a1.78785,1.78785,0,0,1,1.115.419,1.19415,1.19415,0,0,1,.438.919v5.69a1.25111,1.25111,0,0,1-.476,1.122,2.27053,2.27053,0,0,1-1.367.277c-.09-.003-.177-.009-.268-.013a1.74165,1.74165,0,0,1-1.125-.454,1.39551,1.39551,0,0,1-.477-1.093v-5.461a1.35288,1.35288,0,0,1,.448-1.048,1.62808,1.62808,0,0,1,1.222-.38c.165.006.329.013.49.022m.197,1.535v-.239a.88828.88828,0,0,0-.014-.119.30756.30756,0,0,0-.028-.122.88528.88528,0,0,0-.055-.097.2416.2416,0,0,0-.09-.09.79654.79654,0,0,0-.303-.078c-.2-.009-.329.036-.391.136a1.2861,1.2861,0,0,0-.09.589v5.517q0,.54.464.56c.207.01.342-.038.406-.141a1.12684,1.12684,0,0,0,.101-.558Z" style="fill: #fff"/>
          <path d="M28.39182,3.50687c.468.048.932.1,1.399.155v6.886a1.4949,1.4949,0,0,1-.113.635.94736.94736,0,0,1-.364.387,1.71831,1.71831,0,0,1-.629.229,3.4651,3.4651,0,0,1-.873.006,3.27748,3.27748,0,0,1-.855-.196,1.90694,1.90694,0,0,1-.619-.352,1.35929,1.35929,0,0,1-.322-.448,1.6449,1.6449,0,0,1-.109-.655v-6.869q.6915.05252,1.385.116v6.963a.6195.6195,0,0,0,.139.458.65624.65624,0,0,0,.406.161.64361.64361,0,0,0,.407-.074c.103-.065.155-.21.155-.435q-.01047-3.486-.007-6.967" style="fill: #fff"/>
          <path d="M33.26,4.15479c.451.068.899.142,1.351.216v8.237q-.6735-.117-1.345-.223V9.3288q-.663-1.41151-1.328-2.811v5.668q-.681-.0975-1.364-.184v-8.23q.639.081,1.277.174c.471,1.102.938,2.208,1.409,3.317Z" style="fill: #fff"/>
        </g>
        <g id="pegasus">
          <path d="M19.301,33.96487a4.41952,4.41952,0,0,1,0,1.39,4.0031,4.0031,0,0,1-.139.589,4.31838,4.31838,0,0,1-1.115,1.815c-.013.014-.026.026-.039.039a2.5234,2.5234,0,0,0-.226.2l-.025.026a2.19442,2.19442,0,0,0-.606,1.515,2.464,2.464,0,0,0,.025.345l.014.039.293.906.025.077a.80772.80772,0,0,1,.029.219.83812.83812,0,0,1-.335.671l-1.161,1.16a2.01387,2.01387,0,0,1-.322-1.093c0-.061.004-.119.007-.18l.219-.174.484-.384-.259-.538-.041-.09-.648-1.351a1.04306,1.04306,0,0,1-.08-.184,1.40488,1.40488,0,0,1-.084-.49,1.46431,1.46431,0,0,1,.203-.745,1.43921,1.43921,0,0,1,.499-.503,1.07672,1.07672,0,0,0,.345-.438,1.37258,1.37258,0,0,0-.296-1.37.89139.89139,0,0,0-.087-.097,2.556,2.556,0,0,1-.387-2.621,2.521,2.521,0,0,1,.563-.825l.013-.013.455-.455.523-.522.319-.319a8.62343,8.62343,0,0,1-1.832-.438l-.447-.174a4.74381,4.74381,0,0,1-1.352-.951,4.48448,4.48448,0,0,1-.618-.787,4.21769,4.21769,0,0,1-.604-2.875,4.78515,4.78515,0,0,0,1.693,1.237c.941.474,2.015.942,2.373,1.654,0,0,.181-.622-.813-1.489a6.9738,6.9738,0,0,0-1.189-.79c-1.064-.6-2.46-1.215-2.946-2.876a4.51222,4.51222,0,0,1-.136-1.773,4.04762,4.04762,0,0,1,.106-.535s.226.767,1.89,1.596a4.59634,4.59634,0,0,1,2.389,1.992,1.80989,1.80989,0,0,0-.823-1.847,9.56805,9.56805,0,0,0-1.276-.783,6.12859,6.12859,0,0,1-2.267-1.88,3.26868,3.26868,0,0,1-.638-2.311c.01-.016.016-.029.026-.046a1.97591,1.97591,0,0,0,.706.655,9.15747,9.15747,0,0,0,2.498.928,18.43206,18.43206,0,0,1,3.724,1.171,1.266,1.266,0,0,1,.754,1.028,4.16348,4.16348,0,0,1-.471,1.628,4.74865,4.74865,0,0,0-.486,1.883,1.28343,1.28343,0,0,0,1.115,1.437c.042.007.084.01.126.017.038.003.077.006.119.006a.8486.8486,0,0,0,.2-.035,1.62586,1.62586,0,0,0,.95-1.541c-.002-.075-.005-.145-.005-.22v-.106a4.78074,4.78074,0,0,1,.567-2.176,4.87462,4.87462,0,0,1,4.31-2.592,4.34344,4.34344,0,0,1,.458.023,2.94429,2.94429,0,0,0-.742.628l.551,1.306.004.006.013.03.003.006a.68616.68616,0,0,1,.042.235v.016c-.006.033-.006.065-.01.097v.032a.89535.89535,0,0,0,.052.3v.007l.158.374.444,1.057a.08471.08471,0,0,1,.017.048.09611.09611,0,0,1-.039.074l-.335.381-.042.048a.382.382,0,0,1-.558-.032l-.003-.003-.487-.571-.319-.374a1.39142,1.39142,0,0,1-.87-.928,1.13974,1.13974,0,0,0,.002,1.338c.056.058.111.116.162.177a5.47931,5.47931,0,0,1,.355.461,5.1449,5.1449,0,0,1,.876,2.428l.668-.668.067-.068a1.01186,1.01186,0,0,1,.684-.264.92879.92879,0,0,1,.168.013,1.00339,1.00339,0,0,1,.754.58l.026.058.67,1.599.384.919.045.109.045.107a1.08585,1.08585,0,0,1,.042.293,1.0383,1.0383,0,0,1-.08.4l-.004.006-.747,1.835a2.37845,2.37845,0,0,1-.619-1.032l.141-.199.284-.407a.45284.45284,0,0,0,.129-.319.43387.43387,0,0,0-.039-.184.3714.3714,0,0,0-.025-.048l-.239-.452-.084-.157-.203-.387-.39-.738-.126-.242-.268.264-1.254,1.254-.58.581a5.20614,5.20614,0,0,1-2.198,2.221c-.113.061-.229.115-.349.167a.67935.67935,0,0,1-.084.035,6.55734,6.55734,0,0,0-2.376,1.78c-.009.01-.015.019-.025.029Z" style="fill: #010101"/>
          <path d="M25.12912,22.09518l-.219-.103-.161-.074-.068-.032a.23854.23854,0,0,1-.107-.201l.01-.061.017-.122.009-.068.062.061.203.204.013.012a.80926.80926,0,0,1,.109.133c.01.012.016.022.026.035a1.27425,1.27425,0,0,1,.106.216" style="fill: #ec222f"/>
        </g>
        <g id="text-united">
          <path d="M12.14081,12.92676v3.385a.41315.41315,0,0,1-.104.293.849.849,0,0,1-.325.21,2.94493,2.94493,0,0,1-.56.171,6.2674,6.2674,0,0,1-.781.1,4.97981,4.97981,0,0,1-.76.009,2.2127,2.2127,0,0,1-.552-.084.68455.68455,0,0,1-.287-.161.36964.36964,0,0,1-.097-.274v-3.378c.41-.039.822-.074,1.232-.11v3.066a.17785.17785,0,0,0,.123.184.90692.90692,0,0,0,.361.026,1.19412,1.19412,0,0,0,.36-.078.21228.21228,0,0,0,.136-.209v-3.066c.422-.029.838-.058,1.254-.084" style="fill: #010101"/>
          <path d="M16.467,12.73v3.981c-.402.01-.806.023-1.209.039V15.403c-.396-.368-.796-.736-1.192-1.1v2.495c-.407.02-.816.042-1.222.065V12.885c.38-.023.764-.042,1.144-.061.422.435.841.873,1.264,1.312V12.769c.406-.013.809-.026,1.215-.039" style="fill: #010101"/>
          <path d="M18.39182,12.68506v3.981c-.406.003-.815.01-1.222.019v-3.98c.41-.01.816-.017,1.222-.02" style="fill: #010101"/>
          <path d="M21.63791,13.42337c.003.97.003,1.94.007,2.911v.355c-.406-.01-.816-.016-1.222-.02v-3.262c-.442-.004-.887-.004-1.328-.004l.357-.357c.12-.12.243-.242.362-.361q1.52248.0045,3.05.051c.003.12.003.242.005.361h-.005c.003.119.003.236.005.355-.409-.013-.818-.023-1.231-.029" style="fill: #010101"/>
          <path d="M26.29611,16.14407v.722c-.909-.052-1.814-.097-2.724-.125v-3.985c.845.029,1.69.071,2.535.119-.004.12-.004.236-.007.355h.007c-.004.122-.004.242-.007.364-.436-.026-.87-.048-1.306-.068v.8q.61348.02852,1.229.061c-.252.239-.503.477-.758.716-.158-.007-.317-.016-.474-.023v.983c.503.026,1.006.052,1.505.081" style="fill: #010101"/>
          <path d="M30.36191,13.57437a.60681.60681,0,0,0-.194-.219,1.14847,1.14847,0,0,0-.416-.174,4.57513,4.57513,0,0,0-.689-.103q-1.03047-.087-2.064-.155v3.985c.687.045,1.37.093,2.057.151.168.013.319.02.448.02.132,0,.241-.007.335-.016a1.33135,1.33135,0,0,0,.245-.055.62311.62311,0,0,0,.168-.084.35647.35647,0,0,0,.097-.113.58466.58466,0,0,0,.048-.132.69561.69561,0,0,0,.013-.152v-2.682a.65653.65653,0,0,0-.048-.271m-1.184,2.599a.17257.17257,0,0,1-.013.071.12825.12825,0,0,1-.042.054.17208.17208,0,0,1-.087.033.73308.73308,0,0,1-.144.003q-.33-.02847-.658-.052v-2.547c.21.017.416.033.626.049.038.007.07.01.096.016a.6618.6618,0,0,0,.075.013.17347.17347,0,0,1,.054.019.17475.17475,0,0,0,.042.02.08058.08058,0,0,1,.029.029c.006.013.013.022.016.029a.1034.1034,0,0,1,.006.042Z" style="fill: #010101"/>
        </g>
      </g>
    </g>
  </g>
</svg>
