<?xml version="1.0" encoding="UTF-8" standalone="no"?>
<svg
   viewBox="0 0 149 200"
   width="149"
   height="200"
   version="1.1"
   id="svg20"
   sodipodi:docname="Louisville_City_FC_(2020)_logo.svg"
   inkscape:version="1.2.2 (1:1.2.2+202212051552+b0a8486541)"
   xmlns:inkscape="http://www.inkscape.org/namespaces/inkscape"
   xmlns:sodipodi="http://sodipodi.sourceforge.net/DTD/sodipodi-0.dtd"
   xmlns="http://www.w3.org/2000/svg"
   xmlns:svg="http://www.w3.org/2000/svg">
  <defs
     id="defs24" />
  <sodipodi:namedview
     id="namedview22"
     pagecolor="#ffffff"
     bordercolor="#666666"
     borderopacity="1.0"
     inkscape:showpageshadow="2"
     inkscape:pageopacity="0.0"
     inkscape:pagecheckerboard="0"
     inkscape:deskcolor="#d1d1d1"
     showgrid="false"
     inkscape:zoom="3.337544"
     inkscape:cx="-40.299094"
     inkscape:cy="120.89728"
     inkscape:window-width="2560"
     inkscape:window-height="1376"
     inkscape:window-x="1920"
     inkscape:window-y="27"
     inkscape:window-maximized="1"
     inkscape:current-layer="g18" />
  <style
     id="style2">
		tspan { white-space:pre }
		.shp0 { fill: #400079 } 
		.shp1 { fill: #000000 } 
		.shp2 { fill: #ffffff } 
	</style>
  <g
     id="g18"
     inkscape:label="logo">
    <g
       id="g1025"
       inkscape:label="stars">
      <path
         d="m 95,2.83 c -0.43,1.35 -1.07,3.32 -1.42,4.38 l -0.64,1.93 c -7.48,0.1 -9.18,0.17 -9.2,0.24 -0.02,0.07 1.58,1.3 3.57,2.74 1.98,1.44 3.64,2.67 3.67,2.73 0.03,0.07 -0.58,2.07 -1.35,4.45 -0.78,2.37 -1.36,4.36 -1.31,4.41 0.05,0.05 0.22,0.01 0.37,-0.08 0.15,-0.1 1.78,-1.28 3.63,-2.62 1.84,-1.34 3.42,-2.48 3.51,-2.53 0.09,-0.05 1.58,0.95 3.84,2.6 2.04,1.48 3.75,2.64 3.8,2.58 0.06,-0.06 -0.51,-2.02 -1.27,-4.36 -0.76,-2.34 -1.38,-4.3 -1.38,-4.35 0,-0.05 0.57,-0.52 1.27,-1.04 0.71,-0.52 2.34,-1.71 3.64,-2.65 1.3,-0.94 2.37,-1.79 2.39,-1.89 0.02,-0.14 -0.68,-0.18 -4.59,-0.2 L 98.92,9.14 C 96.69,2.34 95.98,0.37 95.91,0.37 95.84,0.37 95.42,1.48 95,2.83 Z"
         id="path1021"
         style="fill:#400079;fill-opacity:1"
         inkscape:label="star2" />
      <path
         d="m 51.51,4.75 -1.43,4.39 c -8.52,0.05 -9.22,0.09 -9.2,0.23 0.02,0.1 1.09,0.95 2.39,1.89 1.3,0.94 2.93,2.13 3.64,2.65 0.7,0.52 1.27,0.99 1.27,1.04 0,0.05 -0.62,2.01 -1.38,4.35 -0.76,2.34 -1.33,4.3 -1.27,4.36 0.05,0.06 1.76,-1.1 3.8,-2.58 2.26,-1.65 3.75,-2.65 3.84,-2.6 0.09,0.05 1.67,1.19 3.51,2.53 1.85,1.34 3.48,2.52 3.63,2.62 0.15,0.09 0.32,0.13 0.37,0.08 0.05,-0.05 -0.53,-2.04 -1.31,-4.41 -0.77,-2.38 -1.38,-4.38 -1.35,-4.45 0.03,-0.06 1.69,-1.29 3.67,-2.73 1.99,-1.44 3.59,-2.67 3.57,-2.74 C 65.24,9.31 63.54,9.24 60.65,9.2 L 56.06,9.14 C 55.07,6.15 54.43,4.18 53.99,2.83 53.56,1.48 53.14,0.37 53.07,0.37 c -0.08,0 -0.78,1.97 -1.56,4.38 z"
         id="path4"
         style="fill:#400079;fill-opacity:1"
         inkscape:label="star1" />
    </g>
    <path
       class="shp1"
       d="M66.06 29.72C64.86 29.77 62.85 29.88 61.59 29.96C60.32 30.03 58.31 30.18 57.12 30.28C55.92 30.38 53.66 30.6 52.09 30.77C50.52 30.94 47.64 31.31 45.69 31.58C43.75 31.86 40.73 32.33 38.99 32.63C37.25 32.94 34.73 33.4 33.4 33.67C32.07 33.94 29.97 34.39 28.74 34.68C27.52 34.96 25.17 35.53 23.53 35.94C21.89 36.36 19.49 37 18.19 37.37C16.89 37.74 15.1 38.27 14.22 38.55C13.33 38.82 11.32 39.47 9.75 39.99C8.18 40.5 5.44 41.45 3.66 42.1C1.89 42.75 0.34 43.33 0.22 43.39C0.03 43.49 0 43.7 0 45C0 45.82 0.05 46.89 0.12 47.39C0.18 47.89 0.3 52.32 0.37 57.24C0.44 62.16 0.56 69.01 0.63 72.47C0.69 75.92 0.8 79.89 0.87 81.29C0.93 82.69 1.02 84.32 1.05 84.9C1.09 85.48 1.17 86.9 1.24 88.07C1.31 89.23 1.48 91.47 1.62 93.04C1.76 94.61 2.01 97.04 2.18 98.45C2.35 99.85 2.63 101.92 2.8 103.05C2.97 104.17 3.25 105.88 3.42 106.84C3.59 107.79 3.93 109.53 4.17 110.69C4.41 111.85 4.85 113.81 5.15 115.04C5.45 116.27 5.92 118.09 6.2 119.08C6.48 120.07 7.08 122 7.53 123.37C7.98 124.74 8.63 126.61 8.97 127.53C9.31 128.46 9.92 129.97 10.31 130.89C10.7 131.81 11.18 132.9 11.36 133.31C11.54 133.72 12.18 135.04 12.78 136.23C13.38 137.43 14.3 139.19 14.84 140.15C15.37 141.11 16.37 142.78 17.05 143.88C17.73 144.97 18.76 146.57 19.34 147.42C19.92 148.28 21.13 149.95 22.02 151.15C22.9 152.35 24.33 154.19 25.19 155.25C26.05 156.31 27.37 157.88 28.12 158.73C28.86 159.59 30.29 161.18 31.28 162.27C32.28 163.35 34.46 165.62 36.13 167.3C37.81 168.98 40.35 171.44 41.79 172.78C43.22 174.11 45.12 175.85 46.01 176.65C46.89 177.45 48.57 178.92 49.73 179.93C50.89 180.94 53.46 183.12 55.44 184.77C57.42 186.43 60.58 189.01 62.46 190.51C64.33 192.01 67.27 194.33 68.98 195.66C70.68 196.99 72.62 198.49 73.29 199.01L74.5 199.94C75.99 198.79 77.93 197.29 79.78 195.85C81.62 194.42 84.67 192.01 86.54 190.51C88.42 189 90.91 186.99 92.07 186.03C93.23 185.07 95.33 183.31 96.73 182.11C98.13 180.92 99.94 179.35 100.76 178.63C101.58 177.91 102.81 176.82 103.49 176.2C104.17 175.58 105.88 174.01 107.28 172.72C108.68 171.42 111.19 168.98 112.87 167.3C114.54 165.62 116.72 163.35 117.72 162.27C118.71 161.18 120.14 159.59 120.88 158.73C121.63 157.88 122.95 156.31 123.81 155.25C124.67 154.19 126.14 152.29 127.08 151.03C128.02 149.76 129.47 147.69 130.31 146.43C131.14 145.16 132.25 143.43 132.76 142.57C133.28 141.72 134.22 140.04 134.87 138.84C135.52 137.65 136.48 135.75 137.01 134.62C137.55 133.49 138.3 131.81 138.69 130.89C139.09 129.97 139.62 128.65 139.87 127.97C140.13 127.28 140.73 125.58 141.2 124.18C141.67 122.78 142.34 120.65 142.68 119.45C143.03 118.26 143.55 116.27 143.85 115.04C144.15 113.81 144.59 111.85 144.83 110.69C145.07 109.53 145.38 107.96 145.52 107.21C145.65 106.46 145.91 104.95 146.08 103.85C146.25 102.76 146.53 100.76 146.7 99.41C146.87 98.06 147.12 95.77 147.26 94.31C147.4 92.86 147.59 90.41 147.69 88.88C147.8 87.34 147.91 85.57 147.95 84.96C147.98 84.34 148.07 82.69 148.13 81.29C148.2 79.89 148.31 75.92 148.37 72.47C148.44 69.01 148.56 62.16 148.63 57.24C148.71 52.32 148.82 47.84 148.88 47.3C148.95 46.75 149 45.66 149 44.87L149 43.44C144.04 41.63 141.63 40.77 140.43 40.37C139.24 39.97 137.11 39.28 135.71 38.85C134.31 38.41 132.11 37.75 130.81 37.37C129.51 37 127.11 36.36 125.47 35.94C123.83 35.53 121.48 34.96 120.26 34.68C119.03 34.39 116.93 33.94 115.6 33.67C114.27 33.4 111.75 32.94 110.01 32.63C108.27 32.33 105.25 31.86 103.31 31.58C101.36 31.31 98.48 30.94 96.91 30.77C95.34 30.6 93.05 30.38 91.82 30.27C90.59 30.17 88.64 30.03 87.48 29.96C86.31 29.89 84.09 29.78 82.54 29.71C80.99 29.64 77.13 29.59 73.97 29.6C70.81 29.61 67.25 29.67 66.06 29.72Z"
       id="path6"
       inkscape:label="shield-black" />
    <path
       class="shp2"
       d="M67.55 31.03C66.9 31.05 64.89 31.16 63.08 31.27C61.27 31.37 58.47 31.57 56.87 31.71C55.26 31.84 52.72 32.09 51.22 32.27C49.72 32.44 47.29 32.75 45.82 32.95C44.35 33.16 41.97 33.52 40.54 33.76C39.11 34 36.79 34.42 35.39 34.69C33.99 34.97 31.61 35.47 30.11 35.8C28.61 36.13 26.26 36.68 24.9 37.02C23.53 37.36 21.46 37.91 20.3 38.22C19.14 38.54 16.82 39.22 15.15 39.72C13.48 40.22 10.54 41.16 8.63 41.82C6.72 42.47 4.34 43.31 3.35 43.68L1.55 44.35C1.55 46.73 1.62 51.81 1.71 57.18C1.79 62.55 1.92 69.45 1.99 72.53C2.06 75.61 2.2 79.97 2.3 82.22C2.4 84.48 2.57 87.5 2.67 88.94C2.78 90.37 2.97 92.69 3.11 94.1C3.25 95.5 3.47 97.57 3.61 98.69C3.75 99.82 4.02 101.84 4.23 103.17C4.43 104.5 4.82 106.78 5.09 108.23C5.36 109.69 5.82 111.87 6.1 113.08C6.38 114.3 6.88 116.3 7.22 117.53C7.56 118.76 8.14 120.74 8.51 121.94C8.89 123.14 9.48 124.9 9.82 125.85C10.17 126.81 10.83 128.52 11.3 129.65C11.76 130.77 12.52 132.51 12.98 133.5C13.44 134.49 14.32 136.25 14.94 137.41C15.55 138.58 16.64 140.51 17.35 141.7C18.07 142.9 19.12 144.58 19.68 145.43C20.25 146.29 21.31 147.82 22.04 148.85C22.78 149.88 24.05 151.58 24.88 152.63C25.71 153.68 26.88 155.13 27.49 155.86C28.09 156.58 29.4 158.1 30.4 159.23C31.4 160.35 33.34 162.45 34.7 163.88C36.07 165.31 38.48 167.72 40.05 169.23C41.62 170.73 43.8 172.78 44.89 173.78C45.98 174.77 48.07 176.64 49.54 177.93C51.01 179.22 53.89 181.68 55.94 183.39C57.99 185.1 61.56 188.02 63.88 189.87C66.21 191.73 69.53 194.34 71.27 195.69C73.01 197.04 74.47 198.14 74.5 198.14C74.53 198.14 75.99 197.04 77.73 195.69C79.47 194.34 82.79 191.73 85.12 189.87C87.44 188.02 91.01 185.1 93.06 183.39C95.11 181.68 97.99 179.22 99.46 177.93C100.93 176.64 103.02 174.77 104.11 173.78C105.2 172.78 107.38 170.73 108.95 169.22C110.52 167.71 112.85 165.39 114.11 164.07C115.38 162.74 117 161.01 117.72 160.22C118.43 159.43 119.66 158.03 120.45 157.11C121.24 156.19 122.58 154.57 123.42 153.51C124.27 152.45 125.41 150.97 125.97 150.22C126.52 149.47 127.54 148.04 128.23 147.05C128.92 146.06 130.07 144.29 130.78 143.13C131.5 141.97 132.47 140.32 132.95 139.47C133.43 138.61 134.26 137.04 134.8 135.99C135.34 134.93 136.1 133.36 136.48 132.5C136.87 131.65 137.57 129.97 138.05 128.78C138.52 127.58 139.14 125.96 139.42 125.17C139.7 124.38 140.21 122.85 140.55 121.75C140.89 120.66 141.44 118.76 141.78 117.53C142.12 116.3 142.62 114.3 142.9 113.08C143.18 111.87 143.64 109.69 143.91 108.23C144.18 106.78 144.57 104.5 144.77 103.17C144.98 101.84 145.25 99.82 145.39 98.69C145.53 97.57 145.75 95.5 145.89 94.1C146.03 92.69 146.22 90.37 146.33 88.94C146.43 87.5 146.6 84.48 146.7 82.22C146.8 79.97 146.94 75.61 147.01 72.53C147.08 69.45 147.21 62.55 147.29 57.18C147.38 51.81 147.45 46.73 147.45 45.88L147.45 44.35C144.66 43.31 142.28 42.47 140.37 41.82C138.46 41.16 135.52 40.22 133.85 39.72C132.18 39.22 129.86 38.54 128.7 38.22C127.54 37.9 125.39 37.34 123.92 36.98C122.45 36.61 120.33 36.11 119.2 35.86C118.07 35.61 115.92 35.16 114.42 34.85C112.92 34.55 110.37 34.08 108.77 33.81C107.17 33.54 104.65 33.16 103.18 32.95C101.71 32.75 99.28 32.44 97.78 32.27C96.28 32.09 93.71 31.84 92.07 31.7C90.43 31.56 87.75 31.36 86.11 31.26C84.12 31.12 80.74 31.05 75.93 31.02C71.97 31 68.2 31.01 67.55 31.03Z"
       id="path8"
       inkscape:label="shield-white" />
    <path
       class="shp0"
       d="M67.55 34.26C67.17 34.28 65.72 34.36 64.32 34.43C62.92 34.51 60.35 34.68 58.61 34.81C56.87 34.94 54.66 35.14 53.7 35.24C52.75 35.35 50.85 35.57 49.48 35.74C48.11 35.9 46.02 36.18 44.82 36.36C43.63 36.53 41.67 36.84 40.48 37.05C39.28 37.25 37.3 37.62 36.07 37.86C34.84 38.1 32.44 38.6 30.73 38.98C29.02 39.36 26.2 40.03 24.46 40.47C22.72 40.92 20.51 41.51 19.56 41.78C18.6 42.06 16.64 42.64 15.21 43.08C13.78 43.51 11.63 44.2 10.43 44.6C9.23 45 7.5 45.6 6.58 45.93C5.66 46.26 4.87 46.56 4.82 46.6C4.77 46.64 4.78 48.55 4.85 50.84C4.91 53.13 5.02 59.2 5.09 64.33C5.16 69.45 5.27 75.35 5.34 77.44C5.41 79.52 5.52 82.38 5.59 83.78C5.66 85.18 5.8 87.53 5.91 89C6.01 90.47 6.23 93.07 6.4 94.78C6.58 96.49 6.91 99.26 7.15 100.93C7.39 102.61 7.83 105.32 8.13 106.96C8.43 108.6 8.91 110.95 9.19 112.18C9.48 113.41 10.01 115.51 10.37 116.84C10.74 118.18 11.44 120.5 11.93 122C12.42 123.51 13.18 125.66 13.62 126.79C14.07 127.91 14.79 129.65 15.24 130.64C15.68 131.63 16.51 133.37 17.08 134.49C17.65 135.62 18.61 137.41 19.22 138.47C19.82 139.53 20.85 141.22 21.49 142.23C22.13 143.24 23.14 144.74 23.72 145.58C24.3 146.42 25.38 147.91 26.13 148.91C26.87 149.9 28.04 151.41 28.73 152.26C29.42 153.11 30.54 154.45 31.22 155.24C31.9 156.03 33.27 157.58 34.26 158.67C35.25 159.76 37.74 162.34 39.79 164.39C41.84 166.44 44.58 169.1 45.88 170.3C47.18 171.5 49.19 173.32 50.35 174.34C51.51 175.37 53.61 177.19 55.01 178.38C56.41 179.58 58.36 181.23 59.35 182.05C60.34 182.87 62.72 184.8 64.63 186.34C66.54 187.88 69.52 190.24 71.24 191.59C72.96 192.93 74.43 194.03 74.5 194.03C74.57 194.03 76.04 192.93 77.76 191.59C79.48 190.24 82.46 187.88 84.37 186.34C86.28 184.8 88.66 182.87 89.65 182.05C90.64 181.23 92.59 179.58 93.99 178.38C95.39 177.19 97.49 175.37 98.65 174.34C99.81 173.32 101.82 171.5 103.12 170.3C104.42 169.1 107.16 166.44 109.21 164.39C111.26 162.34 113.75 159.76 114.74 158.67C115.73 157.58 117.1 156.03 117.78 155.24C118.46 154.45 119.58 153.11 120.27 152.26C120.96 151.41 122.13 149.9 122.87 148.91C123.62 147.91 124.7 146.42 125.28 145.58C125.86 144.74 126.87 143.24 127.51 142.23C128.15 141.22 129.18 139.53 129.78 138.47C130.39 137.41 131.35 135.62 131.92 134.49C132.49 133.37 133.32 131.63 133.76 130.64C134.21 129.65 134.93 127.91 135.38 126.79C135.82 125.66 136.58 123.51 137.07 122C137.56 120.5 138.26 118.18 138.63 116.84C138.99 115.51 139.52 113.41 139.81 112.18C140.09 110.95 140.57 108.6 140.87 106.96C141.17 105.32 141.61 102.61 141.85 100.93C142.09 99.26 142.42 96.49 142.6 94.78C142.77 93.07 142.99 90.47 143.09 89C143.2 87.53 143.34 85.18 143.41 83.78C143.48 82.38 143.59 79.52 143.66 77.44C143.73 75.35 143.84 69.45 143.91 64.33C143.98 59.2 144.09 53.13 144.15 50.84C144.22 48.55 144.23 46.64 144.18 46.6C144.13 46.56 143.34 46.26 142.42 45.93C141.5 45.6 139.77 45 138.57 44.6C137.37 44.2 135.22 43.51 133.79 43.08C132.36 42.64 130.4 42.06 129.44 41.78C128.49 41.51 126.28 40.92 124.54 40.47C122.8 40.03 119.98 39.36 118.27 38.98C116.56 38.6 114.02 38.07 112.62 37.8C111.22 37.53 109.07 37.14 107.84 36.93C106.61 36.73 104.6 36.42 103.37 36.24C102.14 36.07 100.21 35.81 99.08 35.68C97.96 35.54 96.25 35.35 95.3 35.24C94.34 35.14 92.5 34.97 91.2 34.87C89.9 34.76 87.53 34.59 85.92 34.48C83.89 34.35 80.76 34.28 75.62 34.25C71.55 34.24 67.92 34.24 67.55 34.26Z"
       id="path10"
       inkscape:label="shield-purple" />
    <g
       id="g1017"
       inkscape:label="fleur-de-lis">
      <path
         d="m 73.38,136.88 c -0.62,0.66 -1.43,1.38 -1.98,1.73 -0.52,0.33 -1.26,0.73 -1.65,0.89 -0.4,0.15 -0.72,0.32 -0.72,0.37 0,0.05 0.17,0.41 0.36,0.81 0.2,0.39 0.57,1.24 0.82,1.89 0.26,0.65 0.66,1.86 0.89,2.68 0.23,0.82 0.56,2.16 0.73,2.98 0.17,0.82 0.39,2.05 0.49,2.73 0.1,0.69 0.24,2.03 0.31,2.99 0.06,0.95 0.15,2.48 0.19,3.38 l 0.07,1.65 h -1.74 c -0.12,-1.3 -0.32,-2.33 -0.51,-3.14 -0.2,-0.8 -0.55,-1.95 -0.78,-2.55 -0.23,-0.59 -0.63,-1.5 -0.88,-2.02 -0.26,-0.51 -0.71,-1.26 -1,-1.67 -0.29,-0.41 -0.78,-0.98 -1.07,-1.27 -0.3,-0.29 -0.85,-0.68 -1.23,-0.87 -0.56,-0.28 -0.84,-0.34 -1.61,-0.34 -0.75,0 -1.07,0.07 -1.61,0.33 -0.38,0.18 -0.91,0.57 -1.18,0.86 -0.27,0.3 -0.61,0.82 -0.77,1.16 -0.16,0.34 -0.37,1.01 -0.47,1.49 -0.1,0.48 -0.19,1.21 -0.19,1.62 0,0.41 0.04,0.93 0.09,1.15 0.05,0.23 0.12,0.41 0.16,0.41 0.03,0 0.28,-0.21 0.56,-0.46 0.27,-0.25 0.83,-0.62 1.24,-0.81 0.41,-0.2 1.08,-0.41 1.49,-0.47 0.45,-0.06 0.99,-0.06 1.36,0.01 0.34,0.06 0.82,0.21 1.06,0.33 0.24,0.11 0.72,0.48 1.06,0.83 0.38,0.38 0.81,0.99 1.09,1.56 0.25,0.51 0.56,1.38 0.69,1.92 0.13,0.55 0.27,1.21 0.31,1.46 l 0.08,0.47 -1.68,0.06 v 3.11 c 3.51,0.05 4.53,0.1 4.53,0.16 0,0.05 -0.16,0.36 -0.34,0.69 -0.19,0.33 -0.54,0.73 -0.78,0.89 -0.23,0.15 -0.65,0.35 -0.93,0.44 -0.3,0.09 -0.86,0.13 -1.42,0.09 -0.7,-0.04 -1.15,-0.15 -1.77,-0.45 -0.49,-0.23 -0.87,-0.34 -0.9,-0.27 -0.04,0.07 0.15,0.56 0.42,1.09 0.32,0.64 0.73,1.2 1.21,1.67 0.45,0.43 1.04,0.84 1.53,1.07 0.45,0.2 1.12,0.44 1.49,0.52 l 0.69,0.16 c 2.55,4.12 3.34,5.31 3.41,5.31 0.07,0 0.86,-1.19 1.77,-2.65 l 1.64,-2.66 c 1.06,-0.24 1.73,-0.48 2.18,-0.68 0.49,-0.23 1.08,-0.64 1.53,-1.07 0.48,-0.47 0.89,-1.03 1.21,-1.67 0.27,-0.53 0.46,-1.02 0.42,-1.09 -0.03,-0.07 -0.41,0.04 -0.9,0.27 -0.62,0.3 -1.07,0.41 -1.77,0.45 -0.56,0.04 -1.12,0 -1.42,-0.09 -0.28,-0.09 -0.7,-0.29 -0.94,-0.44 -0.23,-0.16 -0.58,-0.56 -0.77,-0.89 -0.18,-0.33 -0.34,-0.64 -0.34,-0.69 0,-0.06 1.02,-0.11 2.26,-0.13 l 2.27,-0.03 v -3.11 l -1.68,-0.06 c 0.12,-0.72 0.26,-1.38 0.39,-1.93 0.13,-0.54 0.44,-1.41 0.69,-1.92 0.28,-0.57 0.71,-1.18 1.09,-1.56 0.34,-0.35 0.82,-0.72 1.06,-0.83 0.24,-0.12 0.72,-0.27 1.06,-0.33 0.37,-0.07 0.91,-0.07 1.36,-0.01 0.41,0.06 1.08,0.27 1.49,0.47 0.41,0.19 0.97,0.56 1.24,0.81 0.28,0.25 0.53,0.46 0.56,0.46 0.04,0 0.11,-0.18 0.16,-0.41 0.05,-0.22 0.09,-0.74 0.09,-1.15 0,-0.41 -0.09,-1.14 -0.19,-1.62 -0.1,-0.48 -0.31,-1.15 -0.47,-1.49 -0.16,-0.34 -0.5,-0.86 -0.77,-1.16 -0.27,-0.29 -0.8,-0.68 -1.18,-0.86 -0.54,-0.26 -0.86,-0.33 -1.61,-0.33 -0.77,0 -1.05,0.06 -1.61,0.34 -0.38,0.19 -0.93,0.58 -1.23,0.87 -0.29,0.29 -0.78,0.86 -1.07,1.27 -0.29,0.41 -0.74,1.16 -1,1.67 -0.25,0.52 -0.65,1.43 -0.88,2.02 -0.23,0.6 -0.58,1.75 -0.78,2.55 -0.19,0.81 -0.39,1.84 -0.43,2.3 l -0.08,0.84 h -1.74 c 0.11,-2.55 0.2,-4.08 0.26,-5.03 0.07,-0.96 0.21,-2.3 0.31,-2.99 0.1,-0.68 0.32,-1.91 0.49,-2.73 0.17,-0.82 0.5,-2.16 0.73,-2.98 0.23,-0.82 0.63,-2.03 0.89,-2.68 0.25,-0.65 0.62,-1.5 0.82,-1.89 0.19,-0.4 0.36,-0.76 0.36,-0.81 0,-0.05 -0.32,-0.22 -0.72,-0.37 -0.39,-0.16 -1.13,-0.56 -1.65,-0.89 -0.54,-0.35 -1.36,-1.07 -1.98,-1.73 -0.58,-0.62 -1.09,-1.13 -1.12,-1.13 -0.03,0 -0.54,0.5 -1.12,1.13 z"
         id="path924"
         style="fill:#ffffff;fill-opacity:1"
         inkscape:label="fleur-bottom" />
      <path
         d="m 108.69,99.91 c -0.41,0.46 -1.19,1.17 -1.73,1.58 -0.54,0.42 -1.42,0.95 -1.95,1.19 -0.7,0.31 -0.96,0.48 -0.92,0.61 0.04,0.11 0.32,0.78 0.64,1.5 0.32,0.71 0.76,1.89 0.99,2.61 0.23,0.71 0.56,1.86 0.74,2.54 0.17,0.69 0.43,1.89 0.57,2.68 0.14,0.78 0.34,2.07 0.44,2.86 0.1,0.78 0.23,2.64 0.28,4.13 l 0.09,2.7 h -1.68 c -0.2,-1.59 -0.4,-2.58 -0.56,-3.23 -0.16,-0.65 -0.47,-1.68 -0.69,-2.3 -0.21,-0.61 -0.59,-1.51 -0.82,-1.99 -0.24,-0.48 -0.68,-1.23 -0.97,-1.68 -0.29,-0.44 -0.8,-1.06 -1.14,-1.37 -0.33,-0.32 -0.91,-0.73 -1.28,-0.93 -0.57,-0.3 -0.83,-0.36 -1.62,-0.36 -0.7,0 -1.08,0.07 -1.55,0.28 -0.34,0.16 -0.83,0.49 -1.09,0.74 -0.26,0.26 -0.61,0.69 -0.77,0.96 -0.16,0.27 -0.41,0.94 -0.55,1.49 -0.16,0.62 -0.26,1.38 -0.26,2.02 0,0.57 0.06,1.14 0.13,1.28 0.12,0.23 0.15,0.22 0.71,-0.27 0.33,-0.28 0.87,-0.65 1.21,-0.81 0.34,-0.15 0.96,-0.35 1.37,-0.42 0.41,-0.08 0.99,-0.1 1.3,-0.06 0.31,0.05 0.81,0.21 1.12,0.35 0.31,0.15 0.81,0.52 1.12,0.83 0.31,0.31 0.74,0.87 0.95,1.25 0.22,0.37 0.53,1.1 0.71,1.61 0.17,0.51 0.35,1.31 0.41,1.77 l 0.1,0.83 -1.61,0.07 -0.07,3.17 c 4.39,0 4.47,0.01 4.47,0.25 0,0.14 -0.18,0.49 -0.41,0.78 -0.22,0.29 -0.65,0.67 -0.96,0.84 -0.48,0.27 -0.7,0.31 -1.73,0.31 -1.07,0 -1.26,-0.04 -2.05,-0.41 -0.48,-0.22 -0.9,-0.37 -0.93,-0.34 -0.03,0.03 0.04,0.3 0.16,0.59 0.13,0.29 0.39,0.78 0.58,1.09 0.2,0.31 0.65,0.85 1.02,1.19 0.36,0.35 0.95,0.79 1.31,0.97 0.36,0.18 1.03,0.43 1.49,0.54 l 0.83,0.22 c 2.51,4.03 3.29,5.22 3.36,5.24 0.07,0.03 0.87,-1.14 1.77,-2.6 l 1.64,-2.64 c 1.02,-0.24 1.73,-0.51 2.24,-0.76 0.64,-0.3 1.16,-0.67 1.65,-1.18 0.45,-0.46 0.87,-1.06 1.14,-1.63 0.24,-0.5 0.39,-0.95 0.34,-1 -0.05,-0.06 -0.28,0.01 -0.52,0.14 -0.24,0.14 -0.74,0.34 -1.12,0.45 -0.37,0.1 -0.99,0.19 -1.36,0.2 -0.38,0 -0.94,-0.09 -1.25,-0.2 -0.3,-0.11 -0.69,-0.31 -0.86,-0.45 -0.17,-0.14 -0.47,-0.48 -0.66,-0.77 -0.19,-0.28 -0.34,-0.59 -0.34,-0.67 0,-0.12 0.53,-0.16 2.24,-0.16 h 2.23 v -3.23 h -1.61 c 0.12,-1.01 0.29,-1.78 0.46,-2.36 0.16,-0.58 0.45,-1.33 0.63,-1.67 0.19,-0.34 0.62,-0.92 0.96,-1.28 0.34,-0.37 0.9,-0.81 1.24,-0.98 0.34,-0.16 0.87,-0.33 1.18,-0.37 0.31,-0.04 0.89,-0.01 1.3,0.07 0.41,0.09 1.03,0.29 1.37,0.46 0.34,0.16 0.87,0.52 1.18,0.79 0.39,0.35 0.59,0.46 0.68,0.37 0.07,-0.08 0.12,-0.73 0.11,-1.47 -0.01,-1.07 -0.08,-1.52 -0.34,-2.32 -0.19,-0.58 -0.52,-1.25 -0.79,-1.61 -0.26,-0.34 -0.72,-0.77 -1.03,-0.97 -0.31,-0.19 -0.89,-0.41 -1.3,-0.49 -0.59,-0.11 -0.9,-0.11 -1.49,0.02 -0.48,0.11 -1.01,0.35 -1.48,0.68 -0.41,0.28 -1.03,0.88 -1.4,1.37 -0.37,0.48 -0.94,1.41 -1.27,2.06 -0.33,0.64 -0.85,1.96 -1.16,2.92 -0.31,0.95 -0.67,2.35 -0.78,3.1 -0.12,0.76 -0.24,1.44 -0.26,1.53 -0.03,0.1 -0.32,0.15 -0.85,0.15 h -0.81 c 0,-1.64 0.06,-2.94 0.13,-3.94 0.07,-1.01 0.24,-2.68 0.38,-3.7 0.14,-1.03 0.39,-2.54 0.56,-3.36 0.18,-0.82 0.51,-2.13 0.73,-2.92 0.23,-0.79 0.67,-2.04 0.97,-2.8 0.3,-0.75 0.67,-1.6 0.81,-1.89 0.15,-0.29 0.27,-0.54 0.27,-0.56 0,-0.02 -0.26,-0.14 -0.59,-0.27 -0.32,-0.13 -0.98,-0.46 -1.46,-0.73 -0.58,-0.33 -1.3,-0.93 -2.14,-1.78 -0.7,-0.71 -1.3,-1.29 -1.32,-1.29 -0.02,0 -0.38,0.38 -0.78,0.84 z"
         id="path922"
         style="fill:#ffffff;fill-opacity:1"
         inkscape:label="fleur-right" />
      <path
         d="m 38.18,100.37 c -0.84,0.86 -1.52,1.43 -2.11,1.77 -0.48,0.27 -1.14,0.6 -1.46,0.73 -0.33,0.13 -0.59,0.25 -0.59,0.27 0,0.02 0.12,0.27 0.27,0.56 0.14,0.29 0.51,1.14 0.81,1.89 0.3,0.76 0.74,2.01 0.97,2.8 0.22,0.79 0.55,2.1 0.73,2.92 0.17,0.82 0.42,2.33 0.56,3.36 0.14,1.02 0.31,2.69 0.38,3.7 0.07,1 0.13,2.3 0.13,2.89 v 1.05 c -1.34,0 -1.63,-0.05 -1.66,-0.15 -0.02,-0.09 -0.14,-0.77 -0.26,-1.53 -0.11,-0.75 -0.47,-2.15 -0.78,-3.1 -0.31,-0.96 -0.83,-2.28 -1.16,-2.92 -0.33,-0.65 -0.9,-1.58 -1.27,-2.06 -0.37,-0.49 -0.99,-1.09 -1.4,-1.37 -0.47,-0.33 -1,-0.57 -1.48,-0.68 -0.59,-0.13 -0.9,-0.13 -1.49,-0.02 -0.41,0.08 -0.99,0.3 -1.3,0.49 -0.31,0.2 -0.77,0.63 -1.03,0.97 -0.27,0.36 -0.6,1.03 -0.79,1.61 -0.26,0.8 -0.33,1.25 -0.34,2.32 -0.01,0.74 0.04,1.39 0.11,1.47 0.09,0.09 0.29,-0.02 0.68,-0.37 0.31,-0.27 0.84,-0.63 1.18,-0.79 0.34,-0.17 0.96,-0.37 1.37,-0.46 0.41,-0.08 0.99,-0.11 1.3,-0.07 0.31,0.04 0.84,0.21 1.18,0.37 0.34,0.17 0.9,0.61 1.24,0.98 0.34,0.36 0.77,0.94 0.96,1.28 0.18,0.34 0.47,1.09 0.63,1.67 0.17,0.58 0.34,1.35 0.38,1.71 l 0.08,0.65 h -1.61 v 3.23 c 3.94,0 4.47,0.04 4.47,0.16 0,0.08 -0.15,0.39 -0.34,0.67 -0.19,0.29 -0.49,0.63 -0.66,0.77 -0.17,0.14 -0.56,0.34 -0.86,0.45 -0.31,0.11 -0.87,0.2 -1.25,0.2 -0.37,-0.01 -0.99,-0.1 -1.36,-0.2 -0.38,-0.11 -0.88,-0.31 -1.12,-0.45 -0.24,-0.13 -0.47,-0.2 -0.52,-0.14 -0.05,0.05 0.1,0.5 0.34,1 0.27,0.57 0.69,1.17 1.14,1.63 0.49,0.51 1.01,0.88 1.65,1.18 0.51,0.25 1.22,0.52 1.58,0.61 l 0.66,0.15 c 2.54,4.1 3.34,5.27 3.41,5.24 0.07,-0.02 0.85,-1.21 1.74,-2.64 l 1.62,-2.6 c 1.29,-0.33 1.96,-0.58 2.32,-0.76 0.36,-0.18 0.95,-0.62 1.31,-0.97 0.37,-0.34 0.82,-0.88 1.02,-1.19 0.19,-0.31 0.45,-0.8 0.58,-1.09 0.12,-0.29 0.19,-0.56 0.16,-0.59 -0.03,-0.03 -0.45,0.12 -0.93,0.34 -0.79,0.37 -0.98,0.41 -2.05,0.41 -1.03,0 -1.25,-0.04 -1.73,-0.31 -0.31,-0.17 -0.74,-0.55 -0.96,-0.84 -0.23,-0.29 -0.41,-0.64 -0.41,-0.78 0,-0.24 0.08,-0.25 2.23,-0.25 h 2.24 l -0.07,-3.17 -1.61,-0.07 c 0.16,-1.29 0.34,-2.09 0.51,-2.6 0.18,-0.51 0.49,-1.24 0.71,-1.61 0.21,-0.38 0.64,-0.94 0.95,-1.25 0.31,-0.31 0.81,-0.68 1.12,-0.83 0.31,-0.14 0.81,-0.3 1.12,-0.35 0.31,-0.04 0.89,-0.02 1.3,0.06 0.41,0.07 1.03,0.27 1.37,0.42 0.34,0.16 0.88,0.53 1.21,0.81 0.56,0.49 0.59,0.5 0.71,0.27 0.07,-0.14 0.13,-0.71 0.13,-1.28 0,-0.64 -0.1,-1.4 -0.26,-2.02 -0.14,-0.55 -0.39,-1.22 -0.55,-1.49 -0.16,-0.27 -0.51,-0.7 -0.77,-0.96 -0.26,-0.25 -0.75,-0.58 -1.09,-0.74 -0.47,-0.21 -0.85,-0.28 -1.56,-0.28 -0.78,0 -1.04,0.06 -1.61,0.36 -0.37,0.2 -0.95,0.61 -1.28,0.93 -0.34,0.31 -0.85,0.93 -1.14,1.37 -0.29,0.45 -0.73,1.2 -0.97,1.68 -0.23,0.48 -0.61,1.38 -0.82,1.99 -0.22,0.62 -0.53,1.65 -0.69,2.3 -0.16,0.65 -0.36,1.64 -0.43,2.21 l -0.13,1.02 h -1.68 c 0.13,-4.09 0.26,-5.98 0.37,-6.83 0.11,-0.86 0.34,-2.29 0.5,-3.17 0.17,-0.89 0.49,-2.32 0.73,-3.17 0.23,-0.86 0.63,-2.12 0.89,-2.8 0.25,-0.68 0.65,-1.66 0.88,-2.18 0.23,-0.51 0.42,-0.96 0.42,-0.99 0,-0.03 -0.43,-0.26 -0.96,-0.49 -0.53,-0.24 -1.41,-0.77 -1.95,-1.19 -0.54,-0.41 -1.32,-1.12 -1.74,-1.59 -0.41,-0.46 -0.78,-0.83 -0.82,-0.82 -0.03,0.01 -0.62,0.59 -1.3,1.29 z"
         id="path920"
         style="fill:#ffffff;fill-opacity:1"
         inkscape:label="fleur-left" />
    </g>
    <path
       d="m 44.2,89 c 0,0.07 0.74,0.95 1.64,1.96 0.91,1.01 2.6,2.87 3.76,4.13 1.16,1.26 2.97,3.22 4.03,4.35 1.06,1.13 3.74,3.95 5.96,6.28 2.23,2.32 6.11,6.31 8.64,8.85 l 4.59,4.63 c -7.78,7.95 -10.8,11.04 -11.73,12 -0.94,0.96 -2.81,2.91 -4.17,4.35 -1.37,1.44 -3.32,3.51 -4.34,4.6 -1.02,1.1 -3,3.25 -4.4,4.79 -1.4,1.54 -2.9,3.21 -3.32,3.7 -0.43,0.49 -0.72,0.92 -0.66,0.96 0.07,0.03 0.98,-0.71 2.02,-1.65 1.04,-0.94 2.93,-2.65 4.19,-3.82 1.27,-1.16 3.19,-2.95 4.29,-3.97 1.09,-1.03 3.91,-3.71 6.27,-5.97 2.35,-2.26 6.32,-6.13 8.81,-8.61 2.49,-2.48 4.62,-4.5 4.72,-4.5 0.1,0 2.23,2.02 4.72,4.5 2.49,2.48 6.46,6.35 8.81,8.61 2.36,2.26 5.18,4.94 6.27,5.97 1.1,1.02 3.02,2.81 4.29,3.97 1.26,1.17 3.15,2.88 4.19,3.82 1.04,0.94 1.95,1.68 2.02,1.65 0.06,-0.04 -0.23,-0.47 -0.66,-0.96 -0.42,-0.49 -1.92,-2.16 -3.32,-3.7 -1.4,-1.54 -3.38,-3.69 -4.4,-4.79 -1.02,-1.09 -2.95,-3.14 -4.28,-4.54 -1.32,-1.4 -3.2,-3.36 -4.16,-4.35 -0.97,-0.99 -4.02,-4.11 -6.78,-6.93 l -5.02,-5.13 c 7.12,-7.17 11,-11.16 13.23,-13.48 2.22,-2.33 4.9,-5.15 5.96,-6.28 1.06,-1.13 2.87,-3.09 4.03,-4.35 1.16,-1.26 2.85,-3.12 3.76,-4.13 0.9,-1.01 1.64,-1.89 1.64,-1.96 0,-0.07 -0.05,-0.12 -0.1,-0.12 -0.05,0 -0.29,0.18 -0.52,0.39 -0.24,0.22 -1.89,1.71 -3.67,3.32 -1.77,1.62 -3.73,3.41 -4.34,3.98 -0.62,0.58 -1.54,1.45 -2.05,1.93 -0.51,0.48 -2.05,1.94 -3.42,3.24 -1.36,1.29 -3.35,3.19 -4.4,4.22 -1.06,1.04 -4.13,4.03 -6.82,6.66 -2.68,2.63 -4.93,4.78 -4.98,4.78 -0.05,0 -2.3,-2.15 -4.98,-4.78 -2.69,-2.63 -5.76,-5.62 -6.82,-6.66 -1.05,-1.03 -3.04,-2.93 -4.4,-4.22 -1.37,-1.3 -2.91,-2.76 -3.42,-3.24 -0.51,-0.48 -1.43,-1.35 -2.05,-1.93 -0.61,-0.57 -2.57,-2.36 -4.34,-3.98 -1.78,-1.61 -3.43,-3.1 -3.67,-3.32 -0.23,-0.21 -0.47,-0.39 -0.52,-0.39 -0.05,0 -0.1,0.05 -0.1,0.12 z"
       id="path918"
       style="fill:#ffffff;fill-opacity:1"
       inkscape:label="cross" />
    <g
       id="g1012"
       inkscape:label="city">
      <path
         d="m 83.03,78.49 c -0.05,0.04 0.12,0.34 0.38,0.68 0.3,0.39 1.01,1.89 1.98,4.19 l 1.52,3.59 c 0.01,4.38 -0.04,5.25 -0.16,5.65 -0.1,0.31 -0.21,0.66 -0.25,0.78 -0.07,0.2 0.06,0.22 1.7,0.22 0.98,0 1.8,-0.03 1.83,-0.07 0.03,-0.03 -0.05,-0.27 -0.17,-0.52 -0.18,-0.4 -0.21,-0.86 -0.22,-3.33 v -2.86 c 2.33,-5.49 3.15,-7.28 3.33,-7.52 0.18,-0.24 0.38,-0.45 0.43,-0.46 0.05,-0.02 0.1,-0.12 0.1,-0.22 0,-0.16 -0.29,-0.19 -1.87,-0.19 h -1.86 c 0.15,1.38 0.1,1.58 -0.64,3.52 -0.43,1.15 -0.84,2.07 -0.91,2.04 -0.07,-0.02 -0.47,-0.96 -0.9,-2.09 -0.58,-1.52 -0.76,-2.16 -0.73,-2.53 0.02,-0.28 0.06,-0.59 0.09,-0.69 0.04,-0.16 -0.22,-0.19 -1.76,-0.22 -0.99,-0.02 -1.84,0 -1.89,0.03 z"
         id="path912"
         style="fill:#ffffff;fill-opacity:1"
         inkscape:label="city-y" />
      <path
         d="m 73.38,79.93 c 0,0.75 0.04,1.39 0.1,1.42 0.05,0.03 0.23,-0.08 0.4,-0.25 0.17,-0.17 0.48,-0.36 0.68,-0.43 0.21,-0.06 0.65,-0.13 1,-0.15 l 0.62,-0.04 c 0,11.42 -0.02,11.98 -0.22,12.43 -0.13,0.28 -0.22,0.54 -0.22,0.6 0,0.05 0.81,0.09 1.8,0.09 0.99,0 1.8,-0.04 1.81,-0.09 0,-0.06 -0.1,-0.29 -0.22,-0.53 -0.2,-0.4 -0.22,-0.94 -0.22,-6.47 v -6.03 c 0.96,0.06 1.42,0.13 1.64,0.2 0.23,0.06 0.52,0.26 0.65,0.43 0.14,0.17 0.31,0.31 0.38,0.31 0.07,0 0.12,-0.56 0.12,-1.43 v -1.43 h -8.32 z"
         id="path916"
         style="fill:#ffffff;fill-opacity:1"
         inkscape:label="city-t" />
      <path
         d="m 67.51,78.62 c -0.05,0.03 0.01,0.27 0.13,0.53 0.2,0.42 0.22,1.03 0.22,6.93 0,5.92 -0.02,6.5 -0.22,6.87 -0.12,0.22 -0.22,0.46 -0.22,0.52 0,0.08 0.68,0.13 1.78,0.13 0.98,0 1.81,-0.03 1.83,-0.07 0.03,-0.03 -0.06,-0.3 -0.19,-0.59 -0.24,-0.5 -0.25,-0.78 -0.25,-6.92 0,-5.86 0.02,-6.45 0.22,-6.9 0.12,-0.28 0.22,-0.51 0.22,-0.53 -0.01,-0.02 -0.78,-0.03 -1.72,-0.03 -0.95,0 -1.76,0.03 -1.8,0.06 z"
         id="path914"
         style="fill:#ffffff;fill-opacity:1"
         inkscape:label="city-i" />
      <path
         d="m 61.34,78.53 c -0.45,0.12 -1.09,0.38 -1.43,0.58 -0.34,0.2 -0.89,0.65 -1.21,0.99 -0.33,0.35 -0.79,1.02 -1.02,1.5 -0.23,0.48 -0.51,1.29 -0.63,1.81 -0.14,0.61 -0.21,1.48 -0.21,2.54 0,1.04 0.07,1.98 0.21,2.61 0.11,0.55 0.4,1.42 0.65,1.93 0.28,0.6 0.69,1.2 1.14,1.66 0.43,0.45 1,0.87 1.5,1.12 0.75,0.36 0.9,0.39 2.11,0.39 0.92,0 1.51,-0.06 1.96,-0.22 l 0.65,-0.21 c 0,-2.51 -0.04,-3.11 -0.12,-3.11 -0.07,0 -0.13,0.05 -0.13,0.12 0,0.07 -0.18,0.33 -0.4,0.58 -0.22,0.25 -0.56,0.52 -0.74,0.62 -0.19,0.09 -0.62,0.17 -0.97,0.17 -0.35,0 -0.81,-0.1 -1.08,-0.23 -0.26,-0.13 -0.63,-0.42 -0.83,-0.65 -0.2,-0.24 -0.49,-0.71 -0.65,-1.05 -0.16,-0.34 -0.38,-1.04 -0.49,-1.55 -0.15,-0.7 -0.18,-1.33 -0.14,-2.55 0.05,-1.26 0.13,-1.84 0.38,-2.61 0.17,-0.55 0.5,-1.24 0.73,-1.55 0.22,-0.3 0.6,-0.66 0.84,-0.8 0.31,-0.18 0.65,-0.26 1.18,-0.26 0.54,0 0.86,0.07 1.18,0.27 0.24,0.14 0.58,0.47 0.75,0.71 0.17,0.25 0.35,0.45 0.4,0.45 0.05,0 0.09,-0.7 0.09,-1.55 v -1.56 c -0.72,-0.2 -1.37,-0.29 -1.92,-0.32 -0.71,-0.04 -1.23,0.01 -1.8,0.17 z"
         id="path910"
         style="fill:#ffffff;fill-opacity:1"
         inkscape:label="city-c" />
    </g>
    <g
       id="g1006"
       inkscape:label="louisville">
      <path
         d="m 123.3,54.51 c 0,0.03 0.12,0.41 0.28,0.83 l 0.28,0.78 c 0.06,21.99 0.03,25.56 -0.07,26.1 -0.08,0.42 -0.24,0.93 -0.35,1.15 -0.11,0.22 -0.18,0.43 -0.14,0.46 0.03,0.04 1.4,0.46 3.04,0.93 1.64,0.47 3.78,1.11 4.75,1.4 0.98,0.3 1.8,0.51 1.84,0.48 0.03,-0.04 0.06,-1.14 0.06,-2.46 -0.01,-1.31 -0.05,-2.39 -0.1,-2.39 -0.05,0 -0.29,0.2 -0.53,0.44 -0.25,0.25 -0.64,0.48 -0.93,0.55 -0.32,0.08 -0.74,0.08 -1.18,0 -0.37,-0.07 -1.21,-0.28 -1.86,-0.48 l -1.18,-0.35 c -0.06,-13.84 -0.03,-15.45 0.09,-15.45 0.09,0 0.69,0.16 1.34,0.36 0.65,0.19 1.36,0.44 1.58,0.56 0.22,0.11 0.63,0.41 0.91,0.67 l 0.5,0.46 -0.01,-4.29 c -0.53,0.15 -0.91,0.19 -1.18,0.18 -0.28,0 -1.13,-0.2 -1.9,-0.43 l -1.4,-0.43 0.07,-5.1 c 0.48,0.07 1.26,0.3 2.05,0.56 0.78,0.25 1.67,0.62 1.96,0.82 0.3,0.2 0.68,0.57 0.84,0.83 0.17,0.26 0.36,0.44 0.43,0.4 0.07,-0.03 0.12,-0.82 0.12,-1.98 0,-1.72 -0.02,-1.94 -0.22,-2.04 -0.12,-0.06 -1.44,-0.48 -2.95,-0.93 -1.5,-0.44 -3.41,-1.01 -4.25,-1.25 -0.84,-0.25 -1.6,-0.45 -1.71,-0.45 -0.1,0 -0.18,0.03 -0.18,0.07 z"
         id="path991"
         style="fill:#ffffff;fill-opacity:1"
         inkscape:label="louisville-e" />
      <path
         d="m 111.25,51.65 c 0,0.03 0.13,0.35 0.28,0.71 l 0.28,0.65 v 20.64 c -0.43,0.96 -0.54,1.25 -0.53,1.27 0.02,0.01 1.88,0.44 4.13,0.95 2.26,0.51 4.41,1.01 4.78,1.11 0.38,0.11 0.73,0.15 0.78,0.11 0.06,-0.05 0.1,-1.16 0.1,-2.48 -0.01,-1.31 -0.05,-2.39 -0.1,-2.39 -0.05,-0.01 -0.22,0.16 -0.37,0.37 -0.16,0.21 -0.52,0.49 -0.81,0.62 -0.29,0.14 -0.72,0.25 -0.96,0.25 -0.24,0 -0.94,-0.11 -1.55,-0.23 -0.62,-0.13 -1.36,-0.3 -1.65,-0.38 l -0.53,-0.13 0.06,-18.46 c 0.44,-1.16 0.58,-1.55 0.6,-1.61 0.01,-0.07 -0.95,-0.33 -2.15,-0.59 -1.19,-0.25 -2.21,-0.47 -2.26,-0.47 -0.05,0 -0.1,0.02 -0.1,0.06 z"
         id="path987"
         style="fill:#ffffff;fill-opacity:1"
         inkscape:label="louisville-l3" />
      <path
         d="m 99.5,49.8 c 0.04,0.13 0.17,0.48 0.29,0.79 0.21,0.53 0.23,1.19 0.23,10.81 v 10.26 c -0.44,0.96 -0.57,1.27 -0.57,1.3 0,0.04 0.55,0.14 1.22,0.23 0.66,0.1 2.75,0.42 4.62,0.72 1.88,0.31 3.54,0.58 3.7,0.61 l 0.28,0.06 c 0,-3.76 -0.03,-4.85 -0.07,-4.85 -0.03,0 -0.21,0.18 -0.4,0.4 -0.19,0.21 -0.56,0.49 -0.84,0.62 -0.27,0.12 -0.77,0.22 -1.11,0.22 -0.35,0.01 -1.25,-0.09 -2.02,-0.21 l -1.4,-0.22 c 0.01,-18.23 0.02,-18.54 0.26,-19.2 0.14,-0.38 0.28,-0.77 0.31,-0.87 0.05,-0.16 -0.3,-0.24 -2.02,-0.48 -1.15,-0.16 -2.19,-0.32 -2.31,-0.35 -0.18,-0.06 -0.22,-0.02 -0.17,0.16 z"
         id="path985"
         style="fill:#ffffff;fill-opacity:1"
         inkscape:label="louisville-l2" />
      <path
         d="m 92.49,49.32 c 0.13,0.25 0.3,0.8 0.37,1.21 0.1,0.5 0.14,3.78 0.14,10.13 0,5.72 -0.05,9.6 -0.13,9.94 -0.07,0.31 -0.22,0.77 -0.34,1.03 -0.12,0.25 -0.18,0.49 -0.15,0.52 0.03,0.03 1.04,0.17 2.23,0.3 1.2,0.13 2.21,0.22 2.24,0.2 0.03,-0.03 -0.06,-0.44 -0.22,-0.92 l -0.28,-0.88 0.07,-20.2 c 0.43,-0.96 0.52,-1.27 0.48,-1.3 -0.04,-0.04 -0.95,-0.16 -2.02,-0.28 -1.07,-0.11 -2.1,-0.21 -2.29,-0.21 l -0.34,-0.01 z"
         id="path981"
         style="fill:#ffffff;fill-opacity:1"
         inkscape:label="louisville-i2" />
      <path
         d="m 76.45,48.07 c -0.05,0.05 0.08,0.29 0.28,0.53 0.2,0.24 0.47,0.74 0.61,1.12 0.15,0.38 0.85,3.45 1.58,6.84 0.72,3.38 1.58,7.46 1.91,9.07 0.33,1.61 0.66,3.31 0.74,3.79 0.11,0.65 0.12,1.01 0.01,1.43 -0.07,0.31 -0.12,0.58 -0.1,0.59 0.02,0.02 0.93,0.08 2.02,0.14 1.09,0.06 2.02,0.09 2.05,0.07 0.03,-0.02 -0.01,-0.31 -0.11,-0.64 -0.15,-0.52 -0.15,-0.73 0.04,-1.71 0.11,-0.62 0.48,-2.41 0.82,-3.98 0.33,-1.57 0.95,-4.43 1.36,-6.34 0.42,-1.91 0.96,-4.4 1.2,-5.53 0.24,-1.13 0.55,-2.4 0.68,-2.83 0.15,-0.49 0.39,-0.95 0.66,-1.24 0.24,-0.26 0.43,-0.52 0.44,-0.59 0,-0.07 -0.9,-0.2 -2.14,-0.3 -1.18,-0.1 -2.24,-0.14 -2.36,-0.09 -0.2,0.07 -0.2,0.1 -0.03,0.36 0.1,0.15 0.19,0.5 0.19,0.77 0,0.28 -0.31,2.21 -0.69,4.29 -0.38,2.09 -0.94,5.14 -1.25,6.78 -0.32,1.64 -0.61,3.19 -0.65,3.45 -0.05,0.26 -0.14,0.45 -0.21,0.42 -0.07,-0.02 -0.22,-0.57 -0.34,-1.21 -0.13,-0.65 -0.7,-3.77 -1.28,-6.95 -0.59,-3.18 -1.09,-6.17 -1.13,-6.65 -0.06,-0.74 -0.03,-0.92 0.18,-1.18 l 0.24,-0.31 c -2.33,-0.15 -3.37,-0.19 -3.82,-0.19 -0.45,0 -0.86,0.04 -0.9,0.09 z"
         id="path977"
         style="fill:#ffffff;fill-opacity:1"
         inkscape:label="louisville-v" />
      <path
         d="m 69.16,47.87 c -0.31,0.06 -0.89,0.27 -1.3,0.47 -0.41,0.2 -1.06,0.64 -1.43,0.98 -0.38,0.34 -0.86,0.92 -1.08,1.29 -0.22,0.36 -0.49,1 -0.6,1.41 -0.11,0.41 -0.2,1.28 -0.2,1.93 -0.01,0.77 0.06,1.43 0.2,1.92 0.12,0.41 0.37,1.06 0.56,1.43 0.19,0.38 0.68,1.11 1.09,1.62 0.4,0.51 1.4,1.52 2.21,2.24 0.8,0.71 1.74,1.64 2.08,2.05 0.34,0.41 0.73,0.97 0.88,1.24 0.2,0.39 0.26,0.72 0.26,1.51 0,0.93 -0.03,1.06 -0.37,1.55 -0.23,0.32 -0.62,0.65 -0.99,0.85 -0.47,0.24 -0.8,0.31 -1.37,0.31 -0.5,0 -0.95,-0.1 -1.37,-0.29 -0.34,-0.15 -0.88,-0.49 -1.21,-0.74 -0.32,-0.25 -0.8,-0.72 -1.05,-1.05 -0.26,-0.33 -0.51,-0.55 -0.57,-0.5 -0.05,0.06 -0.05,1.15 0,2.43 l 0.1,2.33 c 0.87,0.37 1.34,0.54 1.62,0.61 0.27,0.08 0.99,0.18 1.61,0.22 0.69,0.05 1.45,0.02 1.99,-0.08 0.47,-0.08 1.14,-0.25 1.49,-0.38 0.34,-0.13 0.97,-0.49 1.39,-0.8 0.48,-0.34 0.96,-0.84 1.25,-1.28 0.26,-0.39 0.57,-1.08 0.7,-1.52 0.16,-0.56 0.23,-1.2 0.23,-2.05 -0.01,-0.99 -0.07,-1.44 -0.33,-2.24 -0.18,-0.55 -0.56,-1.36 -0.84,-1.8 -0.32,-0.5 -1.47,-1.75 -2.98,-3.23 -2.19,-2.17 -2.5,-2.52 -2.86,-3.3 -0.32,-0.69 -0.4,-1.03 -0.4,-1.67 0,-0.6 0.07,-0.95 0.27,-1.34 0.15,-0.29 0.43,-0.63 0.62,-0.76 0.19,-0.13 0.56,-0.3 0.84,-0.39 0.28,-0.09 0.78,-0.13 1.17,-0.1 0.38,0.04 0.93,0.19 1.22,0.33 0.29,0.15 0.76,0.48 1.05,0.75 0.29,0.26 0.68,0.71 0.87,0.99 0.19,0.28 0.4,0.49 0.47,0.45 0.07,-0.03 0.12,-0.91 0.12,-2.23 v -2.18 c -1.01,-0.51 -1.72,-0.76 -2.23,-0.89 -0.52,-0.13 -1.3,-0.22 -1.74,-0.22 -0.45,0.01 -1.06,0.07 -1.37,0.13 z"
         id="path12"
         style="fill:#ffffff;fill-opacity:1"
         inkscape:label="louisville-s" />
      <path
         d="m 59.72,48.54 c -0.92,0.09 -1.77,0.17 -1.89,0.18 -0.19,0 -0.18,0.09 0.12,0.78 l 0.35,0.78 c 0.06,16.21 0.03,19.39 -0.07,19.95 -0.07,0.44 -0.24,1.05 -0.38,1.34 -0.22,0.49 -0.22,0.52 -0.02,0.52 0.12,0 1.17,-0.08 2.33,-0.18 1.16,-0.1 2.12,-0.2 2.14,-0.22 0.02,-0.02 -0.09,-0.31 -0.25,-0.65 l -0.28,-0.62 c -0.06,-20.13 -0.05,-20.34 0.2,-21.04 0.13,-0.39 0.26,-0.77 0.27,-0.84 0.02,-0.07 -0.17,-0.13 -0.4,-0.14 -0.24,-0.01 -1.19,0.05 -2.12,0.14 z"
         id="path979"
         style="fill:#ffffff;fill-opacity:1"
         inkscape:label="louisville-i1" />
      <path
         d="m 51.72,49.35 c -0.96,0.13 -1.76,0.24 -1.77,0.24 -0.02,0 0.07,0.24 0.21,0.53 0.13,0.29 0.3,0.98 0.38,1.53 0.09,0.66 0.12,3.44 0.09,8.45 -0.04,6.61 -0.07,7.53 -0.26,8.08 -0.11,0.34 -0.36,0.83 -0.55,1.1 -0.2,0.27 -0.6,0.6 -0.96,0.77 -0.43,0.21 -0.84,0.31 -1.3,0.31 -0.51,0 -0.8,-0.07 -1.12,-0.28 -0.25,-0.17 -0.57,-0.54 -0.75,-0.91 l -0.31,-0.62 c -0.06,-13.96 -0.04,-16.34 0.07,-16.84 0.08,-0.38 0.23,-0.84 0.32,-1.03 0.14,-0.27 0.14,-0.35 0.02,-0.41 -0.09,-0.04 -1.12,0.09 -2.3,0.28 -1.18,0.19 -2.15,0.38 -2.15,0.41 0,0.04 0.13,0.35 0.28,0.69 0.29,0.62 0.29,0.63 0.36,8.82 0.05,6.02 0.12,8.37 0.23,8.83 0.09,0.34 0.31,0.95 0.49,1.37 0.18,0.41 0.59,1.02 0.9,1.36 0.37,0.41 0.84,0.75 1.36,0.99 0.59,0.26 1.04,0.37 1.73,0.41 0.59,0.04 1.23,-0.02 1.77,-0.14 0.46,-0.11 1.16,-0.35 1.55,-0.53 0.47,-0.22 1.03,-0.66 1.66,-1.28 0.66,-0.66 1.05,-1.18 1.32,-1.75 0.21,-0.44 0.48,-1.14 0.6,-1.55 0.19,-0.67 0.23,-1.64 0.3,-9.07 0.06,-6.31 0.11,-8.45 0.24,-8.83 0.09,-0.27 0.24,-0.65 0.33,-0.84 l 0.17,-0.34 c -0.91,0.02 -1.96,0.13 -2.91,0.25 z"
         id="path983"
         style="fill:#ffffff;fill-opacity:1"
         inkscape:label="louisville-u" />
      <path
         id="path989"
         style="fill:#ffffff;fill-opacity:1"
         d="M 33.855469 52.265625 C 33.476719 52.264688 33.043203 52.305859 32.720703 52.380859 C 32.310704 52.470859 31.609921 52.719688 31.169922 52.929688 C 30.719922 53.139687 30.080234 53.559375 29.740234 53.859375 C 29.400235 54.149375 28.84 54.810313 28.5 55.320312 C 28.16 55.830312 27.700469 56.690235 27.480469 57.240234 C 27.260469 57.790234 26.970078 58.709063 26.830078 59.289062 C 26.700078 59.869062 26.500625 61.010548 26.390625 61.810547 C 26.270625 62.740546 26.199219 64.230158 26.199219 65.910156 C 26.199219 67.360155 26.259844 69.059922 26.339844 69.669922 C 26.409844 70.289921 26.609531 71.320704 26.769531 71.970703 C 26.929531 72.620702 27.229688 73.490391 27.429688 73.900391 C 27.629687 74.31039 28.009532 74.889453 28.269531 75.189453 C 28.529531 75.489453 28.970235 75.859531 29.240234 76.019531 C 29.510234 76.179531 30.070469 76.369219 30.480469 76.449219 C 31.020468 76.549219 31.470313 76.549219 32.070312 76.449219 C 32.530312 76.379219 33.249688 76.179765 33.679688 76.009766 C 34.109687 75.839766 34.770157 75.459922 35.160156 75.169922 C 35.540156 74.879922 36.089141 74.359531 36.369141 74.019531 C 36.64914 73.679532 37.099375 72.980703 37.359375 72.470703 C 37.629375 71.950704 37.989922 71.060468 38.169922 70.480469 C 38.349922 69.900469 38.569922 69.000234 38.669922 68.490234 C 38.769922 67.980235 38.91 66.690858 39 65.630859 C 39.08 64.490861 39.110547 62.909296 39.060547 61.779297 C 39.020547 60.719298 38.889062 59.260781 38.789062 58.550781 C 38.679063 57.830782 38.430703 56.73914 38.220703 56.119141 C 38.020703 55.499141 37.620312 54.639218 37.320312 54.199219 C 37.020313 53.749219 36.570781 53.240781 36.300781 53.050781 C 36.040782 52.870781 35.630625 52.629297 35.390625 52.529297 C 35.150625 52.429297 34.620937 52.319297 34.210938 52.279297 C 34.103438 52.269297 33.981719 52.265937 33.855469 52.265625 z M 32.896484 55.230469 C 32.981953 55.229219 33.067891 55.232734 33.150391 55.240234 C 33.55039 55.290234 33.820547 55.410391 34.060547 55.650391 C 34.260547 55.84039 34.539219 56.250547 34.699219 56.560547 C 34.859219 56.860547 35.069688 57.479922 35.179688 57.919922 C 35.289687 58.369921 35.44 59.11961 35.5 59.599609 C 35.57 60.079609 35.660938 61.340392 35.710938 62.400391 C 35.750937 63.530389 35.730391 65.099454 35.650391 66.189453 C 35.570391 67.219452 35.389765 68.599532 35.259766 69.269531 C 35.129766 69.929531 34.859687 70.860313 34.679688 71.320312 C 34.459688 71.850312 34.139297 72.370235 33.779297 72.740234 C 33.419297 73.110234 33.040703 73.359219 32.720703 73.449219 C 32.380703 73.539219 32.069765 73.540937 31.759766 73.460938 C 31.479766 73.390938 31.160937 73.169687 30.960938 72.929688 C 30.780938 72.709688 30.520859 72.280703 30.380859 71.970703 C 30.25086 71.660703 30.030625 70.909062 29.890625 70.289062 C 29.700625 69.399063 29.639844 68.509451 29.589844 65.939453 C 29.539844 63.829455 29.569922 62.26039 29.669922 61.400391 C 29.749922 60.690391 29.919063 59.619062 30.039062 59.039062 C 30.169062 58.459063 30.410313 57.680781 30.570312 57.300781 C 30.740312 56.930782 31.089375 56.370312 31.359375 56.070312 C 31.629375 55.770313 32.020703 55.449375 32.220703 55.359375 C 32.385703 55.276875 32.640078 55.234219 32.896484 55.230469 z "
         inkscape:label="louisville-o" />
      <path
         d="m 18.37,56.51 c -1.19,0.37 -2.18,0.7 -2.2,0.73 -0.01,0.04 0.1,0.3 0.25,0.59 l 0.28,0.53 c 0,26.4 -0.01,26.74 -0.25,27.44 -0.13,0.39 -0.22,0.74 -0.18,0.77 0.03,0.04 1.54,-0.37 3.35,-0.91 1.81,-0.55 3.95,-1.17 4.75,-1.4 l 1.46,-0.42 c 0,-3.68 -0.05,-4.65 -0.12,-4.63 -0.06,0.02 -0.3,0.31 -0.54,0.65 -0.23,0.35 -0.72,0.84 -1.09,1.1 -0.46,0.32 -1.17,0.63 -2.23,0.96 -0.85,0.27 -1.62,0.49 -1.7,0.49 -0.13,0 -0.15,-2.56 -0.13,-12.46 l 0.03,-12.46 c 0.44,-1.16 0.55,-1.53 0.53,-1.57 -0.03,-0.05 -1.02,0.22 -2.21,0.59 z"
         id="path16"
         style="fill:#ffffff;fill-opacity:1"
         inkscape:label="louisville-l1" />
    </g>
  </g>
</svg>
