<?xml version="1.0" encoding="UTF-8" standalone="no"?>
<!-- Created with Inkscape (http://www.inkscape.org/) -->

<svg
   xmlns:dc="http://purl.org/dc/elements/1.1/"
   xmlns:cc="http://creativecommons.org/ns#"
   xmlns:rdf="http://www.w3.org/1999/02/22-rdf-syntax-ns#"
   xmlns:svg="http://www.w3.org/2000/svg"
   xmlns="http://www.w3.org/2000/svg"
   xmlns:sodipodi="http://sodipodi.sourceforge.net/DTD/sodipodi-0.dtd"
   xmlns:inkscape="http://www.inkscape.org/namespaces/inkscape"
   width="106.75299"
   height="133.80266"
   viewBox="0 0 28.245061 35.401954"
   version="1.1"
   id="svg10461"
   inkscape:version="0.92.0 r15299"
   sodipodi:docname="miami fc.svg">
  <defs
     id="defs10455">
    <clipPath
       id="clipPath8051"
       clipPathUnits="userSpaceOnUse">
      <path
         inkscape:connector-curvature="0"
         id="path8049"
         d="M 0,0 H 432 V 648 H 0 Z" />
    </clipPath>
    <clipPath
       id="clipPath8015"
       clipPathUnits="userSpaceOnUse">
      <path
         inkscape:connector-curvature="0"
         id="path8013"
         d="M 0,0 H 432 V 648 H 0 Z" />
    </clipPath>
    <clipPath
       id="clipPath8051-3"
       clipPathUnits="userSpaceOnUse">
      <path
         inkscape:connector-curvature="0"
         id="path8049-4"
         d="M 0,0 H 432 V 648 H 0 Z" />
    </clipPath>
    <clipPath
       id="clipPath8015-6"
       clipPathUnits="userSpaceOnUse">
      <path
         inkscape:connector-curvature="0"
         id="path8013-7"
         d="M 0,0 H 432 V 648 H 0 Z" />
    </clipPath>
  </defs>
  <sodipodi:namedview
     id="base"
     pagecolor="#ffffff"
     bordercolor="#666666"
     borderopacity="1.0"
     inkscape:pageopacity="0.0"
     inkscape:pageshadow="2"
     inkscape:zoom="4.0134737"
     inkscape:cx="44.251415"
     inkscape:cy="63.063858"
     inkscape:document-units="mm"
     inkscape:current-layer="layer1"
     showgrid="false"
     fit-margin-top="0"
     fit-margin-left="0"
     fit-margin-right="0"
     fit-margin-bottom="0"
     units="px"
     inkscape:window-width="1280"
     inkscape:window-height="744"
     inkscape:window-x="-4"
     inkscape:window-y="-4"
     inkscape:window-maximized="1" />
  <metadata
     id="metadata10458">
    <rdf:RDF>
      <cc:Work
         rdf:about="">
        <dc:format>image/svg+xml</dc:format>
        <dc:type
           rdf:resource="http://purl.org/dc/dcmitype/StillImage" />
        <dc:title></dc:title>
      </cc:Work>
    </rdf:RDF>
  </metadata>
  <g
     inkscape:label="Layer 1"
     inkscape:groupmode="layer"
     id="layer1"
     transform="translate(-82.785861,-142.96822)">
    <g
       id="g10741"
       transform="translate(0.13229244,-0.13228919)">
      <g
         transform="matrix(0.35277777,0,0,-0.35277777,-18.285886,253.16696)"
         id="g8009">
        <g
           clip-path="url(#clipPath8015-6)"
           id="g8011">
          <g
             transform="translate(363.1496,308.9524)"
             id="g8017">
            <path
               inkscape:connector-curvature="0"
               id="path8019"
               style="fill:#ffffff;fill-opacity:1;fill-rule:nonzero;stroke:none"
               d="m 0,0 c -0.444,1.57 -1.896,2.672 -3.531,2.672 h -66.917 c -1.636,0 -3.088,-1.102 -3.527,-2.672 -0.06,-0.21 -5.672,-22.237 -0.45,-47.889 3.881,-19.084 13.033,-31.151 20.025,-37.917 7.131,-6.89 14.992,-11.124 17.487,-11.124 2.752,0 10.548,4.568 17.332,11.13 6.994,6.76 16.146,18.827 20.028,37.911 C 5.665,-22.256 0.059,-0.21 0,0" />
          </g>
          <g
             transform="translate(361.9567,308.7232)"
             id="g8021">
            <path
               inkscape:connector-curvature="0"
               id="path8023"
               style="fill:#f03e1e;fill-opacity:1;fill-rule:nonzero;stroke:none"
               d="m 0,0 c -0.281,1.002 -1.199,1.698 -2.245,1.698 h -67.102 c -1.049,0 -1.964,-0.696 -2.248,-1.698 -0.223,-0.814 -5.524,-22.334 -0.429,-47.396 3.83,-18.805 12.831,-30.672 19.705,-37.322 7.199,-6.962 14.657,-10.78 16.597,-10.78 1.939,0 9.248,3.818 16.448,10.78 6.878,6.65 15.874,18.517 19.705,37.322 C 5.525,-22.334 0.225,-0.814 0,0" />
          </g>
          <g
             transform="translate(327.2408,271.1274)"
             id="g8025">
            <path
               inkscape:connector-curvature="0"
               id="path8027"
               style="fill:#ffffff;fill-opacity:1;fill-rule:nonzero;stroke:none"
               d="m 0,0 c -9.249,0.59 -17.228,-6.422 -17.823,-15.672 -0.594,-9.247 6.418,-17.226 15.665,-17.822 9.246,-0.59 17.226,6.422 17.824,15.673 C 16.258,-8.575 9.247,-0.598 0,0" />
          </g>
          <g
             transform="translate(325.2911,245.0608)"
             id="g8029">
            <path
               inkscape:connector-curvature="0"
               id="path8031"
               style="fill:#44a9d2;fill-opacity:1;fill-rule:nonzero;stroke:none"
               d="m 0,0 c -6.466,0.422 -11.581,5.295 -12.547,11.44 -0.065,-0.411 -0.114,-0.824 -0.141,-1.247 C -13.17,2.703 -7.491,-3.757 0,-4.241 7.486,-4.72 13.948,0.96 14.43,8.445 14.495,9.471 14.441,10.472 14.287,11.446 13.213,4.582 7.069,-0.451 0,0" />
          </g>
          <g
             transform="translate(327.2457,271.1544)"
             id="g8033">
            <path
               inkscape:connector-curvature="0"
               id="path8035"
               style="fill:#2c328e;fill-opacity:1;fill-rule:nonzero;stroke:none"
               d="m 0,0 c -9.268,0.596 -17.264,-6.429 -17.862,-15.696 -0.593,-9.262 6.435,-17.257 15.7,-17.853 9.264,-0.595 17.254,6.434 17.848,15.694 C 16.289,-8.587 9.258,-0.595 0,0 m 13.872,-17.735 c -0.533,-8.264 -7.658,-14.527 -15.919,-13.997 -2.128,0.138 -4.116,0.713 -5.899,1.633 -0.835,2.516 -0.933,4.924 -0.916,6.143 1.666,1.438 3.834,3.336 3.763,3.427 -0.074,0.09 -2.598,-1.366 -4.496,-2.479 -1.209,0.219 -3.655,0.818 -5.95,2.292 -0.421,1.558 -0.606,3.205 -0.495,4.906 0.203,3.199 1.405,6.099 3.271,8.423 l 0.117,-1.084 0.557,-2.437 2.324,-3.153 0.118,0.554 -0.954,1.702 0.56,-0.145 1.363,-1.909 0.098,-1.019 3.752,-1.224 0.482,-0.828 1.634,-0.234 -0.371,-2.361 1.066,-2.265 1.507,-0.788 -0.56,-6.215 1.212,-1.343 0.341,0.145 -0.164,0.771 1.037,2.324 0.957,0.375 1.954,2.836 1.598,0.703 1.343,3.007 -0.263,1.5 -3.109,1.062 -1.268,1.246 -0.376,0.168 -3.836,0.122 -0.685,-0.645 -1.555,0.527 -1.566,1.957 -1.499,0.179 0.038,1.816 2.291,0.473 0.754,-0.899 0.382,0.368 -0.562,1.134 c -0.038,0.096 1.866,2.408 1.866,2.408 l 2.134,1.75 -0.898,3.055 -2.269,0.08 -0.225,-0.558 0.369,-0.793 -0.817,-0.878 -1.916,1.482 1.574,1.574 3.515,-0.261 0.51,1.294 c 0.027,0 0.057,0 0.087,-0.002 2.905,-0.186 5.549,-1.186 7.751,-2.766 0.501,-2.527 0.398,-4.808 0.287,-5.931 -1.694,-1.46 -4.113,-3.567 -4.036,-3.663 0.08,-0.1 2.934,1.558 4.853,2.688 1.103,-0.313 3.037,-1.004 4.875,-2.327 0.254,-1.262 0.349,-2.578 0.264,-3.92" />
          </g>
        </g>
      </g>
      <g
         transform="matrix(0.35277777,0,0,-0.35277777,95.589276,162.25306)"
         id="g8037">
        <path
           inkscape:connector-curvature="0"
           id="path8039"
           style="fill:#2c328e;fill-opacity:1;fill-rule:nonzero;stroke:none"
           d="m 0,0 0.165,-0.2 0.62,0.167 1.407,-0.466 0.317,0.229 -0.125,0.266 -1.452,0.423 z" />
      </g>
      <g
         transform="matrix(0.35277777,0,0,-0.35277777,96.58149,162.37085)"
         id="g8041">
        <path
           inkscape:connector-curvature="0"
           id="path8043"
           style="fill:#2c328e;fill-opacity:1;fill-rule:nonzero;stroke:none"
           d="m 0,0 -0.148,-0.347 1.34,-0.026 0.072,0.319 -0.315,0.193 z" />
      </g>
      <g
         transform="matrix(0.35277777,0,0,-0.35277777,-18.285886,253.16696)"
         id="g8045">
        <g
           clip-path="url(#clipPath8051-3)"
           id="g8047">
          <g
             transform="translate(327.2457,271.1544)"
             id="g8053">
            <path
               inkscape:connector-curvature="0"
               id="path8055"
               style="fill:#2c328e;fill-opacity:1;fill-rule:nonzero;stroke:none"
               d="m 0,0 c -9.268,0.596 -17.264,-6.429 -17.862,-15.696 -0.593,-9.262 6.435,-17.257 15.7,-17.853 9.264,-0.595 17.254,6.434 17.848,15.694 C 16.289,-8.587 9.258,-0.595 0,0 m 13.872,-17.735 c -0.533,-8.264 -7.658,-14.527 -15.919,-13.997 -2.128,0.138 -4.116,0.713 -5.899,1.633 -0.835,2.516 -0.933,4.924 -0.916,6.143 1.666,1.438 3.834,3.336 3.763,3.427 -0.074,0.09 -2.598,-1.366 -4.496,-2.479 -1.209,0.219 -3.655,0.818 -5.95,2.292 -0.421,1.558 -0.606,3.205 -0.495,4.906 0.203,3.199 1.405,6.099 3.271,8.423 l 0.117,-1.084 0.557,-2.437 2.324,-3.153 0.118,0.554 -0.954,1.702 0.56,-0.145 1.363,-1.909 0.098,-1.019 3.752,-1.224 0.482,-0.828 1.634,-0.234 -0.371,-2.361 1.066,-2.265 1.507,-0.788 -0.56,-6.215 1.212,-1.343 0.341,0.145 -0.164,0.771 1.037,2.324 0.957,0.375 1.954,2.836 1.598,0.703 1.343,3.007 -0.263,1.5 -3.109,1.062 -1.268,1.246 -0.376,0.168 -3.836,0.122 -0.685,-0.645 -1.555,0.527 -1.566,1.957 -1.499,0.179 0.038,1.816 2.291,0.473 0.754,-0.899 0.382,0.368 -0.562,1.134 c -0.038,0.096 1.866,2.408 1.866,2.408 l 2.134,1.75 -0.898,3.055 -2.269,0.08 -0.225,-0.558 0.369,-0.793 -0.817,-0.878 -1.916,1.482 1.574,1.574 3.515,-0.261 0.51,1.294 c 0.027,0 0.057,0 0.087,-0.002 2.905,-0.186 5.549,-1.186 7.751,-2.766 0.501,-2.527 0.398,-4.808 0.287,-5.931 -1.694,-1.46 -4.113,-3.567 -4.036,-3.663 0.08,-0.1 2.934,1.558 4.853,2.688 1.103,-0.313 3.037,-1.004 4.875,-2.327 0.254,-1.262 0.349,-2.578 0.264,-3.92" />
          </g>
          <g
             transform="translate(359.7374,306.2564)"
             id="g8057">
            <path
               inkscape:connector-curvature="0"
               id="path8059"
               style="fill:#2c328e;fill-opacity:1;fill-rule:nonzero;stroke:none"
               d="M 0,0 C -0.187,0.839 -0.758,1.47 -1.752,1.47 H -65.41 c -0.991,0 -1.567,-0.631 -1.758,-1.47 -0.755,-3.323 -3.39,-16.385 -1.669,-33.092 0,0 0.173,0.165 0.525,0.454 5.212,4.443 16.184,8.744 31.234,2.831 0.149,-0.081 0.187,-0.124 -0.16,-0.055 -2.432,0.468 -12.911,1.9 -20.602,-1.988 -8.285,-4.185 -9.499,-13.098 -7.153,-20.968 8.973,-28.06 30.042,-37.346 31.476,-37.346 1.558,0 26.708,11.9 34.056,45.672 0.035,0.165 -0.014,0.254 -0.13,-0.075 -0.035,-0.097 -0.073,-0.191 -0.104,-0.284 -4.941,-13.258 -14.316,-19.492 -16.185,-20.407 -0.213,-0.1 -0.238,-0.073 -0.089,0.053 1.583,1.327 10.857,9.874 11.386,22.193 0.039,0.907 0.014,1.237 -0.097,2.316 -1.155,10.923 -14.762,16.741 -26.731,17.84 -2.112,0.195 -6.63,0.557 -1.174,0.557 20.163,0.071 32.77,-9.465 34.255,-10.793 0.004,0.036 0.011,0.106 0.011,0.106 C 3.404,-16.282 0.757,-3.323 0,0 m -12.877,-39.808 c 6.193,-15.166 -6.355,-27.208 -9.711,-28.861 0,0 7.514,0.874 13.769,4.877 0,0 0.236,0.145 0.098,-0.07 -3.526,-5.156 -12.296,-12.607 -23.626,-12.168 -16.283,0.622 -20.737,16.716 -20.744,19.837 0,0 -2.536,-5.464 -1.974,-13.185 l -0.155,-0.044 c 0.014,-0.248 0.106,-0.159 0.046,-0.055 -3.091,5.414 -5.859,13.391 -2.536,22.591 6.132,16.971 23.616,15.812 26.773,14.984 0,0 -4.455,4.739 -12.915,6.617 0.024,0.012 -0.184,0.125 0.165,0.157 2.916,0.266 23.995,1.999 30.81,-14.68" />
          </g>
          <g
             transform="translate(324.6265,224.5411)"
             id="g8061">
            <path
               inkscape:connector-curvature="0"
               id="path8063"
               style="fill:#ffffff;fill-opacity:1;fill-rule:nonzero;stroke:none"
               d="m 0,0 v 0.022 c 0,0.195 0.013,0.38 0.035,0.565 H -2.703 V 1.961 H 0.425 C 0.619,2.4 0.888,2.794 1.217,3.144 l 0.035,0.105 h -5.378 v -6.457 h 1.423 v 2.503 H 0.055 C 0.021,-0.475 0,-0.239 0,0" />
          </g>
          <g
             transform="translate(325.9003,224.5435)"
             id="g8065">
            <path
               inkscape:connector-curvature="0"
               id="path8067"
               style="fill:#ffffff;fill-opacity:1;fill-rule:nonzero;stroke:none"
               d="m 0,0 v 0.02 c 0,1.83 1.379,3.324 3.355,3.324 1.209,0 1.936,-0.402 2.537,-0.991 L 4.988,1.318 C 4.493,1.767 3.99,2.043 3.349,2.043 2.264,2.043 1.482,1.142 1.482,0.04 V 0.02 c 0,-1.1 0.761,-2.016 1.867,-2.016 0.73,0 1.18,0.291 1.686,0.75 L 5.938,-2.155 C 5.275,-2.86 4.54,-3.305 3.3,-3.305 1.409,-3.305 0,-1.843 0,0" />
          </g>
          <g
             transform="translate(356.9768,281.0726)"
             id="g8069">
            <path
               inkscape:connector-curvature="0"
               id="path8071"
               style="fill:#ffffff;fill-opacity:1;fill-rule:nonzero;stroke:none"
               d="M 0,0 V 22.645 H -3.303 V 1.366 C -2.181,0.938 -1.082,0.481 0,0" />
          </g>
          <g
             transform="translate(338.7155,286.2936)"
             id="g8073">
            <path
               inkscape:connector-curvature="0"
               id="path8075"
               style="fill:#ffffff;fill-opacity:1;fill-rule:nonzero;stroke:none"
               d="m 0,0 v 11.273 c 0,0 3.159,-5.256 4.632,-8.102 C 4.664,3.17 4.691,3.163 4.723,3.157 6.147,5.534 9.117,10.655 9.117,10.655 V -1.924 c 1.136,-0.319 2.25,-0.664 3.346,-1.039 l 0.003,20.387 H 8.632 c 0,0 -2.657,-5.304 -3.99,-7.778 -1.388,2.733 -4.158,7.778 -4.158,7.778 H -3.195 V 0.403 C -2.113,0.29 -1.05,0.154 0,0" />
          </g>
          <g
             transform="translate(298.6519,282.4417)"
             id="g8077">
            <path
               inkscape:connector-curvature="0"
               id="path8079"
               style="fill:#ffffff;fill-opacity:1;fill-rule:nonzero;stroke:none"
               d="m 0,0 v 13.735 c 0,0 2.816,-5.474 4.214,-7.958 0.027,0.009 0.06,0.013 0.085,0.021 1.469,3.187 3.03,6.157 4.509,8.967 V 2.692 c 1.112,0.257 2.234,0.494 3.385,0.704 v 17.88 H 8.519 c 0,0 -2.759,-5.493 -4.136,-8.486 -1.323,2.644 -3.994,8.486 -3.994,8.486 H -3.305 L -3.311,-1.369 C -2.227,-0.888 -1.125,-0.431 0,0" />
          </g>
          <g
             transform="translate(316.8022,286.6966)"
             id="g8081">
            <path
               inkscape:connector-curvature="0"
               id="path8083"
               style="fill:#ffffff;fill-opacity:1;fill-rule:nonzero;stroke:none"
               d="M 0,0 V 17.021 H -3.6 V -0.459 C -2.422,-0.282 -1.223,-0.128 0,0" />
          </g>
          <g
             transform="translate(321.4203,287.0494)"
             id="g8085">
            <path
               inkscape:connector-curvature="0"
               id="path8087"
               style="fill:#ffffff;fill-opacity:1;fill-rule:nonzero;stroke:none"
               d="m 0,0 c 0.484,1.276 0.969,2.543 1.455,3.803 2.214,0.071 4.427,0.071 6.64,-10e-4 0.483,-1.263 0.971,-2.528 1.46,-3.807 1.22,-0.065 2.421,-0.151 3.601,-0.26 C 10.859,5.704 6.392,16.668 6.392,16.668 H 3.247 c 0,0 -4.468,-10.956 -6.762,-16.916 C -2.364,-0.146 -1.193,-0.063 0,0 m 4.777,12.458 c 0.688,-1.791 1.383,-3.589 2.08,-5.394 -1.39,0.022 -2.775,0.022 -4.163,0 0.698,1.808 1.389,3.603 2.083,5.394" />
          </g>
        </g>
      </g>
    </g>
  </g>
</svg>
