<?xml version="1.0" encoding="UTF-8"?>
<svg width="177.36pt" height="225pt" version="1.2" viewBox="0 0 177.36 225" xmlns="http://www.w3.org/2000/svg" xmlns:cc="http://creativecommons.org/ns#" xmlns:dc="http://purl.org/dc/elements/1.1/" xmlns:rdf="http://www.w3.org/1999/02/22-rdf-syntax-ns#" xmlns:xlink="http://www.w3.org/1999/xlink">
<metadata>
<rdf:RDF>
<cc:Work rdf:about="">
<dc:format>image/svg+xml</dc:format>
<dc:type rdf:resource="http://purl.org/dc/dcmitype/StillImage"/>
<dc:title/>
</cc:Work>
</rdf:RDF>
</metadata>
<defs>
<symbol id="e" overflow="visible"></symbol>
<symbol id="d" overflow="visible"></symbol>
<symbol id="g" overflow="visible"></symbol>
<symbol id="c" overflow="visible"></symbol>
<symbol id="f" overflow="visible"></symbol>
<symbol id="a" overflow="visible"></symbol>
<symbol id="b" overflow="visible"></symbol>
<symbol id="h" overflow="visible"></symbol>
<clipPath id="i">
<rect width="240" height="140"/>
</clipPath>
<g clip-path="url(#i)"></g>
<clipPath>
<rect width="34" height="78"/>
</clipPath>
<clipPath>
<rect width="31" height="33"/>
</clipPath>
</defs>
<g transform="translate(229.4 65.901)">
<g>
<use x="1349.3295" y="1079.4521" width="100%" height="100%" xlink:href="#e"/>
</g>
<g>
<use x="1460.0863" y="1079.4521" width="100%" height="100%" xlink:href="#e"/>
</g>
<g>
<use x="82.834999" y="1079.4521" width="100%" height="100%" xlink:href="#d"/>
</g>
<g>
<use x="193.5929" y="1079.4521" width="100%" height="100%" xlink:href="#d"/>
</g>
<g>
<use x="908.8089" y="1079.969" width="100%" height="100%" xlink:href="#g"/>
</g>
<g fill="#faf000">
<use x="381.96609" y="749.5647" width="100%" height="100%" xlink:href="#c"/>
</g>
<g fill="#faf000">
<use x="390.41711" y="749.5647" width="100%" height="100%" xlink:href="#c"/>
</g>
<g fill="#faf000">
<use x="451.08609" y="749.5647" width="100%" height="100%" xlink:href="#c"/>
</g>
<g fill="#faf000">
<use x="490.1731" y="749.5647" width="100%" height="100%" xlink:href="#c"/>
</g>
<g fill="#faf000">
<use x="663.38623" y="749.5647" width="100%" height="100%" xlink:href="#c"/>
</g>
<g fill="#faf000">
<use x="617.18109" y="760.36469" width="100%" height="100%" xlink:href="#c"/>
</g>
<g fill="#faf000">
<use x="687.45312" y="771.16467" width="100%" height="100%" xlink:href="#c"/>
</g>
<g fill="#faf000">
<use x="397.29309" y="815.31873" width="100%" height="100%" xlink:href="#c"/>
</g>
<g fill="#faf000">
<use x="408.34509" y="815.31873" width="100%" height="100%" xlink:href="#c"/>
</g>
<g fill="#faf000">
<use x="488.2291" y="815.31873" width="100%" height="100%" xlink:href="#c"/>
</g>
<g fill="#faf000">
<use x="409.14609" y="826.11871" width="100%" height="100%" xlink:href="#c"/>
</g>
<g fill="#faf000">
<use x="450.34811" y="826.11871" width="100%" height="100%" xlink:href="#c"/>
</g>
<g fill="#faf000">
<use x="658.93213" y="815.31873" width="100%" height="100%" xlink:href="#c"/>
</g>
<g fill="#faf000">
<use x="683.97821" y="826.11871" width="100%" height="100%" xlink:href="#c"/>
</g>
<g fill="#faf000">
<use x="435.5611" y="881.07269" width="100%" height="100%" xlink:href="#c"/>
</g>
<g fill="#faf000">
<use x="468.6712" y="881.07269" width="100%" height="100%" xlink:href="#c"/>
</g>
<g fill="#faf000">
<use x="523.49921" y="881.07269" width="100%" height="100%" xlink:href="#c"/>
</g>
<g fill="#faf000">
<use x="402.90009" y="891.87268" width="100%" height="100%" xlink:href="#c"/>
</g>
<g fill="#faf000">
<use x="607.59613" y="881.07269" width="100%" height="100%" xlink:href="#c"/>
</g>
<g fill="#faf000">
<use x="661.20911" y="881.07269" width="100%" height="100%" xlink:href="#c"/>
</g>
<g fill="#faf000">
<use x="733.15509" y="881.07269" width="100%" height="100%" xlink:href="#c"/>
</g>
<g fill="#faf000">
<use x="599.08209" y="891.87268" width="100%" height="100%" xlink:href="#c"/>
</g>
<g fill="#faf000">
<use x="690.20618" y="946.51172" width="100%" height="100%" xlink:href="#c"/>
</g>
<g fill="#faf000">
<use x="713.16522" y="946.51172" width="100%" height="100%" xlink:href="#c"/>
</g>
<g>
<use x="737.27222" y="88.455902" width="100%" height="100%" xlink:href="#f"/>
</g>
<g>
<use x="232.627" y="267.2804" width="100%" height="100%" xlink:href="#a"/>
</g>
<g>
<use x="310.091" y="267.2804" width="100%" height="100%" xlink:href="#a"/>
</g>
<g>
<use x="194.194" y="281.08041" width="100%" height="100%" xlink:href="#a"/>
</g>
<g>
<use x="305.99585" y="281.08041" width="100%" height="100%" xlink:href="#a"/>
</g>
<g>
<use x="201.32401" y="308.68039" width="100%" height="100%" xlink:href="#a"/>
</g>
<g>
<use x="283.75485" y="308.68039" width="100%" height="100%" xlink:href="#a"/>
</g>
<g>
<use x="248.7592" y="322.48041" width="100%" height="100%" xlink:href="#a"/>
</g>
<g>
<use x="293.81619" y="322.48041" width="100%" height="100%" xlink:href="#a"/>
</g>
<g>
<use x="307.63919" y="322.48041" width="100%" height="100%" xlink:href="#a"/>
</g>
<g>
<use x="131.19701" y="336.2804" width="100%" height="100%" xlink:href="#a"/>
</g>
<g>
<use x="212.85851" y="336.2804" width="100%" height="100%" xlink:href="#a"/>
</g>
<g>
<use x="249.877" y="336.2804" width="100%" height="100%" xlink:href="#a"/>
</g>
<g>
<use x="258.77802" y="336.2804" width="100%" height="100%" xlink:href="#a"/>
</g>
<g>
<use x="145.32935" y="350.08041" width="100%" height="100%" xlink:href="#a"/>
</g>
<g>
<use x="205.92285" y="350.08041" width="100%" height="100%" xlink:href="#a"/>
</g>
<g>
<use x="257.32669" y="350.08041" width="100%" height="100%" xlink:href="#a"/>
</g>
<g>
<use x="278.6362" y="350.08041" width="100%" height="100%" xlink:href="#a"/>
</g>
<g>
<use x="292.51669" y="350.08041" width="100%" height="100%" xlink:href="#a"/>
</g>
<g>
<use x="153.41499" y="363.8804" width="100%" height="100%" xlink:href="#a"/>
</g>
<g>
<use x="318.095" y="363.8804" width="100%" height="100%" xlink:href="#a"/>
</g>
<g>
<use x="231.85535" y="377.68039" width="100%" height="100%" xlink:href="#a"/>
</g>
<g>
<use x="249.58835" y="377.68039" width="100%" height="100%" xlink:href="#a"/>
</g>
<g>
<use x="320.39386" y="377.68039" width="100%" height="100%" xlink:href="#a"/>
</g>
<g>
<use x="155.70465" y="391.48041" width="100%" height="100%" xlink:href="#a"/>
</g>
<g>
<use x="317.65915" y="391.48041" width="100%" height="100%" xlink:href="#a"/>
</g>
<g>
<use x="262.59485" y="432.8804" width="100%" height="100%" xlink:href="#a"/>
</g>
<g>
<use x="280.66019" y="446.68039" width="100%" height="100%" xlink:href="#a"/>
</g>
<g>
<use x="74.052353" y="460.48041" width="100%" height="100%" xlink:href="#a"/>
</g>
<g>
<use x="160.41734" y="460.48041" width="100%" height="100%" xlink:href="#a"/>
</g>
<g>
<use x="174.29785" y="460.48041" width="100%" height="100%" xlink:href="#a"/>
</g>
<g>
<use x="312.72336" y="460.48041" width="100%" height="100%" xlink:href="#a"/>
</g>
<g>
<use x="97.410004" y="474.2804" width="100%" height="100%" xlink:href="#a"/>
</g>
<g>
<use x="231.60236" y="474.2804" width="100%" height="100%" xlink:href="#a"/>
</g>
<g>
<use x="56.861" y="488.08041" width="100%" height="100%" xlink:href="#a"/>
</g>
<g>
<use x="98.732498" y="488.08041" width="100%" height="100%" xlink:href="#a"/>
</g>
<g>
<use x="188.61536" y="488.08041" width="100%" height="100%" xlink:href="#a"/>
</g>
<g>
<use x="215.60585" y="488.08041" width="100%" height="100%" xlink:href="#a"/>
</g>
<g>
<use x="150.8275" y="515.68042" width="100%" height="100%" xlink:href="#a"/>
</g>
<g>
<use x="69.947998" y="543.2804" width="100%" height="100%" xlink:href="#a"/>
</g>
<g>
<use x="123.9405" y="543.2804" width="100%" height="100%" xlink:href="#a"/>
</g>
<g>
<use x="317.29001" y="543.2804" width="100%" height="100%" xlink:href="#a"/>
</g>
<g>
<use x="137.67035" y="557.08038" width="100%" height="100%" xlink:href="#a"/>
</g>
<g>
<use x="262.91684" y="557.08038" width="100%" height="100%" xlink:href="#a"/>
</g>
<g>
<use x="101.6765" y="570.88037" width="100%" height="100%" xlink:href="#a"/>
</g>
<g>
<use x="134.4055" y="570.88037" width="100%" height="100%" xlink:href="#a"/>
</g>
<g>
<use x="148.2285" y="570.88037" width="100%" height="100%" xlink:href="#a"/>
</g>
<g>
<use x="173.09035" y="584.68042" width="100%" height="100%" xlink:href="#a"/>
</g>
<g>
<use x="50.306" y="598.48041" width="100%" height="100%" xlink:href="#a"/>
</g>
<g>
<use x="92.50985" y="598.48041" width="100%" height="100%" xlink:href="#a"/>
</g>
<g>
<use x="308.15671" y="598.48041" width="100%" height="100%" xlink:href="#a"/>
</g>
<g>
<use x="152.48235" y="612.2804" width="100%" height="100%" xlink:href="#a"/>
</g>
<g>
<use x="229.94635" y="612.2804" width="100%" height="100%" xlink:href="#a"/>
</g>
<g>
<use x="283.0867" y="612.2804" width="100%" height="100%" xlink:href="#a"/>
</g>
<g>
<use x="59.23" y="626.08038" width="100%" height="100%" xlink:href="#a"/>
</g>
<g>
<use x="88.668854" y="626.08038" width="100%" height="100%" xlink:href="#a"/>
</g>
<g>
<use x="267.51801" y="626.08038" width="100%" height="100%" xlink:href="#a"/>
</g>
<g>
<use x="281.3985" y="626.08038" width="100%" height="100%" xlink:href="#a"/>
</g>
<g>
<use x="308.78" y="626.08038" width="100%" height="100%" xlink:href="#a"/>
</g>
<g>
<use x="219.655" y="639.88037" width="100%" height="100%" xlink:href="#a"/>
</g>
<g>
<use x="244.1615" y="639.88037" width="100%" height="100%" xlink:href="#a"/>
</g>
<g>
<use x="309.539" y="639.88037" width="100%" height="100%" xlink:href="#a"/>
</g>
<g>
<use x="269.10385" y="667.48041" width="100%" height="100%" xlink:href="#a"/>
</g>
<g>
<use x="46.775501" y="681.2804" width="100%" height="100%" xlink:href="#a"/>
</g>
<g>
<use x="866.22522" y="495.07101" width="100%" height="100%" xlink:href="#b"/>
</g>
<g>
<use x="906.65723" y="495.07101" width="100%" height="100%" xlink:href="#b"/>
</g>
<g>
<use x="948.65668" y="495.07101" width="100%" height="100%" xlink:href="#b"/>
</g>
<g>
<use x="1053.9917" y="495.07101" width="100%" height="100%" xlink:href="#b"/>
</g>
<g>
<use x="865.90851" y="506.47101" width="100%" height="100%" xlink:href="#b"/>
</g>
<g>
<use x="919.93402" y="506.47101" width="100%" height="100%" xlink:href="#b"/>
</g>
<g>
<use x="958.23804" y="506.47101" width="100%" height="100%" xlink:href="#b"/>
</g>
<g>
<use x="972.88702" y="506.47101" width="100%" height="100%" xlink:href="#b"/>
</g>
<g>
<use x="1095.342" y="506.47101" width="100%" height="100%" xlink:href="#b"/>
</g>
<g>
<use x="1141.2175" y="506.47101" width="100%" height="100%" xlink:href="#b"/>
</g>
<g>
<use x="844.89447" y="517.87097" width="100%" height="100%" xlink:href="#b"/>
</g>
<g>
<use x="869.37506" y="517.87097" width="100%" height="100%" xlink:href="#b"/>
</g>
<g>
<use x="1096.0925" y="517.87097" width="100%" height="100%" xlink:href="#b"/>
</g>
<g>
<use x="1127.7085" y="517.87097" width="100%" height="100%" xlink:href="#b"/>
</g>
<g>
<use x="873.85052" y="529.271" width="100%" height="100%" xlink:href="#b"/>
</g>
<g>
<use x="884.31" y="529.271" width="100%" height="100%" xlink:href="#b"/>
</g>
<g>
<use x="969.44897" y="529.271" width="100%" height="100%" xlink:href="#b"/>
</g>
<g>
<use x="902.13104" y="552.07098" width="100%" height="100%" xlink:href="#b"/>
</g>
<g>
<use x="1018.2971" y="552.07098" width="100%" height="100%" xlink:href="#b"/>
</g>
<g>
<use x="1073.7485" y="552.07098" width="100%" height="100%" xlink:href="#b"/>
</g>
<g>
<use x="945.67999" y="563.47101" width="100%" height="100%" xlink:href="#b"/>
</g>
<g>
<use x="971.06403" y="563.47101" width="100%" height="100%" xlink:href="#b"/>
</g>
<g>
<use x="934.45007" y="586.271" width="100%" height="100%" xlink:href="#b"/>
</g>
<g>
<use x="944.90955" y="586.271" width="100%" height="100%" xlink:href="#b"/>
</g>
<g>
<use x="984.27753" y="586.271" width="100%" height="100%" xlink:href="#b"/>
</g>
<g>
<use x="998.9256" y="586.271" width="100%" height="100%" xlink:href="#b"/>
</g>
<g>
<use x="1134.7417" y="933.74652" width="100%" height="100%" xlink:href="#b"/>
</g>
<g>
<use x="878.97418" y="945.14648" width="100%" height="100%" xlink:href="#b"/>
</g>
<g>
<use x="942.96429" y="945.14648" width="100%" height="100%" xlink:href="#b"/>
</g>
<g>
<use x="988.88733" y="945.14648" width="100%" height="100%" xlink:href="#b"/>
</g>
<g>
<use x="1130.3405" y="945.14648" width="100%" height="100%" xlink:href="#b"/>
</g>
<g>
<use x="870.9657" y="956.54651" width="100%" height="100%" xlink:href="#b"/>
</g>
<g>
<use x="946.74628" y="956.54651" width="100%" height="100%" xlink:href="#b"/>
</g>
<g>
<use x="1010.7382" y="956.54651" width="100%" height="100%" xlink:href="#b"/>
</g>
<g>
<use x="1006.7673" y="967.94647" width="100%" height="100%" xlink:href="#b"/>
</g>
<g>
<use x="1044.5393" y="967.94647" width="100%" height="100%" xlink:href="#b"/>
</g>
<g>
<use x="1044.6143" y="979.3465" width="100%" height="100%" xlink:href="#b"/>
</g>
<g>
<use x="1100.8448" y="979.3465" width="100%" height="100%" xlink:href="#b"/>
</g>
<g>
<use x="867.99127" y="990.74652" width="100%" height="100%" xlink:href="#b"/>
</g>
<g>
<use x="1001.7797" y="990.74652" width="100%" height="100%" xlink:href="#b"/>
</g>
<g>
<use x="1067.2242" y="990.74652" width="100%" height="100%" xlink:href="#b"/>
</g>
<g>
<use x="1104.1223" y="990.74652" width="100%" height="100%" xlink:href="#b"/>
</g>
<g>
<use x="902.61969" y="1002.1465" width="100%" height="100%" xlink:href="#b"/>
</g>
<g>
<use x="1073.3062" y="1002.1465" width="100%" height="100%" xlink:href="#b"/>
</g>
<g>
<use x="1020.2772" y="1013.5465" width="100%" height="100%" xlink:href="#b"/>
</g>
<g>
<use x="1046.4972" y="1013.5465" width="100%" height="100%" xlink:href="#b"/>
</g>
<g>
<use x="1076.0897" y="1013.5465" width="100%" height="100%" xlink:href="#b"/>
</g>
<g>
<use x="1148.8208" y="1013.5465" width="100%" height="100%" xlink:href="#b"/>
</g>
<g>
<use x="897.61322" y="1024.9465" width="100%" height="100%" xlink:href="#b"/>
</g>
<g>
<use x="1143.7012" y="1024.9465" width="100%" height="100%" xlink:href="#b"/>
</g>
<g>
<use x="904.65271" y="1036.3466" width="100%" height="100%" xlink:href="#b"/>
</g>
<g>
<use x="949.12219" y="1036.3466" width="100%" height="100%" xlink:href="#b"/>
</g>
<g>
<use x="868.96118" y="1047.7465" width="100%" height="100%" xlink:href="#b"/>
</g>
<g>
<use x="922.96777" y="1047.7465" width="100%" height="100%" xlink:href="#b"/>
</g>
<path d="m-59.083-47.503c-31.764-16.009-64.779-18.398-81.628-18.398-16.855 0-49.87 2.3893-81.634 18.398l-7.0508 3.5482 0.46875 7.8841 5.97 99.564c0.0847 1.4128 1.2695 17.721 11.27 37.025 5.9635 11.51 13.874 21.868 23.509 30.794 11.908 11.029 26.445 19.837 43.216 26.185l4.2513 1.6016 4.2448-1.6016c16.771-6.3476 31.315-15.156 43.216-26.191 9.6354-8.9193 17.546-19.277 23.509-30.788 10-19.303 11.191-35.612 11.276-37.025l5.9636-99.564 0.46875-7.8841z" fill="#fff000"/>
<path d="m-59.565-39.618-2.7864-1.3997c-17.311-8.7174-34.889-13.099-49.141-15.332-7.1289-1.1133-13.431-1.6862-18.457-1.9792-5.0195-0.29297-8.7826-0.3125-10.762-0.3125-1.9792 0-5.7422 0.01953-10.768 0.3125-7.5391 0.44271-17.943 1.5104-29.714 4.0885-11.764 2.5846-24.902 6.6797-37.884 13.223l-2.7864 1.3997 3.75 62.533 50.859 21.178v0.03907l26.543 11.048v-10.26l-68.301-28.438-3.0143-50.404c15.254-7.2461 30.781-11.074 43.555-13.066 6.7774-1.0547 12.78-1.6016 17.546-1.8815 4.7786-0.27995 8.3073-0.29948 10.215-0.29948 1.9076 0 5.4297 0.01953 10.208 0.29948 7.155 0.41667 17.077 1.4388 28.236 3.8867 10.306 2.2591 21.66 5.7422 32.871 11.061l-5.7812 96.419v0.026c-0.01333 0.22135-0.25392 3.8281-1.6081 9.4596-1.1198 4.6875-3.0208 10.775-6.1719 17.493l-124.79-51.966v-0.01953l-9.7331-4.0495 0.63152 10.54 49.596 20.651v0.0067l79.818 33.236c-1.5755 2.6432-3.3594 5.3255-5.3711 8.0208l-74.447-31.003v0.0067l-48.965-20.391s0.55339 9.3424 0.70312 10.586l10.293 4.2839c0-0.0067 0-0.0195-7e-3 -0.0325l106.1 44.18c-3.8281 4.1471-8.2617 8.2357-13.411 12.122-7.6758 5.7878-16.94 11.12-28.164 15.54-15.41-6.0612-27.129-13.848-36.1-22.161-6.9726-6.4518-12.285-13.229-16.354-19.772-1.1849-1.8945-2.2591-3.776-3.2357-5.625l55.996 23.32v-10.267l-61.536-25.618c-7e-3 -0.0195-0.0133-0.039-0.0195-0.05867l-11.374-4.7396c2.4284 9.1927 7.2917 22.122 17.07 35.254 5.4362 7.2917 12.396 14.635 21.25 21.38 8.8607 6.7448 19.616 12.884 32.617 17.799l1.6797 0.63802 1.6732-0.63802c17.337-6.556 30.677-15.286 40.853-24.72 7.6367-7.0703 13.49-14.525 17.962-21.719 6.7122-10.794 10.326-20.996 12.272-28.535 1.9401-7.5456 2.2201-12.441 2.2331-12.695v0.0325z" fill="#211c1e"/>
<path d="m-89.52 46.358-17.012 19.46-17.253-19.271 17.012-19.46z" fill="#211c1e"/>
<path d="m-113.37 41.404c0.40365 0 0.72917-0.03907 0.98959-0.13022 0.25391-0.08463 0.46875-0.20833 0.63151-0.35807 0.16284-0.14973 0.29297-0.32552 0.39064-0.52734 0.10416-0.19531 0.1888-0.41016 0.26691-0.63802h1.3932v13.164h-2.0703v-10.039h-1.6016z" fill="#fff000"/>
<path d="m-100.23 49.75c0 1.0677-0.27995 1.888-0.83334 2.4544-0.54688 0.57292-1.3477 0.85938-2.4024 0.85938-1.0547 0-1.8555-0.28646-2.4088-0.85938-0.55338-0.5664-0.82683-1.3867-0.82683-2.4544v-1.0286c0-0.64453 0.10417-1.1979 0.29948-1.6667 0.20184-0.46875 0.52735-0.82682 0.98309-1.0807-0.85939-0.46224-1.2826-1.3477-1.2826-2.6497v-0.41667c0-1.0612 0.27345-1.8815 0.82683-2.4479 0.55339-0.57292 1.3542-0.85938 2.4088-0.85938 1.0547 0 1.8555 0.28646 2.4024 0.85938 0.55339 0.56641 0.83334 1.3867 0.83334 2.4479v0.41667c0 1.2891-0.4297 2.1745-1.2826 2.6497 0.44921 0.25391 0.78125 0.61198 0.97655 1.0807 0.20183 0.46875 0.306 1.0221 0.306 1.6667zm-4.401-6.0352c0 0.52734 0.11066 0.89193 0.32551 1.0938 0.22137 0.20182 0.50132 0.29948 0.83985 0.29948 0.32552 0 0.59897-0.09765 0.82682-0.29948 0.22787-0.20182 0.33855-0.5664 0.33855-1.0938v-0.72917c0-0.59245-0.11067-0.98958-0.33855-1.1914-0.22785-0.20833-0.5013-0.3125-0.82682-0.3125-0.32551 0-0.59895 0.10417-0.82681 0.3125-0.22787 0.20182-0.33855 0.59896-0.33855 1.1914zm0 5.9831c0 0.58594 0.11066 0.98307 0.33855 1.1849 0.22786 0.20182 0.5013 0.29948 0.82681 0.29948 0.32552 0 0.59897-0.09765 0.82032-0.29948 0.21483-0.20182 0.33203-0.59896 0.34505-1.1849v-1.224c0-0.52734-0.10417-0.90495-0.3125-1.1393-0.20182-0.22786-0.48828-0.34505-0.85287-0.34505-0.36458 0-0.65103 0.11718-0.85936 0.34505-0.20184 0.23438-0.306 0.61198-0.306 1.1393z" fill="#fff000"/>
<path d="m-188.56-18.642v25.247c0 2.3307 1.0286 3.1771 2.6628 3.1771 1.6341 0 2.6628-0.84635 2.6628-3.1771v-25.247h4.8633v24.915c0 5.2344-2.6172 8.2292-7.6628 8.2292-5.0521 0-7.6693-2.9948-7.6693-8.2292v-24.915z" fill="#211c1e"/>
<path d="m-168.56-9.6185v23.698h-4.6289v-32.721h6.4518l5.2865 19.59v-19.59h4.5768v32.721h-5.28z" fill="#211c1e"/>
<path d="m-151.44-18.642h5.1432v32.728h-5.1432z" fill="#211c1e"/>
<path d="m-142.33-18.642h15.892v4.6745h-5.3711v28.047h-5.1432v-28.047h-5.3776z" fill="#211c1e"/>
<path d="m-117.31-4.8529h7.0573v4.6745h-7.0573v9.5833h8.8802v4.6745h-14.023v-32.721h14.023v4.6745h-8.8802z" fill="#211c1e"/>
<path d="m-103.52-18.642h8.138c5.1432 0 7.6693 2.8516 7.6693 8.0859v16.549c0 5.2344-2.526 8.0859-7.6693 8.0859h-8.138zm5.1432 4.6745v23.372h2.8971c1.6406 0 2.6172-0.83984 2.6172-3.1771v-17.018c0-2.3372-0.97657-3.1771-2.6172-3.1771z" fill="#211c1e"/>
<path d="m-175.33-27.965c-0.57292 0.10417-0.86588 0.15625-1.4388 0.26693-1.8294-1.4909-2.7539-2.2331-4.6484-3.6849 0.3776 1.7773 0.5664 2.6628 0.94401 4.4401-0.73568 0.15625-1.1068 0.23438-1.8424 0.39714-0.67708-3.0339-1.0156-4.5508-1.6992-7.5846 0.59895-0.13022 0.89843-0.19531 1.4974-0.32552 1.9141 1.4128 2.8581 2.1289 4.7005 3.5872-0.33855-1.7513-0.50781-2.6237-0.84636-4.375 0.76823-0.14973 1.1589-0.22135 1.9271-0.36458 0.56642 3.0534 0.84637 4.5833 1.4062 7.6432" fill="#211c1e"/>
<path d="m-167.85-32.418c-1.2826 0.18229-1.9271 0.27344-3.2096 0.47526 0.0977 0.625 0.14967 0.9375 0.24739 1.5625 1.5169-0.24088 2.2786-0.35156 3.7956-0.5599 0.0912 0.64453 0.13667 0.96354 0.22135 1.6081-2.2591 0.30599-3.3854 0.48177-5.638 0.85286-0.51433-3.0599-0.76823-4.5964-1.2891-7.6562 2.3438-0.39714 3.5221-0.57943 5.8724-0.89844 0.0912 0.64453 0.13016 0.96354 0.22135 1.6016-1.556 0.21484-2.3372 0.33203-3.8867 0.57292 0.0912 0.58594 0.13667 0.87891 0.22787 1.4583 1.2956-0.20182 1.9401-0.29948 3.2357-0.48177 0.0782 0.58594 0.12367 0.8789 0.20184 1.4648" fill="#211c1e"/>
<path d="m-160.29-34.495c-0.36459 1.7904-0.53385 2.6823-0.8724 4.4727-0.57942 0.0651-0.87239 0.09765-1.4518 0.16277-1.263-2.9883-1.9076-4.4727-3.2487-7.4349 0.85938-0.11068 1.2891-0.16277 2.1484-0.26042 0.59897 1.5885 0.89845 2.3828 1.4779 3.9779 0.33855-1.6927 0.51433-2.5456 0.87892-4.2383 0.57941-0.0586 0.87238-0.08463 1.4583-0.14323 0.70312 1.6016 1.0417 2.3958 1.7188 4.0039 0.26692-1.6862 0.40363-2.5326 0.6901-4.2188 0.8724-0.07162 1.3021-0.10417 2.168-0.16927-0.72265 3.1706-1.0677 4.7526-1.7188 7.9297-0.57944 0.04557-0.8724 0.07162-1.4518 0.13022-0.70965-1.6927-1.0677-2.5326-1.7969-4.2122" fill="#211c1e"/>
<path d="m-142.64-35.361c-0.67708 0.89844-1.0156 1.3477-1.6797 2.2526-0.32552 0-0.48829 0.0065-0.80729 0.013-0.70313-0.88542-1.0612-1.3216-1.7774-2.2005 0.052 1.7253 0.0717 2.5781 0.12367 4.3034-0.7487 0.01953-1.1263 0.03255-1.875 0.0586-0.11717-3.1055-0.17578-4.6549-0.29297-7.7604 0.63802-0.02605 0.95052-0.03907 1.5885-0.0586 1.0482 1.3021 1.569 1.9531 2.5846 3.2682 0.97007-1.3477 1.4648-2.0247 2.4674-3.3594 0.63152 0 0.95053-0.0065 1.5886 0-7e-3 3.1055-7e-3 4.6615-7e-3 7.7669-0.7552 0-1.1263 0-1.8815 0.0065-0.0133-1.7188-0.0195-2.5716-0.0325-4.2904" fill="#211c1e"/>
<path d="m-132.59-34.078c-1.2956-0.0586-1.9401-0.08463-3.2357-0.11718-0.0195 0.63151-0.026 0.94401-0.0455 1.5755 1.53 0.04557 2.2982 0.07162 3.8281 0.14973-0.0325 0.64453-0.052 0.97005-0.0782 1.6146-2.2721-0.11068-3.4115-0.14973-5.6836-0.1888 0.052-3.1055 0.0847-4.6615 0.13667-7.7669 2.3698 0.03907 3.5547 0.07812 5.9245 0.19531-0.0325 0.64453-0.052 0.97005-0.0782 1.6146-1.569-0.07162-2.3503-0.10417-3.9193-0.14973-0.0195 0.59245-0.026 0.88542-0.0455 1.4779 1.3086 0.03907 1.9596 0.0586 3.2617 0.11718-0.026 0.59245-0.039 0.88542-0.0652 1.4779" fill="#211c1e"/>
<path d="m-124.72-34.339c0.79428 1.6667 1.1849 2.5 1.9466 4.1732-0.91796-0.09115-1.3737-0.13672-2.2917-0.21484-0.36459-0.95052-0.54687-1.4258-0.91797-2.3763-0.11067-0.28646-0.16927-0.42318-0.27995-0.70964-0.14317 0.26042-0.22135 0.39714-0.37108 0.65755-0.51434 0.88542-0.76824 1.3216-1.276 2.207-0.91797-0.0651-1.3672-0.09765-2.2786-0.14973 0.98958-1.5365 1.4974-2.2982 2.5326-3.8216-0.80078-1.5755-1.211-2.3633-2.0508-3.9323 0.95052 0.0586 1.4323 0.08463 2.3828 0.15625 0.38412 0.89193 0.57292 1.3411 0.95053 2.2396 0.10417 0.29948 0.15617 0.44922 0.26042 0.7487 0.15617-0.27995 0.23437-0.42318 0.39062-0.69662 0.51433-0.82682 0.76823-1.2435 1.2891-2.0638 0.94402 0.07812 1.4193 0.1237 2.3698 0.21484-1.0807 1.4193-1.6146 2.1354-2.6562 3.5677" fill="#211c1e"/>
<path d="m-118.77-29.729c-0.75522-0.09115-1.1328-0.13022-1.8815-0.21484 0.33855-3.0924 0.50782-4.6354 0.84635-7.7279 0.78125 0.09115 1.1784 0.13672 1.9596 0.22786-0.37109 3.0859-0.55339 4.6289-0.92447 7.7148" fill="#211c1e"/>
<path d="m-109.52-29.169s-0.98308 0.79427-2.806 0.51432c-2.5065-0.39062-3.75-2.4023-3.457-4.6094 0.29947-2.207 2.0964-3.8216 4.707-3.4115 1.901 0.29297 2.6042 1.3802 2.6042 1.3802-0.54035 0.48828-0.8138 0.73568-1.3476 1.2305 0 0-0.4362-0.66406-1.5039-0.83333-1.2565-0.1888-2.2786 0.57943-2.474 1.9076-0.19532 1.3346 0.55338 2.3568 1.7774 2.5521 1.0482 0.15625 1.6602-0.32552 1.6602-0.32552 0.33855 0.63802 0.50782 0.95703 0.83985 1.5951" fill="#211c1e"/>
<path d="m-107.44-31.962c0.39062-2.194 2.4088-3.6914 4.8307-3.2031 2.4544 0.48828 3.737 2.6562 3.2487 4.8307-0.48177 2.1745-2.4935 3.6003-4.8437 3.125-2.3242-0.46224-3.6263-2.5586-3.2357-4.7526m6.1198 1.1979c0.27995-1.3151-0.46224-2.3893-1.6406-2.6237-1.1588-0.23438-2.2526 0.46875-2.5065 1.7904-0.2539 1.3216 0.4948 2.3763 1.6211 2.5977 1.1523 0.23438 2.2461-0.44271 2.526-1.7643" fill="#211c1e"/>
<g>
<use x="1267.6722" y="189.5125" width="100%" height="100%" xlink:href="#h"/>
</g>
</g>
</svg>
