<?xml version="1.0" encoding="UTF-8"?>
<svg width="156.47pt" height="225pt" version="1.2" viewBox="0 0 156.47 225" xmlns="http://www.w3.org/2000/svg" xmlns:cc="http://creativecommons.org/ns#" xmlns:dc="http://purl.org/dc/elements/1.1/" xmlns:rdf="http://www.w3.org/1999/02/22-rdf-syntax-ns#" xmlns:xlink="http://www.w3.org/1999/xlink">
<metadata>
<rdf:RDF>
<cc:Work rdf:about="">
<dc:format>image/svg+xml</dc:format>
<dc:type rdf:resource="http://purl.org/dc/dcmitype/StillImage"/>
<dc:title/>
</cc:Work>
</rdf:RDF>
</metadata>
<defs>
<symbol id="f" overflow="visible"></symbol>
<symbol id="e" overflow="visible"></symbol>
<symbol id="h" overflow="visible"></symbol>
<symbol id="g" overflow="visible"></symbol>
<symbol id="c" overflow="visible"></symbol>
<symbol id="d" overflow="visible"></symbol>
<symbol id="a" overflow="visible"></symbol>
<symbol id="b" overflow="visible"></symbol>
<clipPath id="i">
<rect width="240" height="140"/>
</clipPath>
<g clip-path="url(#i)"></g>
<clipPath>
<rect width="34" height="78"/>
</clipPath>
<clipPath>
<rect width="31" height="33"/>
</clipPath>
</defs>
<g transform="translate(-704.3 -346.02)">
<g>
<use x="1349.3295" y="1079.4521" width="100%" height="100%" xlink:href="#f"/>
</g>
<g>
<use x="1460.0863" y="1079.4521" width="100%" height="100%" xlink:href="#f"/>
</g>
<g>
<use x="82.834999" y="1079.4521" width="100%" height="100%" xlink:href="#e"/>
</g>
<g>
<use x="193.5929" y="1079.4521" width="100%" height="100%" xlink:href="#e"/>
</g>
<g>
<use x="1267.6722" y="189.5125" width="100%" height="100%" xlink:href="#h"/>
</g>
<g>
<use x="908.8089" y="1079.969" width="100%" height="100%" xlink:href="#g"/>
</g>
<g fill="#fff">
<use x="386.25009" y="815.31873" width="100%" height="100%" xlink:href="#c"/>
</g>
<g fill="#fff">
<use x="439.86221" y="815.31873" width="100%" height="100%" xlink:href="#c"/>
</g>
<g fill="#fff">
<use x="574.45251" y="815.31897" width="100%" height="100%" xlink:href="#c"/>
</g>
<g fill="#fff">
<use x="585.50452" y="815.31897" width="100%" height="100%" xlink:href="#c"/>
</g>
<g fill="#fff">
<use x="698.8595" y="815.31897" width="100%" height="100%" xlink:href="#c"/>
</g>
<g fill="#fff">
<use x="440.78448" y="881.073" width="100%" height="100%" xlink:href="#c"/>
</g>
<g fill="#fff">
<use x="476.5856" y="881.073" width="100%" height="100%" xlink:href="#c"/>
</g>
<g fill="#fff">
<use x="618.22852" y="881.073" width="100%" height="100%" xlink:href="#c"/>
</g>
<g fill="#fff">
<use x="722.56458" y="881.073" width="100%" height="100%" xlink:href="#c"/>
</g>
<g fill="#fff">
<use x="652.64447" y="946.51202" width="100%" height="100%" xlink:href="#c"/>
</g>
<g>
<use x="659.8656" y="88.455902" width="100%" height="100%" xlink:href="#d"/>
</g>
<g>
<use x="709.4328" y="88.455902" width="100%" height="100%" xlink:href="#d"/>
</g>
<g>
<use x="738.24078" y="102.9119" width="100%" height="100%" xlink:href="#d"/>
</g>
<g>
<use x="293.45645" y="267.19971" width="100%" height="100%" xlink:href="#a"/>
</g>
<g>
<use x="93.375061" y="280.8797" width="100%" height="100%" xlink:href="#a"/>
</g>
<g>
<use x="46.681801" y="294.55969" width="100%" height="100%" xlink:href="#a"/>
</g>
<g>
<use x="99.600601" y="308.23969" width="100%" height="100%" xlink:href="#a"/>
</g>
<g>
<use x="151.8582" y="308.23969" width="100%" height="100%" xlink:href="#a"/>
</g>
<g>
<use x="235.4088" y="308.23969" width="100%" height="100%" xlink:href="#a"/>
</g>
<g>
<use x="288.93179" y="308.23969" width="100%" height="100%" xlink:href="#a"/>
</g>
<g>
<use x="106.6002" y="321.91971" width="100%" height="100%" xlink:href="#a"/>
</g>
<g>
<use x="99.394257" y="335.5997" width="100%" height="100%" xlink:href="#a"/>
</g>
<g>
<use x="144.57246" y="335.5997" width="100%" height="100%" xlink:href="#a"/>
</g>
<g>
<use x="242.53265" y="335.5997" width="100%" height="100%" xlink:href="#a"/>
</g>
<g>
<use x="256.82825" y="335.5997" width="100%" height="100%" xlink:href="#a"/>
</g>
<g>
<use x="67.3386" y="349.27969" width="100%" height="100%" xlink:href="#a"/>
</g>
<g>
<use x="55.5168" y="362.95969" width="100%" height="100%" xlink:href="#a"/>
</g>
<g>
<use x="178.47491" y="362.95969" width="100%" height="100%" xlink:href="#a"/>
</g>
<g>
<use x="62.208599" y="390.3197" width="100%" height="100%" xlink:href="#a"/>
</g>
<g>
<use x="98.151657" y="390.3197" width="100%" height="100%" xlink:href="#a"/>
</g>
<g>
<use x="199.31526" y="390.3197" width="100%" height="100%" xlink:href="#a"/>
</g>
<g>
<use x="261.43387" y="390.3197" width="100%" height="100%" xlink:href="#a"/>
</g>
<g>
<use x="317.87527" y="390.3197" width="100%" height="100%" xlink:href="#a"/>
</g>
<g>
<use x="73.4832" y="431.35971" width="100%" height="100%" xlink:href="#a"/>
</g>
<g>
<use x="134.96339" y="431.35971" width="100%" height="100%" xlink:href="#a"/>
</g>
<g>
<use x="167.3622" y="431.35971" width="100%" height="100%" xlink:href="#a"/>
</g>
<g>
<use x="66.973801" y="445.0397" width="100%" height="100%" xlink:href="#a"/>
</g>
<g>
<use x="109.8036" y="445.0397" width="100%" height="100%" xlink:href="#a"/>
</g>
<g>
<use x="167.0316" y="445.0397" width="100%" height="100%" xlink:href="#a"/>
</g>
<g>
<use x="235.94347" y="458.7197" width="100%" height="100%" xlink:href="#a"/>
</g>
<g>
<use x="146.75101" y="472.39969" width="100%" height="100%" xlink:href="#a"/>
</g>
<g>
<use x="121.4544" y="486.07971" width="100%" height="100%" xlink:href="#a"/>
</g>
<g>
<use x="238.80714" y="486.07971" width="100%" height="100%" xlink:href="#a"/>
</g>
<g>
<use x="269.02853" y="486.07971" width="100%" height="100%" xlink:href="#a"/>
</g>
<g>
<use x="190.8804" y="499.7597" width="100%" height="100%" xlink:href="#a"/>
</g>
<g>
<use x="117.795" y="527.11969" width="100%" height="100%" xlink:href="#a"/>
</g>
<g>
<use x="130.34526" y="527.11969" width="100%" height="100%" xlink:href="#a"/>
</g>
<g>
<use x="216.8838" y="568.15973" width="100%" height="100%" xlink:href="#a"/>
</g>
<g>
<use x="317.61307" y="568.15973" width="100%" height="100%" xlink:href="#a"/>
</g>
<g>
<use x="55.618259" y="581.83972" width="100%" height="100%" xlink:href="#a"/>
</g>
<g>
<use x="236.03465" y="581.83972" width="100%" height="100%" xlink:href="#a"/>
</g>
<g>
<use x="90.104401" y="595.51971" width="100%" height="100%" xlink:href="#a"/>
</g>
<g>
<use x="116.2218" y="595.51971" width="100%" height="100%" xlink:href="#a"/>
</g>
<g>
<use x="199.40759" y="595.51971" width="100%" height="100%" xlink:href="#a"/>
</g>
<g>
<use x="213.1674" y="595.51971" width="100%" height="100%" xlink:href="#a"/>
</g>
<g>
<use x="320.772" y="595.51971" width="100%" height="100%" xlink:href="#a"/>
</g>
<g>
<use x="98.654404" y="622.8797" width="100%" height="100%" xlink:href="#a"/>
</g>
<g>
<use x="289.6044" y="622.8797" width="100%" height="100%" xlink:href="#a"/>
</g>
<g>
<use x="91.813263" y="636.55969" width="100%" height="100%" xlink:href="#a"/>
</g>
<g>
<use x="264.52441" y="636.55969" width="100%" height="100%" xlink:href="#a"/>
</g>
<g>
<use x="185.967" y="650.23969" width="100%" height="100%" xlink:href="#a"/>
</g>
<g>
<use x="232.03439" y="650.23969" width="100%" height="100%" xlink:href="#a"/>
</g>
<g>
<use x="294.45966" y="650.23969" width="100%" height="100%" xlink:href="#a"/>
</g>
<g>
<use x="319.00385" y="650.23969" width="100%" height="100%" xlink:href="#a"/>
</g>
<g>
<use x="159.81425" y="663.91968" width="100%" height="100%" xlink:href="#a"/>
</g>
<g>
<use x="174.58865" y="677.59967" width="100%" height="100%" xlink:href="#a"/>
</g>
<g>
<use x="260.83081" y="677.59967" width="100%" height="100%" xlink:href="#a"/>
</g>
<g>
<use x="176.961" y="691.27972" width="100%" height="100%" xlink:href="#a"/>
</g>
<g>
<use x="94.903801" y="704.95972" width="100%" height="100%" xlink:href="#a"/>
</g>
<g>
<use x="307.20715" y="704.95972" width="100%" height="100%" xlink:href="#a"/>
</g>
<g>
<use x="1031.9802" y="495.07101" width="100%" height="100%" xlink:href="#b"/>
</g>
<g>
<use x="930.44427" y="506.47101" width="100%" height="100%" xlink:href="#b"/>
</g>
<g>
<use x="984.54773" y="506.47101" width="100%" height="100%" xlink:href="#b"/>
</g>
<g>
<use x="1054.1162" y="506.47101" width="100%" height="100%" xlink:href="#b"/>
</g>
<g>
<use x="1143.5673" y="506.47101" width="100%" height="100%" xlink:href="#b"/>
</g>
<g>
<use x="868.18127" y="517.87097" width="100%" height="100%" xlink:href="#b"/>
</g>
<g>
<use x="886.15527" y="517.87097" width="100%" height="100%" xlink:href="#b"/>
</g>
<g>
<use x="970.23785" y="517.87097" width="100%" height="100%" xlink:href="#b"/>
</g>
<g>
<use x="991.25372" y="529.271" width="100%" height="100%" xlink:href="#b"/>
</g>
<g>
<use x="1049.5363" y="529.271" width="100%" height="100%" xlink:href="#b"/>
</g>
<g>
<use x="1139.2249" y="529.271" width="100%" height="100%" xlink:href="#b"/>
</g>
<g>
<use x="1140.8597" y="540.67102" width="100%" height="100%" xlink:href="#b"/>
</g>
<g>
<use x="880.43719" y="552.07098" width="100%" height="100%" xlink:href="#b"/>
</g>
<g>
<use x="952.82721" y="552.07098" width="100%" height="100%" xlink:href="#b"/>
</g>
<g>
<use x="930.90118" y="563.47101" width="100%" height="100%" xlink:href="#b"/>
</g>
<g>
<use x="1000.7917" y="563.47101" width="100%" height="100%" xlink:href="#b"/>
</g>
<g>
<use x="1121.1093" y="563.47101" width="100%" height="100%" xlink:href="#b"/>
</g>
<g>
<use x="957.50122" y="574.87097" width="100%" height="100%" xlink:href="#b"/>
</g>
<g>
<use x="997.87524" y="574.87097" width="100%" height="100%" xlink:href="#b"/>
</g>
<g>
<use x="1076.2778" y="574.87097" width="100%" height="100%" xlink:href="#b"/>
</g>
<g>
<use x="1145.3048" y="574.87097" width="100%" height="100%" xlink:href="#b"/>
</g>
<g>
<use x="936.77124" y="586.271" width="100%" height="100%" xlink:href="#b"/>
</g>
<g>
<use x="981.25977" y="586.271" width="100%" height="100%" xlink:href="#b"/>
</g>
<g>
<use x="1106.5164" y="586.271" width="100%" height="100%" xlink:href="#b"/>
</g>
<g>
<use x="842.31372" y="933.74652" width="100%" height="100%" xlink:href="#b"/>
</g>
<g>
<use x="893.29926" y="933.74652" width="100%" height="100%" xlink:href="#b"/>
</g>
<g>
<use x="946.10022" y="933.74652" width="100%" height="100%" xlink:href="#b"/>
</g>
<g>
<use x="971.46619" y="945.14648" width="100%" height="100%" xlink:href="#b"/>
</g>
<g>
<use x="1139.2352" y="945.14648" width="100%" height="100%" xlink:href="#b"/>
</g>
<g>
<use x="879.74274" y="956.54651" width="100%" height="100%" xlink:href="#b"/>
</g>
<g>
<use x="904.92725" y="956.54651" width="100%" height="100%" xlink:href="#b"/>
</g>
<g>
<use x="947.56323" y="956.54651" width="100%" height="100%" xlink:href="#b"/>
</g>
<g>
<use x="1052.9648" y="956.54651" width="100%" height="100%" xlink:href="#b"/>
</g>
<g>
<use x="1145.5424" y="956.54651" width="100%" height="100%" xlink:href="#b"/>
</g>
<g>
<use x="1147.6826" y="967.94647" width="100%" height="100%" xlink:href="#b"/>
</g>
<g>
<use x="1020.7997" y="979.3465" width="100%" height="100%" xlink:href="#b"/>
</g>
<g>
<use x="1100.0592" y="979.3465" width="100%" height="100%" xlink:href="#b"/>
</g>
<g>
<use x="866.07318" y="990.74652" width="100%" height="100%" xlink:href="#b"/>
</g>
<g>
<use x="887.96118" y="990.74652" width="100%" height="100%" xlink:href="#b"/>
</g>
<g>
<use x="889.42419" y="1002.1465" width="100%" height="100%" xlink:href="#b"/>
</g>
<g>
<use x="1003.4812" y="1002.1465" width="100%" height="100%" xlink:href="#b"/>
</g>
<g>
<use x="1034.6041" y="1002.1465" width="100%" height="100%" xlink:href="#b"/>
</g>
<g>
<use x="1060.8232" y="1002.1465" width="100%" height="100%" xlink:href="#b"/>
</g>
<g>
<use x="871.82922" y="1013.5465" width="100%" height="100%" xlink:href="#b"/>
</g>
<g>
<use x="941.28278" y="1013.5465" width="100%" height="100%" xlink:href="#b"/>
</g>
<g>
<use x="1036.0453" y="1013.5465" width="100%" height="100%" xlink:href="#b"/>
</g>
<g>
<use x="1047.4644" y="1013.5465" width="100%" height="100%" xlink:href="#b"/>
</g>
<g>
<use x="860.39221" y="1024.9465" width="100%" height="100%" xlink:href="#b"/>
</g>
<path d="m776.44 567.69c-5.6685-3.1034-20.43-12.03-34.944-27.907-16.971-18.563-37.195-50.759-37.195-98.701v-95.065h156.47v95.065c0 47.942-20.229 80.132-37.195 98.701-14.521 15.878-29.276 24.804-34.95 27.907l-6.0922 3.3267z" fill="#7f7f82"/>
<path d="m777.96 564.9c-5.5368-3.0232-19.937-11.738-34.131-27.266-16.588-18.145-36.364-49.631-36.364-96.554v-91.887h150.12v91.887c0 46.923-19.771 78.409-36.364 96.554-14.188 15.528-28.595 24.243-34.126 27.266l-4.5692 2.4964z"/>
<path d="m712.23 353.96v87.123c0 45.4 19.101 75.815 35.116 93.342 13.713 15.002 27.575 23.39 32.9 26.298l2.2846 1.2482 2.2846-1.2482c5.325-2.9087 19.187-11.297 32.895-26.298 16.021-17.527 35.116-47.948 35.116-93.342v-87.123zm135.83 87.123c0 43.871-18.414 73.227-33.868 90.129-13.141 14.377-26.316 22.405-31.664 25.331-5.3536-2.9259-18.523-10.953-31.669-25.331-15.448-16.902-33.868-46.259-33.868-90.129v-82.36h131.07z" fill="#fab50f"/>
<path d="m741.8 401.26-3.3267-5.6571h-5.8518v5.6571h-4.5119v-17.847h11.995c5.0845 0 6.6247 3.8076 6.6247 6.0808 0 1.7235-0.86459 4.2829-3.4584 5.4681l3.7103 6.2983zm-9.1784-14.011v4.5119h6.3327c2.5594 0 3.069-1.4372 3.069-2.2674 0-0.8016-0.50958-2.2445-3.069-2.2445z" fill="#fff"/>
<path d="m750.21 383.42h4.4776v17.847h-4.4776z" fill="#fff"/>
<path d="m775.48 387.87c-2.2388-0.83596-4.3859-1.2826-6.974-1.2826-2.3018 0-5.5311 0.0343-5.5311 1.7578 0 3.2007 14.2-0.25194 14.2 7.7126 0 4.9242-4.7982 5.8517-10.203 5.8517-3.1377 0-6.1438-0.54395-8.6058-1.1852v-4.0596c2.4621 0.70428 5.8861 1.4372 8.4455 1.4372 3.7389 0 5.8861-0.47525 5.8861-2.0441 0-3.2007-14.206 0.41225-14.206-7.7126 0-4.9242 5.4109-5.5597 10.014-5.5597 2.8457 0 5.0845 0.57257 7.1343 1.2768z" fill="#fff"/>
<path d="m780.27 383.42h4.4776v17.847h-4.4776z" fill="#fff"/>
<path d="m794.12 390.68v10.587h-4.5119v-18.489l17.08 11.515v-10.873h4.5119v18.489z" fill="#fff"/>
<path d="m827.32 394.9v-3.8076h10.49c0.063 0.44661 0.12592 0.83024 0.12592 1.2482 0 5.2734-4.6379 9.562-11.543 9.562-7.7126 0-12.476-4.2886-12.476-9.562 0-5.2162 4.7352-9.5678 12.442-9.5678 3.1034 0 6.1094 0.67564 8.5085 2.3705v4.2199c-1.5059-0.99055-3.5214-2.0441-5.9491-2.5251-4.7638-0.96193-10.203 1.2139-10.203 5.5025 0 3.2293 3.2293 5.7544 7.6783 5.7544 3.195 0 5.4338-1.2769 6.43-3.195z" fill="#fff"/>
<path d="m772.16 537.27h2.3018v-3.4927h5.7773v-1.9582h-5.7601v-1.7578h7.0255v-1.9754h-9.3445z" fill="#eb1921"/>
<path d="m782.11 532.68c0 2.6968 2.4564 4.9184 6.4186 4.9184 1.5975 0 3.1091-0.32636 4.3745-1.2024v-2.1701c-1.065 0.71-2.714 1.4143-4.3745 1.4143-2.3189 0-3.9508-1.3169-3.9508-2.9602 0-1.649 1.6319-2.9774 3.9508-2.9774 1.6605 0 3.3381 0.73863 4.3745 1.4315v-2.1701c-1.231-0.87605-2.777-1.2196-4.3745-1.2196-3.9622 0-6.4186 2.2388-6.4186 4.9356" fill="#eb1921"/>
<path d="m741.96 375.3h4.2714c2.903 0 3.779-2.193 3.779-3.487 0-1.2998-0.87604-3.4698-3.779-3.4698h-6.848v10.186h2.5766zm0-4.7638h3.613c1.4601 0 1.7521 0.81878 1.7521 1.2768 0 0.47524-0.29202 1.294-1.7521 1.294h-3.613z" fill="#eb1921"/>
<path d="m753.88 374.35h7.1515v4.1798h2.5594v-10.186h-2.5594v3.8363h-7.1515v-3.8363h-2.5594v10.186h2.5594z" fill="#eb1921"/>
<path d="m772.46 378.9c4.5463 0 7.14-2.2846 7.14-5.4624 0-3.1721-2.7541-5.4738-7.14-5.4738-4.3802 0-7.1171 2.3018-7.1171 5.4738 0 3.1778 2.7198 5.4624 7.1171 5.4624m0-8.7662c2.5594 0 4.4031 1.3169 4.4031 3.3038 0 2.0097-1.8265 3.2866-4.4031 3.2866-2.5365 0-4.3802-1.2768-4.3802-3.2866 0-1.9868 1.8265-3.3038 4.3802-3.3038" fill="#eb1921"/>
<path d="m791.72 376.36h-7.81v-1.9525h6.4071v-2.1758h-6.39v-1.6948h7.7928v-2.193h-10.369v10.186h10.369z" fill="#eb1921"/>
<path d="m796.78 372.49 9.751 6.4071v-10.553h-2.5766v6.2067l-9.7453-6.5732v10.553h2.5709z" fill="#eb1921"/>
<path d="m812.04 368.35h-2.5537v10.186h2.5537z" fill="#eb1921"/>
<path d="m817.01 378.53 3.2122-3.7218 3.195 3.7218h3.2465l-4.8726-5.1876 4.6722-4.9986h-3.2465l-2.9946 3.5214-3.0118-3.5214h-3.2122l4.6379 4.9986-4.8383 5.1876z" fill="#eb1921"/>
<path d="m819.21 437.57c5.3307 6.9854 1.8838 22.462-6.7106 19.788-8.5944-2.6739-5.3536-15.563-14.858-24.684-7.3634-7.0656-15.803-7.518-20.521-5.972-3.905 1.2711-4.7867 4.0424-4.7867 4.0424 1.1222-0.52678 2.8343-0.54967 4.5692-0.0688 9.98 2.7713 5.199 18.74-8.7204 15.511-9.27-2.1472-12.677-13.301-9.8483-22.766 2.3418-7.8329 8.5944-15.093 8.5944-15.093-16.072 8.9265-22.508 22.09-24.008 32.242-2.3247 15.729 6.7507 27.163 6.7507 27.163-18.574-9.3044-12.345-26.802-12.345-26.802-8.0848 12.219-0.82451 32.391 7.1343 43.252 10.919 14.898 26.436 19.811 26.436 19.811-7.455-0.60692-13.977-3.4355-20.911-8.6402-7.8615-5.8918-13.02-17.561-13.02-17.561 4.0424 22.159 23.441 38.964 46.768 38.964 26.258 0 47.541-21.283 47.541-47.541 0-12.15-4.5577-23.241-12.064-31.646m-59.124 51.956c-2.1701-3.1263-3.8993-6.6419-5.0387-10.49-1.1452-3.8477-1.6204-7.7298-1.5059-11.537l3.1606-3.0976c1.4143 6.5216 6.9511 12.076 6.9511 12.076s-1.6032 7.684 0.77298 13.919zm25.646-60.544c1.3799-0.12019 3.2007 0.14887 5.9834 2.296 4.0596 3.1377 6.2984 10.1 6.2984 10.1s-3.0347-4.4088-6.3957-7.0198c-4.3058-3.3381-8.4856-4.197-8.4856-4.197s0.89323-1.0306 2.5995-1.1795m15.127 74.733c-3.6416 1.0994-7.5179 1.6548-11.532 1.5574-4.0138-0.0973-7.8558-0.84168-11.44-2.1242l-1.9754-3.9622c6.6419 0.6642 13.639-2.8915 13.639-2.8915s6.8079 3.8935 13.473 3.5557zm-3.2179-23.229c-2.2102 1.4544-7.3691 5.0444-7.3691 5.0444l-8.2337-6.556-8.4799-6.2354s2.1186-5.9204 2.9431-8.4283c0.81878-2.5136 4.5577-10.547 4.5577-10.547s2.9602-0.51531 9.7281-0.25765c6.7736 0.25765 10.163 0.75579 10.163 0.75579s1.3685 3.1434 3.3839 9.6078c2.0155 6.4701 2.296 9.459 2.296 9.459s-6.7793 5.7086-8.9895 7.1572m22.714 9.0696-4.3458 0.86458c2.3819-6.2354 0.79015-13.919 0.79015-13.919s5.5426-5.5483 6.9625-12.07l3.1606 3.1034c0.10304 3.8076-0.37217 7.6897-1.5173 11.537-1.1509 3.8477-2.8801 7.3576-5.0502 10.484" fill="#eb1921"/>
</g>
</svg>
