<svg xmlns="http://www.w3.org/2000/svg" width="316.227859642" height="316.227672392" viewBox="0 0 50.664 50.66397">
  <title>Pittsburgh Riverhounds SC logo</title>
  <g>
    <g>
      <g>
        <g id="crest-bg">
          <path d="M50.664,25.332A25.332,25.332,0,1,0,25.332,50.664,25.3326,25.3326,0,0,0,50.664,25.332" style="fill: #ffc629"/>
          <path d="M49.59662,25.332a24.26451,24.26451,0,1,0-24.265,24.265,24.26523,24.26523,0,0,0,24.265-24.265" style="fill: #231f20"/>
        </g>
        <g id="crest-circle">
          <path d="M25.332,3.2515a22.10515,22.10515,0,0,0-22.08,22.081h.962a22.715,22.715,0,0,0,1.038,6.523,19.73775,19.73775,0,0,0,1.649,3.75l-.828.498a22.0525,22.0525,0,0,0,38.517,0l-.827-.498a19.80115,19.80115,0,0,0,1.649-3.75,22.74745,22.74745,0,0,0,1.038-6.523h.962a22.10514,22.10514,0,0,0-22.08-22.081m17.978,22.323,2.004.027q-1.04252.69452-2.079,1.25.057-.63748.075-1.277m-.155,1.997c.372.311.742.636,1.109.982.227.217.458.441.681.671l-1.991-.393c.082-.417.147-.838.201-1.26m1.669,2.179a23.31613,23.31613,0,0,1-2.289.791q.18-.612.317-1.236Zm-35.818,3.115c.179.382.375.757.581,1.126l-.012.007a20.01044,20.01044,0,0,1-2.386-.293Zm-2.052.353a21.15569,21.15569,0,0,1,1.397-1.978c.136.4.29.794.458,1.181Zm34.122.773q.3105-.55348.581-1.126l1.818.84a20.01168,20.01168,0,0,1-2.386.293Zm.778-1.57c.169-.387.323-.781.459-1.181a21.68032,21.68032,0,0,1,1.397,1.978Zm-32.825-7.089a16.303,16.303,0,1,1,32.606,0h.962a18.96675,18.96675,0,0,1-.851,5.334,15.833,15.833,0,0,1-1.289,2.952l-.821-.494a16.27723,16.27723,0,0,1-28.609,0l-.82.494a15.9018,15.9018,0,0,1-1.29-2.952,19.00212,19.00212,0,0,1-.85-5.334Zm-.9,5.209a23.22587,23.22587,0,0,1-2.289-.791l1.97-.445q.138.624.319,1.236m-.42-1.71-1.991.393c.223-.23.455-.454.682-.671.367-.347.737-.672,1.108-.982.053.422.12.843.201,1.26m-.356-3.258q.018.6405.076,1.278-1.041-.555-2.091-1.25Zm-2.397.387c.588.392,1.17.752,1.766,1.075l-1.68.152q-.06-.612-.086-1.227m.143,1.773,1.676-.197c-.508.433-1.003.901-1.494,1.399-.07-.399-.134-.799-.182-1.202m.442,2.456c.352.141.702.274,1.049.395.278.098.555.188.83.273.015.005.032.009.049.014l-1.609.498q-.1755-.58648-.319-1.18m.486,1.704,1.613-.548c-.41.534-.809,1.103-1.186,1.697-.155-.377-.297-.761-.427-1.149m.951,2.305c.624.111,1.24.195,1.858.244l-1.316.791c-.191-.339-.371-.685-.542-1.035m34.85.244c.618-.049,1.233-.133,1.857-.244-.171.35-.351.696-.542,1.035Zm2.382-1.4c-.378-.594-.776-1.163-1.187-1.697l1.613.548c-.13.388-.271.772-.426,1.149m.593-1.673-1.608-.498.048-.014c.275-.085.553-.175.831-.273.347-.121.697-.254,1.049-.395-.095.396-.203.789-.32,1.18m.579-2.434c-.491-.498-.985-.966-1.494-1.398l1.677.197c-.048.402-.112.802-.183,1.201m.24-1.748-1.68-.152c.596-.323,1.177-.683,1.766-1.075q-.027.615-.086,1.227" style="fill: #ffc629"/>
          <g>
            <path id="checkers" d="M41.33258,18.70517l1.153-.478.417,1.14-1.182.401Zm-35.933-.139a10.07292,10.07292,0,0,0-.396,1.32l1.205.322a9.37049,9.37049,0,0,1,.371-1.241Zm2.177-1.991,1.118.553a8.20029,8.20029,0,0,1,.569-1.072l-1.079-.624a9.12605,9.12605,0,0,0-.608,1.143m-1.677,4.892,1.223.242c.078-.397.197-.785.291-1.179l-1.205-.322c-.101.42-.226.835-.309,1.259m.68-2.5,1.182.4.417-1.14-1.152-.478Zm-.122-2.944c-.194.416-.411.823-.584,1.248l1.153.478c.162-.4.367-.782.55-1.174Zm-2.159,8.702h1.248l.034-.688-1.244-.08Zm3.879-1.653.169-1.121-1.224-.242-.182,1.201Zm33.866-2.22c.088.367.201.728.273,1.099l1.223-.242c-.077-.397-.195-.785-.291-1.179Zm-32.713-2.147c.142-.35.324-.682.482-1.025l-1.118-.552c-.17.367-.364.724-.516,1.099Zm-.712,2.147a7.5486,7.5486,0,0,1,.324-1.084l-1.181-.401a8.40193,8.40193,0,0,0-.348,1.163Zm-.576,3.873.029-.526-1.245-.081-.032.607Zm-2.427-1.335-.035.647,1.246.081.03-.607c.014-.202.056-.401.084-.601l-1.237-.162c-.029.215-.073.427-.088.642m2.206-9.76-.717,1.177,1.08.625.673-1.108Zm-3.146,7.594-.209,1.363,1.237.161.196-1.281Zm40.589-2.658-.475-1.295-1.152.478.446,1.218Zm-1.396,6.159h1.248l-.035-.688-1.244.081Zm-.145-1.815,1.236-.162-.196-1.281-1.224.242Zm-.636-6.335-1.119.553c.171.367.364.724.517,1.099l1.152-.478c-.163-.4-.368-.782-.55-1.174m.636,6.335-1.237.162c.025.186.066.372.079.56l.027.567,1.245-.081-.03-.607c-.015-.202-.058-.401-.084-.601m1.358,1.127,1.245-.08-.036-.688c-.017-.228-.063-.455-.093-.682l-1.238.161c.03.215.074.427.089.642Zm.906-2.813c-.087-.45-.219-.892-.328-1.338l-1.206.322c.103.42.228.835.31,1.259Zm-5.667-4.543a7.39939,7.39939,0,0,1,.53.999l1.118-.552a8.32381,8.32381,0,0,0-.569-1.072Zm-30.426-1.663-.631,1.038,1.08.625.587-.969-.718-.481Zm33.354,5.512,1.205-.322a9.21462,9.21462,0,0,0-.37-1.241l-1.181.4a8.26458,8.26458,0,0,1,.346,1.163m.957-4.507a10.10873,10.10873,0,0,0-.646-1.216l-1.08.625a9.12612,9.12612,0,0,1,.608,1.143Zm-2.4-1.699-1.036.694.63,1.038,1.08-.624Z" style="fill: #231f20"/>
            <path id="text-pittsburgh" d="M14.476,11.29227a.88453.88453,0,0,0,.417.297l-.918.743a.88746.88746,0,0,0-.204-.47l-1.823-2.251a.89373.89373,0,0,0-.417-.297l.917-.743a.89723.89723,0,0,0,.204.47Zm4.082-5.093a5.13757,5.13757,0,0,1,.978-.234l-.599-.805-2.189.797.058,1.001a5.17087,5.17087,0,0,1,.901-.449l.869,2.39a.88544.88544,0,0,1,.04.51l1.11-.403a.88286.88286,0,0,1-.298-.417Zm-3.295,1.513a5.15281,5.15281,0,0,1,.915-.417l-.742-.676-1.997,1.2.248.972a5.23742,5.23742,0,0,1,.798-.613l1.311,2.18a.89479.89479,0,0,1,.136.494l1.012-.608a.8864.8864,0,0,1-.372-.352Zm11.82-1.01-.012.642a.73617.73617,0,0,1-.778.752l-2.197-.038a.89041.89041,0,0,0,.145-.491l.051-2.896a.89257.89257,0,0,0-.129-.496l2.154.038a.73858.73858,0,0,1,.546.225.71508.71508,0,0,1,.206.543l-.009.556a.64571.64571,0,0,1-.344.576.62009.62009,0,0,1,.367.589m-1.898-1.26-.004.24.862.01a.16795.16795,0,0,0,.082-.015c.016-.011.021-.043.022-.092l.008-.431c.001-.07-.036-.108-.111-.11l-.989-.017a.52442.52442,0,0,1,.13.415m.988,1.158a.137.137,0,0,0-.015-.076c-.011-.016-.021-.027-.031-.027-.012-.001-.033-.001-.066-.002-.032,0-.053-.001-.058-.001l-.837-.014-.013.734.896.021a.09923.09923,0,0,0,.115-.106Zm15.188,5.663a.88889.88889,0,0,1,.454-.235l-.711-.764-1.073,1.001-.776-.833,1.073-1-.712-.763a.8897.8897,0,0,1-.266.437l-2.12,1.975a.88239.88239,0,0,1-.454.236l.711.763.834-.778a.51451.51451,0,0,0,.209-.381l.87.933-1.136,1.059.712.763a.87618.87618,0,0,1,.266-.437Zm-8.568-2.505.054-1.487-.439-.196-.561,1.262-.954-.424a.88422.88422,0,0,0,.326-.394l1.178-2.649a.89368.89368,0,0,0,.076-.505l1.983.883a.72214.72214,0,0,1,.41.419.76046.76046,0,0,1-.032.588l-.397.892a.78364.78364,0,0,1-.297.351.69834.69834,0,0,1-.428.111l-.028,1.018a1.72621,1.72621,0,0,0,.074.561Zm1.138-2.688a.09925.09925,0,0,0-.06-.144l-.919-.409a.51874.51874,0,0,1-.043.433l-.156.352.793.353a.0978.0978,0,0,0,.147-.052Zm-22.647,3.421.775.697a.72412.72412,0,0,1,.259.525.75447.75447,0,0,1-.212.549l-.757.842.616.555a.88691.88691,0,0,0,.458.227l-.79.878a.89565.89565,0,0,0-.275-.432l-2.153-1.939a.8975.8975,0,0,0-.458-.228l1.456-1.617a.739.739,0,0,1,1.081-.057m-.461.811a.09868.09868,0,0,0-.156.013l-.677.751a.51749.51749,0,0,1,.399.174l.323.29.584-.649a.099.099,0,0,0-.004-.157Zm12.219-5.205a.7445.7445,0,0,0-.579-.117l-1.007.177a.09741.09741,0,0,1-.125-.092l-.038-.213a.51772.51772,0,0,0-.207-.383l.964-.17a.099.099,0,0,1,.126.093l.055.316.793-.475-.036-.204a.741.741,0,0,0-.307-.504.74886.74886,0,0,0-.58-.117l-1.179.208a.7362.7362,0,0,0-.505.303.74786.74786,0,0,0-.117.58l.138.787a.73522.73522,0,0,0,.885.622l1.007-.177a.099.099,0,0,1,.126.092l.089.509a.09735.09735,0,0,1-.093.125l-.711.126a.09981.09981,0,0,1-.131-.086l-.068-.392-.793.474.048.275a.73883.73883,0,0,0,.888.621l1.178-.208a.73078.73078,0,0,0,.623-.883l-.138-.782a.73973.73973,0,0,0-.306-.505m14.835,3.804.321-.459a.73831.73831,0,0,0-.188-1.067l-1.091-.764a.73661.73661,0,0,0-1.067.188l-1.379,1.97a.73179.73179,0,0,0,.19,1.063l.854.597.209-.037.038.21.618.433,1.287-1.838-1.308-.916-.212.846.311.217-.267.38a.09932.09932,0,0,1-.158.021l-.668-.467a.10093.10093,0,0,1-.027-.158l.967-1.381a.521.521,0,0,0,.124-.417l.873.611a.10172.10172,0,0,1,.035.157l-.205.291Zm-7.588-5.123-.611,2.875a.099.099,0,0,1-.134.082l-.76-.161a.09926.09926,0,0,1-.088-.129l.612-2.875-1.022-.217a.88409.88409,0,0,1,.032.511l-.55,2.593a.729.729,0,0,0,.59.903l1.266.269a.74027.74027,0,0,0,.582-.091.71453.71453,0,0,0,.315-.496l.551-2.593a.89046.89046,0,0,1,.238-.454Z" style="fill: #231f20"/>
            <path id="text-riverhounds-sc" d="M10.89211,39.73859a.74045.74045,0,0,0-.22.361l-.665-.713a.73314.73314,0,0,0,.376-.195l1.75-1.632a.73606.73606,0,0,0,.22-.361l.665.713a.743.743,0,0,0-.376.195Zm16.408,3.085.169,2.419a.08212.08212,0,0,1-.087.095l-.641.045a.08268.08268,0,0,1-.1-.083l-.169-2.418-.86.06a.74451.74451,0,0,1,.143.399l.152,2.18a.61775.61775,0,0,0,.209.441.60972.60972,0,0,0,.466.142l1.066-.075a.61453.61453,0,0,0,.442-.205.5867.5867,0,0,0,.137-.465l-.152-2.18a.73764.73764,0,0,1,.084-.415Zm-4.855.316a.73471.73471,0,0,1,.202-.372l-.84-.194-.272,1.181-.916-.212.272-1.181-.839-.194a.72974.72974,0,0,1,.018.423l-.538,2.332a.73429.73429,0,0,1-.202.371l.84.195.212-.918a.42938.42938,0,0,0-.035-.358l1.028.237-.289,1.25.84.194a.73281.73281,0,0,1-.019-.423Zm13.974-2.257a.61258.61258,0,0,0-.479.098l-.708.459a.08035.08035,0,0,1-.125-.029l-.097-.15c-.138-.212-.282-.225-.282-.225l.679-.44a.08117.08117,0,0,1,.125.03l.145.222.449-.616-.093-.144a.61.61,0,0,0-.875-.186l-.83.539a.60435.60435,0,0,0-.188.872l.36.554a.60883.60883,0,0,0,.395.285.6159.6159,0,0,0,.479-.097l.708-.46a.0805.0805,0,0,1,.125.029l.232.358a.08047.08047,0,0,1-.03.125l-.5.325a.08086.08086,0,0,1-.127-.023l-.18-.275-.449.616.125.193a.61122.61122,0,0,0,.876.186l.829-.539a.60658.60658,0,0,0,.286-.393.613.613,0,0,0-.097-.478l-.358-.551a.60893.60893,0,0,0-.395-.285m4.438-5.481-.215-.162a.60866.60866,0,0,0-.886.124l-.638.847a.60873.60873,0,0,0,.124.886l1.587,1.196a.604.604,0,0,0,.883-.127l.638-.847a.60317.60317,0,0,0-.121-.884l-.577-.435-.223.77.214.161a.08114.08114,0,0,1,.016.128l-.382.506a.0807.0807,0,0,1-.127.021l-1.115-.841a.43277.43277,0,0,0-.341-.114l.505-.671a.08236.08236,0,0,1,.128-.021l.308.233Zm-25.554,4.436-.707-.573-1.866,1.448,1.042-2.115-.72-.583a1.50045,1.50045,0,0,1-.111.435l-1.119,2.697.672.545,2.406-1.656a1.4912,1.4912,0,0,1,.403-.198m15.711,2.631a.73964.73964,0,0,1,.011-.423l-.793.198.482,1.928-1.485-1.678-.88.22a.71933.71933,0,0,1,.209.367l.579,2.322a.73189.73189,0,0,1-.011.424l.794-.198-.481-1.925,1.484,1.674.879-.218a.73485.73485,0,0,1-.208-.369Zm-16.151.009.296-.492.951.571.367-.611-.951-.571.084-.139a.429.429,0,0,0,.078-.351l1.057.635.598-.468-1.931-1.16a.75042.75042,0,0,1-.113.408l-1.233,2.051a.73129.73129,0,0,1-.307.291l1.93,1.16.134-.746Zm-5.782-4.168.635-1.053-.239-.317-.911.687-.518-.689a.73012.73012,0,0,0,.393-.154l1.911-1.441a.73135.73135,0,0,0,.257-.335l1.08,1.432a.59524.59524,0,0,1,.128.467.62585.62585,0,0,1-.258.412l-.644.485a.64131.64131,0,0,1-.357.135.57358.57358,0,0,1-.352-.091l-.429.725a1.4528,1.4528,0,0,0-.171.434Zm1.898-1.486a.08112.08112,0,0,0,.016-.128l-.501-.664a.42835.42835,0,0,1-.203.296l-.255.191.432.574a.08188.08188,0,0,0,.127.021Zm14.301,6.742-.138,1.982a.63011.63011,0,0,1-.205.442.602.602,0,0,1-.462.142l-1.115-.078a.60435.60435,0,0,1-.587-.671l.138-1.983a.6107.6107,0,0,1,.676-.587l1.116.078a.60113.60113,0,0,1,.436.209.62951.62951,0,0,1,.141.466m-.754.121c.004-.057-.024-.09-.087-.095l-.895-.063a.43247.43247,0,0,1,.089.348l-.097,1.394c-.005.058.024.091.087.096l.688.047a.08082.08082,0,0,0,.1-.082Zm-6.609,1.072.002-1.23-.368-.148-.427,1.057-.8-.323a.72982.72982,0,0,0,.258-.334l.896-2.22a.73319.73319,0,0,0,.048-.42l1.663.672a.59683.59683,0,0,1,.35.333.63374.63374,0,0,1-.009.487l-.302.748a.64036.64036,0,0,1-.236.299.57748.57748,0,0,1-.35.103l.007.842a1.45166,1.45166,0,0,0,.076.461Zm.861-2.252a.08022.08022,0,0,0-.053-.117l-.77-.312a.42922.42922,0,0,1-.023.359l-.119.295.665.269a.08148.08148,0,0,0,.12-.048Zm20.702-4.348a.61.61,0,0,0-.447.195l-.597.597a.08126.08126,0,0,1-.129-.003l-.127-.126a.43057.43057,0,0,0-.321-.162l.572-.571a.08123.08123,0,0,1,.129.003l.188.187.311-.697-.121-.12a.60775.60775,0,0,0-.894,0l-.701.699a.60336.60336,0,0,0-.002.892l.467.467a.60771.60771,0,0,0,.894.002l.597-.597a.08025.08025,0,0,1,.128.003l.302.301a.08124.08124,0,0,1-.003.129l-.423.423a.08023.08023,0,0,1-.128.003l-.233-.232-.311.696.163.163a.60982.60982,0,0,0,.894,0l.699-.7a.6012.6012,0,0,0,.003-.891l-.463-.465a.61332.61332,0,0,0-.447-.196m-5.704,3.372.763,1.796a.62836.62836,0,0,1,.017.486.59431.59431,0,0,1-.344.34l-1.684.715a.7316.7316,0,0,0-.055-.419l-.935-2.204a.73492.73492,0,0,0-.264-.33l1.681-.723a.59488.59488,0,0,1,.483-.012.62425.62425,0,0,1,.338.351m-.62.442a.08109.08109,0,0,0-.121-.045l-.798.338s.139.037.237.27l.568,1.335.693-.294a.08221.08221,0,0,0,.051-.119Z" style="fill: #231f20"/>
          </g>
        </g>
        <g id="crest-inner">
          <path id="text-1999" d="M39.7664,21.29858a.58078.58078,0,0,0-.424-.178h-.971a.60964.60964,0,0,0-.602.601v.953a.60961.60961,0,0,0,.602.602h.785a.07614.07614,0,0,1,.083.087v.526c0,.078-.042.115-.12.115h-.498c-.083,0-.129-.037-.125-.115v-.218l-.69.264v.132a.57788.57788,0,0,0,.179.423.56428.56428,0,0,0,.415.175h.942a.60268.60268,0,0,0,.602-.598v-2.346a.57691.57691,0,0,0-.178-.423m-.614,1.364h-.569c-.079,0-.121-.038-.121-.116v-.445a.39952.39952,0,0,0-.105-.317h.757c.079,0,.121.037.121.116l.003.683a.07475.07475,0,0,1-.086.079m-26.814,1.607a.68111.68111,0,0,0,.106.379h-.908a.68556.68556,0,0,0,.105-.379v-2.402l-.408.137v-.572l.562-.291h.543Zm2.201-3.149h-.972a.60784.60784,0,0,0-.602.601v.953a.60782.60782,0,0,0,.602.602h.785a.07573.07573,0,0,1,.083.087v.526c0,.078-.042.115-.121.115h-.498c-.083,0-.128-.037-.124-.115v-.218l-.69.264v.132a.57788.57788,0,0,0,.179.423.56272.56272,0,0,0,.415.175h.943a.60441.60441,0,0,0,.601-.598v-2.346a.60966.60966,0,0,0-.601-.601m-.192,1.542h-.568a.10446.10446,0,0,1-.12-.116v-.445a.39762.39762,0,0,0-.106-.317h.757c.079,0,.12.037.12.116l.004.683a.07553.07553,0,0,1-.087.079m22.282-1.542h-.971a.60786.60786,0,0,0-.602.601v.953a.60784.60784,0,0,0,.602.602h.785c.054,0,.082.029.082.087v.526c0,.078-.041.115-.12.115h-.498c-.083,0-.129-.037-.124-.115v-.218l-.69.264v.132a.57785.57785,0,0,0,.179.423.56265.56265,0,0,0,.415.175h.942a.6044.6044,0,0,0,.602-.598v-2.346a.60964.60964,0,0,0-.602-.601m-.191,1.542h-.568a.10446.10446,0,0,1-.12-.116v-.445a.39578.39578,0,0,0-.107-.317h.758c.079,0,.12.037.12.116l.004.683a.07553.07553,0,0,1-.087.079" style="fill: #fff"/>
          <path id="water" d="M14.87572,34.78018c.743-.063,1.467-.111,2.209-.155.744-.044,1.488-.061,2.232-.06.744.002,1.488.001,2.232.047.742.045,1.495.113,2.237.208a12.58748,12.58748,0,0,1-2.237.175c-.744,0-1.488-.005-2.232-.005-.745.003-1.491-.007-2.236-.014a11.66472,11.66472,0,0,1-2.205-.196m18.269.058a15.6917,15.6917,0,0,0,2.689-.058,11.20577,11.20577,0,0,0-2.689-.219,21.79177,21.79177,0,0,0-2.665.117c.888.106,1.775.124,2.665.16m-8.152,2.263c.982-.094,1.959-.268,2.942-.368.981-.107,1.969-.134,2.95-.191.985-.057,1.97-.106,2.955-.074a14.28021,14.28021,0,0,0-2.944-.348,25.257,25.257,0,0,0-2.956.189c-.987.108-1.978.208-2.963.372-.982.164-1.951.377-2.933.564.986.002,1.964-.05,2.949-.144m-6.403.035a8.26857,8.26857,0,0,0-1.768.1,4.67181,4.67181,0,0,0,1.769.354,4.82717,4.82717,0,0,0,1.763-.227,7.62657,7.62657,0,0,0-1.764-.227m8.536-2.6a4.10287,4.10287,0,0,0-1.494.237,4.143,4.143,0,0,0,1.495.196,7.09926,7.09926,0,0,0,1.522-.267,6.8064,6.8064,0,0,0-1.523-.166m-4.366,4.62c.857.021,1.716.019,2.573.023.86-.002,1.718-.057,2.577-.106a24.57377,24.57377,0,0,0,2.585-.25,19.35135,19.35135,0,0,0-2.587-.169c-.858-.013-1.715.028-2.574.067-.857.046-1.715.079-2.573.137-.856.058-1.744.107-2.602.168.858.047,1.744.109,2.601.13" style="fill: #fff"/>
          <g id="shield">
            <path d="M25.33362,32.65536a75.35768,75.35768,0,0,0-7.577-3.806,17.35516,17.35516,0,0,0,1.028-6.023,13.94867,13.94867,0,0,0-1.171-5.352,13.45079,13.45079,0,0,0,.984-1.896l14.313,13.271a75.25006,75.25006,0,0,0-7.577,3.806m-2.321.555q.97647.009,1.953-.021a78.71012,78.71012,0,0,0-8.037-3.999,16.4793,16.4793,0,0,0,1.211-6.364,13.4915,13.4915,0,0,0-1.26-5.414,12.67,12.67,0,0,0,1.271-2.443,7.22575,7.22575,0,0,0,4.882-2.1h4.603a7.22582,7.22582,0,0,0,4.882,2.1,12.65972,12.65972,0,0,0,1.27,2.443,13.49413,13.49413,0,0,0-1.259,5.414,16.47976,16.47976,0,0,0,1.211,6.364,79.299,79.299,0,0,0-7.985,3.966c.363-.018.727-.035,1.089-.061.288-.02.927-.026,1.052-.028l.023.001c3.345-1.79,7.155-3.379,7.155-3.379a14.18373,14.18373,0,0,1-1.562-6.863,12.66585,12.66585,0,0,1,1.428-5.521,11.62321,11.62321,0,0,1-1.728-3.297c-3.718,0-5.119-2.123-5.119-2.123h-5.517s-1.403,2.123-5.12,2.123a11.6073,11.6073,0,0,1-1.727,3.297,12.66578,12.66578,0,0,1,1.428,5.521,14.18359,14.18359,0,0,1-1.562,6.863s4.013,1.674,7.418,3.521" style="fill: #ffc629"/>
            <path d="M26.89342,26.24646a3.61351,3.61351,0,1,1-3.613-3.613,3.61226,3.61226,0,0,1,3.613,3.613" style="fill: #231f20"/>
            <path d="M26.12041,26.03809a1.61993,1.61993,0,0,1-.33.769,3.83376,3.83376,0,0,0,.033-.716,6.18471,6.18471,0,0,0-.452-.676h-.717s.37-.203.608-.333a2.64352,2.64352,0,0,0,.013-.599,3.18329,3.18329,0,0,0-.5-.712,2.15025,2.15025,0,0,1,.597.384c.067.018.152.043.243.077a2.98421,2.98421,0,0,0-1.439-.997.89208.89208,0,0,1,.146.239,2.36334,2.36334,0,0,1,.332.217,4.34,4.34,0,0,0-.629-.059,3.05389,3.05389,0,0,0-.578.193l-.167.657-.167-.657a3.06533,3.06533,0,0,0-.577-.193,4.32087,4.32087,0,0,0-.629.059,2.34347,2.34347,0,0,1,.331-.217.86691.86691,0,0,1,.146-.239,2.97487,2.97487,0,0,0-1.439.997c.091-.034.176-.059.243-.077a2.1426,2.1426,0,0,1,.598-.384,3.083,3.083,0,0,0-.5.712,2.54,2.54,0,0,0,.012.599c.239.13.609.333.609.333h-.717a6.38219,6.38219,0,0,0-.453.676,3.73418,3.73418,0,0,0,.032.716,1.602,1.602,0,0,1-.328-.769c-.05-.034-.093-.066-.13-.093-.001.042-.006.084-.006.127a2.94953,2.94953,0,0,0,.549,1.717,1.23149,1.23149,0,0,1,.072-.389,3.36259,3.36259,0,0,1-.094-.444,4.14491,4.14491,0,0,0,.351.411,3.76774,3.76774,0,0,0,.784.176c.225-.211.489-.459.489-.459s-.147.391-.263.693a4.6363,4.6363,0,0,0,.448.704,3.75987,3.75987,0,0,0,.451.221,2.03018,2.03018,0,0,1-.484.025c-.123.07-.235.123-.303.153a2.92985,2.92985,0,0,0,1.95,0,3.1983,3.1983,0,0,1-.302-.153,2.03585,2.03585,0,0,1-.485-.025,3.53957,3.53957,0,0,0,.45-.221,4.55957,4.55957,0,0,0,.449-.704c-.116-.302-.263-.693-.263-.693s.265.248.489.459a3.74781,3.74781,0,0,0,.783-.176,4.14491,4.14491,0,0,0,.351-.411,3.33083,3.33083,0,0,1-.093.444,1.20441,1.20441,0,0,1,.072.389,2.94952,2.94952,0,0,0,.549-1.717c0-.043-.005-.085-.007-.127-.036.028-.079.059-.128.093m-2.101.812s-.332-.036-.739-.036-.74.036-.74.036a8.29608,8.29608,0,0,0-.395-1.383,7.38333,7.38333,0,0,0,1.135-.75,7.43631,7.43631,0,0,0,1.135.75,8.44362,8.44362,0,0,0-.396,1.383" style="fill: #fff"/>
            <path d="M26.86031,17.81879a2.02323,2.02323,0,0,1-.19-.857,1.74008,1.74008,0,0,1,.768-1.546.21589.21589,0,0,1,.299.052,3.392,3.392,0,0,1,.476,1.924.34.34,0,0,1-.113.25,1.22642,1.22642,0,0,1-1.065.324.24855.24855,0,0,1-.175-.147m.144.934c-.277-.324-.595-.757-.82-1.075a.40294.40294,0,0,0-.695.063,1.8557,1.8557,0,0,0-.189.76,1.48255,1.48255,0,0,0,.363,1.174.5086.5086,0,0,0,.584.099,2.92207,2.92207,0,0,0,.735-.531.35591.35591,0,0,0,.022-.49m2.581,1.164c-.468-.409-.291-1.01-1.212-1.01s-.744.601-1.211,1.01c-.428.374-.746.453-.728.859.019.415.203.952.72.952.516,0,.787-.197,1.219-.197s.703.197,1.219.197c.517,0,.702-.537.72-.952.019-.406-.3-.485-.727-.859m1.672-2.176a.4029.4029,0,0,0-.695-.063c-.226.318-.543.751-.821,1.075a.357.357,0,0,0,.023.49,2.91014,2.91014,0,0,0,.736.531.50913.50913,0,0,0,.584-.099,1.48633,1.48633,0,0,0,.362-1.174,1.85554,1.85554,0,0,0-.189-.76m-1.484.225a.25091.25091,0,0,0,.174-.147,1.99347,1.99347,0,0,0,.189-.857,1.73991,1.73991,0,0,0-.767-1.546.21457.21457,0,0,0-.298.052,3.39329,3.39329,0,0,0-.478,1.924.34452.34452,0,0,0,.114.25,1.22766,1.22766,0,0,0,1.066.324" style="fill: #fff"/>
          </g>
        </g>
      </g>
    </g>
  </g>
</svg>
