<svg xmlns="http://www.w3.org/2000/svg" xmlns:xlink="http://www.w3.org/1999/xlink" width="293.264590056" height="340.989002392" viewBox="0 0 14.29164 16.61739">
  <defs>
    <clipPath id="clip-path">
      <path d="M12.70775,7.66284c-.0072,5.33763-5.71829,7.60168-5.72129,7.60288v0H6.98637v0c-.003-.0012-5.7141-2.26525-5.7213-7.60288L1.26536,4.5499a52.3722,52.3722,0,0,1,5.721-.35786h.00009a52.3722,52.3722,0,0,1,5.721.35786Z" style="fill: none"/>
    </clipPath>
  </defs>
  <title>San Antonio FC logo</title>
  <g>
    <g>
      <g>
        <g>
          <path d="M6.52948,16.44231a12.39714,12.39714,0,0,1-3.22859-2.025A8.82678,8.82678,0,0,1,0,7.65827L.00034.50735,1.10767.36778A54.31643,54.31643,0,0,1,6.98694,0a54.31655,54.31655,0,0,1,5.87928.36778l1.10733.13957.00034,7.14923a8.8265,8.8265,0,0,1-3.29564,6.75627,12.551,12.551,0,0,1-3.23067,2.02264l-.46064.1819Z" style="fill: #fff"/>
          <path d="M6.64067,16.15036A12.08808,12.08808,0,0,1,3.505,14.18088a8.52356,8.52356,0,0,1-3.19266-6.523l.0003-6.875L1.14673.67774A53.95721,53.95721,0,0,1,6.987.31239a53.95708,53.95708,0,0,1,5.84022.36535l.83406.10509.00029,6.87376A8.52278,8.52278,0,0,1,10.474,14.17645a12.20038,12.20038,0,0,1-3.142,1.96881l-.345.137Z" style="fill: #161113"/>
          <g>
            <path d="M2.55879,3.34351a.25029.25029,0,0,1-.179.0746q-.2151.02062-.43.04319c-.09685.01017-.15257.00224-.19194-.03378-.04756-.04555-.06565-.11889-.06725-.33761q.1263-.01395.25263-.02722c.00334.12049.0082.148.01967.15907.0099.00947.02625.013.07385.00807q.12227-.01261.24459-.02459c.04756-.00465.06894-.01019.08044-.02355a.24339.24339,0,0,0,.01636-.12418c0-.06128-.00319-.08725-.01806-.10159-.00981-.00954-.03446-.01419-.08044-.0132q-.1748-.00211-.34953-.003a.2253.2253,0,0,1-.16239-.04744c-.04436-.0442-.064-.1068-.064-.27316a.45342.45342,0,0,1,.07876-.30808.25058.25058,0,0,1,.17551-.07649q.19856-.0208.39724-.04c.09853-.00948.156-.00079.19212.0344.04757.04815.06735.11288.07059.328q-.12647.01151-.25289.02366c-.00326-.11-.00822-.13579-.0197-.14694-.00987-.00957-.02465-.01513-.07056-.01064q-.11328.01112-.22652.02276c-.04271.00438-.06069.00981-.07054.02131a.23445.23445,0,0,0-.01481.11714c0,.06128.00332.08721.01643.09983.01156.01106.02952.01095.08041.0127q.17642.00117.35292.00363a.21464.21464,0,0,1,.1593.04816c.04433.0432.064.10975.064.27609A.465.465,0,0,1,2.55879,3.34351Z" style="fill: #fff"/>
            <path d="M3.41822,3.02511q-.19812.0147-.39614.031L2.93661,3.368q-.13394.0113-.26783.02331Q2.847,2.8,3.02532,2.21c.02144-.06829.03287-.08328.09367-.08819q.11094-.00891.22192-.01733c.05924-.00447.0724.01035.0937.07356q.17841.56213.35688,1.12556-.14309.0095-.28614.01984Zm-.337-.18745q.13889-.01128.2778-.02175l-.12825-.44549-.02133.00167Z" style="fill: #fff"/>
            <path d="M4.86612,3.24435q-.10865.00477-.2173.01a.10712.10712,0,0,1-.1185-.06765q-.19833-.36817-.3966-.7347l-.01647.001v.8301q-.12831.00765-.25661.016V2.07323q.12585-.00816.25173-.01568a.103.103,0,0,1,.11846.06663q.181.339.362.6794l.01648-.00082V2.03047q.12837-.00633.25678-.012Z" style="fill: #fff"/>
            <path d="M6.01071,2.90288q-.19848.004-.397.00966l-.08566.30724q-.13423.00406-.26849.00887.17868-.58168.35741-1.162c.0214-.06713.03292-.08151.09386-.08314q.1112-.00294.22238-.00537c.05934-.00129.0725.01425.09388.07861q.17876.57173.35751,1.14478-.14331.00178-.28663.00443ZM5.673,2.69726q.13918-.00378.27838-.00678l-.1285-.4524-.02139.00052Z" style="fill: #fff"/>
            <path d="M7.46049,3.20006Q7.35174,3.199,7.243,3.19841a.11386.11386,0,0,1-.11861-.074q-.19852-.37884-.39705-.75605l-.0165.00009v.8301q-.12852.00074-.257.00215V1.97482q.126-.00138.25209-.00212a.10946.10946,0,0,1,.11862.073q.18118.34877.36242.69888l.0165.00007V1.97237q.1285.00057.257.00184Z" style="fill: #fff"/>
            <path d="M8.15735,2.21371v.99822q-.13425-.00327-.26854-.00577V2.20794Q7.7134,2.20466,7.538,2.20266V1.975q.4868.00555.97349.02094V2.2236Q8.33443,2.218,8.15735,2.21371Z" style="fill: #fff"/>
            <path d="M9.22776,2.02393a.269.269,0,0,1,.20743.0696c.06577.06814.11356.18279.11355.55931,0,.37477-.04774.4843-.11355.54748-.04123.04-.09381.05477-.20743.04946q-.17861-.00831-.3573-.01528A.26833.26833,0,0,1,8.663,3.16729c-.06584-.06884-.11364-.18241-.11361-.55718.00007-.37655.04775-.4871.11361-.54961.04124-.04054.09384-.05626.20745-.05185Q9.04915,2.01563,9.22776,2.02393Zm-.36713.96678c.01149.01094.02632.01674.079.01888q.10947.00442.21894.00936c.05273.00416.06752-.00215.079-.01211.01483-.0151.03612-.05786.03614-.36782,0-.31176-.02132-.35655-.03614-.37123-.01152-.01278-.02648-.01876-.079-.02113q-.10946-.00493-.21894-.00936c-.05272-.00212-.06746.00256-.079.01437-.0149.01341-.03627.05639-.03624.36813S8.84573,2.97437,8.86063,2.99071Z" style="fill: #fff"/>
            <path d="M10.69357,3.34028q-.10851-.00835-.217-.01623a.1232.1232,0,0,1-.11838-.082Q10.16,2.84991,9.96177,2.4594l-.01647-.001v.83011Q9.817,3.2806,9.68864,3.27341V2.04756q.12589.00705.25178.01478a.11813.11813,0,0,1,.11843.081q.18093.36092.36181.72318l.01648.00118q0-.38614,0-.77229.12825.0092.25643.01907Z" style="fill: #fff"/>
            <path d="M10.87112,3.35428V2.12843q.13481.01089.26951.02252V3.3768Q11.0059,3.36518,10.87112,3.35428Z" style="fill: #fff"/>
            <path d="M11.96325,2.22911a.28263.28263,0,0,1,.20676.0814c.06556.07188.11315.18924.11315.56577,0,.37477-.04757.48157-.11315.541-.041.03762-.09356.04943-.20676.03766q-.17807-.01845-.3562-.03559a.28182.28182,0,0,1-.20688-.079c-.06572-.07255-.11333-.18888-.1133-.56364,0-.37653.04758-.48438.1133-.54315.04108-.03818.09365-.05093.20688-.04007Q11.78522,2.21067,11.96325,2.22911Zm-.366.94592c.01155.0116.02629.01824.07883.02336q.10916.01066.21828.02181c.05246.00717.06733.00168.07879-.00761.01477-.01425.036-.0558.036-.36577.00009-.31175-.0213-.35774-.036-.37328-.01153-.01344-.02631-.02026-.07879-.02562q-.10912-.01116-.21828-.02181c-.05254-.00513-.06736-.00127-.07883.00988-.0148.01257-.0361.05432-.03612.36606S11.58244,3.15783,11.59724,3.175Z" style="fill: #fff"/>
          </g>
          <path d="M1.26566,6.89621l0,.76041A7.15667,7.15667,0,0,0,1.3667,8.85383L3.62634,4.79168c-.40278.02841-.82226.06284-1.24833.10486Z" style="fill: #fff"/>
          <path d="M3.10133,12.434a9.53682,9.53682,0,0,0,.755.78234l4.73508-8.5199c-.487-.01875-.89081-.02823-1.1714-.033Z" style="fill: #576770"/>
          <path d="M9.01279,4.71424,4.15011,13.47812c.28085.241.5612.45613.83061.64645l5.18533-9.34543c-.29507-.01972-.58094-.03659-.8504-.05031Q9.16058,4.72094,9.01279,4.71424Z" style="fill: #c5203f"/>
          <path d="M4.66145,4.72883c-.18.00917-.36842.02-.56058.03173L3.1735,6.42919H4.28l-.09467.40252H3.40438l-.08287.35235h.54193l-.08753.375H3.234l-.1468.63168h-.509L2.85684,6.999l-1.3609,2.4487a7.00876,7.00876,0,0,0,.47621,1.28388L3.67582,7.66611h.18507l.134-.57415L4.08,6.93878h.19014l.13921-.59261.91552-1.6473C5.117,4.70708,4.89512,4.71693,4.66145,4.72883Z" style="fill: #c2ccd2"/>
          <path d="M5.77968,4.68265,4.018,7.85242h.37332c.21048,0,.2958.04279.343.09319.09.09565.1018.27417.045.6039H4.3107c.03787-.209.02385-.25179.00959-.26679s-.03565-.02262-.12318-.02262h-.1586c-.07328,0-.09934.00492-.11827.02508s-.06147.06295-.15147.448c-.08754.36981-.06393.43275-.04721.45046.014.015.03541.02262.12294.02262h.1586c.07327,0,.09934-.00492.11827-.02508.01672-.01771.045-.048.10647-.272h.47579a1.26532,1.26532,0,0,1-.22253.55865.47649.47649,0,0,1-.3976.14606h-.433c-.21072,0-.2958-.04279-.34326-.0932a.40672.40672,0,0,1-.0956-.21738L2.18917,11.14312a7.9822,7.9822,0,0,0,.65008.97105L4.17111,9.71773A.54351.54351,0,0,0,4.559,9.5414a1.29866,1.29866,0,0,0,.24883-.60688L4.84,8.80215H4.68l.08091-.14558h.10888l.015-.08889c.01131-.06531.019-.12364.025-.17893L6.98284,4.65853C6.93037,4.65868,6.47506,4.66058,5.77968,4.68265Z" style="fill: #90a0a9"/>
          <path d="M.99392,4.53031l.27186-.03862.00077-.00012c1.14219-.144,2.29055-.23,3.25579-.28146,1.43588-.07655,2.46578-.078,2.4662-.078h0s1.03033.00146,2.46621.078c.96455.05141,2.112.13738,3.25338.28117l.00015,3.16534c-.00721,5.33763-5.71838,7.60168-5.72137,7.60287v0H6.98685v0c-.003-.00119-5.714-2.26524-5.72123-7.60287l.00013-2.62254-.27236.27236L.99328,7.657a7.86257,7.86257,0,0,0,2.95661,6.00845,11.4354,11.4354,0,0,0,2.933,1.8486l.10381.03768.09366-.03908a11.4301,11.4301,0,0,0,2.94849-1.85134,7.86128,7.86128,0,0,0,2.95181-6.00468l.00226-3.40521-.00242-.00031-.23585-.02972-.03648-.0044c-.98206-.12271-2.0712-.2166-3.23886-.27879-1.4308-.07628-2.47061-.07842-2.48073-.07842s-1.04994.00214-2.48066.07842c-1.16891.06226-2.25922.15623-3.2421.27917L1.26591,1.6235a52.37365,52.37365,0,0,1,5.721-.35787H6.987a52.37353,52.37353,0,0,1,5.721.35787l.00008,1.80975.27235.27234-.00011-2.32228-.23827-.03A53.18189,53.18189,0,0,0,6.987.99328a53.182,53.182,0,0,0-5.75511.36l-.23827.03" style="fill: #c2ccd2"/>
        </g>
        <g style="clip-path: url(#clip-path)">
          <g>
            <polygon points="11.204 4.575 10.427 5.908 9.308 4.225 9.121 6.51 6.688 6.236 8.415 7.919 6.725 9.768 9.08 9.377 9.649 11.746 10.715 9.455 13.124 10.5 11.792 8.345 14.015 7.008 12.168 6.838 14.292 5.06 11.204 4.575" style="fill: #fff"/>
            <path d="M11.6443,7.00206l2.15843-1.8074s-.57012-.09273-1.165-.18753c-.28759-.04582-.58079-.09211-.81838-.12868-.28684-.04414-.49242-.07408-.50805-.07173l-.87276,1.50064-.97-1.45958L9.31388,6.74447,7.27633,6.515,8.70854,7.911,7.29247,9.46,9.239,9.13689l.4741,1.97163L10.61,9.17992l1.98109.85879-1.09062-1.765,1.8538-1.11436Z"/>
            <g>
              <path d="M11.6443,7.00206l2.15843-1.8074s-.57012-.09273-1.165-.18753L10.46419,7.36428l1.38147.15292-1.00433.60387.59137.95621-1.0742-.46509-.48581,1.0449L9.61614,8.589l-1.05493.1746.76779-.839L8.55268,7.168l1.0933.10818.10093-.8959.55548.85987,1.517-2.36167c-.28684-.04414-.49242-.07408-.50805-.07173l-.87276,1.50064-.97-1.45958L9.31388,6.74447,7.27633,6.515,8.70854,7.911,7.29247,9.46,9.239,9.13689l.4741,1.97163L10.61,9.17992l1.98109.85879-1.09062-1.765,1.8538-1.11436Z" style="fill: #161113"/>
              <path d="M9.96736,7.57224a.33261.33261,0,1,0,.2743.37934A.33048.33048,0,0,0,9.96736,7.57224Z" style="fill: #061922"/>
              <path d="M9.74691,6.38025l-.10093.8959L8.55268,7.168l.77632.7567-.76779.839L9.61614,8.589l.25655,1.06806.48581-1.0449,1.0742.46509-.59137-.95621,1.00433-.60387-1.38147-.15292,2.17357-2.35715c-.28759-.04582-.58079-.09211-.81838-.12868l-1.517,2.36167ZM9.865,8.2295a.33261.33261,0,1,1,.37664-.27792A.33048.33048,0,0,1,9.865,8.2295Z" style="fill: #c2ccd2"/>
            </g>
          </g>
          <path d="M12.70794,5.0185l.00018-.52708-.313-.0384c-.93549-.11262-1.95291-.1918-3.0682-.24854-1.35008-.06877-2.33124-.0707-2.34079-.0707s-.99071.00193-2.34072.0707c-1.11529.05674-2.15515.14262-3.09064.25528l-.22483.02707v.4893l-.00028.04119.25725-.03492c1.07777-.12978,2.16135-.20735,3.07213-.25372,1.35488-.069,2.32668-.07032,2.32668-.07032h.00043c.00041,0,.97221.00132,2.32709.07032.91078.04637,2.0602.12852,3.138.25831Z" style="fill: #161113"/>
        </g>
      </g>
    </g>
  </g>
</svg>
